<?xml version="1.0" encoding="UTF-8"?>
<svg width="1024px" height="1024px" viewBox="0 0 1024 1024" version="1.1" xmlns="http://www.w3.org/2000/svg" xmlns:xlink="http://www.w3.org/1999/xlink">
    <!-- Generator: Sketch 42 (36781) - http://www.bohemiancoding.com/sketch -->
    <title>strobe-airplay-2</title>
    <desc>Created with Sketch.</desc>
    <defs>
        <ellipse id="path-1" cx="194.798328" cy="199" rx="194.798328" ry="199"></ellipse>
        <mask id="mask-2" maskContentUnits="userSpaceOnUse" maskUnits="objectBoundingBox" x="-19.8" y="-19.8" width="429.196656" height="437.6">
            <rect x="-19.8" y="-19.8" width="429.196656" height="437.6" fill="white"></rect>
            <use xlink:href="#path-1" fill="black"></use>
        </mask>
    </defs>
    <g id="Page-1" stroke="none" stroke-width="1" fill="none" fill-rule="evenodd">
        <g id="airply-icon">
            <g id="Group">
                <path d="M781.168,0 C930.134,0 1024,93.866 1024,241.95 L1024,781.175 C1024,930.133 930.134,1024 781.168,1024 L241.946,1024 C93.866,1024 0,930.133 0,781.175 L0,241.95 C0,93.866 93.866,0 241.946,0 L781.168,0 Z" id="Shape" fill="#000000" fill-rule="nonzero"></path>
                <polygon id="Shape" fill="#FFFFFF" fill-rule="nonzero" points="258.314 830 765.686 830 512 537.429"></polygon>
                <polygon id="Shape" fill="#FFFFFF" fill-rule="nonzero" points="364.306 633 194 633 194 274 830 274 830 633 659.694 633 686.99 665 861 665 861 243 163 243 163 665 337.01 665"></polygon>
            </g>
        </g>
        <g id="Group-2-Copy" transform="translate(317.000000, 58.000000)">
            <g id="Oval">
                <use fill="#F57C00" fill-rule="evenodd" xlink:href="#path-1"></use>
                <use stroke="#000000" mask="url(#mask-2)" stroke-width="39.6" xlink:href="#path-1"></use>
            </g>
            <path d="M271.179657,307.208145 L121.461493,307.208145 L121.461493,281.668887 L195.632391,200.769082 C206.337523,188.840507 213.958443,178.874689 218.49538,170.871328 C223.032316,162.867968 225.300751,154.83924 225.300751,146.784903 C225.300751,136.181725 222.318652,127.617748 216.354364,121.092715 C210.390076,114.567682 202.361348,111.305215 192.267938,111.305215 C180.237409,111.305215 170.908792,114.975491 164.281805,122.316153 C157.654819,129.656814 154.341376,139.699097 154.341376,152.443301 L117.179462,152.443301 C117.179462,138.883468 120.263513,126.674703 126.431708,115.816641 C132.599903,104.958579 141.41876,96.5220421 152.888544,90.5067776 C164.358328,84.4915132 177.586613,81.483926 192.573798,81.483926 C214.187968,81.483926 231.239458,86.9128757 243.728778,97.7709378 C256.218098,108.629 262.462665,123.641447 262.462665,142.808731 C262.462665,153.921677 259.327637,165.569705 253.057489,177.753164 C246.78734,189.936624 236.515666,203.776622 222.242157,219.273574 L167.799188,277.539785 L271.179657,277.539785 L271.179657,307.208145 Z" id="2" fill="#FFFFFF"></path>
        </g>
    </g>
</svg>