<?xml version="1.0" encoding="UTF-8"?>
<svg width="1024px" height="1024px" viewBox="0 0 1024 1024" version="1.1" xmlns="http://www.w3.org/2000/svg" xmlns:xlink="http://www.w3.org/1999/xlink">
    <!-- Generator: Sketch 42 (36781) - http://www.bohemiancoding.com/sketch -->
    <title>strobe-airplay</title>
    <desc>Created with Sketch.</desc>
    <defs></defs>
    <g id="Page-1" stroke="none" stroke-width="1" fill="none" fill-rule="evenodd">
        <g id="airply-icon">
            <g id="Group">
                <path d="M781.168,0 C930.134,0 1024,93.866 1024,241.95 L1024,781.175 C1024,930.133 930.134,1024 781.168,1024 L241.946,1024 C93.866,1024 0,930.133 0,781.175 L0,241.95 C0,93.866 93.866,0 241.946,0 L781.168,0 Z" id="Shape" fill="#000000" fill-rule="nonzero"></path>
                <polygon id="Shape" fill="#FFFFFF" fill-rule="nonzero" points="258.314 830 765.686 830 512 537.429"></polygon>
                <polygon id="Shape" fill="#FFFFFF" fill-rule="nonzero" points="364.306 633 194 633 194 274 830 274 830 633 659.694 633 686.99 665 861 665 861 243 163 243 163 665 337.01 665"></polygon>
            </g>
        </g>
    </g>
</svg>