<?xml version="1.0" encoding="UTF-8"?>
<svg width="205px" height="117px" viewBox="0 0 205 117" version="1.1" xmlns="http://www.w3.org/2000/svg" xmlns:xlink="http://www.w3.org/1999/xlink">
    <!-- Generator: Sketch 41.2 (35397) - http://www.bohemiancoding.com/sketch -->
    <title>radio1xtra.small</title>
    <desc>Created with Sketch.</desc>
    <defs></defs>
    <g id="Page-1" stroke="none" stroke-width="1" fill="none" fill-rule="evenodd">
        <g id="radio1xtra.small" fill="#000000">
            <polygon id="path4394" points="67.2448921 83.8010023 83.8082972 58.5276731 67.2448921 33.3454458"></polygon>
            <path d="M84.3549561,94.3512996 L46.7638194,94.3512996 L46.7638194,44.7521863 L37.6165774,44.7521863 L50.7907814,24.7631019 L85.5393293,24.7631019 C85.5393293,24.7631019 92.6093234,35.4956033 96.3083088,41.1078714 C99.6246003,36.0604546 105.655947,26.8767812 106.840367,25.0728861 C96.3083088,9.9307288 78.7973585,4.43003501e-09 58.9540467,4.43003501e-09 C26.7383035,4.43003501e-09 0.626816763,26.1297258 0.626816763,58.345469 C0.626816763,90.5794046 26.7383035,116.690938 58.9540467,116.690938 C78.669825,116.690938 96.0896266,106.887743 106.639924,91.891358 C104.107119,87.9919761 99.132612,80.3935621 96.3083088,76.0568158 C92.3724488,82.0699703 84.3549561,94.3512996 84.3549561,94.3512996" id="path4396"></path>
            <path d="M116.133382,69.7885943 C116.880437,66.0896089 117.263084,62.26309 117.263084,58.345469 C117.263084,54.5553816 116.898769,50.8563962 116.206245,47.2667519 C116.187586,47.2854108 108.790081,58.5276731 108.790081,58.5276731 C108.790081,58.5276731 112.598361,64.3768159 116.133382,69.7885943" id="path4398"></path>
            <path d="M163.126781,49.2711367 C159.901591,49.2711367 156.731026,51.1843728 154.908892,55.2113349 L154.908892,50.2915448 L146.472273,50.2915448 L146.472273,89.2310198 L156.220845,89.2310198 L156.220845,73.4693873 C156.220845,71.3556613 156.220845,68.9321978 156.311807,66.8002794 C156.51239,61.0787168 158.717031,57.8534807 161.50495,57.8534807 C162.54355,57.8534807 163.636868,58.2905652 164.365731,58.6552066 L167.372285,50.2915448 C166.424786,49.8544603 165.167457,49.2711367 163.126641,49.2711367" id="path4400"></path>
            <path d="M195.251422,50.2915448 L195.251422,54.5553816 C191.734687,51.0386002 187.689486,49.2711367 183.006524,49.2711367 C172.875352,49.2711367 164.675655,57.6347984 164.675655,69.8068333 C164.675655,81.760186 173.31267,90.269667 183.225206,90.269667 C188.145043,90.269667 191.80755,88.5021568 195.251422,85.1311948 L195.251422,89.2492589 L204.999993,89.2492589 L204.999993,50.2915448 L195.251422,50.2915448 Z M184.974477,81.3228683 C178.88846,81.3228683 174.497043,76.4030315 174.497043,69.7339237 C174.497043,63.3564077 178.524052,58.2178888 184.974477,58.2178888 C191.133358,58.2178888 195.68874,62.8461803 195.68874,69.6610608 C195.68874,76.7674864 190.987585,81.3228683 184.974477,81.3228683 L184.974477,81.3228683 Z" id="path4402"></path>
            <polygon id="path4404" points="137.325032 35.932921 127.576507 35.932921 127.576507 50.2915448 122.602 50.2915448 122.602 58.6552066 127.576507 58.6552066 127.576507 89.2310198 137.325032 89.2310198 137.325032 58.6552066 143.119504 58.6552066 143.119504 50.2915448 137.325032 50.2915448"></polygon>
        </g>
    </g>
</svg>