<?xml version="1.0" encoding="UTF-8"?>
<svg width="33px" height="20px" viewBox="0 0 33 20" version="1.1" xmlns="http://www.w3.org/2000/svg" xmlns:xlink="http://www.w3.org/1999/xlink">
    <!-- Generator: Sketch 41.2 (35397) - http://www.bohemiancoding.com/sketch -->
    <title>radio6.small</title>
    <desc>Created with Sketch.</desc>
    <defs></defs>
    <g id="Page-1" stroke="none" stroke-width="1" fill="none" fill-rule="evenodd">
        <g id="radio6.small" fill="#2B7A82">
            <path d="M23.344,13.103 C23.339,13.276 23.332,13.435 23.129,13.558 C22.986,13.638 22.858,13.638 22.803,13.638 C22.612,13.638 22.483,13.552 22.427,13.479 C22.354,13.38 22.354,13.238 22.354,13.097 L22.354,11.101 L21.399,11.101 L21.399,13.122 C21.399,13.645 21.429,13.836 21.595,14.07 C21.819,14.379 22.205,14.409 22.415,14.409 C22.624,14.409 22.834,14.359 23.023,14.262 C23.197,14.176 23.252,14.115 23.343,14.008 L23.343,14.317 L24.292,14.317 L24.292,11.102 L23.343,11.102 L23.343,13.103 L23.344,13.103 Z" id="Shape"></path>
            <path d="M26.294,12.215 C25.986,12.159 25.781,12.122 25.781,11.938 C25.781,11.846 25.869,11.699 26.238,11.699 C26.46,11.699 26.744,11.785 27.045,12.018 L27.63,11.477 C27.408,11.322 26.953,10.996 26.195,10.996 C25.297,10.996 24.84,11.545 24.84,12.074 C24.84,12.314 24.94,12.537 25.081,12.678 C25.222,12.821 25.42,12.9 25.615,12.955 C25.758,12.998 25.906,13.029 26.048,13.055 C26.233,13.084 26.453,13.104 26.596,13.178 C26.651,13.209 26.718,13.25 26.718,13.362 C26.718,13.602 26.374,13.676 26.147,13.676 C25.79,13.676 25.469,13.485 25.21,13.232 L24.613,13.774 C24.816,13.966 25.277,14.397 26.171,14.397 C26.929,14.397 27.692,14.028 27.692,13.271 C27.692,12.505 26.94,12.331 26.294,12.215" id="Shape"></path>
            <rect id="Rectangle-path" x="27.959" y="11.095" width="0.937" height="3.221"></rect>
            <rect id="Rectangle-path" x="27.959" y="9.962" width="0.937" height="0.731"></rect>
            <path d="M31.418,13.447 C31.219,13.668 30.985,13.668 30.937,13.668 C30.432,13.668 30.223,13.134 30.223,12.708 C30.223,12.32 30.395,11.735 30.906,11.735 C31.053,11.735 31.171,11.784 31.263,11.846 C31.418,11.956 31.479,12.067 31.534,12.184 L32.237,11.784 C31.831,11.112 31.219,11.014 30.863,11.014 C29.792,11.014 29.251,11.801 29.251,12.739 C29.251,14.05 30.23,14.421 30.845,14.421 C31.208,14.421 31.522,14.302 31.769,14.132 C32.028,13.946 32.157,13.743 32.274,13.558 L31.561,13.189 C31.528,13.28 31.497,13.354 31.418,13.447" id="Shape"></path>
            <path d="M19.083,11.567 C18.911,11.388 18.878,11.02 18.237,11.02 C17.682,11.02 17.435,11.309 17.325,11.438 L17.325,11.106 L16.388,11.106 L16.388,14.315 L17.325,14.315 L17.325,12.485 C17.325,12.264 17.331,12.005 17.54,11.864 C17.626,11.808 17.725,11.79 17.799,11.79 C17.954,11.79 18.095,11.858 18.169,11.956 C18.255,12.079 18.261,12.271 18.261,12.413 L18.261,14.315 L19.197,14.315 L19.197,12.565 C19.197,12.214 19.197,12.03 19.377,11.889 C19.469,11.814 19.593,11.789 19.685,11.789 C19.758,11.789 20.011,11.808 20.097,12.078 C20.134,12.201 20.134,12.442 20.134,12.627 L20.134,14.315 L21.071,14.315 L21.071,12.22 C21.071,11.875 21.065,11.655 20.984,11.482 C20.886,11.286 20.616,11.03 20.087,11.02 C19.401,11.011 19.268,11.413 19.083,11.567" id="Shape"></path>
            <path d="M11.262,8.537 C12.42,9.205 12.815,10.684 12.149,11.842 C11.481,13.001 10.001,13.398 8.843,12.728 C7.686,12.062 7.288,10.582 7.957,9.423 C8.625,8.267 10.106,7.869 11.262,8.537 M10.215,19.881 C13.658,19.881 16.809,18.132 18.645,15.205 C18.645,15.204 18.645,15.203 18.647,15.203 L18.647,15.203 L18.647,15.202 C18.657,15.186 18.661,15.169 18.661,15.151 C18.661,15.12 18.645,15.089 18.616,15.072 C18.571,15.044 18.514,15.055 18.485,15.1 C16.843,17.685 13.598,19.356 10.215,19.356 C5.023,19.356 0.799,15.131 0.799,9.94 C0.799,5.038 4.567,1 9.358,0.565 L4.995,8.128 C3.68,10.777 4.63,14.025 7.227,15.525 C9.93,17.087 13.384,16.161 14.946,13.458 C16.508,10.755 15.581,7.298 12.879,5.736 C12.049,5.258 11.15,5.017 10.257,4.986 L12.65,0.836 C16.73,1.899 19.92,5.565 19.92,9.913 C19.92,9.966 19.962,10.008 20.016,10.008 C20.067,10.008 20.11,9.966 20.11,9.913 L20.11,9.858 C20.108,4.33 15.667,0 10.215,0 C4.734,0 0.274,4.459 0.274,9.94 C0.274,15.421 4.734,19.881 10.215,19.881" id="Shape"></path>
        </g>
    </g>
</svg>