<?xml version="1.0" encoding="UTF-8"?>
<svg width="131px" height="84px" viewBox="0 0 131 84" version="1.1" xmlns="http://www.w3.org/2000/svg" xmlns:xlink="http://www.w3.org/1999/xlink">
    <!-- Generator: Sketch 41.2 (35397) - http://www.bohemiancoding.com/sketch -->
    <title>radio4extra.small</title>
    <desc>Created with Sketch.</desc>
    <defs></defs>
    <g id="Page-1" stroke="none" stroke-width="1" fill="none" fill-rule="evenodd">
        <g id="radio4extra.large">
            <path d="M41.4711143,0.892567419 C18.7343752,0.892567419 0.30434983,19.3305609 0.30434983,42.071284 C0.30434983,64.8159911 18.7303912,83.2500005 41.4711143,83.2500005 C64.1998854,83.2500005 82.6259268,64.8159911 82.6259268,42.071284 C82.6259268,19.3305609 64.1998854,0.892567419 41.4711143,0.892567419 L41.4711143,0.892567419 Z M63.8054685,58.4296247 L55.4310817,58.4296247 L55.4549858,69.0350565 L40.4591761,69.0509926 L40.435272,59.5092911 C40.435272,59.5092911 40.419336,58.4575128 39.1603891,58.4136887 L17.714469,58.4296247 L17.722437,49.6289489 C17.722437,48.3540661 18.3519104,46.4616618 19.1248081,45.4337875 L42.0567637,14.6812224 C42.8256774,13.6533481 44.4989611,12.8127222 45.785796,12.8167062 L55.4629538,12.8206902 L55.4470177,46.087165 L63.8253886,46.0632609 L63.8054685,58.4296247 L63.8054685,58.4296247 Z" id="path3062" fill="#853F98"></path>
            <path d="M41.7221069,36.7924721 C38.4711556,36.8602002 35.8695978,39.5613583 35.9492779,42.8162936 C36.0249741,45.640956 38.1364988,47.9636332 40.893433,48.4576503 L43.0129258,48.8361312 C42.4591486,52.5850836 41.0607614,55.3938099 37.9054263,57.7204711 C42.1563639,55.8280669 45.4272352,51.7524257 46.9292066,47.441728 C48.435162,43.1190783 47.5825841,36.6729518 41.7221069,36.7924721" id="path3064" fill="#853F98"></path>
            <polygon id="path3068" fill="#853F98" points="72.3264985 13.3633816 79.5396195 13.3818678 82.8977554 19.0556078 86.4215077 13.3976162 91.6428413 13.3634087 85.5768372 22.3055645 91.9795493 31.7953439 86.7980071 31.7953439 82.8949906 25.4213585 79.0317654 31.7953439 76.1213087 31.2532282 72.3264985 13.3634087"></polygon>
            <path d="M70.1580355,13.0653915 C62.7011251,13.0653915 60.3999522,19.222162 60.3999522,22.5862991 C60.3999522,28.2316322 64.6669452,32.3443825 70.1580355,32.3443825 C77.4027618,32.3443825 79.0351808,25.8389936 79.0351808,25.8389936 L73.9528457,25.8389936 C73.9528457,25.8389936 72.5438869,28.0074565 70.0225066,28.0074565 C66.38697,28.0074565 65.8211096,24.7547621 65.8211096,24.7547621 L79.3740031,24.7547621 L79.3740031,22.5862991 C79.3740031,18.802418 77.0270756,13.0653915 70.1580355,13.0653915 Z M70.0225066,17.1312595 C73.5629561,17.1312595 74.2239036,20.4178362 74.2239036,20.4178362 L65.8211096,20.3839539 C65.8211096,20.3839539 66.38697,17.1312595 70.0225066,17.1312595 Z" id="path3066" fill="#FFFFFF"></path>
            <path d="M102.142864,27.4583909 L102.142864,31.7953168 L100.516517,31.7953168 C96.806331,31.7953168 94.0111281,28.6967621 94.0111281,25.8320437 L94.0111281,17.7003076 L91.8426651,17.7003076 L91.8426651,13.3633816 L94.0111281,13.3633816 L94.0111281,9.02645572 L98.348054,9.02645572 L98.348054,13.3633816 L101.600748,13.3633816 L101.600748,17.7003076 L98.348054,17.7003076 L98.348054,24.2056964 C98.348054,26.3151067 99.1909898,27.4583963 101.058633,27.4583909 L102.142864,27.4583909 Z" id="path3070" fill="#853F98"></path>
            <path d="M103.227096,31.7953168 L103.227096,13.3633816 L107.564022,13.3633816 L107.564022,15.2635407 C107.564022,15.2635407 108.5388,13.123799 113.527295,13.123799 L113.527295,17.7003076 L111.324624,17.7003076 C109.023993,17.7003076 107.564022,20.0254474 107.564022,21.90583 L107.564022,31.7953168 L103.227096,31.7953168 Z" id="path3072" fill="#853F98"></path>
            <path d="M122.641616,13.0653915 C118.348113,13.0653915 113.967764,15.5681447 113.967764,19.2997225 L118.406336,19.3336047 C118.406336,18.2479149 119.972671,16.8263194 122.607733,16.8263194 C124.514029,16.8263194 125.995957,17.735789 125.995957,18.5881956 C125.995957,19.7924894 124.443337,20.4065439 120.507035,20.8583052 C117.648621,21.1229878 113.222355,21.9657989 113.222355,26.1100515 C113.222355,28.4827782 115.01009,32.1749713 120.608682,32.1749713 C124.842985,32.1749713 126.538072,29.4982748 126.538072,29.4982748 C126.538072,30.938427 126.707484,31.8022667 126.707484,31.8022667 L130.874998,31.8022667 C130.874998,31.8022667 130.332883,29.9251747 130.332883,28.2785144 L130.332883,18.7237245 C130.332883,16.312025 128.039896,13.0653915 122.641616,13.0653915 Z M125.995957,23.1961793 L125.995957,24.7547621 C125.995957,25.9844974 125.025299,28.0074565 121.218562,28.0074565 C118.544955,28.0074565 117.864221,26.9774637 117.864221,26.1100515 C117.864221,24.6004868 120.021408,24.3707653 121.354091,24.1787641 C123.025,24.0206452 124.122838,23.8204256 125.995957,23.1961793 Z" id="path3074" fill="#853F98"></path>
        </g>
    </g>
</svg>