<?xml version="1.0" encoding="UTF-8"?>
<svg width="42px" height="42px" viewBox="0 0 42 42" version="1.1" xmlns="http://www.w3.org/2000/svg" xmlns:xlink="http://www.w3.org/1999/xlink">
    <!-- Generator: Sketch 41.2 (35397) - http://www.bohemiancoding.com/sketch -->
    <title>Untitled 3</title>
    <desc>Created with Sketch.</desc>
    <defs></defs>
    <g id="Page-1" stroke="none" stroke-width="1" fill="none" fill-rule="evenodd">
        <rect id="radio4.large" fill="#FFFFFF" x="0" y="0" width="42" height="42"></rect>
        <g id="radio3.large" transform="translate(2.000000, 11.000000)">
            <rect id="Rectangle-path" stroke="#FFFFFF" fill="#FFFFFF" x="21.266" y="3.113" width="12.063" height="14.625"></rect>
            <path d="M12.356,1.192 C12.338,1.188 12.318,1.186 12.3,1.182 L12.277,1.179 C12.245,1.174 12.213,1.171 12.179,1.168 C12.157,1.165 12.134,1.164 12.112,1.163 C12.071,1.16 12.033,1.159 11.995,1.159 L11.95,1.159 C11.918,1.16 11.887,1.162 11.857,1.164 C11.84,1.165 11.823,1.166 11.806,1.168 C11.78,1.17 11.756,1.172 11.731,1.176 L11.711,1.178 L11.687,1.182 L11.66,1.187 C11.648,1.188 11.636,1.19 11.625,1.193 C11.607,1.195 11.591,1.199 11.575,1.202 C11.475,1.224 11.382,1.251 11.298,1.284 C11.254,1.302 11.211,1.32 11.172,1.34 C11.137,1.357 11.106,1.374 11.074,1.392 C11.045,1.409 11.016,1.426 10.988,1.445 C10.972,1.456 10.956,1.466 10.94,1.477 C10.928,1.487 10.915,1.496 10.902,1.505 C10.876,1.526 10.85,1.548 10.825,1.569 C10.803,1.589 10.781,1.609 10.761,1.629 C10.743,1.646 10.725,1.664 10.709,1.684 C10.691,1.702 10.675,1.722 10.659,1.742 C10.64,1.763 10.625,1.785 10.609,1.807 C10.595,1.824 10.584,1.842 10.572,1.86 C10.564,1.872 10.557,1.883 10.55,1.896 C10.505,1.967 10.468,2.044 10.435,2.126 C10.396,2.228 10.368,2.339 10.352,2.455 C10.348,2.492 10.344,2.529 10.341,2.568 C10.339,2.597 10.338,2.627 10.338,2.657 C10.338,2.68 10.338,2.702 10.339,2.724 C10.341,2.747 10.344,2.769 10.346,2.792 L10.348,2.808 C10.351,2.835 10.356,2.862 10.36,2.887 C10.363,2.898 10.365,2.907 10.367,2.918 C10.371,2.939 10.377,2.96 10.381,2.982 C10.389,3.009 10.397,3.035 10.406,3.062 C10.417,3.094 10.429,3.125 10.441,3.156 C10.461,3.204 10.484,3.251 10.507,3.295 C10.522,3.32 10.536,3.345 10.551,3.37 C10.563,3.389 10.575,3.407 10.587,3.425 C10.604,3.45 10.621,3.472 10.638,3.494 C10.655,3.517 10.675,3.538 10.693,3.559 C10.715,3.584 10.737,3.609 10.759,3.63 L10.77,3.642 C10.789,3.659 10.808,3.679 10.831,3.698 C10.846,3.71 10.862,3.724 10.88,3.738 C10.895,3.75 10.913,3.764 10.93,3.776 C10.952,3.792 10.973,3.807 10.997,3.822 C11.024,3.837 11.05,3.854 11.077,3.87 C11.133,3.901 11.194,3.931 11.262,3.959 C11.287,3.969 11.314,3.978 11.341,3.987 C11.367,3.997 11.395,4.005 11.423,4.013 C11.472,4.026 11.523,4.039 11.576,4.05 C11.619,4.058 11.665,4.065 11.711,4.07 C11.756,4.076 11.804,4.081 11.853,4.083 C11.878,4.085 11.902,4.085 11.926,4.086 L11.961,4.086 C12.049,4.086 12.131,4.082 12.207,4.076 L12.222,4.075 C12.252,4.073 12.281,4.069 12.309,4.065 C12.353,4.061 12.394,4.054 12.433,4.047 C12.458,4.043 12.482,4.037 12.505,4.033 C12.542,4.025 12.577,4.016 12.609,4.008 C12.634,4.002 12.657,3.995 12.68,3.987 C12.707,3.98 12.732,3.971 12.758,3.962 L12.782,3.954 C12.794,3.95 12.81,3.944 12.829,3.937 C12.854,3.927 12.885,3.916 12.919,3.899 C12.941,3.89 12.963,3.88 12.987,3.87 C13.006,3.86 13.028,3.849 13.051,3.84 C13.059,3.835 13.069,3.83 13.079,3.827 L13.079,3.285 C13.072,3.289 13.065,3.294 13.059,3.297 L13.022,3.319 C12.985,3.342 12.949,3.363 12.914,3.383 C12.875,3.403 12.835,3.423 12.797,3.442 C12.731,3.474 12.666,3.5 12.605,3.522 C12.487,3.564 12.379,3.59 12.284,3.608 C12.272,3.61 12.261,3.612 12.25,3.613 C12.223,3.617 12.198,3.621 12.174,3.623 C12.137,3.627 12.101,3.629 12.071,3.631 C12.049,3.631 12.031,3.633 12.013,3.633 C11.975,3.633 11.935,3.631 11.894,3.628 C11.847,3.625 11.801,3.619 11.751,3.612 C11.673,3.598 11.595,3.578 11.519,3.551 C11.507,3.547 11.496,3.542 11.484,3.537 C11.477,3.535 11.47,3.532 11.462,3.529 C11.45,3.523 11.437,3.518 11.425,3.512 C11.398,3.5 11.372,3.486 11.346,3.472 C11.334,3.464 11.322,3.456 11.308,3.449 C11.296,3.441 11.283,3.433 11.27,3.423 C11.255,3.413 11.239,3.401 11.224,3.39 C11.209,3.377 11.194,3.365 11.181,3.355 L11.163,3.338 L11.155,3.33 L11.149,3.325 L11.142,3.319 C11.118,3.295 11.096,3.27 11.075,3.246 C11.065,3.233 11.054,3.218 11.043,3.205 C11.033,3.192 11.025,3.178 11.016,3.165 C11.007,3.152 10.999,3.139 10.992,3.126 C10.981,3.108 10.971,3.089 10.96,3.069 C10.954,3.054 10.946,3.037 10.94,3.021 C10.928,2.994 10.918,2.967 10.91,2.941 C10.903,2.921 10.898,2.9 10.892,2.88 C10.879,2.825 10.872,2.773 10.867,2.729 C10.865,2.712 10.865,2.696 10.863,2.681 C10.862,2.66 10.862,2.642 10.862,2.627 L10.862,2.593 C10.863,2.562 10.867,2.522 10.873,2.478 C10.877,2.451 10.882,2.422 10.89,2.391 C10.894,2.371 10.9,2.351 10.906,2.33 C10.913,2.31 10.919,2.291 10.928,2.27 C10.932,2.257 10.937,2.244 10.944,2.231 C10.952,2.212 10.96,2.194 10.97,2.176 C10.977,2.162 10.985,2.147 10.993,2.134 C11.011,2.103 11.031,2.073 11.054,2.042 C11.062,2.031 11.07,2.02 11.079,2.009 C11.091,1.996 11.103,1.981 11.115,1.968 C11.122,1.962 11.129,1.954 11.135,1.947 C11.234,1.849 11.346,1.774 11.46,1.722 C11.479,1.714 11.497,1.706 11.515,1.699 C11.534,1.692 11.551,1.685 11.57,1.679 C11.589,1.672 11.61,1.667 11.63,1.661 C11.649,1.655 11.669,1.651 11.687,1.646 C11.707,1.641 11.726,1.638 11.744,1.634 C11.765,1.631 11.786,1.628 11.807,1.625 C11.828,1.622 11.848,1.62 11.869,1.619 C11.909,1.615 11.947,1.613 11.984,1.613 C11.998,1.613 12.01,1.613 12.023,1.614 C12.051,1.614 12.077,1.615 12.104,1.616 C12.123,1.619 12.141,1.619 12.159,1.62 C12.192,1.624 12.226,1.628 12.257,1.633 C12.284,1.637 12.312,1.641 12.337,1.646 C12.375,1.655 12.41,1.663 12.443,1.672 C12.463,1.676 12.482,1.682 12.499,1.687 C12.525,1.696 12.548,1.702 12.565,1.708 C12.595,1.719 12.612,1.724 12.612,1.724 C12.638,1.734 12.665,1.745 12.69,1.755 C12.725,1.77 12.758,1.783 12.789,1.798 C12.815,1.81 12.839,1.822 12.863,1.833 C12.882,1.843 12.901,1.853 12.917,1.861 C12.947,1.876 12.972,1.89 12.992,1.901 L13.048,1.931 L13.048,1.4 C13.048,1.4 13.014,1.387 12.958,1.365 C12.932,1.356 12.902,1.344 12.867,1.333 C12.849,1.326 12.829,1.319 12.808,1.311 C12.791,1.306 12.774,1.3 12.756,1.295 C12.736,1.288 12.716,1.28 12.694,1.274 C12.678,1.27 12.662,1.264 12.645,1.259 L12.631,1.255 C12.615,1.251 12.599,1.247 12.584,1.242 C12.564,1.238 12.544,1.232 12.525,1.226 C12.512,1.224 12.499,1.222 12.486,1.218 C12.465,1.213 12.444,1.208 12.422,1.204 C12.4,1.2 12.379,1.195 12.356,1.192 L12.356,1.192 Z M9.703,0.64 L13.914,0.64 L13.914,4.603 L9.703,4.603 L9.703,0.64 Z" id="Shape" fill="#000000"></path>
            <path d="M6.468,2.831 L6.468,3.609 L6.973,3.609 C6.973,3.609 6.984,3.608 6.999,3.608 C7.016,3.608 7.041,3.606 7.071,3.604 C7.124,3.599 7.197,3.589 7.268,3.565 C7.331,3.544 7.392,3.512 7.44,3.465 C7.458,3.446 7.473,3.427 7.486,3.408 C7.525,3.345 7.535,3.282 7.537,3.247 C7.538,3.23 7.538,3.222 7.538,3.222 L7.538,3.203 C7.538,3.188 7.536,3.159 7.528,3.127 C7.518,3.09 7.501,3.048 7.469,3.008 C7.462,3.001 7.456,2.994 7.449,2.987 C7.435,2.973 7.42,2.959 7.404,2.947 C7.376,2.927 7.344,2.909 7.31,2.895 C7.264,2.874 7.214,2.86 7.157,2.849 C7.13,2.844 7.098,2.839 7.068,2.837 C7.048,2.834 7.03,2.834 7.01,2.832 C6.992,2.831 6.974,2.831 6.956,2.831 L6.468,2.831 Z" id="Shape" fill="#000000"></path>
            <path d="M6.468,1.646 L6.468,2.384 L6.712,2.384 L6.75,2.384 C6.768,2.383 6.787,2.383 6.805,2.381 C6.856,2.377 6.926,2.37 6.995,2.351 C7.009,2.347 7.023,2.343 7.035,2.338 C7.09,2.318 7.142,2.291 7.184,2.25 C7.216,2.219 7.237,2.183 7.251,2.148 C7.269,2.106 7.275,2.066 7.278,2.037 C7.279,2.011 7.279,1.996 7.279,1.996 L7.279,1.964 C7.278,1.932 7.271,1.88 7.245,1.829 C7.233,1.805 7.216,1.782 7.193,1.76 C7.166,1.733 7.133,1.711 7.097,1.696 C7.028,1.665 6.948,1.653 6.883,1.649 C6.853,1.647 6.827,1.646 6.805,1.646 L6.468,1.646 L6.468,1.646 Z" id="Shape" fill="#000000"></path>
            <path d="M5.956,1.195 L5.956,4.05 L7.031,4.05 C7.031,4.05 7.555,4.063 7.844,3.775 C8.079,3.539 8.063,3.266 8.063,3.266 C8.063,3.266 8.079,2.982 7.861,2.764 C7.675,2.579 7.438,2.528 7.438,2.528 C7.438,2.528 7.545,2.479 7.628,2.396 C7.666,2.358 7.803,2.234 7.803,1.933 C7.803,1.631 7.602,1.456 7.602,1.456 C7.602,1.456 7.381,1.195 6.883,1.195 L5.956,1.195 Z M4.852,0.64 L9.063,0.64 L9.063,4.603 L4.852,4.603 L4.852,0.64 Z" id="Shape" fill="#000000"></path>
            <path d="M1.616,2.831 L1.616,3.609 L2.122,3.609 C2.122,3.609 2.132,3.608 2.148,3.608 C2.165,3.608 2.19,3.606 2.219,3.604 C2.274,3.599 2.346,3.589 2.416,3.565 C2.48,3.544 2.541,3.512 2.589,3.465 C2.607,3.446 2.622,3.427 2.634,3.408 C2.673,3.345 2.683,3.282 2.685,3.247 C2.687,3.23 2.687,3.222 2.687,3.222 L2.687,3.203 C2.685,3.188 2.684,3.159 2.676,3.127 C2.667,3.09 2.649,3.048 2.617,3.008 C2.612,3.001 2.605,2.994 2.598,2.987 C2.583,2.973 2.569,2.959 2.553,2.947 C2.524,2.926 2.493,2.909 2.459,2.895 C2.413,2.874 2.362,2.86 2.306,2.849 C2.278,2.844 2.248,2.839 2.217,2.837 C2.198,2.834 2.178,2.834 2.159,2.832 C2.141,2.831 2.123,2.831 2.105,2.831 L1.616,2.831 Z" id="Shape" fill="#000000"></path>
            <path d="M1.616,1.646 L1.616,2.384 L1.861,2.384 L1.899,2.384 C1.916,2.383 1.936,2.383 1.954,2.381 C2.004,2.377 2.075,2.37 2.144,2.351 C2.158,2.347 2.17,2.343 2.185,2.338 C2.239,2.318 2.291,2.291 2.332,2.25 C2.364,2.219 2.385,2.183 2.4,2.148 C2.417,2.106 2.423,2.066 2.426,2.037 C2.428,2.011 2.428,1.996 2.428,1.996 L2.428,1.964 C2.425,1.932 2.419,1.88 2.394,1.829 C2.382,1.805 2.364,1.782 2.343,1.76 C2.314,1.733 2.281,1.711 2.245,1.696 C2.176,1.665 2.097,1.653 2.03,1.649 C2.002,1.647 1.975,1.646 1.954,1.646 L1.616,1.646 Z" id="Shape" fill="#000000"></path>
            <path d="M1.105,1.195 L1.105,4.05 L2.179,4.05 C2.179,4.05 2.703,4.063 2.992,3.775 C3.227,3.539 3.211,3.266 3.211,3.266 C3.211,3.266 3.227,2.982 3.009,2.764 C2.823,2.579 2.587,2.528 2.587,2.528 C2.587,2.528 2.694,2.479 2.776,2.396 C2.815,2.358 2.952,2.234 2.952,1.933 C2.952,1.631 2.75,1.456 2.75,1.456 C2.75,1.456 2.53,1.195 2.032,1.195 L1.105,1.195 Z M0,0.64 L4.211,0.64 L4.211,4.603 L0,4.603 L0,0.64 Z" id="Shape" fill="#000000"></path>
            <path d="M0,5.584 L0,8.86 L0.47,8.86 L0.47,7.438 L0.667,7.438 C0.908,7.438 1.104,7.515 1.537,8.188 L1.969,8.86 L2.531,8.86 C2.305,8.549 2.224,8.438 2.083,8.211 C1.834,7.804 1.652,7.501 1.354,7.305 C1.704,7.164 1.902,6.881 1.902,6.502 C1.902,5.935 1.489,5.584 0.826,5.584 L0,5.584 L0,5.584 Z M0.47,5.988 L0.774,5.988 C1.229,5.988 1.412,6.175 1.416,6.483 C1.421,6.757 1.277,7.016 0.774,7.016 L0.47,7.016 L0.47,5.988 Z" id="Shape" fill="#000000"></path>
            <path d="M4.242,5.565 L3.911,5.565 L2.504,8.859 L2.984,8.859 L3.398,7.895 L4.79,7.895 L5.227,8.859 L5.707,8.859 L4.242,5.565 Z M4.07,6.286 L4.599,7.472 L3.58,7.472 L4.07,6.286 Z" id="Shape" fill="#000000"></path>
            <path d="M6.098,8.859 L7.375,8.859 C8.456,8.859 9.113,8.063 9.113,7.222 C9.113,6.449 8.581,5.584 7.371,5.584 L6.098,5.584 L6.098,8.859 Z M6.569,6.007 L7.293,6.007 C8.211,6.007 8.629,6.564 8.629,7.222 C8.629,7.626 8.384,8.437 7.318,8.437 L6.569,8.437 L6.569,6.007 Z" id="Shape" fill="#000000"></path>
            <path d="M9.891,8.86 L9.891,5.584" id="Shape" stroke="#000000" stroke-width="0.47"></path>
            <path d="M10.669,7.222 C10.669,8.111 11.347,8.902 12.417,8.902 C13.527,8.902 14.19,8.105 14.19,7.222 C14.19,6.31 13.508,5.541 12.427,5.541 C11.366,5.541 10.669,6.314 10.669,7.222 M11.155,7.222 C11.155,6.501 11.698,5.974 12.428,5.974 C13.163,5.974 13.706,6.501 13.706,7.222 C13.706,7.937 13.163,8.471 12.428,8.471 C11.698,8.471 11.155,7.937 11.155,7.222" id="Shape" fill="#000000"></path>
            <path d="M27.39,0 C21.657,0 17.009,4.65 17.009,10.386 C17.009,16.123 21.657,20.774 27.39,20.774 C33.123,20.774 37.771,16.125 37.771,10.386 C37.771,4.65 33.124,0 27.39,0 M25.131,3.454 C27.181,2.293 31.03,3.058 31.168,5.862 C31.289,8.331 28.24,9.997 26.403,11.003 C26.353,10.953 26,10.602 25.924,10.528 C27.57,9.284 29.41,7.063 28.598,4.857 C28.035,3.338 25.518,3.369 24.858,4.788 C25.488,4.569 26.386,4.536 26.872,5.082 C27.378,5.655 27.079,6.549 26.446,6.875 C25.46,7.383 23.724,6.949 23.643,5.664 C23.618,4.695 24.293,3.871 25.131,3.454 M31.312,16.742 C29.404,18.215 25.717,18.502 23.743,17.064 C22.915,16.46 22.208,15.748 22.233,14.767 C22.304,12.162 26.665,13.269 25.618,15.226 C25.187,15.914 24.148,15.912 23.472,15.656 C24.642,17.357 27.809,17.316 29.146,15.826 C29.817,15.078 29.896,14.084 29.813,13.105 C29.713,11.931 29.147,11.193 28.434,10.334 C28.873,10.019 29.133,9.844 29.555,9.503 C32.641,10.252 34.345,14.404 31.312,16.742 M32.426,7.794 C31.537,7.794 31.535,6.434 32.426,6.434 C33.299,6.434 33.297,7.794 32.426,7.794 M32.426,5.492 C31.537,5.492 31.535,4.133 32.426,4.133 C33.299,4.133 33.297,5.492 32.426,5.492" id="Shape" fill="#E82B2E"></path>
        </g>
    </g>
</svg>