<?xml version="1.0" encoding="UTF-8"?>
<svg width="336px" height="336px" viewBox="0 0 336 336" version="1.1" xmlns="http://www.w3.org/2000/svg" xmlns:xlink="http://www.w3.org/1999/xlink">
    <!-- Generator: Sketch 41.2 (35397) - http://www.bohemiancoding.com/sketch -->
    <title>Untitled 3</title>
    <desc>Created with Sketch.</desc>
    <defs></defs>
    <g id="Page-1" stroke="none" stroke-width="1" fill="none" fill-rule="evenodd">
        <rect id="radio4.large" fill="#FFFFFF" x="0" y="0" width="336" height="336"></rect>
        <g id="radio1xtra.large" transform="translate(16.000000, 110.000000)" fill="#000000">
            <path d="M54.5553768,3.58964429 L78.2434,3.58964429 L78.2434,25.8746121 L54.5553768,25.8746121 L54.5553768,3.58964429 Z M69.4788519,6.70553932 C69.3696974,6.66822153 69.2600764,6.66822153 69.1509219,6.63276964 L69.023575,6.63276964 C68.8411843,6.59545185 68.6774525,6.57819238 68.4769161,6.55999996 C68.3495691,6.54134107 68.2217557,6.54134107 68.1126012,6.54134107 C67.8756333,6.52268218 67.6568578,6.52268218 67.4384088,6.52268218 L67.2014409,6.52268218 C67.0190502,6.52268218 66.837126,6.54134107 66.673021,6.54134107 C66.5638665,6.54134107 66.472438,6.55999996 66.3814759,6.55999996 C66.2359365,6.57865885 66.1081231,6.59731774 65.9625837,6.61457722 L65.8534292,6.61457722 L65.7078899,6.63323611 L65.5623505,6.67055389 C65.4895808,6.67055389 65.4350036,6.68921279 65.3617674,6.70787168 C65.2708053,6.72653057 65.1793767,6.74518946 65.0884146,6.76244894 C64.5235633,6.87160346 63.9951435,7.03580171 63.5213476,7.21819237 C63.2843797,7.32734689 63.0475983,7.41877546 62.8107237,7.52792998 C62.628333,7.61889208 62.4464088,7.72851307 62.2640648,7.81947517 C62.0998666,7.92862969 61.9361348,8.02005826 61.7903155,8.12921278 C61.6993534,8.18379004 61.6079249,8.23836729 61.5169628,8.31160345 C61.4441931,8.3661807 61.3714234,8.40256554 61.2981873,8.4571428 C61.1526479,8.58448974 61.0066421,8.69411073 60.8611027,8.82145767 C60.7519482,8.93061219 60.6241348,9.04023318 60.5149803,9.1493877 C60.4058258,9.25854221 60.3143972,9.34997079 60.2234351,9.47731772 C60.1142806,9.56827982 60.022852,9.67790081 59.9318899,9.78705533 C59.8227354,9.91440227 59.7494992,10.0422157 59.6585371,10.1695626 C59.5857674,10.2605247 59.5129978,10.3519533 59.4397616,10.4611078 C59.4024438,10.5156851 59.3669919,10.5884547 59.3306071,10.6616909 C59.0754468,11.0623906 58.8568112,11.4816559 58.6746071,11.9554518 C58.4558316,12.5203031 58.2920998,13.1580641 58.2188637,13.795825 C58.1815459,14.0146005 58.1642864,14.2147171 58.146094,14.4335859 C58.1274351,14.5977842 58.1274351,14.7797084 58.1274351,14.9437667 L58.1274351,15.3080815 C58.146094,15.4354285 58.1647529,15.5632419 58.1820124,15.6905888 L58.1820124,15.7815509 C58.2006712,15.9457492 58.2365896,16.0912885 58.254782,16.2372944 C58.2734409,16.2918716 58.2734409,16.3464489 58.2920998,16.4014926 C58.3107587,16.5288395 58.3466771,16.6384605 58.3830619,16.7658075 C58.4203797,16.9113468 58.4558316,17.0573527 58.5104089,17.2215509 C58.5649861,17.4039416 58.6377558,17.5676734 58.7109919,17.7499707 C58.8201465,18.0233235 58.9479599,18.2783905 59.0753068,18.5153118 C59.1662689,18.6608512 59.2395051,18.806857 59.3304672,18.9523964 C59.4032368,19.0433585 59.4578141,19.1529795 59.5310502,19.262134 C59.6220123,19.3894809 59.7316333,19.5172943 59.8225954,19.6446413 C59.9135575,19.7719882 60.0231785,19.8816092 60.132333,20.0089561 C60.2414876,20.1544955 60.369301,20.2823089 60.4966479,20.4096558 L60.5512252,20.4642331 C60.6603797,20.5733876 60.7700007,20.6830086 60.8973476,20.7921631 C60.9883097,20.8649328 61.0797383,20.9377025 61.1707004,21.0109386 C61.2616625,21.0837083 61.3530911,21.156478 61.4622456,21.2297141 C61.5895925,21.3206762 61.6992135,21.3939124 61.8265604,21.4848745 C61.9907587,21.5758366 62.136298,21.6672652 62.2823039,21.7582273 C62.5920415,21.9406179 62.9382572,22.1043497 63.3209511,22.2502156 C63.4664905,22.3047929 63.6124963,22.3593701 63.7580356,22.4144138 C63.9222339,22.4689911 64.0677732,22.5235684 64.2317849,22.5599532 C64.5051377,22.6327229 64.7966362,22.7054926 65.0881814,22.7605363 C65.3251493,22.8151136 65.5984088,22.8514984 65.8534759,22.8878832 C66.1086362,22.925201 66.3819423,22.9424605 66.6370094,22.9606529 C66.7825487,22.9606529 66.9285546,22.9606529 67.0559015,22.9793118 L67.2564846,22.9793118 C67.7484263,22.9793118 68.2039831,22.941994 68.6413009,22.9247345 L68.7140706,22.9060756 C68.8964613,22.8874168 69.060193,22.8687579 69.2060123,22.8514984 C69.4611726,22.8328395 69.6798082,22.7969211 69.9166828,22.7423439 C70.0440298,22.723685 70.1718432,22.7050261 70.3173825,22.6695742 C70.5179656,22.6322564 70.7180822,22.5786121 70.9004729,22.5240348 C71.0278198,22.5053759 71.1738257,22.4694576 71.3011726,22.4148803 C71.446712,22.3775625 71.5927178,22.3239182 71.7382572,22.269341 L71.8656041,22.2320232 C71.9383738,22.1947054 72.0298023,22.1774459 72.1207644,22.1410611 C72.2663038,22.0864838 72.4486945,22.0137141 72.6492309,21.9222856 C72.7583854,21.8677083 72.8861988,21.813131 73.0135458,21.7580873 C73.1227003,21.7035101 73.2505137,21.6307404 73.3778606,21.5938891 C73.4324379,21.5565713 73.4870152,21.5393118 73.5420589,21.5211194 L73.5420589,18.4598949 C73.4874816,18.4972127 73.4510968,18.5144722 73.4329044,18.5326646 L73.2141289,18.6600115 C73.0135458,18.7873585 72.8134292,18.8969795 72.6127994,19.0243264 C72.3940239,19.1334809 72.1757149,19.2431019 71.9568461,19.3522564 C71.5925312,19.5346471 71.2279831,19.6801865 70.8817674,19.8079999 C70.207575,20.0449678 69.6062455,20.1905072 69.0595866,20.2817491 C69.0050094,20.2817491 68.9322397,20.300408 68.877196,20.3190669 C68.7316566,20.3377258 68.5856508,20.3563847 68.4401114,20.3736442 C68.2395283,20.3923031 68.0394117,20.410962 67.8752601,20.410962 C67.7479132,20.410962 67.6382922,20.4296209 67.5473301,20.4296209 C67.3285546,20.4296209 67.1102455,20.410962 66.873091,20.3923031 C66.6179307,20.3736442 66.3446712,20.3549853 66.0713651,20.301341 C65.6342805,20.2285713 65.1967295,20.1189503 64.7776508,19.9552185 C64.7048811,19.9365596 64.6321114,19.9179007 64.5770677,19.8824488 C64.5224904,19.8824488 64.4861056,19.86379 64.4497208,19.8451311 C64.3769511,19.8078133 64.3041814,19.7723614 64.2309453,19.754169 C64.0854059,19.6813993 63.9394001,19.6086296 63.7938607,19.517201 C63.721091,19.4798833 63.6665138,19.4262389 63.5750852,19.3898541 C63.5205079,19.3525363 63.4477383,19.298892 63.3745021,19.2443147 C63.28354,19.1897375 63.1921114,19.1169678 63.1193418,19.0619241 C63.0283797,18.9891544 62.9369511,18.9163847 62.8641814,18.861341 L62.7186421,18.7158016 L62.6813243,18.6971427 L62.6440065,18.6598249 C62.5166596,18.5142856 62.3888461,18.3864722 62.2796916,18.2409328 C62.2069219,18.1681631 62.1523447,18.0953935 62.097301,18.0221573 C62.0427237,17.9493876 61.9881464,17.876618 61.9331027,17.7851894 C61.8957849,17.7124197 61.8421406,17.6578424 61.8057558,17.5846063 C61.7511785,17.4754518 61.6784088,17.3658308 61.6233651,17.2566763 C61.5860473,17.1657142 61.5505954,17.0742856 61.5142106,16.9833235 C61.4414409,16.8377841 61.3868636,16.6735859 61.3500123,16.5275801 C61.3126946,16.4184255 61.2772427,16.3088046 61.2408578,16.1814576 C61.1680881,15.8899124 61.1317033,15.5801282 61.0953185,15.3432535 C61.0953185,15.2522914 61.0953185,15.1608629 61.0766596,15.0699008 L61.0766596,14.7601632 L61.0766596,14.5777725 C61.0766596,14.3953818 61.0953185,14.1770728 61.1312368,13.9400116 C61.1498957,13.7758133 61.1858141,13.6120815 61.2221989,13.4480232 C61.2595167,13.3206763 61.2949686,13.2110553 61.313161,13.1019008 C61.3504788,12.9927463 61.3859307,12.8831253 61.440508,12.7557783 C61.4591669,12.6830087 61.4950852,12.610239 61.5314701,12.5370028 C61.5687878,12.4460407 61.6224322,12.3364197 61.6770094,12.2272652 C61.7143272,12.1544955 61.7679715,12.063067 61.8043564,11.9902973 C61.9135109,11.826099 62.0231319,11.6623673 62.1504788,11.4800699 C62.1877966,11.4254926 62.2414409,11.352723 62.2960182,11.2976792 C62.3505954,11.2249095 62.4233651,11.133481 62.4966012,11.0607113 C62.533919,11.0233935 62.5693709,10.9879416 62.6057558,10.9515568 C63.1706537,10.3867055 63.7901756,9.96758011 64.4279365,9.67603492 C64.537091,9.63871714 64.646712,9.58507282 64.7376741,9.54868799 C64.8468286,9.5113702 64.9382572,9.47591831 65.0474117,9.43953347 C65.1565662,9.40221568 65.2661872,9.36676379 65.3935342,9.33037895 C65.4844963,9.31172006 65.6123097,9.27580169 65.7032718,9.25760927 C65.8124263,9.22029149 65.9402397,9.20303201 66.0312018,9.18483959 C66.1403563,9.1661807 66.2681697,9.14752181 66.3773243,9.13026233 C66.5046712,9.11160344 66.6142922,9.11160344 66.7416391,9.09294455 C66.9604146,9.07428566 67.1605312,9.07428566 67.3794,9.07428566 L67.5981756,9.07428566 C67.7623738,9.07428566 67.9079132,9.07428566 68.053919,9.09294455 C68.1630735,9.09294455 68.2726945,9.09294455 68.3636566,9.11160344 C68.5460473,9.13026233 68.7461639,9.14892122 68.9102688,9.18437312 C69.0744671,9.20303201 69.2200064,9.2216909 69.3660123,9.2571428 C69.5847878,9.29446058 69.766712,9.3481049 69.9673417,9.40268216 C70.0764962,9.42134105 70.1679248,9.45725941 70.2770793,9.49364425 C70.4226187,9.53096204 70.5504321,9.56641393 70.6413942,9.60279877 C70.8237849,9.65737603 70.914747,9.69376087 70.914747,9.69376087 C71.0602863,9.74833813 71.2062921,9.82110781 71.3518315,9.85795912 C71.5524146,9.94892122 71.7343388,10.0221574 71.8984904,10.1131195 C72.0440298,10.1676967 72.1900356,10.2404664 72.3173825,10.2955101 C72.426537,10.3500874 72.536158,10.4228571 72.6271201,10.4597084 C72.7913184,10.5506705 72.9368577,10.6239066 73.0460123,10.6784839 L73.3557499,10.8608746 L73.3557499,7.87255972 C73.3557499,7.87255972 73.1733592,7.79979004 72.8455225,7.67197663 C72.6999831,7.61739937 72.5357849,7.56282211 72.3535808,7.48958596 C72.2444263,7.45226817 72.1348053,7.41681628 72.0074583,7.38043144 C71.9164962,7.34311366 71.8250677,7.30766176 71.7159131,7.27127692 C71.6067586,7.23395914 71.4971376,7.19850724 71.3697907,7.1621224 C71.2788286,7.14346351 71.1874,7.10754515 71.0964379,7.08935273 L71.0236682,7.05203494 C70.9327061,7.03337605 70.8412776,7.01471716 70.7503155,6.97926526 C70.641161,6.96060637 70.53154,6.924688 70.4223854,6.88830316 C70.3496158,6.88830316 70.2768461,6.86964427 70.2036099,6.85098538 C70.076263,6.8136676 69.966642,6.79640812 69.8392951,6.76002328 C69.7119481,6.74136439 69.6023271,6.7227055 69.4749802,6.70544602 L69.4788519,6.70553932 Z" id="path4370"></path>
            <path d="M36.3702341,15.9074051 L36.3702341,20.298822 L39.212823,20.298822 C39.212823,20.298822 39.2674002,20.2801631 39.3583623,20.2801631 C39.4493244,20.2801631 39.5953303,20.2801631 39.759062,20.2615042 C40.0687997,20.2241865 40.4697326,20.1705421 40.8706189,20.0427287 C41.2167413,19.9335742 41.5630037,19.7511835 41.8363565,19.4778774 C41.945511,19.3687229 42.0187472,19.2772943 42.0915168,19.1499474 C42.3102923,18.8038249 42.3648696,18.4575626 42.383062,18.2571194 L42.383062,18.1115801 L42.383062,18.0024255 C42.383062,17.9296559 42.383062,17.7654576 42.3284848,17.5835334 C42.2739075,17.3647579 42.1829454,17.12779 42.0005547,16.909341 C41.963237,16.8720232 41.9277851,16.8365713 41.8914002,16.8001865 C41.8186305,16.7092244 41.727202,16.6359882 41.6362399,16.5632185 C41.4720416,16.454064 41.2901174,16.3626355 41.1078201,16.2716734 C40.8526597,16.1625188 40.5611612,16.0710903 40.2513769,16.016513 C40.0871787,15.9978541 39.9234469,15.9619358 39.7411962,15.9437433 C39.6320416,15.9250844 39.5224206,15.9250844 39.4132661,15.9250844 C39.322304,15.9064256 39.212683,15.9064256 39.1217209,15.9064256 L36.3702341,15.9074051 Z" id="path4372"></path>
            <path d="M36.3702341,9.25653638 L36.3702341,13.4110786 L37.736858,13.4110786 C37.736858,13.4110786 37.8278201,13.4110786 37.9556335,13.3924197 C38.064788,13.3924197 38.1562166,13.3924197 38.2653711,13.3737608 C38.5569163,13.355102 38.9395635,13.3191836 39.3404498,13.2095626 C39.4132195,13.1909037 39.4859892,13.1722448 39.5592253,13.1367929 C39.8689629,13.0276384 40.1605081,12.8816326 40.3973827,12.6630436 C40.5797734,12.480653 40.6889279,12.2805364 40.77989,12.0799533 C40.8708521,11.8429853 40.907237,11.606204 40.9254294,11.4604314 L40.9254294,11.2234635 L40.9254294,11.0410728 C40.9254294,10.8586821 40.8881116,10.5673235 40.7430387,10.2757784 C40.670269,10.1484314 40.5788405,10.020618 40.4514935,9.89327107 C40.2872953,9.74773172 40.1053711,9.61991831 39.9048346,9.52895621 C39.5223274,9.36475796 39.0666772,9.29198828 38.7022224,9.27379586 C38.5380242,9.25513697 38.3924848,9.25513697 38.2651379,9.25513697 L36.3702341,9.25653638 Z" id="path4374"></path>
            <path d="M27.2959018,3.58964429 L50.9657325,3.58964429 L50.9657325,25.8746121 L27.2959018,25.8746121 L27.2959018,3.58964429 Z M33.4912137,6.72373174 L33.4912137,22.758717 L39.5407997,22.758717 C39.5407997,22.758717 42.492683,22.8496791 44.1144206,21.2098891 C45.426374,19.8979357 45.3352719,18.3673468 45.3352719,18.3673468 C45.3352719,18.3673468 45.426234,16.7638483 44.2055227,15.542997 C43.148683,14.5043498 41.8367297,14.2128046 41.8367297,14.2128046 C41.8367297,14.2128046 42.4380125,13.9394518 42.8935693,13.4657025 C43.1123448,13.246927 43.877546,12.5546355 43.877546,10.8600349 C43.877546,9.16543434 42.7477967,8.18145767 42.7477967,8.18145767 C42.7477967,8.18145767 41.5087063,6.72373174 38.7025956,6.72373174 L33.4912137,6.72373174 Z" id="path4376"></path>
            <path d="M9.09256663,15.9074051 L9.09256663,20.298822 L11.9351089,20.298822 C11.9351089,20.298822 11.9896861,20.2801631 12.0806482,20.2801631 C12.1898028,20.2801631 12.3176162,20.2801631 12.4813479,20.2615042 C12.7910856,20.2241865 13.1919718,20.1705421 13.5928581,20.0427287 C13.957173,19.9335742 14.2852896,19.7511835 14.5585957,19.4778774 C14.6677503,19.3687229 14.7409864,19.2772943 14.8137561,19.1499474 C15.0325316,18.8038249 15.0871089,18.4575626 15.1053013,18.2571194 C15.1239602,18.1661573 15.1239602,18.1115801 15.1239602,18.1115801 L15.1239602,18.0024255 C15.1053013,17.9296559 15.1053013,17.7654576 15.0511905,17.5835334 C14.9966132,17.3647579 14.9056511,17.12779 14.7232605,16.909341 C14.6859427,16.8720232 14.6504908,16.8365713 14.614106,16.8001865 C14.5413363,16.7092244 14.4499077,16.6359882 14.3589456,16.5632185 C14.1947474,16.454064 14.0310156,16.3626355 13.8305258,16.2716734 C13.5753654,16.1625188 13.2838669,16.0710903 12.9741293,16.016513 C12.809931,15.9978541 12.6461993,15.9619358 12.4639019,15.9437433 C12.3729398,15.9250844 12.2633188,15.9250844 12.1541643,15.9250844 C12.0450098,15.9064256 11.9535812,15.9064256 11.8444267,15.9064256 L9.09256663,15.9074051 Z" id="path4378"></path>
            <path d="M9.09256663,9.25653638 L9.09256663,13.4110786 L10.4773829,13.4110786 C10.4773829,13.4110786 10.568345,13.4110786 10.677966,13.3924197 C10.7871206,13.3924197 10.8967415,13.3924197 10.9877036,13.3737608 C11.2792488,13.355102 11.6800885,13.3191836 12.0627824,13.2095626 C12.135552,13.1909037 12.2083217,13.1722448 12.2815579,13.1367929 C12.5912955,13.0276384 12.9010797,12.8816326 13.1197619,12.6630436 C13.3021526,12.480653 13.4113071,12.2805364 13.5022692,12.0799533 C13.5932313,11.8429853 13.6296162,11.606204 13.6478086,11.4604314 C13.6664675,11.3148921 13.6664675,11.2234635 13.6664675,11.2234635 L13.6664675,11.0410728 C13.6478086,10.8586821 13.6118902,10.5673235 13.4658844,10.2757784 C13.3931147,10.1484314 13.3016861,10.020618 13.1743392,9.89327107 C13.0101409,9.74773172 12.8282167,9.61991831 12.6276803,9.52895621 C12.245173,9.36475796 11.8077153,9.29198828 11.4250681,9.27379586 C11.2608698,9.25513697 11.1153305,9.25513697 10.9879835,9.25513697 L9.09256663,9.25653638 Z" id="path4380"></path>
            <path d="M-4.73662999e-06,3.58964429 L23.669826,3.58964429 L23.669826,25.8746121 L-4.73662999e-06,25.8746121 L-4.73662999e-06,3.58964429 Z M6.21354624,6.72373174 L6.21354624,22.758717 L12.2630856,22.758717 C12.2630856,22.758717 15.2150156,22.8496791 16.8367065,21.2098891 C18.1486599,19.8979357 18.0575578,18.3673468 18.0575578,18.3673468 C18.0575578,18.3673468 18.1485199,16.7638483 16.9278086,15.542997 C15.889208,14.5043498 14.5590156,14.2128046 14.5590156,14.2128046 C14.5590156,14.2128046 15.160345,13.9394518 15.6158552,13.4657025 C15.8346307,13.246927 16.5998319,12.5546355 16.5998319,10.8600349 C16.5998319,9.16543434 15.4700826,8.18145767 15.4700826,8.18145767 C15.4700826,8.18145767 14.2310389,6.72373174 11.4249281,6.72373174 L6.21354624,6.72373174 Z" id="path4382"></path>
            <path d="M2.66033344,33.6552301 L4.35493401,33.6552301 C6.92417014,33.6552301 7.9445783,34.7120697 7.98105643,36.4431484 C7.99971532,37.9737374 7.19752291,39.4314633 4.35493401,39.4314633 L2.66033344,39.4314633 L2.66033344,33.6552301 Z M-4.73662999e-06,31.3957316 L-4.73662999e-06,49.7995565 L2.66033344,49.7995565 L2.66033344,41.8184953 L3.75365121,41.8184953 C5.12022846,41.8184953 6.21354624,42.2555799 8.65524885,46.0276615 L11.0787124,49.7995565 L14.2310389,49.7995565 C12.9737561,48.0502854 12.5181993,47.4307169 11.7164733,46.1552417 C10.3134179,43.8775507 9.29300978,42.1647111 7.61660163,41.0713933 C9.58455496,40.2696674 10.6960652,38.6843613 10.6960652,36.5524429 C10.6960652,33.3636849 8.38189608,31.3957316 4.6464792,31.3957316 L-4.73662999e-06,31.3957316 Z" id="path4384"></path>
            <path d="M22.8862925,35.3315916 L25.8564149,42.0006994 L20.1348056,42.0006994 L22.8862925,35.3315916 Z M23.8520301,31.2864371 L21.9934179,31.2864371 L14.0852663,49.7995565 L16.782036,49.7995565 L19.1143975,44.3877315 L26.931447,44.3877315 L29.3913886,49.7995565 L32.0881583,49.7995565 L23.8520301,31.2864371 Z" id="path4386"></path>
            <path d="M36.935132,33.7645712 L41.0167647,33.7645712 C46.1734293,33.7645712 48.5240299,36.8986586 48.5240299,40.597644 C48.5240299,42.875335 47.1392136,47.4307169 41.1442982,47.4307169 L36.935132,47.4307169 L36.935132,33.7645712 Z M34.2929863,49.7995565 L41.4722749,49.7995565 C47.5582923,49.7995565 51.2390386,45.3170376 51.2390386,40.597644 C51.2390386,36.2608977 48.2507238,31.3957316 41.4540824,31.3957316 L34.2929863,31.3957316 L34.2929863,49.7995565 Z" id="path4388"></path>
            <polygon id="path4390" points="54.3002631 31.3957316 56.9424089 31.3957316 56.9424089 49.7995565 54.3002631 49.7995565"></polygon>
            <path d="M62.7186421,40.597644 C62.7186421,36.5524429 65.7616275,33.5823205 69.8797382,33.5823205 C74.0159948,33.5823205 77.0590268,36.5524429 77.0590268,40.597644 C77.0590268,44.6246061 74.0159948,47.63116 69.8797382,47.63116 C65.7616275,47.63116 62.7186421,44.6246061 62.7186421,40.597644 M59.9853943,40.597644 C59.9853943,45.5903437 63.7937208,50.0546236 69.8250677,50.0546236 C76.0568111,50.0546236 79.7922746,45.5721513 79.7922746,40.597644 C79.7922746,35.4773642 75.9475166,31.1588569 69.8797382,31.1588569 C63.9030619,31.1588569 59.9853943,35.4956033 59.9853943,40.597644" id="path4392"></path>
            <polygon id="path4394" points="162.244892 83.8010023 178.808297 58.5276731 162.244892 33.3454458"></polygon>
            <path d="M179.354956,94.3512996 L141.763819,94.3512996 L141.763819,44.7521863 L132.616577,44.7521863 L145.790781,24.7631019 L180.539329,24.7631019 C180.539329,24.7631019 187.609323,35.4956033 191.308309,41.1078714 C194.6246,36.0604546 200.655947,26.8767812 201.840367,25.0728861 C191.308309,9.9307288 173.797359,4.43003501e-09 153.954047,4.43003501e-09 C121.738303,4.43003501e-09 95.6268168,26.1297258 95.6268168,58.345469 C95.6268168,90.5794046 121.738303,116.690938 153.954047,116.690938 C173.669825,116.690938 191.089627,106.887743 201.639924,91.891358 C199.107119,87.9919761 194.132612,80.3935621 191.308309,76.0568158 C187.372449,82.0699703 179.354956,94.3512996 179.354956,94.3512996" id="path4396"></path>
            <path d="M211.133382,69.7885943 C211.880437,66.0896089 212.263084,62.26309 212.263084,58.345469 C212.263084,54.5553816 211.898769,50.8563962 211.206245,47.2667519 C211.187586,47.2854108 203.790081,58.5276731 203.790081,58.5276731 C203.790081,58.5276731 207.598361,64.3768159 211.133382,69.7885943" id="path4398"></path>
            <path d="M258.126781,49.2711367 C254.901591,49.2711367 251.731026,51.1843728 249.908892,55.2113349 L249.908892,50.2915448 L241.472273,50.2915448 L241.472273,89.2310198 L251.220845,89.2310198 L251.220845,73.4693873 C251.220845,71.3556613 251.220845,68.9321978 251.311807,66.8002794 C251.51239,61.0787168 253.717031,57.8534807 256.50495,57.8534807 C257.54355,57.8534807 258.636868,58.2905652 259.365731,58.6552066 L262.372285,50.2915448 C261.424786,49.8544603 260.167457,49.2711367 258.126641,49.2711367" id="path4400"></path>
            <path d="M290.251422,50.2915448 L290.251422,54.5553816 C286.734687,51.0386002 282.689486,49.2711367 278.006524,49.2711367 C267.875352,49.2711367 259.675655,57.6347984 259.675655,69.8068333 C259.675655,81.760186 268.31267,90.269667 278.225206,90.269667 C283.145043,90.269667 286.80755,88.5021568 290.251422,85.1311948 L290.251422,89.2492589 L299.999993,89.2492589 L299.999993,50.2915448 L290.251422,50.2915448 Z M279.974477,81.3228683 C273.88846,81.3228683 269.497043,76.4030315 269.497043,69.7339237 C269.497043,63.3564077 273.524052,58.2178888 279.974477,58.2178888 C286.133358,58.2178888 290.68874,62.8461803 290.68874,69.6610608 C290.68874,76.7674864 285.987585,81.3228683 279.974477,81.3228683 L279.974477,81.3228683 Z" id="path4402"></path>
            <polygon id="path4404" points="232.325032 35.932921 222.576507 35.932921 222.576507 50.2915448 217.602 50.2915448 217.602 58.6552066 222.576507 58.6552066 222.576507 89.2310198 232.325032 89.2310198 232.325032 58.6552066 238.119504 58.6552066 238.119504 50.2915448 232.325032 50.2915448"></polygon>
        </g>
    </g>
</svg>