<?xml version="1.0" encoding="UTF-8"?>
<svg width="312px" height="312px" viewBox="0 0 312 312" version="1.1" xmlns="http://www.w3.org/2000/svg" xmlns:xlink="http://www.w3.org/1999/xlink">
    <!-- Generator: Sketch 41.2 (35397) - http://www.bohemiancoding.com/sketch -->
    <title>Untitled 3</title>
    <desc>Created with Sketch.</desc>
    <defs></defs>
    <g id="Page-1" stroke="none" stroke-width="1" fill="none" fill-rule="evenodd">
        <rect id="radio4.large" fill="#FFFFFF" x="0" y="0" width="312" height="312"></rect>
        <g id="radio_ulster.large" transform="translate(5.000000, 95.000000)">
            <g id="Page-1">
                <g id="BBC_Radio_Ulster_logo">
                    <g id="g202" transform="translate(0.924833, 0.204410)">
                        <path d="M57.7257945,4.27708195 L82.3005558,4.27708195 L82.3005558,27.4148497 L57.7257945,27.4148497 L57.7257945,4.27708195 Z M73.2083078,7.4994295 C73.1037962,7.47765231 72.9927586,7.46895092 72.8773632,7.43847233 L72.7467273,7.42322711 C72.5594826,7.39709922 72.3765933,7.37750331 72.1762846,7.35790739 C72.0456487,7.34266217 71.9171906,7.33831147 71.7843781,7.3317795 C71.5470565,7.31218359 71.3293297,7.30783289 71.105072,7.30783289 C71.004923,7.30783289 70.9417774,7.31221915 70.8416225,7.31221915 C70.647847,7.31221915 70.4714885,7.33181507 70.3016619,7.33834704 C70.1971504,7.3427333 70.0948225,7.35359226 69.992491,7.35794296 C69.8487912,7.37318818 69.7094468,7.38407084 69.5679247,7.41454943 L69.441643,7.4232034 L69.3066529,7.43844862 L69.1498903,7.46892721 C69.0780386,7.47758118 69.0061905,7.48852313 68.9386954,7.51028846 C68.8428971,7.52335241 68.7449199,7.53859763 68.6491192,7.56472552 C68.0721457,7.68665171 67.5234755,7.84776974 67.0401225,8.04372298 C66.7766742,8.14387199 66.5241122,8.25709442 66.2954991,8.37248983 C66.0951904,8.46393744 65.9144776,8.56408881 65.7294106,8.67077453 C65.5508756,8.76657284 65.3941118,8.87325974 65.2221087,8.97341349 C65.1306611,9.0430839 65.041396,9.1040494 64.9434187,9.1693679 C64.8737483,9.2259744 64.7997201,9.2760489 64.7235153,9.3326625 C64.571107,9.4480567 64.4143444,9.5786926 64.2728223,9.70062 C64.1443641,9.8203696 64.0202602,9.9379416 63.8939786,10.0533358 C63.7938296,10.1534967 63.6849614,10.255821 63.5956939,10.3755707 C63.4890129,10.4822516 63.3932087,10.5932975 63.2995857,10.7152237 C63.1950741,10.8349734 63.1036325,10.961255 63.0100095,11.0984217 C62.9294564,11.19422 62.8684874,11.2943761 62.8009923,11.4010619 C62.7487365,11.4729136 62.7073753,11.5382297 62.6703564,11.6035471 C62.4069081,12.0281134 62.1870047,12.4766287 61.9975834,12.9512719 C61.7667926,13.5521968 61.6013215,14.1966665 61.5098763,14.8694407 C61.4859297,15.0915218 61.4663338,15.3092475 61.4510885,15.5356829 C61.4380246,15.7076872 61.4336739,15.8796902 61.4336739,16.0516945 C61.4336739,16.1866846 61.4336739,16.3173205 61.4380602,16.443601 C61.4511241,16.5764146 61.4663693,16.7026962 61.4816027,16.8442183 L61.485989,16.9400166 C61.5099356,17.0967792 61.5317128,17.2470098 61.5621913,17.3994182 C61.5774366,17.4647379 61.586138,17.5148124 61.5970206,17.5801309 C61.6231485,17.7020583 61.6558084,17.821808 61.679755,17.9480884 C61.7254788,18.104851 61.7712026,18.2616148 61.8299856,18.4205551 C61.8844227,18.6056221 61.9584438,18.7928669 62.0302943,18.9735796 C62.1500439,19.2457376 62.2806786,19.5200721 62.41567,19.7813439 C62.4984043,19.929398 62.587673,20.0730967 62.6704086,20.2211507 C62.7422603,20.3256623 62.8184627,20.4388764 62.8837812,20.5455633 C62.9795795,20.6805535 63.0819122,20.8111894 63.1820659,20.9374698 C63.2822149,21.0789919 63.3932608,21.1943873 63.4999465,21.3250232 C63.6284047,21.4730761 63.7568629,21.610244 63.8896765,21.7343479 L63.9549962,21.801837 C64.0638585,21.9019979 64.1770773,22.0130319 64.303359,22.1349581 C64.3991573,22.2046286 64.4906025,22.2851899 64.5951117,22.3657478 C64.684378,22.4375995 64.7823564,22.5138019 64.8868644,22.5900066 C65.0153238,22.679273 65.1416042,22.7598332 65.2787721,22.8621646 C65.4333582,22.9427177 65.5857665,23.0428774 65.7403514,23.1386769 C66.0712959,23.3150342 66.428366,23.4979247 66.8268056,23.6546873 C66.9683278,23.7156563 67.1229138,23.7657308 67.2862084,23.8158053 C67.4386167,23.8767625 67.5997336,23.9268488 67.7586739,23.9725679 C68.0460723,24.0487703 68.3465348,24.1293305 68.6578834,24.188117 C68.9060913,24.2338408 69.1760715,24.2795647 69.4416976,24.3056925 C69.7116778,24.3405337 69.9838358,24.3644803 70.2712343,24.3818949 C70.4171119,24.3905489 70.558634,24.3905489 70.7001561,24.3971402 L70.9069956,24.3971402 C71.4164752,24.3971402 71.8954726,24.3818949 72.3396337,24.3405337 L72.4310813,24.3296273 C72.6074398,24.3209733 72.7750886,24.3013181 72.9362067,24.2795528 C73.199655,24.2447117 73.4282681,24.2098824 73.6590577,24.1641586 C73.8049341,24.1489134 73.9464562,24.1140841 74.0814463,24.0836055 C74.2991732,24.0378817 74.4907722,23.9878072 74.6932574,23.9377291 C74.8282475,23.9007186 74.9654154,23.8615267 75.1025821,23.8201536 C75.2615224,23.7809618 75.4052222,23.728706 75.5554528,23.6742773 L75.696975,23.6285534 C75.7688266,23.6046068 75.864625,23.5675963 75.9734872,23.5218725 C76.1215413,23.4674354 76.2978998,23.4021228 76.4960308,23.3063233 C76.6266666,23.2605995 76.7573025,23.1952798 76.8944692,23.1386745 C77.0055127,23.0777055 77.1361463,23.0189248 77.2646044,22.9579617 C77.3146789,22.9361845 77.3734667,22.8969927 77.4235447,22.8817593 L77.4235447,19.7203749 C77.3865342,19.7465028 77.3495118,19.7726307 77.3146825,19.7965773 L77.0991333,19.9185047 C76.8835842,20.0600256 76.6767447,20.175421 76.4655498,20.2929929 C76.2369379,20.4127426 76.0083248,20.5324923 75.7884214,20.64571 C75.3986914,20.8155365 75.0198477,20.9722991 74.6649542,21.109467 C73.9704075,21.3511428 73.3455325,21.5035511 72.7903315,21.6037049 C72.7184798,21.6146113 72.6575179,21.6298328 72.5922005,21.6407155 C72.4376145,21.6581301 72.2895604,21.6799073 72.1458617,21.6951407 C71.9281349,21.7212685 71.7300039,21.7299818 71.5471146,21.7343325 C71.4164787,21.7408526 71.3185015,21.7517471 71.2096381,21.7517471 C70.9875581,21.7517471 70.7502365,21.7408407 70.5172692,21.7299699 C70.2429335,21.7060233 69.9685989,21.6755329 69.6790227,21.6298209 C69.2239754,21.549256 68.7667504,21.43169 68.3269424,21.2749262 C68.25074,21.2509796 68.1897757,21.2248517 68.1244572,21.1943731 C68.0787334,21.1813092 68.0395416,21.1660639 67.9894671,21.1399361 C67.9197966,21.1094575 67.8457684,21.085499 67.7739179,21.0484884 C67.6149776,20.9722861 67.4669247,20.8917247 67.3123386,20.8068114 C67.2470189,20.7610876 67.1751708,20.7218958 67.0946129,20.6805309 C67.0184106,20.6304564 66.9465589,20.5847326 66.8681776,20.5281226 C66.7810925,20.4736856 66.6896413,20.3974867 66.6003738,20.3321682 C66.5132888,20.2668485 66.4283696,20.1862918 66.3478117,20.1253287 L66.2498322,20.0295304 L66.1932257,19.9838066 L66.1649165,19.95986 L66.1300754,19.9184987 C65.984199,19.7813309 65.8557408,19.6354545 65.7316369,19.4939324 C65.6684985,19.4198994 65.6118873,19.3328144 65.5422145,19.2522554 C65.4899587,19.1717023 65.4377029,19.099847 65.3941604,19.0192892 C65.3353726,18.9430868 65.2809474,18.8734116 65.2504617,18.7928538 C65.1829726,18.6861728 65.1241801,18.5794812 65.0610393,18.464087 C65.0240287,18.3682887 64.9826556,18.2768422 64.9391131,18.1810427 C64.8737934,18.0242801 64.8171869,17.8588079 64.7714643,17.7129315 C64.7300912,17.601888 64.6974432,17.4690779 64.6647833,17.3536825 C64.5907622,17.0292711 64.5450336,16.7331629 64.5167292,16.4740689 C64.4993146,16.3695573 64.4993146,16.2781156 64.4927826,16.1975566 C64.4906487,16.071275 64.4906487,15.9645893 64.4906487,15.879676 L64.4906487,15.681545 C64.4927826,15.5008323 64.5167766,15.2678661 64.5450858,15.0109486 C64.5755644,14.8498318 64.6038736,14.6821817 64.6517668,14.501469 C64.6800759,14.3795428 64.7127239,14.2685016 64.7410331,14.1422212 C64.7824062,14.0311777 64.8172355,13.9201401 64.8738467,13.7938584 C64.8977933,13.724188 64.9282719,13.6436278 64.9674638,13.567423 C65.0153688,13.4607421 65.0610808,13.3540516 65.1198721,13.2495436 C65.1612452,13.164628 65.2113197,13.0840713 65.2548622,13.0013358 C65.3637245,12.8249773 65.4747656,12.6442645 65.6119335,12.4722603 C65.655476,12.3960579 65.7055505,12.3416244 65.7578099,12.2741293 C65.8231296,12.1979269 65.8928,12.1086582 65.9690048,12.0368077 C66.0038459,11.9976159 66.0452072,11.958424 66.084399,11.9105272 C66.6657279,11.3313748 67.3123754,10.9068085 67.9807953,10.5976376 C68.0853069,10.554095 68.1963445,10.5018393 68.2964982,10.4626474 C68.4118924,10.4169236 68.5120474,10.3820943 68.6252651,10.3407201 C68.7297766,10.3058789 68.8517004,10.279751 68.9736266,10.240571 C69.0781382,10.2057299 69.2022397,10.179602 69.3067477,10.153486 C69.4199607,10.1295394 69.5375374,10.1034115 69.6442231,10.0838156 C69.7596173,10.0642197 69.8771904,10.0489744 70.0034721,10.0272091 C70.1253983,10.0141452 70.2451479,10.0032625 70.3692518,9.992368 C70.5978649,9.972772 70.8199449,9.9575268 71.0376718,9.9575268 C71.1247568,9.9575268 71.1922566,9.9575268 71.2597517,9.9684332 C71.431756,9.9684332 71.5841643,9.9728195 71.7387504,9.9814971 C71.8454313,9.9924035 71.9542995,9.9924035 72.0609852,10.0032743 C72.2547607,10.0228703 72.4550694,10.0489981 72.6336045,10.0838274 C72.7925448,10.0990726 72.9536628,10.1295512 73.1017169,10.1534978 C73.3259745,10.1992216 73.532814,10.2492962 73.724413,10.3059062 C73.8376259,10.3363848 73.9464941,10.3603432 74.0531798,10.3973538 C74.1990562,10.4408963 74.3340464,10.4822694 74.4363778,10.512748 C74.6062044,10.5780677 74.7085358,10.612897 74.7085358,10.612897 C74.8587676,10.6695035 75.0133525,10.7348244 75.1614066,10.7957875 C75.368246,10.8719899 75.5554908,10.9525501 75.7383813,11.0418176 C75.8886119,11.1136693 76.0323117,11.1789855 76.1716561,11.2399486 C76.2826996,11.3052683 76.389383,11.3553428 76.487359,11.4054209 C76.6593633,11.4968685 76.8074173,11.5839559 76.9293435,11.6383882 L77.2428699,11.8147467 L77.2428699,8.72085615 C77.2428699,8.72085615 77.0512709,8.63594051 76.7225041,8.50966124 C76.5722723,8.45740547 76.3980915,8.3964483 76.197784,8.32677195 C76.0867405,8.28104814 75.9735251,8.23968689 75.845067,8.20049031 C75.7470874,8.17001173 75.6512903,8.1308199 75.5467823,8.10469201 C75.4248549,8.0589682 75.3138149,8.01977637 75.1810025,7.97405612 C75.0895549,7.9588109 74.998112,7.92398162 74.8957806,7.89350303 L74.8086955,7.87390712 C74.7237799,7.84777923 74.6323382,7.82600203 74.5408929,7.79117275 C74.4254987,7.77157684 74.3035713,7.7367357 74.1990621,7.69972514 C74.1228597,7.69107117 74.0422995,7.67141598 73.966096,7.66053331 C73.8441686,7.63005472 73.7244189,7.59521359 73.5981385,7.5690857 C73.4718568,7.54948978 73.3455752,7.52336189 73.2084085,7.49941528 L73.2083078,7.4994295 Z" id="path3128" fill="#000000"></path>
                        <g id="g3130" transform="translate(42.338042, 19.602899) scale(1, -1) translate(-42.338042, -19.602899) translate(38.838042, 16.602899)" fill="#000000">
                            <path d="M0,5.53178739 L0,0.98784063 L2.94801338,0.98784063 C2.94801338,0.98784063 3.00679946,0.99437242 3.0917127,0.99437242 C3.20493035,0.99872694 3.34209788,1.00743599 3.51845614,1.0183223 C3.82980467,1.04880398 4.25654812,1.09888102 4.67022799,1.2447576 C5.03818534,1.3666843 5.39525639,1.55392887 5.66959146,1.8304412 C5.77627732,1.93712706 5.86554508,2.04816745 5.94174927,2.15920784 C6.16383004,2.52934245 6.22479339,2.89729981 6.24003422,3.10849427 C6.24221149,3.19558477 6.24221149,3.25001633 6.24221149,3.25001633 C6.24221149,3.25001633 6.24656601,3.28920705 6.24221149,3.35670219 C6.24221149,3.44814721 6.2356797,3.61797369 6.1834254,3.79868647 C6.13334836,4.01858998 6.02883976,4.26462064 5.84159519,4.49758772 C5.80458173,4.53242392 5.76103648,4.57814643 5.72184576,4.62386895 C5.64346431,4.70442766 5.55855107,4.78063184 5.46275152,4.86119055 C5.29727958,4.96569915 5.11221227,5.07673954 4.91190412,5.15947551 C4.65063262,5.27487042 4.3501704,5.35978366 4.01704925,5.42510153 C3.85810909,5.45558321 3.67521904,5.48606488 3.49668352,5.49259667 C3.38782039,5.51219203 3.27895727,5.51219203 3.1613851,5.52090108 C3.05905376,5.53178739 2.94801338,5.53178739 2.84350478,5.53178739 L0,5.53178739 Z" id="path3132"></path>
                        </g>
                        <g id="g3134" transform="translate(41.338042, 12.013480) scale(1, -1) translate(-41.338042, -12.013480) translate(38.838042, 9.513480)" fill="#000000">
                            <path d="M0,4.35452493 L0,0.0522542991 L1.42175239,0.0522542991 L1.64601042,0.0522542991 C1.75269628,0.0522542991 1.85502762,0.0522542991 1.96389074,0.0674951364 C2.2621757,0.089267761 2.66932378,0.13281301 3.06994007,0.239498871 C3.15485331,0.265626021 3.23758928,0.289575908 3.30943895,0.315703057 C3.62949653,0.435452493 3.92995875,0.59221539 4.18034393,0.829536999 C4.36541124,1.01678157 4.4895152,1.22362151 4.57007391,1.42175239 C4.67458251,1.67431484 4.71159597,1.90510466 4.72030502,2.07710839 C4.73554586,2.23387129 4.73554586,2.31443 4.73554586,2.31443 C4.73554586,2.31443 4.73554586,2.39063419 4.73119134,2.50167457 C4.72030502,2.68891914 4.68546882,2.99591315 4.53741498,3.2833118 C4.46338805,3.42918838 4.36541124,3.56635592 4.23042097,3.69916893 C4.06712628,3.84940004 3.87770445,3.98003578 3.67086452,4.07148081 C3.2658937,4.25437086 2.79995953,4.31751147 2.4189386,4.33928409 C2.24693486,4.35452493 2.09017197,4.35452493 1.96389074,4.35452493 L0,4.35452493 Z" id="path3136"></path>
                        </g>
                        <path d="M29.4017867,4.27708195 L53.98308,4.27708195 L53.98308,27.4148497 L29.4017867,27.4148497 L29.4017867,4.27708195 Z M35.8486607,7.52337967 L35.8486607,24.1881467 L42.1257082,24.1881467 C42.1257082,24.1881467 45.1847624,24.2643491 46.8699638,22.5835043 C48.2438153,21.2052973 48.1458393,19.6137176 48.1458393,19.6137176 C48.1458393,19.6137176 48.2438189,17.9611761 46.9722952,16.6765908 C45.8836632,15.601024 44.5032785,15.30927 44.5032785,15.30927 C44.5032785,15.30927 45.1281535,15.0218716 45.607151,14.5319879 C45.8314086,14.3055525 46.6326422,13.5870557 46.6326422,11.8365369 C46.6326422,10.0642445 45.4525649,9.0431088 45.4525649,9.0431088 C45.4525649,9.0431088 44.1614489,7.52337967 41.2569808,7.52337967 L35.8486607,7.52337967 Z" id="path3138" fill="#000000"></path>
                        <g id="g3140" transform="translate(14.011640, 19.602899) scale(1, -1) translate(-14.011640, -19.602899) translate(10.511640, 16.602899)" fill="#000000">
                            <path d="M0,5.53178739 L0,0.98784063 L2.9523679,0.98784063 C2.9523679,0.98784063 3.00897673,0.99437242 3.10477627,0.99437242 C3.20057582,0.99872694 3.34645241,1.00743599 3.5206334,1.0183223 C3.83633646,1.04880398 4.25437086,1.09888102 4.66805072,1.2447576 C5.03600808,1.3666843 5.39743365,1.55392887 5.68047777,1.8304412 C5.78280911,1.93712706 5.86554508,2.04816745 5.94174927,2.15920784 C6.16383004,2.52934245 6.22479339,2.89729981 6.24003422,3.10849427 C6.24874327,3.19558477 6.24874327,3.25001633 6.24874327,3.25001633 L6.24874327,3.35670219 C6.24003422,3.44814721 6.23132517,3.61797369 6.18995719,3.79868647 C6.1311711,4.01858998 6.02883976,4.26462064 5.84377245,4.49758772 C5.81111352,4.53242392 5.76974553,4.57814643 5.73055481,4.62386895 C5.64346431,4.70442766 5.55855107,4.78063184 5.46710605,4.86119055 C5.29945684,4.96569915 5.11438953,5.07673954 4.91625864,5.15947551 C4.65063262,5.27487042 4.35452493,5.35978366 4.02358103,5.42510153 C3.86681814,5.45558321 3.69045988,5.48606488 3.50321531,5.49259667 C3.39870671,5.51219203 3.28113453,5.51219203 3.17009415,5.52090108 C3.06994007,5.53178739 2.95672243,5.53178739 2.85656835,5.53178739 L0,5.53178739 Z" id="path3142"></path>
                        </g>
                        <g id="g3144" transform="translate(13.011640, 12.013480) scale(1, -1) translate(-13.011640, -12.013480) translate(10.511640, 9.513480)" fill="#000000">
                            <path d="M0,4.35452493 L0,0.0522542991 L1.42828418,0.0522542991 L1.65036495,0.0522542991 C1.7461645,0.0522542991 1.87244572,0.0522542991 1.97259979,0.0674951364 C2.2621757,0.089267761 2.67585557,0.13281301 3.07864912,0.239498871 C3.15920784,0.265626021 3.2310575,0.289575908 3.31597073,0.315703057 C3.63167379,0.435452493 3.9386678,0.59221539 4.17381214,0.829536999 C4.36323398,1.01678157 4.48733794,1.22362151 4.57442844,1.42175239 C4.67022799,1.67431484 4.71377324,1.90510466 4.72465955,2.07710839 C4.73990039,2.23387129 4.73990039,2.31443 4.73990039,2.31443 L4.73990039,2.50167457 C4.72465955,2.68891914 4.68982335,2.99591315 4.5417695,3.2833118 C4.46774258,3.42918838 4.36323398,3.56635592 4.24130728,3.69916893 C4.07365807,3.84940004 3.87770445,3.98003578 3.6599782,4.07148081 C3.26371643,4.25437086 2.80649132,4.31751147 2.41240681,4.33928409 C2.24911213,4.35452493 2.09670375,4.35452493 1.97259979,4.35452493 L0,4.35452493 Z" id="path3146"></path>
                        </g>
                        <path d="M1.07560233,4.27708195 L25.6568956,4.27708195 L25.6568956,27.4148497 L1.07560233,27.4148497 L1.07560233,4.27708195 Z M7.52465288,7.52337967 L7.52465288,24.1881467 L13.7973461,24.1881467 C13.7973461,24.1881467 16.8564003,24.2643491 18.5459559,22.5835043 C19.917631,21.2052973 19.8174772,19.6137176 19.8174772,19.6137176 C19.8174772,19.6137176 19.9176262,17.9611761 18.6461097,16.6765908 C17.5553011,15.601024 16.1749176,15.30927 16.1749176,15.30927 C16.1749176,15.30927 16.8019691,15.0218716 17.2809666,14.5319879 C17.507402,14.3055525 18.310812,13.5870557 18.310812,11.8365369 C18.310812,10.0642445 17.1307348,9.0431088 17.1307348,9.0431088 C17.1307348,9.0431088 15.8483273,7.52337967 12.9395049,7.52337967 L7.52465288,7.52337967 L7.52465288,7.52337967 Z" id="path3148" fill="#000000"></path>
                        <g id="g3150" transform="translate(8.463992, 42.916036) scale(1, -1) translate(-8.463992, -42.916036) translate(0.463992, 32.916036)" fill="#000000">
                            <path d="M3.35452493,17.4180997 L5.12463931,17.4180997 C7.78089952,17.4180997 8.85646718,16.3229367 8.88041706,14.5310497 C8.90436695,12.9285845 8.0661209,11.4153871 5.12463931,11.4153871 L3.35452493,11.4153871 L3.35452493,17.4180997 Z M0.61117422,19.7695432 L0.61117422,0.646646952 L3.35452493,0.646646952 L3.35452493,8.94201694 L4.50629677,8.94201694 C5.91280832,8.94201694 7.05587112,8.50220992 9.5858501,4.57007391 L12.1092973,0.646646952 L15.3839,0.646646952 C14.0710108,2.46466111 13.592013,3.11566259 12.7733624,4.42855185 C11.318951,6.81700878 10.2499152,8.58276863 8.51899149,9.73018595 C10.5634409,10.5466594 11.7152128,12.1970243 11.7152128,14.4134775 C11.7152128,17.7250937 9.3006287,19.7695432 5.43381058,19.7695432 L0.61117422,19.7695432 Z" id="path3152"></path>
                        </g>
                        <g id="g3154" transform="translate(24.949755, 42.485156) scale(1, -1) translate(-24.949755, -42.485156) translate(14.949755, 32.485156)" fill="#000000">
                            <path d="M9.8863123,15.2408373 L12.9736705,8.3236744 L7.02756671,8.3236744 L9.8863123,15.2408373 Z M10.8987394,19.4516629 L8.95444399,19.4516629 L0.74180997,0.217726246 L3.54394676,0.217726246 L5.96288536,5.85030424 L14.0906061,5.85030424 L16.644535,0.217726246 L19.44014,0.217726246 L10.8987394,19.4516629 Z" id="path3156"></path>
                        </g>
                        <g id="g3158" transform="translate(45.571596, 43.032084) scale(1, -1) translate(-45.571596, -43.032084) translate(36.071596, 33.032084)" fill="#000000">
                            <path d="M3.35452493,17.4180997 L7.57841411,17.4180997 C12.9431888,17.4180997 15.3795455,14.1609151 15.3795455,10.3202241 C15.3795455,7.96660336 13.9512613,3.2310575 7.72864522,3.2310575 L3.35452493,3.2310575 L3.35452493,17.4180997 Z M0.6068197,0.764219125 L8.06394364,0.764219125 C14.3736503,0.764219125 18.2099867,5.41920627 18.2099867,10.3202241 C18.2099867,14.8380437 15.0986787,19.8871154 8.03563923,19.8871154 L0.6068197,19.8871154 L0.6068197,0.764219125 Z" id="path3160"></path>
                        </g>
                        <polygon id="path3162" fill="#000000" points="57.2511513 52.2683009 60.3951176 52.2683009 60.3951176 33.1454046 57.2511513 33.1454046"></polygon>
                        <g id="g3164" transform="translate(73.839296, 42.598173) scale(1, -1) translate(-73.839296, -42.598173) translate(62.839296, 32.598173)" fill="#000000">
                            <path d="M3.35452493,9.8863123 C3.35452493,14.0971379 6.52679634,17.1757871 10.7898762,17.1757871 C15.0790833,17.1757871 18.2470002,14.0971379 18.2470002,9.8863123 C18.2470002,5.7168547 15.0790833,2.60119212 10.7898762,2.60119212 C6.52679634,2.60119212 3.35452493,5.7168547 3.35452493,9.8863123 M0.52408373,9.8863123 C0.52408373,4.70660492 4.48016962,0.07774492 10.7332674,0.07774492 C17.2062687,0.07774492 21.0774414,4.73708659 21.0774414,9.8863123 C21.0774414,15.2162508 17.0995829,19.705766 10.7898762,19.705766 C4.59338727,19.705766 0.52408373,15.1923009 0.52408373,9.8863123" id="path3166"></path>
                        </g>
                        <g id="g3168" transform="translate(157.766666, 60.206362) scale(1, -1) translate(-157.766666, -60.206362) translate(120.766666, 28.706362)" fill="#A7BE0F">
                            <path d="M46.8997742,45.7225118 C51.0060912,45.7225118 54.3481891,49.0646096 54.3481891,53.1687494 C54.3481891,57.2837754 51.0060912,60.6193415 46.8997742,60.6193415 C42.7934572,60.6193415 39.4448275,57.2837754 39.4448275,53.1687494 C39.4448275,49.0646096 42.7934572,45.7225118 46.8997742,45.7225118 M73.6844571,28.0235452 C73.6322028,33.0268943 72.9920876,37.7559084 71.8163659,42.0777744 C71.1544781,44.5010675 70.307523,46.7828386 69.3146913,48.8730105 C67.0699337,53.5671884 64.0217662,57.2685346 60.2659885,59.959631 C60.4009788,59.6961822 60.5577417,59.4501516 60.6905547,59.180171 C61.5266235,57.4100567 61.9729623,55.4418114 61.9729623,53.4321981 C61.9729623,53.2101174 61.9686077,52.9771503 61.9511896,52.7441832 C61.7944267,49.7656881 60.7253909,46.9352469 58.8377043,44.5511445 C57.8840634,43.3492957 56.7584187,42.315096 55.4912519,41.4572546 C53.1071495,39.8460804 50.3463807,38.996948 47.5137622,38.996948 C46.2335319,38.996948 44.948947,39.1841926 43.670894,39.5630362 C37.6594723,41.3549232 32.7671636,46.9287152 28.0250859,52.310908 L27.5047202,52.9074779 C23.7837786,57.1378989 19.5620667,61.9387626 15.7039576,62.0193213 C15.3185822,62.0345621 14.9092568,61.9997259 14.5282359,61.9082809 C13.2741327,61.6252368 12.057043,60.8479541 10.7855217,59.5350648 C10.3304739,59.0713079 9.8601852,58.524815 9.4073146,57.9238906 L8.21635201,56.2190941 C7.06458017,54.451157 5.36631545,51.5183844 3.8204591,47.5710076 C3.23695276,46.0948236 2.72747334,44.5968671 2.30943895,43.1119741 C1.35362072,39.8460804 0.77446891,36.5693004 0.56327445,33.3839654 C0.52190646,32.5304785 0.48053848,31.6682825 0.48053848,30.825682 C0.48053848,30.6079557 0.49142479,30.3793432 0.49142479,30.1637942 C0.52190646,28.8160687 0.61117422,27.466166 0.77446891,26.155454 L1.0705766,24.2263994 C1.48425647,21.8444743 2.15703057,19.4952081 3.04970818,17.2482732 C3.61579642,15.8395844 4.27986148,14.4330729 5.03537155,13.0744611 L5.84966771,11.6657723 C6.32866546,10.8819578 6.84032213,10.1155614 7.36939691,9.36876038 C8.00080303,8.4630192 8.68446344,7.57687338 9.4182009,6.70379113 L11.053325,4.8552953 C12.5012045,3.30508442 14.1080242,1.79406427 15.9347474,0.276512333 C14.197292,3.35516146 11.8502031,7.66178661 10.4262734,12.3712053 C9.6032682,15.0775426 9.1939429,17.5813944 9.1939429,19.8849381 C9.1939429,25.160445 11.3450782,29.349498 15.6146899,32.4041973 C19.3704676,35.0887619 23.4920255,35.8638673 27.868323,34.71645 C32.2881658,33.5603236 37.0128254,30.435952 42.3492957,25.1756859 C43.9060383,23.6298295 45.5346307,21.8945513 47.3156313,19.8631655 C49.4798302,17.4050361 51.526457,14.9207797 53.501234,12.5236137 C56.2707119,9.16627498 58.8703632,6.00053535 61.0541575,3.86028635 C61.7182226,3.22017118 62.3060834,2.69980546 62.8547536,2.27523928 C63.7082404,1.61335149 64.418028,1.23015329 64.9732299,1.12346743 C65.9225164,0.947109172 66.8870436,1.79406427 67.3747504,2.31660726 C67.6926308,2.65843747 68.0192201,3.07211734 68.3479868,3.54676055 L69.1775238,4.92061317 L69.6717623,5.9047358 C70.1507601,6.91934011 70.6058079,8.07111196 71.0194878,9.3273924 C71.7466935,11.4828822 72.3323771,13.8974663 72.7808931,16.4905859 L73.1249006,18.7484071 C73.3404496,20.3835312 73.501567,22.0665551 73.5951893,23.7365154 C73.6648617,24.9122371 73.6953434,26.1053769 73.6953434,27.2854532 C73.6953434,27.5271293 73.6844571,27.7753373 73.6844571,28.0235452" id="path3170"></path>
                        </g>
                        <g id="g3172" transform="translate(157.865373, 60.623355) scale(1, -1) translate(-157.865373, -60.623355) translate(97.865373, 0.123355)" fill="#A7BE0F">
                            <path d="M119.749436,60.963349 C119.529532,93.9684707 92.5946181,120.546314 59.5916737,120.32641 C26.586552,120.106507 0.00870904986,93.1715926 0.228612559,60.1664709 C0.45069333,27.1635265 27.38343,0.585683603 60.3863745,0.805587112 C73.8788699,0.897032135 86.2936205,5.45404247 96.2458872,13.0635748 C96.4505499,13.2138059 96.5898947,13.4445957 96.5877174,13.7167535 C96.5855402,14.1696241 96.2154056,14.533227 95.762535,14.5310497 C95.4381229,14.5288724 95.2465238,14.3568687 95.2465238,14.3568687 C85.9779175,7.3547926 74.460199,3.16356236 61.9496489,3.08082639 C31.0673581,2.87398645 5.86554508,27.7426783 5.66088241,58.6249691 C5.45404247,89.5094372 30.3227343,114.71125 61.2050251,114.91809 C92.0873159,115.122753 117.289129,90.2540609 117.495969,59.3717701 C117.537337,53.0424682 116.52491,46.952665 114.626337,41.2678328 L114.628514,41.2678328 C114.60021,41.1763877 114.578437,41.0805882 114.580614,40.9804341 C114.582792,40.4774865 114.994294,40.0725157 115.497242,40.0768702 C116.100344,40.0790474 116.361615,40.6843264 116.361615,40.6843264 C118.597664,47.0245147 119.797335,53.8524098 119.749436,60.963349" id="path3174"></path>
                        </g>
                        <g id="g3176" transform="translate(214.506181, 96.751364) scale(1, -1) translate(-214.506181, -96.751364) translate(205.506181, 86.251364)" fill="#000000">
                            <path d="M8.70904986,0 C7.22851138,0 3.55764687,0.346184732 1.46529764,3.55111508 C0.413679868,5.1622893 0.0914450235,6.57533264 0.0914450235,9.59955021 L0.0914450235,19.9263061 L0.0914450235,20.3595813 L0.524720254,20.3595813 L2.64101937,20.3595813 L3.0742946,20.3595813 L3.0742946,19.9263061 L3.0742946,9.4841553 C3.0742946,6.82789509 3.43572017,5.54984202 4.51128783,4.42419733 C5.52153761,3.36169325 7.0129624,2.7781869 8.70904986,2.7781869 C12.0729204,2.7781869 13.3879869,4.96851294 13.7102217,5.64128705 C14.0847109,6.40115165 14.2871963,7.76629521 14.2871963,9.4841553 L14.2871963,19.9263061 L14.2871963,20.3595813 L14.7204715,20.3595813 L16.8345934,20.3595813 L17.2678686,20.3595813 L17.2678686,19.9263061 L17.2678686,9.59955021 C17.2678686,6.82354056 16.9848245,5.39525639 16.1444012,3.9386678 C15.6153264,3.01550851 13.5142681,0 8.70904986,0" id="path3178"></path>
                        </g>
                        <g id="g3180" transform="translate(231.864434, 96.501193) scale(1, -1) translate(-231.864434, -96.501193) translate(224.864434, 86.001193)" fill="#000000">
                            <polygon id="path3182" points="13.0635748 0 12.6302996 0 1.43046144 0 0.997186209 0 0.997186209 0.43327523 0.997186209 19.6759209 0.997186209 20.1113734 1.43046144 20.1113734 3.54458329 20.1113734 3.97785852 20.1113734 3.97785852 19.6759209 3.97785852 2.72593261 12.6302996 2.72593261 13.0635748 2.72593261 13.0635748 2.29265738 13.0635748 0.43327523"></polygon>
                        </g>
                        <g id="g3184" transform="translate(245.187005, 96.750712) scale(1, -1) translate(-245.187005, -96.750712) translate(238.687005, 86.250712)" fill="#000000">
                            <path d="M6.53178739,0 C4.77038206,0 2.93930433,0.631406115 1.23450782,1.82454595 L1.05161777,1.95300443 L1.05161777,2.17943973 L1.05161777,4.77909111 L1.05161777,5.82417709 L1.78970975,5.08390785 C2.65190568,4.22171192 4.40677923,2.7781869 6.47735583,2.7781869 C9.05958911,2.7781869 9.62567736,4.78780016 9.62567736,5.5629056 C9.62567736,6.42074701 9.62567736,7.48760562 5.55637381,9.40577385 C2.28394833,10.9429211 0.886145823,12.6368313 0.886145823,15.073188 C0.886145823,18.2824729 3.46402458,20.6077892 7.01731692,20.6077892 C9.3448105,20.6077892 10.9080849,19.6802754 11.5765045,19.2861909 L11.7898762,19.1577324 L11.7898762,18.913879 L11.7898762,16.5145358 L11.7898762,15.6501626 L11.0975068,16.1661738 C10.3703011,16.7061349 8.85928097,17.8317796 6.98683525,17.8317796 C3.86681814,17.8317796 3.83198194,15.3279277 3.83198194,15.3018006 C3.83198194,13.6122449 5.63910978,12.7021492 7.23286591,11.9030939 C10.8710715,10.1003206 12.5823998,8.90064895 12.5823998,5.70878218 C12.5823998,2.0009042 9.46455993,0 6.53178739,0" id="path3186"></path>
                        </g>
                        <g id="g3188" transform="translate(260.379789, 96.501193) scale(1, -1) translate(-260.379789, -96.501193) translate(251.379789, 86.001193)" fill="#000000">
                            <polygon id="path3190" points="10.8863123 0 10.4530371 0 8.33673798 0 7.90564001 0 7.90564001 0.43327523 7.90564001 17.3832635 1.3978025 17.3832635 0.964527272 17.3832635 0.964527272 17.8165387 0.964527272 19.6780982 0.964527272 20.1113734 1.3978025 20.1113734 17.3985044 20.1113734 17.8317796 20.1113734 17.8317796 19.6780982 17.8317796 17.8165387 17.8317796 17.3832635 17.3985044 17.3832635 10.8863123 17.3832635 10.8863123 0.43327523"></polygon>
                        </g>
                        <g id="g3192" transform="translate(277.243908, 96.501193) scale(1, -1) translate(-277.243908, -96.501193) translate(270.743908, 86.001193)" fill="#000000">
                            <polygon id="path3194" points="12.0635748 0 11.6302996 0 0.68520115 0 0.25192592 0 0.25192592 0.43327523 0.25192592 19.6780982 0.25192592 20.1113734 0.68520115 20.1113734 11.4082188 20.1113734 11.8393168 20.1113734 11.8393168 19.6780982 11.8393168 17.8165387 11.8393168 17.3832635 11.4082188 17.3832635 3.23259823 17.3832635 3.23259823 11.5024776 11.1513018 11.5024776 11.584577 11.5024776 11.584577 11.0713796 11.584577 9.20982022 11.584577 8.77654499 11.1513018 8.77654499 3.23259823 8.77654499 3.23259823 2.72593261 11.6302996 2.72593261 12.0635748 2.72593261 12.0635748 2.29265738 12.0635748 0.43327523"></polygon>
                        </g>
                        <g id="g3196" transform="translate(293.202779, 97.030068) scale(1, -1) translate(-293.202779, -97.030068) translate(284.702779, 86.530068)" fill="#000000">
                            <path d="M3.35452493,12.0635748 L5.40115165,12.0635748 C6.88386738,12.0635748 9.3746556,12.446773 9.3746556,15.0115882 C9.3746556,16.8818566 7.9616123,17.9117018 5.40115165,17.9117018 L3.35452493,17.9117018 L3.35452493,12.0635748 Z M16.3723772,0.52843825 L15.5341312,0.52843825 L12.9910886,0.52843825 L12.7515897,0.52843825 L12.6253085,0.73092366 L10.7985853,3.63974631 C9.9886437,4.90909033 9.1612839,6.09352111 8.33610145,7.15820245 C7.20610223,8.59737294 6.26987937,9.3311104 4.30381136,9.3311104 L3.35452493,9.3311104 L3.35452493,0.96171348 L3.35452493,0.52843825 L2.9212497,0.52843825 L0.80495058,0.52843825 L0.37385262,0.52843825 L0.37385262,0.96171348 L0.37385262,20.2065364 L0.37385262,20.6398116 L0.80495058,20.6398116 L5.71467744,20.6398116 C12.0047887,20.6398116 12.4946728,16.3549591 12.4946728,15.0420698 C12.4946728,12.8756937 11.4299914,11.1883153 9.476987,10.223788 C10.6723041,9.2004746 11.7260991,7.53922339 13.7008762,4.43662437 C14.42155,3.28267527 14.8417617,2.69045988 15.6038036,1.61706948 L15.8890249,1.21209866 L16.3723772,0.52843825 Z" id="path3198"></path>
                        </g>
                    </g>
                </g>
            </g>
        </g>
    </g>
</svg>