<?xml version="1.0" encoding="UTF-8"?>
<svg width="209px" height="209px" viewBox="0 0 209 209" version="1.1" xmlns="http://www.w3.org/2000/svg" xmlns:xlink="http://www.w3.org/1999/xlink">
    <!-- Generator: Sketch 41.2 (35397) - http://www.bohemiancoding.com/sketch -->
    <title>Untitled 4</title>
    <desc>Created with Sketch.</desc>
    <defs></defs>
    <g id="Page-1" stroke="none" stroke-width="1" fill="none" fill-rule="evenodd">
        <rect id="radio4.large" fill="#FFFFFF" x="0" y="0" width="209" height="209"></rect>
        <g id="asian_network.large" transform="translate(0.000000, 66.000000)">
            <g id="layer1" transform="translate(0.730580, 0.540800)">
                <g id="g3281" transform="translate(0.531707, 0.838395)">
                    <path d="M136.399208,37.1637416 C136.399208,57.2906165 120.083169,73.6066558 99.9562944,73.6066558 C79.8294195,73.6066558 63.5133802,57.2906165 63.5133802,37.1637416 C63.5133802,17.0368668 79.8294195,0.720827528 99.9562944,0.720827528 C120.083169,0.720827528 136.399208,17.0368668 136.399208,37.1637416 Z" id="path3189" fill="#EB018A"></path>
                    <g id="g3115" transform="translate(99.378058, 28.239669) scale(1, -1) translate(-99.378058, -28.239669) translate(75.917991, 4.779602)" fill="#FFFFFF">
                        <path d="M35.1901004,29.3250837 L34.5508136,31.0200735 C24.9380512,22.5509893 16.117066,13.7945194 9.12596604,3.23162422 L12.0408794,3.23162422 C17.4836149,11.6948434 26.0465393,20.8325394 35.1901004,29.3250837 L35.1901004,29.3250837 Z M32.8792838,31.4599498 C33.278105,31.7883907 33.653466,32.0992366 34.0229621,32.4159475 L33.3426201,34.2223726 C32.8792838,33.8528766 32.4042175,33.4716505 31.9467462,33.0962894 C19.1610097,22.6506946 9.64795253,12.7446814 3.87091104,3.23162422 L6.37527319,3.23162422 C12.0702044,12.3224002 20.5979388,21.2196305 32.8792838,31.4599498 L32.8792838,31.4599498 Z M33.0141792,35.1138552 L30.0640758,42.9436525 L18.7915136,42.9436525 L6.48084349,10.9382562 C13.7006791,20.1346024 22.8266451,28.1579453 33.0141792,35.1138552 L33.0141792,35.1138552 Z M35.764872,27.7943143 C29.7297698,21.7533471 24.2107891,15.7006498 19.8824067,10.1347489 L31.4306247,10.1347489 L34.011232,3.23162422 L45.0140034,3.23162422 L35.764872,27.7943143 L35.764872,27.7943143 Z" id="path3117"></path>
                    </g>
                    <path d="M37.8814195,2.97050229 L52.6538052,2.97050229 L52.6538052,16.8751741 L37.8814195,16.8751741 L37.8814195,2.97050229 Z M47.1873683,4.90553996 C47.1266301,4.88934311 47.0573076,4.88772342 46.9921477,4.86990689 L46.9140788,4.85371004 C46.7969756,4.8358935 46.6841484,4.82293602 46.5713535,4.80997854 C46.4889115,4.79378169 46.4108427,4.79378169 46.3327415,4.79216201 C46.1939345,4.77596516 46.0550789,4.77596516 45.924921,4.77596516 L45.7687834,4.77596516 C45.6516802,4.77596516 45.5431937,4.79216201 45.4390641,4.79216201 C45.3783259,4.79216201 45.3175877,4.80835886 45.2568495,4.80835886 C45.1700344,4.82455571 45.0833165,4.82617539 44.99655,4.83913287 L44.9270655,4.85532972 L44.8446235,4.87152657 L44.7492241,4.88934311 C44.7058165,4.88934311 44.662409,4.90553996 44.6233745,4.91039901 C44.5626364,4.92659586 44.5062713,4.93145492 44.4498415,4.9444124 C44.0984184,5.01891791 43.7730399,5.11350751 43.4780305,5.23061074 C43.3218929,5.29215877 43.1699988,5.35694617 43.0355002,5.42594475 C42.9140238,5.48587309 42.8012289,5.54256207 42.6927748,5.60815931 C42.5886291,5.66808766 42.4888565,5.72963569 42.3890839,5.79474702 C42.33693,5.83847852 42.2763538,5.86439348 42.2242161,5.90812497 C42.1764354,5.94213836 42.1330279,5.97291237 42.0897823,6.00854544 C41.9943828,6.0781919 41.903227,6.15593678 41.8164604,6.22542127 C41.7427648,6.29992678 41.664696,6.3728126 41.5908545,6.43808591 C41.5301163,6.49801425 41.465005,6.56442134 41.4129807,6.63325795 C41.3478694,6.69804535 41.2915043,6.7676918 41.2351069,6.83717629 C41.1699956,6.9116818 41.1180037,6.98456763 41.0572331,7.06717156 C41.0094524,7.12871959 40.9747911,7.18378888 40.9313836,7.24938612 C40.9010955,7.29311762 40.8793917,7.33199006 40.8533148,7.37572155 C40.6971771,7.62725863 40.5626461,7.89628831 40.4498512,8.18702177 C40.3110442,8.5427046 40.2112392,8.93321065 40.1591664,9.33667418 C40.1418357,9.47110804 40.1288782,9.60133071 40.1201319,9.73576457 C40.1120335,9.83942441 40.1120335,9.94842921 40.1120335,10.0482018 L40.1120335,10.2824083 C40.1201319,10.3650122 40.1293642,10.4427571 40.1381104,10.5209879 L40.1429695,10.5728178 C40.155927,10.6732382 40.1732576,10.7636167 40.1907502,10.8548049 C40.1956093,10.8936774 40.2037077,10.9244514 40.212454,10.9633238 C40.2297846,11.0410687 40.2471153,11.1107152 40.2644459,11.1889459 C40.2905228,11.2845074 40.3164378,11.3755337 40.351261,11.4709331 C40.3859223,11.5843111 40.4293298,11.6921821 40.4683642,11.800701 C40.5420599,11.9699581 40.6245019,12.134842 40.7026355,12.2866065 C40.7547893,12.3740695 40.8067812,12.4644479 40.8543999,12.5556362 C40.9021807,12.6171842 40.9412151,12.685211 40.9846226,12.7422239 C41.0409877,12.8280672 41.1017258,12.911319 41.1624964,12.9851766 C41.2232346,13.0677805 41.2927191,13.137427 41.3577333,13.2150099 C41.4314289,13.3024729 41.5094977,13.3886401 41.5876637,13.4623358 L41.6266981,13.5012083 C41.6961826,13.5611366 41.761132,13.6356421 41.8392818,13.7007534 C41.8956468,13.7444849 41.9520119,13.7914558 42.0084741,13.8400464 C42.0692123,13.8837779 42.1255773,13.9307487 42.1863479,13.9793393 C42.2644167,14.0311692 42.3381124,14.0829991 42.4249761,14.1396881 C42.5161644,14.1882786 42.6071907,14.248207 42.7069633,14.304572 C42.8978593,14.4130909 43.1147837,14.5216098 43.3533957,14.6170093 C43.4402108,14.6510226 43.5312695,14.6866557 43.6267176,14.7174297 C43.722117,14.7482037 43.8176137,14.7773581 43.9130455,14.8081321 C44.0865947,14.8551029 44.2688093,14.8988344 44.4510239,14.9344675 C44.6027883,14.9652415 44.7677209,14.9911565 44.9282479,15.008973 C45.0887586,15.0300289 45.2536264,15.0478455 45.4228349,15.0527045 C45.5140231,15.0689014 45.6007087,15.0689014 45.6831344,15.0705211 L45.8046108,15.0705211 C46.1169833,15.0705211 46.4033112,15.0527045 46.6679677,15.0316486 L46.7199596,15.0316486 C46.8284785,15.0154518 46.9282025,15.0105927 47.0279913,14.9960155 C47.1841289,14.978199 47.3230007,14.9571431 47.4618239,14.9312281 C47.548639,14.9150313 47.6310324,14.8955951 47.7134582,14.8826376 C47.8436809,14.8518636 47.9650924,14.8227092 48.0778873,14.7919352 C48.1647024,14.7708793 48.2470796,14.7482037 48.3295216,14.7222888 C48.424921,14.6963738 48.5117361,14.6655998 48.5985027,14.6315864 L48.6853178,14.6056715 C48.7287253,14.5878549 48.7850904,14.5700384 48.8501855,14.5457431 C48.9413738,14.51011 49.0454061,14.4679982 49.1668825,14.4113093 C49.2405782,14.3853943 49.318647,14.3497612 49.4011538,14.3108888 C49.4706382,14.2768754 49.5487071,14.238003 49.6311004,14.2023699 C49.6571774,14.186173 49.6918386,14.1715959 49.7264999,14.1586384 L49.7264999,12.258424 C49.7004229,12.2762405 49.6787192,12.289198 49.6570154,12.3021554 L49.5267927,12.3799003 C49.39657,12.4576452 49.2708339,12.5321507 49.1450168,12.6011493 C49.0105829,12.6740351 48.8716949,12.7436816 48.7371963,12.8094408 C48.5072658,12.9228187 48.2773191,13.0131972 48.0604109,13.0914279 C47.6482497,13.2388193 47.2708145,13.3256344 46.9367544,13.3907457 C46.89772,13.4069426 46.8586856,13.4069426 46.8196512,13.4118016 C46.7242518,13.4279985 46.6374366,13.4377166 46.5506539,13.445815 C46.4204312,13.4620119 46.2946951,13.4636316 46.1905656,13.4668709 C46.1168699,13.4668709 46.0517585,13.4830678 45.9866634,13.4830678 C45.8522296,13.4830678 45.7133416,13.4830678 45.5701776,13.4668709 C45.4053099,13.4506741 45.2404583,13.4328575 45.0669091,13.4069426 C44.7935872,13.3599717 44.5159408,13.2903253 44.2512843,13.1944399 C44.2122499,13.1782431 44.1688423,13.1636659 44.1341811,13.1458494 C44.103731,13.1296525 44.077816,13.1247935 44.0517391,13.1150754 C44.0127047,13.0972588 43.9692972,13.0794423 43.9215164,13.0583864 C43.8303282,13.0146549 43.7393019,12.962825 43.6481946,12.9158541 C43.604787,12.8899391 43.5613795,12.8640242 43.5137607,12.8381092 C43.4703532,12.8073352 43.4269456,12.7781809 43.3793269,12.7425478 C43.327335,12.7117738 43.270808,12.669662 43.2188161,12.6259305 C43.1624511,12.582199 43.1146704,12.5433265 43.0670516,12.5044541 L43.0063134,12.4477651 L42.9758634,12.4169911 L42.9585327,12.3991746 L42.9324558,12.381358 C42.8456407,12.2938951 42.771945,12.2077278 42.6981846,12.1210747 C42.6591502,12.0741038 42.6201157,12.0255133 42.5854545,11.9817818 C42.5507932,11.9348109 42.5203431,11.8862203 42.490055,11.8392495 C42.4553938,11.795518 42.4293169,11.7485471 42.4076131,11.6999566 C42.3642055,11.6384085 42.3295443,11.5703818 42.294883,11.5004114 C42.2688061,11.4534405 42.2428911,11.3870334 42.2211873,11.3313163 C42.1777798,11.2406139 42.1474917,11.1403554 42.1170416,11.0535403 C42.0909647,10.9838938 42.073634,10.9061489 42.0563034,10.8366645 C42.0085227,10.6457036 41.9826077,10.463489 41.9651151,10.3073514 C41.9570167,10.2474231 41.9570167,10.1939735 41.9521576,10.1424675 L41.9521576,9.94729543 L41.9521576,9.83067811 C41.9521576,9.71730016 41.9651151,9.58335221 41.9868189,9.43142576 C41.9997764,9.32776592 42.0214802,9.23188056 42.0475571,9.12773482 C42.0648877,9.04998994 42.0778452,8.98034348 42.1039221,8.90648585 C42.1256259,8.83683939 42.1517028,8.77205199 42.1776178,8.70256751 C42.1949484,8.65073759 42.2122791,8.60700609 42.238356,8.56003523 C42.2600598,8.4984872 42.294721,8.4336998 42.3295443,8.36907436 C42.351248,8.32048381 42.3815361,8.26865389 42.4119862,8.22654208 C42.4727244,8.11316413 42.5422089,8.00966626 42.6202291,7.90114737 C42.6505172,7.86227493 42.6809673,7.82340249 42.7114174,7.78776942 C42.7504518,7.7359395 42.7938594,7.68410958 42.8372669,7.64037808 C42.8633438,7.61932218 42.8850476,7.59178753 42.9067514,7.56587257 C43.2538175,7.21877408 43.6486157,6.9584907 44.0477547,6.77627613 C44.112866,6.75036117 44.1779774,6.71958716 44.2429915,6.6936722 C44.3081029,6.67261629 44.3644679,6.64670133 44.4338714,6.62402574 C44.5033559,6.59811078 44.5726784,6.58029425 44.6421143,6.56247771 C44.7072256,6.54142181 44.7809213,6.52360527 44.8460326,6.50578874 C44.911144,6.48959189 44.9804665,6.47987378 45.045594,6.46205724 C45.1192897,6.44586039 45.1887742,6.44100134 45.2668592,6.43128323 C45.3363437,6.41508638 45.4100394,6.41346669 45.4837836,6.41346669 C45.6225906,6.39726984 45.7571055,6.39241079 45.8872471,6.39241079 L46.021681,6.39241079 C46.1214536,6.39241079 46.2125771,6.39241079 46.3080089,6.40860764 C46.3731203,6.42480449 46.4338584,6.42480449 46.5032457,6.42480449 C46.6159758,6.44262102 46.7331762,6.45071945 46.8416465,6.46853598 C46.9414191,6.48635252 47.0368672,6.50416905 47.1236499,6.51712653 C47.2580837,6.54790055 47.3839495,6.57705488 47.4967443,6.60782889 C47.5662288,6.62564543 47.6311782,6.64346196 47.6919812,6.66451787 C47.7831694,6.69529188 47.8611735,6.71634779 47.9262524,6.73902338 C48.0303981,6.77789582 48.0911201,6.7908533 48.0911201,6.7908533 C48.1823084,6.82972574 48.2733347,6.86859818 48.364442,6.89937219 C48.4859183,6.95120211 48.5987132,6.99979266 48.7115081,7.05162258 C48.8026963,7.09535408 48.8850411,7.13746589 48.9718238,7.17309896 C49.0369352,7.20711234 49.1020465,7.24274541 49.158363,7.27351943 C49.2625087,7.3302084 49.3535998,7.37717927 49.4230195,7.41605171 L49.6182401,7.51971155 L49.6182401,5.65853152 C49.6182401,5.65853152 49.4967638,5.61156065 49.3015431,5.53219609 C49.2103549,5.50142207 49.1063063,5.46254963 48.9848299,5.41881814 C48.9197186,5.39290318 48.8503961,5.37022759 48.776587,5.34107326 C48.7158488,5.32487641 48.6594838,5.30705987 48.5943725,5.28924334 C48.5206768,5.26332838 48.4511923,5.23741342 48.377448,5.21149846 C48.3167099,5.19530161 48.264718,5.17748507 48.203915,5.15966854 L48.1561343,5.14347169 C48.1041424,5.12565515 48.0434042,5.11269767 47.9912827,5.09650082 C47.9217983,5.07868429 47.8524757,5.06086775 47.7830398,5.03981185 C47.7396323,5.023615 47.6918516,5.02199531 47.648606,5.00903783 C47.5705372,4.9912213 47.5010527,4.97502445 47.4230163,4.96044728 C47.3449474,4.94425043 47.2712518,4.92967327 47.1887288,4.91671579 L47.1873683,4.90553996 Z" id="path3123" fill="#1A171B"></path>
                    <g id="g3125" transform="translate(28.702510, 10.655746) scale(1, -1) translate(-28.702510, -10.655746) translate(26.533291, 6.317308)" fill="#1A171B">
                        <path d="M0,4.33843738 L0,1.60522183 L1.77008245,1.60522183 C1.77008245,1.60522183 1.80478995,1.60956027 1.86118964,1.60956027 C1.92192776,1.61389871 2.00435807,1.61823714 2.11281901,1.62691402 C2.29937181,1.64426777 2.55533962,1.67897527 2.80263055,1.76140558 C3.02822929,1.83515901 3.24081273,1.94795838 3.40567335,2.11281901 C3.47074991,2.182234 3.52281115,2.24731056 3.57053397,2.31238713 C3.70502552,2.53364743 3.73973302,2.75490774 3.7484099,2.88072242 C3.75274834,2.94146055 3.75274834,2.97182961 3.75274834,2.97182961 L3.75274834,3.03256773 C3.75274834,3.08896742 3.74407146,3.18441304 3.71804084,3.30155085 C3.68333334,3.43170397 3.62259521,3.5748724 3.51413428,3.71804084 C3.48810366,3.73973302 3.46641147,3.76576365 3.44038084,3.79179427 C3.39265803,3.84385552 3.34059678,3.89157833 3.27985866,3.93062427 C3.1800746,4.00003927 3.07161367,4.06511583 2.95447586,4.11283864 C2.79395367,4.18659207 2.61607774,4.23865332 2.41217118,4.27336082 C2.321064,4.29071457 2.20826463,4.30806832 2.10414213,4.3167452 C2.03472713,4.32976051 1.96965057,4.32976051 1.89589714,4.33409895 C1.83515901,4.33843738 1.77442089,4.33843738 1.70934433,4.33843738 L0,4.33843738 Z" id="path3127"></path>
                    </g>
                    <g id="g3129" transform="translate(28.702510, 6.499472) scale(1, -1) translate(-28.702510, -6.499472) translate(26.533291, 2.161035)" fill="#1A171B">
                        <path d="M0,4.33843738 L0,1.74839027 L0.854672164,1.74839027 L0.989163723,1.74839027 C1.04990185,1.7527287 1.11497841,1.7527287 1.18005497,1.76140558 C1.3579309,1.77442089 1.60522183,1.80045151 1.84383589,1.86986651 C1.89589714,1.87854339 1.94795838,1.89589714 1.98700432,1.90891245 C2.17789557,1.98266588 2.36444837,2.07811151 2.51195524,2.2169415 C2.62475462,2.33407931 2.69850805,2.45555556 2.74623086,2.57703181 C2.80696899,2.72453868 2.82866117,2.86770711 2.83733805,2.96749117 C2.84601492,3.05859835 2.84601492,3.11499804 2.84601492,3.11499804 C2.84601492,3.11499804 2.84601492,3.15838241 2.84167649,3.22345898 C2.83733805,3.34059678 2.81564586,3.52281115 2.72453868,3.69634865 C2.6811543,3.77877896 2.62475462,3.86120927 2.53798587,3.93930114 C2.44687868,4.03474677 2.32974087,4.1085002 2.20392619,4.16489989 C1.9609737,4.27336082 1.6833137,4.3167452 1.45337652,4.32542207 C1.34925403,4.33409895 1.25814684,4.33843738 1.18005497,4.33843738 L0,4.33843738 Z" id="path3131"></path>
                    </g>
                    <path d="M20.8617372,2.97050229 L35.6341228,2.97050229 L35.6341228,16.8751741 L20.8617372,16.8751741 L20.8617372,2.97050229 Z M24.7316181,4.91849744 L24.7316181,14.9315521 L28.5060673,14.9315521 C28.5060673,14.9315521 30.3455597,14.9785229 31.3564213,13.9684874 C32.1850522,13.1398565 32.1286547,12.1897493 32.1286547,12.1897493 C32.1286547,12.1897493 32.1850198,11.1874882 31.4171595,10.4195956 C30.7663863,9.77317929 29.9377392,9.59533788 29.9377392,9.59533788 C29.9377392,9.59533788 30.3108499,9.42170765 30.6015347,9.13113616 C30.7359686,8.9967023 31.2175819,8.56716184 31.2175819,7.50416257 C31.2175819,6.44553646 30.5104275,5.83815458 30.5104275,5.83815458 C30.5104275,5.83815458 29.7338371,4.91849744 27.9854519,4.91849744 L24.7316181,4.91849744 Z" id="path3133" fill="#1A171B"></path>
                    <g id="g3135" transform="translate(11.678487, 10.655746) scale(1, -1) translate(-11.678487, -10.655746) translate(9.509268, 6.317308)" fill="#1A171B">
                        <path d="M0,4.33843738 L0,1.60522183 L1.77442089,1.60522183 C1.77442089,1.60522183 1.80912839,1.60956027 1.86552807,1.60956027 C1.9262662,1.61389871 2.01303495,1.61823714 2.11281901,1.62691402 C2.30804869,1.64426777 2.55967806,1.67897527 2.80696899,1.76140558 C3.02822929,1.83515901 3.24081273,1.94795838 3.41435022,2.11281901 C3.47508834,2.182234 3.52714959,2.24731056 3.57053397,2.31238713 C3.70936396,2.53364743 3.73973302,2.75490774 3.7484099,2.88072242 C3.75708677,2.94146055 3.75708677,2.97182961 3.75708677,2.97182961 L3.75708677,3.03256773 C3.7484099,3.08896742 3.74407146,3.18441304 3.71804084,3.30155085 C3.68333334,3.43170397 3.62259521,3.5748724 3.50979584,3.71804084 C3.49244209,3.73973302 3.46641147,3.76576365 3.44471928,3.79179427 C3.39265803,3.84385552 3.34059678,3.89157833 3.2841971,3.93062427 C3.18441304,4.00003927 3.0759521,4.06511583 2.95447586,4.11283864 C2.79395367,4.18659207 2.61607774,4.23865332 2.42084806,4.27336082 C2.321064,4.29071457 2.21260307,4.30806832 2.10848057,4.3167452 C2.03906557,4.32976051 1.96965057,4.32976051 1.90457401,4.33409895 C1.83949745,4.33843738 1.77875933,4.33843738 1.71368277,4.33843738 L0,4.33843738 Z" id="path3137"></path>
                    </g>
                    <g id="g3139" transform="translate(11.678487, 6.499472) scale(1, -1) translate(-11.678487, -6.499472) translate(9.509268, 2.161035)" fill="#1A171B">
                        <path d="M0,4.33843738 L0,1.74839027 L0.859010602,1.74839027 L0.989163723,1.74839027 C1.04990185,1.7527287 1.11931684,1.7527287 1.18439341,1.76140558 C1.3579309,1.77442089 1.60956027,1.80045151 1.84817433,1.86986651 C1.90023557,1.87854339 1.94361995,1.89589714 1.9956812,1.90891245 C2.182234,1.98266588 2.36878681,2.07811151 2.51195524,2.2169415 C2.62475462,2.33407931 2.69416961,2.45555556 2.74623086,2.57703181 C2.80696899,2.72453868 2.83299961,2.86770711 2.83733805,2.96749117 C2.84601492,3.05859835 2.84601492,3.11499804 2.84601492,3.11499804 L2.84601492,3.22345898 C2.83733805,3.34059678 2.81564586,3.52281115 2.72887711,3.69634865 C2.68549274,3.77877896 2.62475462,3.86120927 2.55100118,3.93930114 C2.44687868,4.03474677 2.32974087,4.1085002 2.20392619,4.16489989 C1.9609737,4.27336082 1.68765214,4.3167452 1.45337652,4.32542207 C1.35359246,4.33409895 1.25814684,4.33843738 1.18439341,4.33843738 L0,4.33843738 Z" id="path3141"></path>
                    </g>
                    <path d="M3.83771403,2.97050229 L18.6100835,2.97050229 L18.6100835,16.8751741 L3.83771403,16.8751741 L3.83771403,2.97050229 Z M7.71193577,4.91849744 L7.71193577,14.9315521 L11.4820279,14.9315521 C11.4820279,14.9315521 13.3215366,14.9785229 14.332382,13.9684874 C15.161029,13.1398565 15.1046316,12.1897493 15.1046316,12.1897493 C15.1046316,12.1897493 15.1609967,11.1874882 14.3974609,10.4195956 C13.7423632,9.77317929 12.9137161,9.59533788 12.9137161,9.59533788 C12.9137161,9.59533788 13.2868267,9.42170765 13.5774954,9.13113616 C13.7119293,8.9967023 14.1935588,8.56716184 14.1935588,7.50416257 C14.1935588,6.44553646 13.4863881,5.83815458 13.4863881,5.83815458 C13.4863881,5.83815458 12.7141547,4.91849744 10.9657534,4.91849744 L7.71193577,4.91849744 L7.71193577,4.91849744 Z" id="path3143" fill="#1A171B"></path>
                    <g id="g3145" transform="translate(7.656744, 26.070237) scale(1, -1) translate(-7.656744, -26.070237) translate(1.149088, 17.393362)" fill="#1A171B">
                        <path d="M4.33843738,13.0153121 L5.40135454,13.0153121 C6.9978995,13.0153121 7.64432667,12.3645465 7.66168042,11.2799372 C7.67469573,10.3211425 7.16709856,9.41007068 5.40135454,9.41007068 L4.33843738,9.41007068 L4.33843738,13.0153121 Z M2.68983118,14.4339812 L2.68983118,2.94146055 L4.33843738,2.94146055 L4.33843738,7.9263251 L5.02824893,7.9263251 C5.87424422,7.9263251 6.55971732,7.65734198 8.08250884,5.29723204 L9.59662349,2.94146055 L11.5662741,2.94146055 C10.7766785,4.03040833 10.4903416,4.42520613 10.0000982,5.2104633 C9.12373382,6.64648607 8.48164508,7.70940323 7.44042011,8.39921477 C8.66819789,8.8894582 9.36234787,9.88296036 9.36234787,11.2148606 C9.36234787,13.201865 7.91330979,14.4339812 5.58790735,14.4339812 L2.68983118,14.4339812 L2.68983118,14.4339812 Z" id="path3147"></path>
                    </g>
                    <g id="g3149" transform="translate(18.116727, 27.115744) scale(1, -1) translate(-18.116727, -27.115744) translate(9.439853, 18.438869)" fill="#1A171B">
                        <path d="M8.67687477,13.0153121 L10.533726,8.85908914 L6.95885356,8.85908914 L8.67687477,13.0153121 Z M9.284256,15.5446211 L8.12155478,15.5446211 L3.1800746,3.98702395 L4.86772674,3.98702395 L6.32110327,7.36666668 L11.2061838,7.36666668 L12.7376522,3.98702395 L14.4209659,3.98702395 L9.284256,15.5446211 L9.284256,15.5446211 Z" id="path3151"></path>
                    </g>
                    <g id="g3153" transform="translate(31.227476, 26.135348) scale(1, -1) translate(-31.227476, -26.135348) translate(22.550601, 17.458474)" fill="#1A171B">
                        <path d="M4.33843738,13.0153121 L6.87208481,13.0153121 C10.0955438,13.0153121 11.5662741,11.0543385 11.5662741,8.74628976 C11.5662741,7.33195918 10.702925,4.49028269 6.963192,4.49028269 L4.33843738,4.49028269 L4.33843738,13.0153121 Z M2.6811543,3.00653711 L7.16276012,3.00653711 C10.9588928,3.00653711 13.2626031,5.80482922 13.2626031,8.74628976 C13.2626031,11.4621516 11.3927366,14.4990577 7.14974481,14.4990577 L2.6811543,14.4990577 L2.6811543,3.00653711 L2.6811543,3.00653711 Z" id="path3155"></path>
                    </g>
                    <polygon id="path3157" fill="#1A171B" points="37.716568 20.315547 39.3651644 20.315547 39.3651644 31.8081839 37.716568 31.8081839"></polygon>
                    <g id="g3159" transform="translate(47.314398, 26.065915) scale(1, -1) translate(-47.314398, -26.065915) translate(38.637523, 17.389040)" fill="#1A171B">
                        <path d="M4.33843738,8.67687477 C4.33843738,11.2105222 6.24301139,13.0586965 8.80268945,13.0586965 C11.3840597,13.0586965 13.2886337,11.2105222 13.2886337,8.67687477 C13.2886337,6.16925796 11.3840597,4.29505301 8.80268945,4.29505301 C6.24301139,4.29505301 4.33843738,6.16925796 4.33843738,8.67687477 M2.63343149,8.67687477 C2.63343149,5.56187672 5.01523361,2.7852768 8.76798195,2.7852768 C12.6595603,2.7852768 14.9893012,5.57923047 14.9893012,8.67687477 C14.9893012,11.88298 12.5988222,14.5771496 8.80268945,14.5771496 C5.07597174,14.5771496 2.63343149,11.8656262 2.63343149,8.67687477" id="path3161"></path>
                    </g>
                    <path d="M85.7010481,56.7395092 C85.7010319,56.0621569 85.5439386,55.5351114 85.2295416,55.1583727 C84.9152093,54.7817959 84.4897828,54.5934265 83.9532622,54.5934265 C83.4058896,54.5934265 82.9642015,54.7858451 82.6281979,55.1706823 C82.292178,55.5553575 82.1241843,56.0783538 82.1241843,56.7395092 C82.1241843,57.3898127 82.2881126,57.9047106 82.6160017,58.2840408 C82.9438745,58.663533 83.389628,58.8531981 83.9532622,58.8531981 C84.4789471,58.8531981 84.9016687,58.6593218 85.2214269,58.2718932 C85.541169,57.8844645 85.7010319,57.3736158 85.7010481,56.7395092 Z M88.6844754,60.9992807 L85.7010481,60.9992807 L85.7010481,59.8368328 C85.3975515,60.3407168 85.0168283,60.7053079 84.5588948,60.9301202 C84.1009289,61.1550944 83.5169838,61.2675006 82.8070435,61.2675006 C81.6581037,61.2675006 80.730008,60.8528612 80.0227726,60.0237444 C79.3155371,59.1946277 78.9619113,58.0998826 78.9619113,56.7395092 C78.9619113,55.3305452 79.3168815,54.2181455 80.026838,53.4024722 C80.7367945,52.5867988 81.6960368,52.1791241 82.9045809,52.1789621 C83.5386552,52.1791241 84.0819623,52.2955794 84.5345023,52.5286521 C84.9870261,52.7617248 85.3758639,53.1221047 85.7010481,53.6097918 L85.7010481,52.4392455 L88.6844754,52.4392455 L88.6844754,60.9992807 Z" id="path3165" fill="#FFFFFF"></path>
                    <path d="M97.163656,58.3817078 C97.163656,59.2595771 96.8303572,59.9600908 96.1637759,60.4830871 C95.4971621,61.0060834 94.6002453,61.2675006 93.4729932,61.2675006 C92.7251036,61.2675006 92.0300482,61.1816573 91.3878431,61.0073791 C90.745638,60.8339109 90.1345794,60.571198 89.5546998,60.2189165 L90.1887741,57.9019571 C90.6169216,58.2814493 91.0992476,58.5767179 91.6357845,58.7880868 C92.1723051,58.9994557 92.7115468,59.1052211 93.2535096,59.1052211 C93.6274463,59.1052211 93.8957147,59.0533912 94.0582987,58.951351 C94.2208827,58.8476912 94.3021747,58.6831312 94.3021747,58.4554035 C94.3021747,58.0598764 93.9146813,57.7699528 93.1396944,57.5856326 C92.9066541,57.5305633 92.7223825,57.4884515 92.5869121,57.4560578 C91.692684,57.2229851 91.0369221,56.8992101 90.6196265,56.4845708 C90.2023308,56.0700934 89.993683,55.5375409 89.993683,54.8872374 C89.993683,54.0634656 90.3052942,53.4063594 90.928549,52.9159188 C91.5517876,52.4254782 92.3999357,52.1802579 93.4729932,52.1800959 C94.0908058,52.1802579 94.6761114,52.2416439 95.2289099,52.3671695 C95.7816922,52.4918853 96.3399004,52.6896488 96.9035346,52.9606221 L96.2857057,55.0415934 C95.9063431,54.781472 95.4971621,54.5769058 95.0581951,54.4278947 C94.6192118,54.2788837 94.2019,54.2043782 93.8062919,54.2043782 C93.4540266,54.2043782 93.191168,54.2545884 93.0177483,54.3550089 C92.8443286,54.4554294 92.7576107,54.6057362 92.7576269,54.8062532 C92.7576107,55.1097821 93.1586609,55.3671501 93.9607451,55.578519 C94.2859131,55.6595032 94.5433296,55.7307694 94.7330271,55.7898879 C95.6001417,56.0555162 96.2220197,56.3914389 96.5986775,56.7979798 C96.9753352,57.2043588 97.163656,57.7327 97.163656,58.3831655 L97.163656,58.3817078 Z" id="path3167" fill="#FFFFFF"></path>
                    <path d="M101.105985,60.9992807 L98.0737732,60.9992807 L98.0737732,52.4392455 L101.105985,52.4392455 L101.105985,60.9992807 Z M101.252243,49.8459678 C101.252243,50.3066063 101.088299,50.7048868 100.760426,51.0409714 C100.432537,51.3768941 100.040978,51.5450174 99.5857491,51.5450174 C99.1359302,51.5450174 98.7457319,51.3755984 98.415138,51.0369222 C98.0845441,50.6982461 97.9192552,50.3012613 97.9192552,49.8459678 C97.9192552,49.3906744 98.0831998,48.9991965 98.4110726,48.6712103 C98.7389454,48.3433861 99.1305043,48.1794739 99.5857491,48.1794739 C100.046404,48.1794739 100.439323,48.3414424 100.764491,48.6631119 C101.089659,48.9855912 101.252243,49.3798225 101.252243,49.8459678 L101.252243,49.8459678 Z" id="path3169" fill="#FFFFFF"></path>
                    <path d="M108.690889,56.7395092 C108.690889,56.0621569 108.53378,55.5351114 108.219399,55.1583727 C107.905067,54.7817959 107.47964,54.5934265 106.943103,54.5934265 C106.395731,54.5934265 105.954043,54.7858451 105.618039,55.1706823 C105.282036,55.5553575 105.114026,56.0783538 105.114026,56.7395092 C105.114026,57.3898127 105.27797,57.9047106 105.605843,58.2840408 C105.933732,58.663533 106.379469,58.8531981 106.943103,58.8531981 C107.468788,58.8531981 107.89151,58.6593218 108.211268,58.2718932 C108.53101,57.8844645 108.690889,57.3736158 108.690889,56.7395092 Z M111.674317,60.9992807 L108.690889,60.9992807 L108.690889,59.8368328 C108.387393,60.3407168 108.00667,60.7053079 107.548736,60.9301202 C107.090786,61.1550944 106.506841,61.2675006 105.796885,61.2675006 C104.647945,61.2675006 103.719866,60.8528612 103.01263,60.0237444 C102.305378,59.1946277 101.951753,58.0998826 101.951753,56.7395092 C101.951753,55.3305452 102.306739,54.2181455 103.016695,53.4024722 C103.726636,52.5867988 104.685894,52.1791241 105.894438,52.1789621 C106.528513,52.1791241 107.07182,52.2955794 107.524344,52.5286521 C107.976867,52.7617248 108.365721,53.1221047 108.690889,53.6097918 L108.690889,52.4392455 L111.674317,52.4392455 L111.674317,60.9992807 Z" id="path3171" fill="#FFFFFF"></path>
                    <path d="M121.793704,60.9992807 L118.761491,60.9992807 L118.761491,56.5525975 C118.761491,55.8263308 118.663986,55.3182356 118.468847,55.028312 C118.273723,54.7383884 117.93772,54.5934265 117.46082,54.5934265 C116.908021,54.5934265 116.498856,54.8333019 116.233293,55.3128906 C115.967745,55.7924794 115.834964,56.5336472 115.834964,57.5362322 L115.834964,60.9992807 L112.802767,60.9992807 L112.802767,52.4392455 L115.834964,52.4392455 L115.834964,53.8699133 C116.219752,53.2466585 116.628917,52.8090196 117.062474,52.5569966 C117.496032,52.3049736 118.051535,52.1791241 118.728968,52.1789621 C119.823697,52.1791241 120.608175,52.487998 121.082387,53.1057459 C121.556582,53.7236557 121.793687,54.7289942 121.793704,56.1217613 L121.793704,60.9992807 Z" id="path3173" fill="#FFFFFF"></path>
                    <path d="M145.445624,60.9992807 L142.413411,60.9992807 L142.413411,56.5525975 C142.413411,55.8263308 142.315906,55.3182356 142.12075,55.028312 C141.925643,54.7383884 141.58964,54.5934265 141.112739,54.5934265 C140.559941,54.5934265 140.15076,54.8333019 139.885213,55.3128906 C139.619649,55.7924794 139.486883,56.5336472 139.486883,57.5362322 L139.486883,60.9992807 L136.454671,60.9992807 L136.454671,52.4392455 L139.486883,52.4392455 L139.486883,53.8699133 C139.871656,53.2466585 140.280837,52.8090196 140.714394,52.5569966 C141.147951,52.3049736 141.703455,52.1791241 142.380888,52.1789621 C143.475617,52.1791241 144.260095,52.487998 144.734307,53.1057459 C145.208502,53.7236557 145.445607,54.7289942 145.445624,56.1217613 L145.445624,60.9992807 Z" id="path3175" fill="#EB018A"></path>
                    <path d="M152.025545,55.6339122 C151.971286,55.1300282 151.80062,54.7330434 151.513401,54.4429578 C151.226166,54.1530342 150.860344,54.0080724 150.415951,54.0080724 C149.966132,54.0080724 149.597605,54.1635621 149.310386,54.4755135 C149.023151,54.7871409 148.874108,55.1732738 148.863272,55.6339122 L152.025545,55.6339122 Z M154.943942,57.3004061 L148.863272,57.3004061 C148.863272,57.8857602 149.021839,58.3463987 149.338828,58.6824833 C149.655865,59.018406 150.074521,59.1863673 150.594797,59.1863673 C150.919965,59.1863673 151.238362,59.0989043 151.54999,58.9221967 C151.861601,58.7461369 152.087871,58.5117685 152.228783,58.2190914 L154.504959,59.1376148 C154.093073,59.9072891 153.578224,60.4545807 152.960411,60.7798134 C152.342582,61.1048842 151.537777,61.2675006 150.546028,61.2675006 C149.082756,61.2675006 147.951438,60.874565 147.152075,60.0888558 C146.352696,59.3029846 145.953006,58.2082395 145.953006,56.8046205 C145.953006,55.4280502 146.359466,54.3128971 147.172386,53.4593231 C147.985322,52.6059111 149.07192,52.1791241 150.432213,52.1789621 C151.835864,52.1791241 152.938724,52.6208122 153.740824,53.5040264 C154.542892,54.3875646 154.943926,55.6096169 154.943942,57.1703454 L154.943942,57.3004061 Z" id="path3177" fill="#EB018A"></path>
                    <polygon id="path3179" fill="#EB018A" points="160.502928 54.853548 159.039672 54.853548 159.039672 60.9992807 156.00746 60.9992807 156.00746 54.853548 155.007564 54.853548 155.007564 52.4392455 156.00746 52.4392455 156.00746 49.8621647 159.039672 49.8621647 159.039672 52.4392455 160.502928 52.4392455"></polygon>
                    <polygon id="path3181" fill="#EB018A" points="177.007664 52.4392455 173.105632 60.9992807 170.813195 60.9992807 168.894694 55.9753418 166.911163 60.9992807 164.448011 60.9992807 160.586617 52.4392455 163.822051 52.4392455 165.903136 57.4874797 167.748475 52.4392455 169.943359 52.4392455 171.845598 57.4874797 173.77223 52.4392455"></polygon>
                    <path d="M182.87115,56.7233123 C182.87115,56.1813657 182.70314,55.7260723 182.367137,55.3575939 C182.031133,54.9891156 181.611116,54.8047954 181.107103,54.8047954 C180.575992,54.8047954 180.149205,54.9891156 179.826758,55.3575939 C179.504295,55.7260723 179.343055,56.1813657 179.343072,56.7233123 C179.343055,57.3031596 179.501639,57.7665514 179.818627,58.113326 C180.135664,58.4602625 180.565156,58.6337308 181.107103,58.6337308 C181.627378,58.6337308 182.051444,58.4602625 182.379333,58.113326 C182.707206,57.7665514 182.87115,57.3031596 182.87115,56.7233123 Z M186.033423,56.7233123 C186.033407,58.0239194 185.568687,59.1065168 184.639263,59.9709427 C183.709807,60.8353686 182.532426,61.2675006 181.107103,61.2675006 C179.665535,61.2675006 178.484072,60.8366643 177.562762,59.9749919 C176.641453,59.1133195 176.180799,58.0294263 176.180799,56.7233123 C176.180799,55.4389021 176.652289,54.3603539 177.595286,53.4878296 C178.538266,52.6153053 179.708877,52.1791241 181.107103,52.1789621 C182.537852,52.1791241 183.716577,52.6031576 184.643329,53.4512247 C185.570048,54.2994537 186.033407,55.3901496 186.033423,56.7233123 L186.033423,56.7233123 Z" id="path3183" fill="#EB018A"></path>
                    <path d="M192.963634,52.2986568 L192.654712,55.2576594 C192.437933,55.197731 192.248252,55.1556192 192.085684,55.1313239 C191.923084,55.1070287 191.765926,55.0940712 191.614178,55.0940712 C190.898795,55.0940712 190.364979,55.3094893 190.01273,55.7403255 C189.660449,56.1711617 189.484324,56.8201695 189.484324,57.6871869 L189.484324,61.0690891 L186.468374,61.0690891 L186.468374,52.508892 L189.484324,52.508892 L189.484324,54.159189 C189.793231,53.5088855 190.163102,53.027839 190.59397,52.7162116 C191.024807,52.4045842 191.524755,52.2487705 192.093799,52.2487705 C192.202156,52.2487705 192.3282,52.2487705 192.471817,52.2649674 C192.615483,52.2811642 192.779363,52.2860233 192.963634,52.3022201 L192.963634,52.2986568 Z" id="path3185" fill="#EB018A"></path>
                    <polygon id="path3187" fill="#EB018A" points="203.637715 60.9992807 199.63813 60.9992807 196.410826 57.1867042 196.410826 60.9992807 193.378614 60.9992807 193.378614 47.2607886 196.410826 47.2607886 196.410826 56.154317 199.524314 52.4392455 203.288154 52.4392455 199.418646 56.5362387"></polygon>
                </g>
            </g>
        </g>
    </g>
</svg>