<?xml version="1.0" encoding="UTF-8"?>
<svg width="141px" height="73px" viewBox="0 0 141 73" version="1.1" xmlns="http://www.w3.org/2000/svg" xmlns:xlink="http://www.w3.org/1999/xlink">
    <!-- Generator: Sketch 41.2 (35397) - http://www.bohemiancoding.com/sketch -->
    <title>asian_network.small</title>
    <desc>Created with Sketch.</desc>
    <defs></defs>
    <g id="Page-1" stroke="none" stroke-width="1" fill="none" fill-rule="evenodd">
        <g id="asian_network.small">
            <path d="M73.6614955,36.5429366 C73.6614955,56.6698115 57.3454562,72.9858508 37.2185814,72.9858508 C17.0917065,72.9858508 0.775667236,56.6698115 0.775667236,36.5429366 C0.775667236,16.4160618 17.0917065,0.100022528 37.2185814,0.100022528 C57.3454562,0.100022528 73.6614955,16.4160618 73.6614955,36.5429366 Z" id="path3189" fill="#EB018A"></path>
            <g id="g3115" transform="translate(36.640345, 27.618864) scale(1, -1) translate(-36.640345, -27.618864) translate(13.180278, 4.158797)" fill="#FFFFFF">
                <path d="M35.1901004,29.3250837 L34.5508136,31.0200735 C24.9380512,22.5509893 16.117066,13.7945194 9.12596604,3.23162422 L12.0408794,3.23162422 C17.4836149,11.6948434 26.0465393,20.8325394 35.1901004,29.3250837 L35.1901004,29.3250837 Z M32.8792838,31.4599498 C33.278105,31.7883907 33.653466,32.0992366 34.0229621,32.4159475 L33.3426201,34.2223726 C32.8792838,33.8528766 32.4042175,33.4716505 31.9467462,33.0962894 C19.1610097,22.6506946 9.64795253,12.7446814 3.87091104,3.23162422 L6.37527319,3.23162422 C12.0702044,12.3224002 20.5979388,21.2196305 32.8792838,31.4599498 L32.8792838,31.4599498 Z M33.0141792,35.1138552 L30.0640758,42.9436525 L18.7915136,42.9436525 L6.48084349,10.9382562 C13.7006791,20.1346024 22.8266451,28.1579453 33.0141792,35.1138552 L33.0141792,35.1138552 Z M35.764872,27.7943143 C29.7297698,21.7533471 24.2107891,15.7006498 19.8824067,10.1347489 L31.4306247,10.1347489 L34.011232,3.23162422 L45.0140034,3.23162422 L35.764872,27.7943143 L35.764872,27.7943143 Z" id="path3117"></path>
            </g>
            <path d="M22.9633351,56.1187042 C22.9633189,55.4413519 22.8062256,54.9143064 22.4918286,54.5375677 C22.1774963,54.1609909 21.7520698,53.9726215 21.2155492,53.9726215 C20.6681766,53.9726215 20.2264885,54.1650401 19.8904849,54.5498773 C19.554465,54.9345525 19.3864713,55.4575488 19.3864713,56.1187042 C19.3864713,56.7690077 19.5503996,57.2839056 19.8782887,57.6632358 C20.2061615,58.042728 20.651915,58.2323931 21.2155492,58.2323931 C21.7412341,58.2323931 22.1639557,58.0385168 22.4837139,57.6510882 C22.803456,57.2636595 22.9633189,56.7528108 22.9633351,56.1187042 Z M25.9467624,60.3784757 L22.9633351,60.3784757 L22.9633351,59.2160278 C22.6598385,59.7199118 22.2791153,60.0845029 21.8211818,60.3093152 C21.3632159,60.5342894 20.7792708,60.6466956 20.0693305,60.6466956 C18.9203907,60.6466956 17.992295,60.2320562 17.2850596,59.4029394 C16.5778241,58.5738227 16.2241983,57.4790776 16.2241983,56.1187042 C16.2241983,54.7097402 16.5791685,53.5973405 17.289125,52.7816672 C17.9990815,51.9659938 18.9583238,51.5583191 20.1668679,51.5581571 C20.8009422,51.5583191 21.3442493,51.6747744 21.7967893,51.9078471 C22.2493131,52.1409198 22.6381509,52.5012997 22.9633351,52.9889868 L22.9633351,51.8184405 L25.9467624,51.8184405 L25.9467624,60.3784757 Z" id="path3165" fill="#FFFFFF"></path>
            <path d="M34.425943,57.7609028 C34.425943,58.6387721 34.0926442,59.3392858 33.4260629,59.8622821 C32.7594491,60.3852784 31.8625323,60.6466956 30.7352802,60.6466956 C29.9873906,60.6466956 29.2923352,60.5608523 28.6501301,60.3865741 C28.007925,60.2131059 27.3968664,59.950393 26.8169868,59.5981115 L27.4510611,57.2811521 C27.8792086,57.6606443 28.3615346,57.9559129 28.8980715,58.1672818 C29.4345921,58.3786507 29.9738338,58.4844161 30.5157966,58.4844161 C30.8897333,58.4844161 31.1580017,58.4325862 31.3205857,58.330546 C31.4831697,58.2268862 31.5644617,58.0623262 31.5644617,57.8345985 C31.5644617,57.4390714 31.1769683,57.1491478 30.4019814,56.9648276 C30.1689411,56.9097583 29.9846695,56.8676465 29.8491991,56.8352528 C28.954971,56.6021801 28.2992091,56.2784051 27.8819135,55.8637658 C27.4646178,55.4492884 27.25597,54.9167359 27.25597,54.2664324 C27.25597,53.4426606 27.5675812,52.7855544 28.190836,52.2951138 C28.8140746,51.8046732 29.6622227,51.5594529 30.7352802,51.5592909 C31.3530928,51.5594529 31.9383984,51.6208389 32.4911969,51.7463645 C33.0439792,51.8710803 33.6021874,52.0688438 34.1658216,52.3398171 L33.5479927,54.4207884 C33.1686301,54.160667 32.7594491,53.9561008 32.3204821,53.8070897 C31.8814988,53.6580787 31.464187,53.5835732 31.0685789,53.5835732 C30.7163136,53.5835732 30.453455,53.6337834 30.2800353,53.7342039 C30.1066156,53.8346244 30.0198977,53.9849312 30.0199139,54.1854482 C30.0198977,54.4889771 30.4209479,54.7463451 31.2230321,54.957714 C31.5482001,55.0386982 31.8056166,55.1099644 31.9953141,55.1690829 C32.8624287,55.4347112 33.4843067,55.7706339 33.8609645,56.1771748 C34.2376222,56.5835538 34.425943,57.111895 34.425943,57.7623605 L34.425943,57.7609028 Z" id="path3167" fill="#FFFFFF"></path>
            <path d="M38.3682725,60.3784757 L35.3360602,60.3784757 L35.3360602,51.8184405 L38.3682725,51.8184405 L38.3682725,60.3784757 Z M38.51453,49.2251628 C38.51453,49.6858013 38.3505855,50.0840818 38.0227127,50.4201664 C37.6948237,50.7560891 37.3032648,50.9242124 36.8480361,50.9242124 C36.3982172,50.9242124 36.0080189,50.7547934 35.677425,50.4161172 C35.3468311,50.0774411 35.1815422,49.6804563 35.1815422,49.2251628 C35.1815422,48.7698694 35.3454868,48.3783915 35.6733596,48.0504053 C36.0012324,47.7225811 36.3927913,47.5586689 36.8480361,47.5586689 C37.3086907,47.5586689 37.7016101,47.7206374 38.0267781,48.0423069 C38.3519461,48.3647862 38.51453,48.7590175 38.51453,49.2251628 L38.51453,49.2251628 Z" id="path3169" fill="#FFFFFF"></path>
            <path d="M45.9531764,56.1187042 C45.9531764,55.4413519 45.7960669,54.9143064 45.481686,54.5375677 C45.1673538,54.1609909 44.7419273,53.9726215 44.2053905,53.9726215 C43.6580179,53.9726215 43.2163298,54.1650401 42.8803262,54.5498773 C42.5443225,54.9345525 42.3763126,55.4575488 42.3763126,56.1187042 C42.3763126,56.7690077 42.5402571,57.2839056 42.8681299,57.6632358 C43.196019,58.042728 43.6417563,58.2323931 44.2053905,58.2323931 C44.7310754,58.2323931 45.153797,58.0385168 45.4735552,57.6510882 C45.7932972,57.2636595 45.9531764,56.7528108 45.9531764,56.1187042 Z M48.9366037,60.3784757 L45.9531764,60.3784757 L45.9531764,59.2160278 C45.6496798,59.7199118 45.2689566,60.0845029 44.8110231,60.3093152 C44.3530733,60.5342894 43.7691283,60.6466956 43.0591718,60.6466956 C41.910232,60.6466956 40.9821525,60.2320562 40.2749171,59.4029394 C39.5676654,58.5738227 39.2140396,57.4790776 39.2140396,56.1187042 C39.2140396,54.7097402 39.569026,53.5973405 40.2789825,52.7816672 C40.9889228,51.9659938 41.9481813,51.5583191 43.1567254,51.5581571 C43.7907997,51.5583191 44.3341068,51.6747744 44.7866306,51.9078471 C45.2391544,52.1409198 45.6280084,52.5012997 45.9531764,52.9889868 L45.9531764,51.8184405 L48.9366037,51.8184405 L48.9366037,60.3784757 Z" id="path3171" fill="#FFFFFF"></path>
            <path d="M59.0559907,60.3784757 L56.0237784,60.3784757 L56.0237784,55.9317925 C56.0237784,55.2055258 55.9262734,54.6974306 55.7311337,54.407507 C55.5360103,54.1175834 55.2000066,53.9726215 54.7231066,53.9726215 C54.1703081,53.9726215 53.7611432,54.2124969 53.4955797,54.6920856 C53.2300323,55.1716744 53.0972506,55.9128422 53.0972506,56.9154272 L53.0972506,60.3784757 L50.0650545,60.3784757 L50.0650545,51.8184405 L53.0972506,51.8184405 L53.0972506,53.2491083 C53.4820391,52.6258535 53.8912039,52.1882146 54.3247612,51.9361916 C54.7583185,51.6841686 55.3138219,51.5583191 55.9912551,51.5581571 C57.085984,51.5583191 57.8704622,51.867193 58.3446736,52.4849409 C58.8188688,53.1028507 59.0559745,54.1081892 59.0559907,55.5009563 L59.0559907,60.3784757 Z" id="path3173" fill="#FFFFFF"></path>
            <path d="M82.7079106,60.3784757 L79.6756983,60.3784757 L79.6756983,55.9317925 C79.6756983,55.2055258 79.5781933,54.6974306 79.3830374,54.407507 C79.1879302,54.1175834 78.8519265,53.9726215 78.3750265,53.9726215 C77.822228,53.9726215 77.413047,54.2124969 77.1474996,54.6920856 C76.8819361,55.1716744 76.7491705,55.9128422 76.7491705,56.9154272 L76.7491705,60.3784757 L73.7169582,60.3784757 L73.7169582,51.8184405 L76.7491705,51.8184405 L76.7491705,53.2491083 C77.1339428,52.6258535 77.5431239,52.1882146 77.9766811,51.9361916 C78.4102384,51.6841686 78.9657418,51.5583191 79.643175,51.5581571 C80.7379039,51.5583191 81.5223822,51.867193 81.9965935,52.4849409 C82.4707887,53.1028507 82.7078944,54.1081892 82.7079106,55.5009563 L82.7079106,60.3784757 Z" id="path3175" fill="#EB018A"></path>
            <path d="M89.2878323,55.0131072 C89.2335729,54.5092232 89.0629067,54.1122384 88.7756879,53.8221528 C88.488453,53.5322292 88.1226309,53.3872674 87.678238,53.3872674 C87.228419,53.3872674 86.8598921,53.5427571 86.5726734,53.8547085 C86.2854384,54.1663359 86.136395,54.5524688 86.1255593,55.0131072 L89.2878323,55.0131072 Z M92.2062294,56.6796011 L86.1255593,56.6796011 C86.1255593,57.2649552 86.2841265,57.7255937 86.601115,58.0616783 C86.9181522,58.397601 87.3368084,58.5655623 87.8570836,58.5655623 C88.1822515,58.5655623 88.5006492,58.4780993 88.8122766,58.3013917 C89.1238878,58.1253319 89.3501578,57.8909635 89.4910704,57.5982864 L91.7672461,58.5168098 C91.3553602,59.2864841 90.840511,59.8337757 90.2226983,60.1590084 C89.6048695,60.4840792 88.8000642,60.6466956 87.8083149,60.6466956 C86.3450428,60.6466956 85.2137253,60.25376 84.4143621,59.4680508 C83.6149828,58.6821796 83.2152931,57.5874345 83.2152931,56.1838155 C83.2152931,54.8072452 83.6217531,53.6920921 84.434673,52.8385181 C85.2476091,51.9851061 86.3342072,51.5583191 87.6944996,51.5581571 C89.098151,51.5583191 90.2010107,52.0000072 91.0031111,52.8832214 C91.8051791,53.7667596 92.2062132,54.9888119 92.2062294,56.5495404 L92.2062294,56.6796011 Z" id="path3177" fill="#EB018A"></path>
            <polygon id="path3179" fill="#EB018A" points="97.765215 54.232743 96.3019592 54.232743 96.3019592 60.3784757 93.2697469 60.3784757 93.2697469 54.232743 92.2698506 54.232743 92.2698506 51.8184405 93.2697469 51.8184405 93.2697469 49.2413597 96.3019592 49.2413597 96.3019592 51.8184405 97.765215 51.8184405"></polygon>
            <polygon id="path3181" fill="#EB018A" points="114.269951 51.8184405 110.367919 60.3784757 108.075482 60.3784757 106.156981 55.3545368 104.17345 60.3784757 101.710298 60.3784757 97.8489042 51.8184405 101.084338 51.8184405 103.165423 56.8666747 105.010762 51.8184405 107.205646 51.8184405 109.107885 56.8666747 111.034517 51.8184405"></polygon>
            <path d="M120.133437,56.1025073 C120.133437,55.5605607 119.965427,55.1052673 119.629424,54.7367889 C119.29342,54.3683106 118.873403,54.1839904 118.36939,54.1839904 C117.838279,54.1839904 117.411492,54.3683106 117.089045,54.7367889 C116.766582,55.1052673 116.605342,55.5605607 116.605359,56.1025073 C116.605342,56.6823546 116.763926,57.1457464 117.080914,57.492521 C117.397951,57.8394575 117.827443,58.0129258 118.36939,58.0129258 C118.889665,58.0129258 119.313731,57.8394575 119.64162,57.492521 C119.969493,57.1457464 120.133437,56.6823546 120.133437,56.1025073 Z M123.29571,56.1025073 C123.295694,57.4031144 122.830974,58.4857118 121.90155,59.3501377 C120.972094,60.2145636 119.794713,60.6466956 118.36939,60.6466956 C116.927822,60.6466956 115.746359,60.2158593 114.825049,59.3541869 C113.90374,58.4925145 113.443086,57.4086213 113.443086,56.1025073 C113.443086,54.8180971 113.914576,53.7395489 114.857573,52.8670246 C115.800553,51.9945003 116.971164,51.5583191 118.36939,51.5581571 C119.800139,51.5583191 120.978864,51.9823526 121.905616,52.8304197 C122.832335,53.6786487 123.295694,54.7693446 123.29571,56.1025073 L123.29571,56.1025073 Z" id="path3183" fill="#EB018A"></path>
            <path d="M130.225921,51.6778518 L129.916999,54.6368544 C129.70022,54.576926 129.510539,54.5348142 129.347971,54.5105189 C129.185371,54.4862237 129.028213,54.4732662 128.876465,54.4732662 C128.161082,54.4732662 127.627266,54.6886843 127.275017,55.1195205 C126.922736,55.5503567 126.746611,56.1993645 126.746611,57.0663819 L126.746611,60.4482841 L123.730661,60.4482841 L123.730661,51.888087 L126.746611,51.888087 L126.746611,53.538384 C127.055518,52.8880805 127.425389,52.407034 127.856257,52.0954066 C128.287094,51.7837792 128.787042,51.6279655 129.356086,51.6279655 C129.464443,51.6279655 129.590487,51.6279655 129.734104,51.6441624 C129.87777,51.6603592 130.04165,51.6652183 130.225921,51.6814151 L130.225921,51.6778518 Z" id="path3185" fill="#EB018A"></path>
            <polygon id="path3187" fill="#EB018A" points="140.900002 60.3784757 136.900417 60.3784757 133.673113 56.5658992 133.673113 60.3784757 130.640901 60.3784757 130.640901 46.6399836 133.673113 46.6399836 133.673113 55.533512 136.786601 51.8184405 140.550441 51.8184405 136.680933 55.9154337"></polygon>
        </g>
    </g>
</svg>