<?xml version="1.0" encoding="UTF-8"?>
<svg width="40px" height="40px" viewBox="0 0 40 40" version="1.1" xmlns="http://www.w3.org/2000/svg" xmlns:xlink="http://www.w3.org/1999/xlink">
    <!-- Generator: Sketch 41.2 (35397) - http://www.bohemiancoding.com/sketch -->
    <title>radio4.large-white</title>
    <desc>Created with Sketch.</desc>
    <defs></defs>
    <g id="Page-1" stroke="none" stroke-width="1" fill="none" fill-rule="evenodd">
        <rect id="radio4.large" fill="#FFFFFF" x="0" y="0" width="40" height="40"></rect>
        <g id="radio4.large" transform="translate(1.000000, 10.000000)">
            <rect id="Rectangle-path" stroke="#FFFFFF" fill="#FFFFFF" x="21.54" y="3.278" width="11.625" height="13.75"></rect>
            <path d="M12.297,1.188 C12.279,1.184 12.259,1.181 12.241,1.177 L12.218,1.175 C12.186,1.17 12.154,1.166 12.121,1.164 C12.098,1.161 12.076,1.16 12.054,1.159 C12.013,1.156 11.975,1.155 11.938,1.155 L11.893,1.155 C11.861,1.155 11.83,1.157 11.8,1.159 C11.783,1.16 11.766,1.161 11.749,1.163 C11.724,1.165 11.7,1.167 11.675,1.171 L11.655,1.173 L11.631,1.176 L11.604,1.181 C11.592,1.183 11.58,1.185 11.569,1.188 C11.551,1.19 11.535,1.194 11.52,1.197 C11.42,1.218 11.328,1.246 11.244,1.278 C11.2,1.296 11.157,1.315 11.118,1.334 C11.084,1.351 11.053,1.368 11.021,1.386 C10.992,1.403 10.963,1.42 10.935,1.438 C10.92,1.449 10.904,1.459 10.888,1.471 C10.875,1.48 10.863,1.489 10.85,1.5 C10.823,1.52 10.798,1.542 10.773,1.562 C10.751,1.582 10.73,1.603 10.709,1.622 C10.692,1.639 10.673,1.657 10.658,1.677 C10.64,1.696 10.623,1.715 10.608,1.735 C10.589,1.756 10.574,1.778 10.558,1.8 C10.544,1.817 10.533,1.834 10.522,1.852 C10.513,1.864 10.506,1.876 10.5,1.888 C10.455,1.959 10.418,2.035 10.385,2.117 C10.346,2.219 10.318,2.329 10.302,2.444 C10.298,2.481 10.295,2.518 10.292,2.557 C10.29,2.586 10.289,2.616 10.289,2.645 C10.289,2.668 10.289,2.69 10.29,2.712 C10.292,2.735 10.295,2.757 10.297,2.78 L10.298,2.796 C10.302,2.823 10.306,2.849 10.311,2.874 C10.313,2.885 10.315,2.895 10.317,2.905 C10.321,2.926 10.327,2.948 10.331,2.968 C10.339,2.995 10.347,3.021 10.356,3.048 C10.367,3.08 10.379,3.111 10.391,3.141 C10.411,3.189 10.434,3.235 10.457,3.279 C10.471,3.305 10.486,3.33 10.5,3.354 C10.513,3.373 10.525,3.391 10.537,3.409 C10.553,3.433 10.57,3.456 10.587,3.477 C10.604,3.5 10.623,3.521 10.642,3.542 C10.663,3.567 10.686,3.591 10.708,3.613 L10.718,3.624 C10.738,3.642 10.757,3.661 10.779,3.681 C10.794,3.692 10.81,3.707 10.828,3.72 C10.843,3.732 10.861,3.746 10.878,3.758 C10.9,3.774 10.921,3.789 10.944,3.804 C10.971,3.819 10.997,3.836 11.024,3.852 C11.079,3.883 11.141,3.913 11.208,3.94 C11.233,3.95 11.259,3.959 11.286,3.968 C11.313,3.978 11.34,3.986 11.368,3.994 C11.417,4.007 11.468,4.02 11.52,4.031 C11.563,4.039 11.609,4.046 11.655,4.051 C11.7,4.057 11.748,4.061 11.796,4.063 C11.821,4.065 11.845,4.065 11.869,4.067 L11.904,4.067 C11.992,4.067 12.073,4.063 12.148,4.057 L12.163,4.056 C12.194,4.053 12.222,4.05 12.25,4.046 C12.294,4.041 12.334,4.035 12.373,4.027 C12.398,4.024 12.422,4.018 12.445,4.014 C12.482,4.006 12.516,3.997 12.549,3.989 C12.573,3.982 12.596,3.976 12.619,3.968 C12.646,3.961 12.671,3.952 12.696,3.943 L12.72,3.936 C12.732,3.931 12.748,3.925 12.767,3.918 C12.792,3.908 12.823,3.896 12.857,3.881 C12.879,3.872 12.901,3.862 12.924,3.852 C12.943,3.842 12.966,3.831 12.988,3.821 C12.996,3.817 13.006,3.812 13.016,3.808 L13.016,3.27 C13.009,3.275 13.002,3.279 12.996,3.283 L12.959,3.305 C12.922,3.327 12.887,3.348 12.852,3.368 C12.813,3.388 12.774,3.408 12.735,3.427 C12.67,3.458 12.605,3.484 12.544,3.506 C12.427,3.548 12.319,3.574 12.225,3.592 C12.213,3.594 12.202,3.596 12.191,3.597 C12.165,3.601 12.14,3.605 12.115,3.607 C12.078,3.611 12.043,3.613 12.013,3.614 C11.992,3.615 11.974,3.617 11.955,3.617 C11.917,3.617 11.878,3.615 11.837,3.612 C11.79,3.609 11.744,3.603 11.695,3.596 C11.617,3.582 11.539,3.562 11.464,3.535 C11.451,3.531 11.44,3.526 11.429,3.521 C11.422,3.519 11.415,3.516 11.407,3.513 C11.395,3.507 11.383,3.502 11.37,3.497 C11.343,3.484 11.317,3.471 11.291,3.456 C11.279,3.449 11.267,3.441 11.254,3.435 C11.242,3.426 11.229,3.418 11.216,3.408 C11.201,3.399 11.185,3.387 11.171,3.376 C11.155,3.364 11.141,3.351 11.127,3.341 L11.11,3.323 L11.101,3.315 L11.096,3.31 L11.089,3.304 C11.065,3.28 11.043,3.255 11.022,3.231 C11.012,3.217 11.001,3.203 10.99,3.19 C10.981,3.176 10.972,3.163 10.963,3.15 C10.954,3.137 10.947,3.125 10.94,3.111 C10.928,3.093 10.918,3.074 10.908,3.055 C10.901,3.039 10.894,3.023 10.887,3.007 C10.875,2.98 10.866,2.953 10.858,2.927 C10.851,2.907 10.845,2.886 10.84,2.867 C10.827,2.811 10.819,2.76 10.815,2.716 C10.812,2.699 10.812,2.683 10.811,2.669 C10.81,2.648 10.81,2.629 10.81,2.614 L10.81,2.58 C10.811,2.55 10.815,2.511 10.821,2.466 C10.824,2.439 10.83,2.411 10.838,2.38 C10.842,2.36 10.847,2.34 10.854,2.319 C10.861,2.3 10.867,2.281 10.875,2.26 C10.879,2.247 10.885,2.234 10.891,2.22 C10.899,2.202 10.908,2.184 10.917,2.166 C10.924,2.152 10.932,2.138 10.941,2.124 C10.958,2.094 10.978,2.063 11.001,2.033 C11.009,2.022 11.017,2.011 11.026,2 C11.038,1.987 11.049,1.972 11.062,1.959 C11.069,1.952 11.075,1.945 11.082,1.938 C11.18,1.84 11.291,1.766 11.405,1.714 C11.424,1.706 11.442,1.698 11.46,1.691 C11.478,1.684 11.496,1.678 11.515,1.671 C11.534,1.665 11.554,1.659 11.574,1.653 C11.593,1.648 11.613,1.643 11.631,1.638 C11.65,1.634 11.67,1.63 11.688,1.627 C11.709,1.623 11.729,1.62 11.75,1.617 C11.771,1.615 11.791,1.612 11.812,1.611 C11.852,1.608 11.889,1.606 11.926,1.606 L11.965,1.606 C11.993,1.607 12.019,1.608 12.046,1.609 C12.065,1.611 12.083,1.611 12.101,1.613 C12.133,1.617 12.167,1.62 12.198,1.625 C12.225,1.63 12.253,1.634 12.277,1.638 C12.316,1.647 12.351,1.655 12.384,1.664 C12.403,1.668 12.422,1.674 12.439,1.68 C12.465,1.688 12.487,1.695 12.505,1.7 C12.534,1.711 12.552,1.716 12.552,1.716 C12.577,1.726 12.604,1.737 12.629,1.747 C12.664,1.761 12.696,1.775 12.728,1.79 C12.753,1.802 12.778,1.814 12.801,1.824 C12.821,1.834 12.839,1.844 12.855,1.852 C12.885,1.867 12.91,1.881 12.93,1.892 L12.985,1.922 L12.985,1.395 C12.985,1.395 12.952,1.382 12.895,1.36 C12.87,1.351 12.84,1.34 12.806,1.328 C12.787,1.321 12.767,1.314 12.746,1.306 C12.73,1.3 12.713,1.294 12.695,1.289 C12.674,1.282 12.654,1.274 12.633,1.268 C12.617,1.264 12.601,1.258 12.584,1.254 L12.57,1.25 C12.555,1.245 12.538,1.241 12.524,1.237 C12.503,1.232 12.484,1.226 12.464,1.221 C12.452,1.219 12.439,1.216 12.426,1.213 C12.405,1.208 12.385,1.203 12.362,1.199 C12.341,1.194 12.319,1.19 12.297,1.188 L12.297,1.188 Z M9.657,0.637 L13.847,0.637 L13.847,4.58 L9.657,4.58 L9.657,0.637 Z" id="Shape" fill="#000000"></path>
            <path d="M6.437,2.818 L6.437,3.593 L6.94,3.593 C6.94,3.593 6.95,3.592 6.965,3.592 C6.983,3.591 7.007,3.589 7.037,3.588 C7.09,3.582 7.163,3.572 7.233,3.548 C7.296,3.528 7.357,3.496 7.404,3.449 C7.422,3.43 7.437,3.411 7.45,3.392 C7.488,3.33 7.499,3.267 7.501,3.232 C7.502,3.215 7.502,3.207 7.502,3.207 L7.502,3.188 C7.502,3.173 7.5,3.144 7.492,3.113 C7.482,3.076 7.465,3.034 7.434,2.994 C7.427,2.987 7.42,2.98 7.413,2.973 C7.4,2.959 7.384,2.945 7.368,2.933 C7.34,2.913 7.309,2.896 7.275,2.881 C7.23,2.861 7.179,2.847 7.122,2.836 C7.095,2.831 7.064,2.826 7.034,2.824 C7.014,2.821 6.996,2.821 6.976,2.819 C6.958,2.818 6.941,2.818 6.922,2.818 L6.437,2.818 Z" id="Shape" fill="#000000"></path>
            <path d="M6.437,1.639 L6.437,2.374 L6.68,2.374 C6.68,2.374 6.696,2.374 6.718,2.373 C6.736,2.373 6.754,2.372 6.773,2.37 C6.823,2.367 6.893,2.36 6.961,2.341 C6.976,2.337 6.989,2.332 7.001,2.328 C7.056,2.308 7.108,2.281 7.15,2.241 C7.182,2.209 7.202,2.173 7.216,2.139 C7.234,2.097 7.24,2.057 7.243,2.029 C7.244,2.002 7.244,1.987 7.244,1.987 L7.244,1.955 C7.243,1.924 7.236,1.871 7.21,1.822 C7.198,1.798 7.182,1.774 7.158,1.752 C7.131,1.726 7.099,1.704 7.063,1.688 C6.994,1.658 6.915,1.646 6.85,1.642 C6.82,1.64 6.794,1.639 6.772,1.639 L6.437,1.639 Z" id="Shape" fill="#000000"></path>
            <path d="M5.928,1.19 L5.928,4.031 L6.997,4.031 C6.997,4.031 7.519,4.044 7.806,3.757 C8.041,3.522 8.024,3.251 8.024,3.251 C8.024,3.251 8.041,2.968 7.824,2.751 C7.638,2.567 7.403,2.518 7.403,2.518 C7.403,2.518 7.509,2.468 7.592,2.386 C7.63,2.348 7.766,2.225 7.766,1.926 C7.766,1.624 7.566,1.451 7.566,1.451 C7.566,1.451 7.346,1.19 6.85,1.19 L5.928,1.19 Z M4.829,0.637 L9.019,0.637 L9.019,4.58 L4.829,4.58 L4.829,0.637 Z" id="Shape" fill="#000000"></path>
            <path d="M1.609,2.818 L1.609,3.593 L2.113,3.593 C2.113,3.593 2.122,3.592 2.139,3.592 C2.155,3.591 2.18,3.589 2.209,3.588 C2.264,3.582 2.335,3.572 2.405,3.548 C2.468,3.528 2.529,3.496 2.577,3.449 C2.595,3.43 2.61,3.411 2.622,3.392 C2.661,3.33 2.671,3.267 2.673,3.232 C2.675,3.215 2.675,3.207 2.675,3.207 L2.675,3.188 C2.673,3.173 2.671,3.144 2.664,3.113 C2.655,3.076 2.637,3.034 2.605,2.994 C2.6,2.987 2.593,2.98 2.586,2.973 C2.572,2.959 2.557,2.945 2.541,2.933 C2.513,2.913 2.482,2.896 2.448,2.881 C2.402,2.861 2.351,2.847 2.296,2.836 C2.268,2.831 2.237,2.826 2.207,2.824 C2.188,2.821 2.168,2.821 2.149,2.819 C2.132,2.818 2.113,2.818 2.096,2.818 L1.609,2.818 Z" id="Shape" fill="#000000"></path>
            <path d="M1.609,1.639 L1.609,2.374 L1.853,2.374 C1.853,2.374 1.869,2.374 1.89,2.373 C1.907,2.373 1.928,2.372 1.945,2.37 C1.995,2.367 2.065,2.36 2.134,2.341 C2.148,2.337 2.161,2.332 2.175,2.328 C2.229,2.308 2.281,2.281 2.321,2.241 C2.354,2.209 2.374,2.173 2.389,2.139 C2.406,2.097 2.413,2.057 2.415,2.029 C2.417,2.002 2.417,1.987 2.417,1.987 L2.417,1.955 C2.414,1.924 2.408,1.871 2.383,1.822 C2.371,1.798 2.354,1.774 2.332,1.752 C2.304,1.726 2.271,1.704 2.235,1.688 C2.166,1.658 2.088,1.646 2.021,1.642 C1.993,1.64 1.966,1.639 1.945,1.639 L1.609,1.639 Z" id="Shape" fill="#000000"></path>
            <path d="M1.1,1.19 L1.1,4.031 L2.169,4.031 C2.169,4.031 2.691,4.044 2.978,3.757 C3.212,3.522 3.196,3.251 3.196,3.251 C3.196,3.251 3.212,2.968 2.995,2.751 C2.81,2.567 2.575,2.517 2.575,2.517 C2.575,2.517 2.682,2.467 2.763,2.385 C2.802,2.347 2.938,2.224 2.938,1.925 C2.938,1.623 2.737,1.45 2.737,1.45 C2.737,1.45 2.518,1.19 2.023,1.19 L1.1,1.19 Z M0,0.637 L4.19,0.637 L4.19,4.58 L0,4.58 L0,0.637 Z" id="Shape" fill="#000000"></path>
            <path d="M0,5.558 L0,8.818 L0.468,8.818 L0.468,7.402 L0.664,7.402 C0.904,7.402 1.098,7.479 1.53,8.148 L1.96,8.817 L2.52,8.817 C2.295,8.507 2.214,8.397 2.074,8.172 C1.826,7.767 1.645,7.466 1.349,7.27 C1.697,7.131 1.894,6.849 1.894,6.471 C1.894,5.907 1.483,5.558 0.823,5.558 L0,5.558 L0,5.558 Z M0.469,5.959 L0.771,5.959 C1.224,5.959 1.407,6.145 1.411,6.451 C1.415,6.724 1.272,6.982 0.771,6.982 L0.469,6.982 L0.469,5.959 Z" id="Shape" fill="#000000"></path>
            <path d="M4.223,5.54 L3.893,5.54 L2.492,8.817 L2.97,8.817 L3.382,7.857 L4.768,7.857 L5.203,8.817 L5.68,8.817 L4.223,5.54 Z M4.051,6.256 L4.577,7.436 L3.563,7.436 L4.051,6.256 Z" id="Shape" fill="#000000"></path>
            <path d="M6.069,8.818 L7.34,8.818 C8.416,8.818 9.07,8.025 9.07,7.188 C9.07,6.419 8.54,5.558 7.336,5.558 L6.069,5.558 L6.069,8.818 Z M6.538,5.979 L7.258,5.979 C8.172,5.979 8.588,6.534 8.588,7.188 C8.588,7.59 8.344,8.398 7.284,8.398 L6.538,8.398 L6.538,5.979 Z" id="Shape" fill="#000000"></path>
            <path d="M9.844,8.817 L9.844,5.557" id="Shape" stroke="#000000" stroke-width="0.468"></path>
            <path d="M10.618,7.188 C10.618,8.072 11.293,8.86 12.358,8.86 C13.462,8.86 14.122,8.067 14.122,7.188 C14.122,6.28 13.444,5.515 12.368,5.515 C11.311,5.515 10.618,6.285 10.618,7.188 M11.101,7.188 C11.101,6.471 11.641,5.946 12.368,5.946 C13.099,5.946 13.639,6.471 13.639,7.188 C13.639,7.9 13.099,8.431 12.368,8.431 C11.641,8.431 11.101,7.9 11.101,7.188" id="Shape" fill="#000000"></path>
            <path d="M27.258,0 C21.551,0 16.925,4.628 16.925,10.336 C16.925,16.045 21.55,20.672 27.258,20.672 C32.963,20.672 37.588,16.045 37.588,10.336 C37.588,4.628 32.963,0 27.258,0 L27.258,0 Z M32.864,14.442 L30.762,14.442 L30.768,17.104 L27.004,17.108 L26.998,14.713 C26.998,14.713 26.994,14.449 26.678,14.438 L21.295,14.442 L21.297,12.233 C21.297,11.913 21.455,11.438 21.649,11.18 L27.405,3.461 C27.598,3.203 28.018,2.992 28.341,2.993 L30.77,2.994 L30.766,11.344 L32.869,11.338 L32.864,14.442 Z" id="Shape" fill="#002D5D"></path>
            <path d="M27.321,9.011 C26.505,9.028 25.852,9.706 25.872,10.523 C25.891,11.232 26.421,11.815 27.113,11.939 L27.645,12.034 C27.506,12.975 27.155,13.68 26.363,14.264 C27.43,13.789 28.251,12.766 28.628,11.684 C29.006,10.599 28.792,8.981 27.321,9.011" id="Shape" fill="#002D5D"></path>
        </g>
    </g>
</svg>