<?xml version="1.0" encoding="UTF-8"?>
<svg width="35px" height="21px" viewBox="0 0 35 21" version="1.1" xmlns="http://www.w3.org/2000/svg" xmlns:xlink="http://www.w3.org/1999/xlink">
    <!-- Generator: Sketch 41.2 (35397) - http://www.bohemiancoding.com/sketch -->
    <title>radio5liveextra.small</title>
    <desc>Created with Sketch.</desc>
    <defs></defs>
    <g id="Page-1" stroke="none" stroke-width="1" fill="none" fill-rule="evenodd">
        <g id="radio5liveextra.small" fill="#499337">
            <path d="M10.771,0 C5.17,0 0.625,4.546 0.625,10.153 C0.625,15.759 5.169,20.306 10.771,20.306 C16.376,20.306 20.918,15.759 20.918,10.153 C20.92,4.546 16.378,0 10.771,0 M11.361,7.769 C13.931,7.769 15.726,9.728 15.726,12.533 C15.726,13.889 15.195,15.157 14.228,16.102 C13.246,17.065 11.941,17.58 10.564,17.549 C8.243,17.549 5.888,16.395 5.467,13.84 L9.163,13.84 C9.451,14.27 9.925,14.524 10.508,14.524 C11.638,14.524 12.246,13.5 12.246,12.533 C12.246,11.577 11.709,10.612 10.508,10.612 C9.789,10.612 9.392,10.822 8.935,11.442 L8.826,11.59 L5.587,11.59 L7.252,3.319 L15.9,3.319 L15.3,6.334 L9.85,6.334 C9.85,6.334 9.593,7.515 9.474,8.189 C10.018,7.906 10.635,7.769 11.361,7.769" id="Shape"></path>
            <polygon id="Shape" points="25.156 10.176 25.837 4.983 24.555 4.983 23.874 10.176"></polygon>
            <polygon id="Shape" points="26.047 3.335 24.764 3.335 24.627 4.263 25.91 4.263"></polygon>
            <path d="M28.504,10.176 L31.089,4.983 L29.715,4.983 C29.715,4.983 28.527,7.529 28.25,8.124 C28.121,7.491 27.609,4.983 27.609,4.983 L26.258,4.983 L27.484,10.176 L28.504,10.176 Z" id="Shape"></path>
            <path d="M34.539,5.548 C34.185,5.146 33.665,4.924 33.072,4.924 C32.035,4.924 30.833,5.62 30.578,7.575 C30.459,8.48 30.6,9.171 31.002,9.626 C31.35,10.024 31.893,10.233 32.57,10.233 C33.32,10.233 34.004,9.944 34.547,9.397 L34.652,9.291 L33.81,8.484 L33.708,8.576 C33.411,8.845 33.017,9.012 32.672,9.012 C32.366,9.012 32.127,8.922 31.978,8.751 C31.855,8.612 31.792,8.415 31.792,8.175 C31.792,8.15 31.797,8.123 31.798,8.097 L34.843,8.097 L34.967,7.158 C34.982,7.046 34.989,6.936 34.989,6.829 C34.99,6.332 34.834,5.885 34.539,5.548 M33.695,6.993 L31.951,6.993 C32.091,6.468 32.461,6.147 32.951,6.147 C33.183,6.147 33.375,6.22 33.502,6.359 C33.631,6.5 33.697,6.71 33.697,6.971 C33.697,6.977 33.695,6.984 33.695,6.993" id="Shape"></path>
            <polygon id="Shape" points="23.93 3.335 22.646 3.335 21.746 10.17 23.029 10.17"></polygon>
            <path d="M22.16,13.097 C21.876,13.097 21.681,13.013 21.512,12.818 L21.469,12.769 L20.992,13.179 L21.038,13.228 C21.309,13.521 21.65,13.671 22.057,13.671 C22.674,13.671 23.133,13.358 23.203,12.892 C23.236,12.666 23.198,12.478 23.091,12.343 C22.981,12.206 22.805,12.13 22.569,12.113 L22.182,12.086 C22.057,12.076 22.002,12.042 21.981,12.014 C21.964,11.994 21.96,11.968 21.962,11.938 C21.973,11.881 21.996,11.709 22.346,11.709 C22.555,11.709 22.721,11.77 22.905,11.913 L22.951,11.949 L23.38,11.519 L23.333,11.472 C23.093,11.243 22.802,11.134 22.413,11.134 C21.847,11.134 21.434,11.441 21.364,11.912 C21.336,12.108 21.374,12.278 21.475,12.407 C21.587,12.551 21.77,12.635 21.999,12.653 L22.411,12.692 C22.505,12.7 22.562,12.719 22.591,12.754 C22.61,12.775 22.613,12.808 22.608,12.851 C22.583,13.005 22.416,13.097 22.16,13.097" id="Shape"></path>
            <path d="M23.887,11.162 L23.449,14.104 L24.053,14.104 C24.092,13.844 24.135,13.557 24.149,13.458 C24.307,13.6 24.475,13.67 24.67,13.67 C25.022,13.67 25.258,13.492 25.393,13.343 C25.567,13.157 25.625,12.985 25.71,12.414 C25.795,11.837 25.787,11.66 25.667,11.471 C25.573,11.317 25.385,11.133 25.027,11.133 C24.834,11.133 24.636,11.202 24.465,11.321 C24.47,11.282 24.487,11.161 24.487,11.161 L23.887,11.161 L23.887,11.162 Z M24.813,11.735 C24.934,11.735 25.018,11.764 25.071,11.823 C25.17,11.936 25.143,12.168 25.11,12.395 C25.053,12.776 24.979,13.067 24.596,13.067 C24.481,13.067 24.401,13.04 24.35,12.981 C24.247,12.862 24.272,12.626 24.303,12.414 C24.355,12.058 24.436,11.735 24.813,11.735 L24.813,11.735 Z" id="Shape"></path>
            <path d="M26.955,13.671 C27.266,13.671 27.536,13.564 27.76,13.351 C27.995,13.127 28.096,12.898 28.168,12.411 C28.24,11.922 28.209,11.691 28.033,11.463 C27.87,11.245 27.627,11.135 27.312,11.135 C27,11.135 26.73,11.243 26.508,11.455 C26.271,11.679 26.172,11.907 26.101,12.393 C26.076,12.553 26.064,12.688 26.064,12.801 C26.064,13.036 26.117,13.192 26.234,13.345 C26.396,13.562 26.641,13.671 26.955,13.671 M26.701,12.41 C26.752,12.067 26.793,11.995 26.885,11.885 C26.963,11.796 27.108,11.736 27.242,11.736 C27.372,11.736 27.495,11.794 27.543,11.876 C27.576,11.939 27.596,11.99 27.596,12.093 C27.596,12.164 27.588,12.258 27.567,12.399 C27.516,12.739 27.477,12.813 27.383,12.921 C27.307,13.011 27.162,13.068 27.028,13.068 C26.897,13.068 26.774,13.011 26.727,12.929 C26.668,12.824 26.65,12.752 26.701,12.41" id="Shape"></path>
            <path d="M29.965,11.134 C29.748,11.134 29.555,11.201 29.389,11.325 C29.395,11.284 29.412,11.162 29.412,11.162 L28.81,11.162 L28.441,13.643 L29.045,13.643 L29.263,12.172 C29.312,11.85 29.545,11.734 29.732,11.734 C29.836,11.734 29.894,11.757 29.984,11.835 L30.031,11.873 L30.523,11.373 L30.472,11.329 C30.318,11.199 30.154,11.134 29.965,11.134" id="Shape"></path>
            <path d="M33.172,11.708 C33.381,11.708 33.548,11.769 33.731,11.912 L33.776,11.948 L34.207,11.518 L34.16,11.471 C33.92,11.242 33.628,11.133 33.239,11.133 C32.674,11.133 32.26,11.44 32.19,11.911 C32.162,12.107 32.201,12.277 32.302,12.406 C32.414,12.55 32.596,12.634 32.826,12.654 L33.238,12.691 C33.333,12.699 33.39,12.718 33.418,12.753 C33.436,12.774 33.441,12.807 33.434,12.852 C33.412,13.005 33.246,13.098 32.989,13.098 C32.707,13.098 32.51,13.014 32.341,12.817 L32.299,12.77 L31.821,13.18 L31.867,13.229 C32.138,13.522 32.479,13.671 32.888,13.671 C33.503,13.671 33.963,13.358 34.034,12.893 C34.067,12.666 34.028,12.479 33.92,12.343 C33.81,12.206 33.634,12.13 33.398,12.114 L33.013,12.087 C32.885,12.076 32.831,12.042 32.81,12.015 C32.794,11.994 32.789,11.969 32.793,11.937 C32.798,11.88 32.822,11.708 33.172,11.708" id="Shape"></path>
            <path d="M22.502,16.492 L22.123,16.123 L22.086,16.156 C21.938,16.29 21.736,16.373 21.566,16.373 C21.414,16.373 21.295,16.327 21.22,16.242 C21.16,16.174 21.129,16.078 21.129,15.963 C21.129,15.942 21.133,15.919 21.136,15.898 L22.613,15.898 L22.679,15.458 C22.687,15.398 22.693,15.338 22.693,15.281 C22.693,15.051 22.623,14.843 22.488,14.687 C22.322,14.498 22.077,14.392 21.795,14.392 C21.299,14.392 20.719,14.724 20.58,15.662 C20.517,16.098 20.578,16.428 20.768,16.646 C20.928,16.834 21.188,16.933 21.51,16.933 C21.868,16.933 22.198,16.794 22.463,16.533 L22.502,16.492 Z M21.729,14.949 C21.846,14.949 21.944,14.985 22.006,15.057 C22.069,15.125 22.1,15.225 22.1,15.35 C22.1,15.365 22.098,15.378 22.096,15.393 L21.219,15.393 C21.291,15.121 21.479,14.949 21.729,14.949 L21.729,14.949 Z" id="Shape"></path>
            <path d="M24.391,14.417 C24.391,14.417 23.932,15.021 23.842,15.138 C23.781,15.007 23.506,14.417 23.506,14.417 L22.811,14.417 C22.811,14.417 23.41,15.567 23.442,15.628 C23.397,15.681 22.401,16.901 22.401,16.901 L23.114,16.901 C23.114,16.901 23.61,16.27 23.7,16.157 C23.763,16.284 24.065,16.901 24.065,16.901 L24.76,16.901 C24.76,16.901 24.135,15.702 24.104,15.641 C24.147,15.587 25.106,14.415 25.106,14.415 L24.391,14.417 L24.391,14.417 Z" id="Shape"></path>
            <path d="M25.775,16.325 C25.767,16.315 25.763,16.299 25.763,16.274 C25.763,16.26 25.765,16.246 25.767,16.227 C25.767,16.227 25.931,15.126 25.965,14.891 L26.312,14.891 L26.381,14.417 L26.035,14.417 C26.041,14.371 26.061,14.23 26.084,14.083 L25.496,14.083 C25.474,14.234 25.453,14.381 25.446,14.417 L25.207,14.417 L25.138,14.891 L25.377,14.891 C25.358,15.005 25.174,16.253 25.174,16.253 C25.168,16.295 25.166,16.336 25.166,16.376 C25.166,16.518 25.205,16.637 25.283,16.727 C25.381,16.842 25.531,16.903 25.717,16.903 L26.013,16.903 L26.097,16.344 L25.855,16.344 C25.828,16.345 25.791,16.34 25.775,16.325" id="Shape"></path>
            <path d="M29.205,14.39 C28.812,14.39 28.527,14.506 28.31,14.755 L28.275,14.797 L28.693,15.155 L28.728,15.11 C28.82,14.989 28.929,14.949 29.164,14.949 C29.359,14.949 29.475,14.975 29.521,15.032 C29.537,15.05 29.554,15.078 29.554,15.136 C29.554,15.152 29.552,15.17 29.549,15.191 C29.549,15.191 29.528,15.333 29.521,15.392 L28.906,15.392 C28.34,15.392 28.031,15.769 27.974,16.142 C27.968,16.185 27.965,16.226 27.965,16.267 C27.965,16.429 28.015,16.572 28.112,16.683 C28.252,16.845 28.475,16.931 28.758,16.931 C29.008,16.931 29.185,16.886 29.314,16.785 C29.31,16.806 29.295,16.903 29.295,16.903 L29.883,16.903 L30.131,15.235 C30.168,14.983 30.125,14.788 30.004,14.647 C29.855,14.474 29.596,14.39 29.205,14.39 M29.43,16.006 C29.381,16.336 29.278,16.372 28.889,16.372 C28.737,16.372 28.627,16.339 28.574,16.276 C28.549,16.247 28.537,16.211 28.537,16.169 C28.537,16.157 28.537,16.146 28.539,16.134 C28.567,15.937 28.772,15.896 28.938,15.896 L29.448,15.896 C29.439,15.947 29.43,16.006 29.43,16.006" id="Shape"></path>
            <path d="M27.837,14.39 C27.611,14.39 27.41,14.464 27.242,14.599 C27.25,14.54 27.267,14.417 27.267,14.417 L26.68,14.417 L26.311,16.901 L26.901,16.901 L27.12,15.425 C27.17,15.093 27.412,14.975 27.602,14.975 C27.688,14.975 27.747,14.995 27.815,15.042 L28.303,14.553 C28.163,14.444 28.01,14.39 27.837,14.39" id="Shape"></path>
            <path d="M31.281,13.063 C31.271,13.053 31.267,13.039 31.267,13.014 C31.267,12.999 31.269,12.985 31.271,12.967 C31.271,12.967 31.435,11.866 31.47,11.631 L31.818,11.631 L31.886,11.157 L31.54,11.157 C31.546,11.111 31.566,10.969 31.59,10.823 L31.001,10.823 C30.979,10.974 30.956,11.121 30.952,11.157 L30.712,11.157 L30.643,11.631 L30.882,11.631 C30.863,11.745 30.68,12.992 30.68,12.992 C30.673,13.035 30.67,13.076 30.67,13.115 C30.67,13.257 30.71,13.376 30.788,13.467 C30.887,13.581 31.036,13.643 31.223,13.643 L31.518,13.643 L31.602,13.083 L31.362,13.083 C31.332,13.084 31.295,13.08 31.281,13.063" id="Shape"></path>
        </g>
    </g>
</svg>