<?xml version="1.0" encoding="UTF-8"?>
<svg width="55px" height="55px" viewBox="0 0 55 55" version="1.1" xmlns="http://www.w3.org/2000/svg" xmlns:xlink="http://www.w3.org/1999/xlink">
    <!-- Generator: Sketch 41.2 (35397) - http://www.bohemiancoding.com/sketch -->
    <title>Untitled 3</title>
    <desc>Created with Sketch.</desc>
    <defs></defs>
    <g id="Page-1" stroke="none" stroke-width="1" fill="none" fill-rule="evenodd">
        <rect id="radio4.large" fill="#FFFFFF" x="0" y="0" width="55" height="55"></rect>
        <g id="radio5live.large" transform="translate(2.000000, 17.000000)">
            <rect id="Rectangle-path" stroke="#FFFFFF" fill="#FFFFFF" x="21.814" y="3.592" width="10.706" height="13.656"></rect>
            <path d="M12.077,1.181 C12.059,1.177 12.04,1.175 12.022,1.171 L12,1.167 C11.968,1.163 11.937,1.159 11.904,1.156 C11.882,1.153 11.86,1.152 11.838,1.151 C11.798,1.148 11.761,1.147 11.724,1.147 L11.68,1.147 C11.648,1.147 11.618,1.149 11.589,1.151 C11.572,1.152 11.555,1.153 11.539,1.155 C11.514,1.157 11.49,1.159 11.466,1.163 L11.445,1.165 L11.424,1.17 L11.397,1.175 C11.385,1.176 11.374,1.178 11.362,1.181 C11.345,1.183 11.329,1.187 11.314,1.19 C11.216,1.211 11.126,1.238 11.043,1.271 C11,1.29 10.958,1.308 10.919,1.327 C10.886,1.344 10.855,1.361 10.824,1.378 C10.795,1.395 10.767,1.412 10.74,1.43 C10.724,1.442 10.709,1.451 10.693,1.463 C10.681,1.472 10.668,1.481 10.656,1.49 C10.63,1.511 10.605,1.532 10.58,1.553 C10.559,1.574 10.538,1.593 10.517,1.613 C10.5,1.63 10.482,1.647 10.467,1.667 C10.449,1.686 10.433,1.705 10.418,1.725 C10.4,1.746 10.385,1.768 10.369,1.79 C10.356,1.807 10.345,1.824 10.334,1.842 C10.326,1.854 10.318,1.865 10.312,1.878 C10.269,1.948 10.231,2.024 10.2,2.106 C10.162,2.208 10.134,2.317 10.119,2.432 C10.115,2.469 10.111,2.506 10.108,2.544 C10.106,2.573 10.106,2.603 10.106,2.632 L10.106,2.698 C10.108,2.719 10.111,2.743 10.113,2.765 L10.114,2.781 C10.117,2.808 10.122,2.834 10.127,2.859 C10.129,2.869 10.131,2.879 10.133,2.889 C10.137,2.91 10.143,2.931 10.147,2.952 C10.155,2.979 10.162,3.005 10.171,3.032 C10.181,3.064 10.193,3.095 10.205,3.125 C10.225,3.173 10.247,3.219 10.27,3.263 C10.284,3.288 10.298,3.313 10.312,3.338 C10.324,3.357 10.336,3.375 10.348,3.393 C10.364,3.417 10.381,3.439 10.397,3.461 C10.414,3.483 10.433,3.504 10.451,3.525 C10.472,3.55 10.494,3.574 10.516,3.595 L10.527,3.606 C10.546,3.623 10.564,3.643 10.587,3.662 C10.602,3.674 10.617,3.688 10.634,3.702 C10.65,3.714 10.666,3.727 10.683,3.74 C10.704,3.756 10.725,3.77 10.748,3.785 C10.774,3.8 10.799,3.817 10.827,3.832 C10.881,3.863 10.941,3.893 11.008,3.92 C11.032,3.93 11.058,3.939 11.084,3.948 C11.11,3.958 11.137,3.966 11.165,3.974 C11.213,3.987 11.263,4 11.314,4.01 C11.356,4.018 11.401,4.025 11.446,4.031 C11.491,4.037 11.537,4.041 11.585,4.044 C11.609,4.045 11.633,4.045 11.656,4.047 L11.69,4.047 C11.776,4.047 11.857,4.043 11.931,4.037 L11.945,4.036 C11.975,4.034 12.003,4.03 12.03,4.026 C12.073,4.021 12.113,4.015 12.151,4.007 C12.175,4.003 12.199,3.998 12.222,3.993 C12.258,3.985 12.292,3.976 12.324,3.968 C12.348,3.962 12.371,3.955 12.393,3.948 C12.419,3.941 12.444,3.931 12.469,3.923 L12.492,3.916 C12.504,3.912 12.52,3.906 12.538,3.898 C12.563,3.888 12.593,3.877 12.627,3.861 C12.648,3.852 12.67,3.842 12.693,3.832 C12.712,3.822 12.734,3.811 12.756,3.802 C12.764,3.798 12.774,3.793 12.783,3.789 L12.783,3.252 C12.777,3.257 12.77,3.261 12.764,3.265 L12.728,3.286 C12.692,3.31 12.657,3.33 12.622,3.35 C12.584,3.37 12.545,3.39 12.508,3.408 C12.443,3.44 12.38,3.466 12.32,3.487 C12.204,3.529 12.099,3.554 12.006,3.572 C11.995,3.573 11.984,3.575 11.973,3.577 C11.947,3.581 11.923,3.584 11.898,3.587 C11.862,3.59 11.827,3.593 11.797,3.594 C11.776,3.594 11.758,3.596 11.74,3.596 C11.703,3.596 11.664,3.595 11.624,3.592 C11.578,3.589 11.532,3.583 11.484,3.575 C11.408,3.562 11.331,3.542 11.257,3.514 C11.245,3.511 11.235,3.506 11.223,3.501 C11.216,3.499 11.209,3.496 11.201,3.493 C11.19,3.487 11.178,3.483 11.165,3.477 C11.139,3.465 11.113,3.451 11.088,3.436 C11.076,3.429 11.065,3.421 11.051,3.414 C11.039,3.406 11.026,3.397 11.013,3.388 C10.998,3.378 10.982,3.367 10.969,3.355 C10.954,3.343 10.94,3.331 10.927,3.32 L10.91,3.304 L10.901,3.296 L10.896,3.291 L10.89,3.285 C10.866,3.261 10.845,3.237 10.824,3.213 C10.814,3.2 10.803,3.186 10.793,3.172 C10.784,3.158 10.775,3.146 10.767,3.131 C10.758,3.119 10.751,3.107 10.744,3.093 C10.733,3.074 10.723,3.056 10.713,3.037 C10.707,3.021 10.699,3.005 10.693,2.989 C10.681,2.963 10.672,2.935 10.664,2.909 C10.657,2.89 10.652,2.869 10.646,2.849 C10.633,2.794 10.626,2.743 10.622,2.699 C10.62,2.683 10.62,2.667 10.619,2.653 C10.618,2.632 10.618,2.613 10.618,2.599 L10.618,2.567 C10.619,2.536 10.622,2.498 10.628,2.454 C10.632,2.427 10.637,2.398 10.645,2.368 C10.649,2.347 10.655,2.328 10.661,2.307 C10.667,2.288 10.674,2.269 10.682,2.248 C10.686,2.235 10.691,2.222 10.698,2.209 C10.706,2.191 10.714,2.173 10.723,2.155 C10.73,2.14 10.738,2.126 10.746,2.113 C10.763,2.083 10.783,2.052 10.805,2.022 C10.813,2.012 10.821,2 10.829,1.99 C10.84,1.977 10.852,1.962 10.864,1.949 C10.871,1.943 10.877,1.936 10.884,1.929 C10.981,1.831 11.09,1.757 11.202,1.706 C11.22,1.698 11.238,1.69 11.256,1.683 C11.274,1.676 11.291,1.669 11.31,1.663 C11.329,1.657 11.349,1.651 11.369,1.645 C11.387,1.64 11.407,1.635 11.425,1.63 C11.444,1.626 11.463,1.622 11.481,1.619 C11.501,1.615 11.521,1.612 11.542,1.609 C11.562,1.607 11.582,1.604 11.603,1.603 C11.642,1.6 11.679,1.598 11.715,1.598 L11.753,1.598 C11.78,1.598 11.806,1.599 11.833,1.6 C11.852,1.602 11.869,1.602 11.887,1.604 C11.919,1.607 11.952,1.611 11.982,1.616 C12.009,1.62 12.036,1.624 12.06,1.629 C12.098,1.638 12.132,1.646 12.164,1.655 C12.184,1.659 12.202,1.665 12.219,1.671 C12.244,1.679 12.266,1.686 12.283,1.691 C12.312,1.702 12.329,1.708 12.329,1.708 C12.354,1.717 12.38,1.729 12.405,1.738 C12.438,1.752 12.47,1.766 12.5,1.78 C12.525,1.792 12.549,1.804 12.572,1.815 C12.591,1.825 12.609,1.835 12.625,1.843 C12.654,1.858 12.678,1.872 12.698,1.883 L12.752,1.913 L12.752,1.387 C12.752,1.387 12.719,1.374 12.664,1.352 C12.639,1.343 12.61,1.332 12.576,1.321 C12.558,1.314 12.538,1.307 12.518,1.3 C12.501,1.295 12.485,1.289 12.467,1.283 C12.447,1.276 12.427,1.268 12.406,1.262 C12.39,1.258 12.375,1.252 12.358,1.247 L12.344,1.243 C12.331,1.239 12.314,1.235 12.3,1.23 C12.28,1.226 12.261,1.219 12.242,1.214 C12.23,1.212 12.217,1.209 12.204,1.206 C12.183,1.201 12.163,1.196 12.141,1.192 C12.121,1.188 12.1,1.184 12.077,1.181 L12.077,1.181 Z M9.484,0.634 L13.6,0.634 L13.6,4.557 L9.484,4.557 L9.484,0.634 Z" id="Shape" fill="#000000"></path>
            <path d="M6.322,2.804 L6.322,3.575 L6.815,3.575 C6.815,3.575 6.826,3.574 6.841,3.574 C6.858,3.573 6.881,3.572 6.911,3.57 C6.963,3.564 7.035,3.554 7.104,3.53 C7.166,3.51 7.225,3.478 7.272,3.431 C7.29,3.413 7.305,3.394 7.317,3.375 C7.355,3.313 7.365,3.251 7.367,3.215 C7.368,3.199 7.368,3.19 7.368,3.19 L7.368,3.171 C7.368,3.156 7.366,3.127 7.359,3.096 C7.349,3.06 7.332,3.018 7.301,2.979 C7.294,2.973 7.288,2.965 7.281,2.958 C7.268,2.944 7.252,2.93 7.236,2.918 C7.209,2.898 7.178,2.881 7.145,2.867 C7.101,2.846 7.051,2.832 6.995,2.822 C6.969,2.816 6.938,2.812 6.908,2.81 C6.889,2.807 6.871,2.806 6.852,2.805 C6.834,2.804 6.817,2.804 6.799,2.804 L6.322,2.804 Z" id="Shape" fill="#000000"></path>
            <path d="M6.322,1.63 L6.322,2.361 L6.56,2.361 L6.597,2.361 C6.616,2.36 6.634,2.36 6.651,2.358 C6.7,2.355 6.769,2.348 6.837,2.329 C6.851,2.325 6.865,2.321 6.877,2.316 C6.931,2.296 6.981,2.27 7.023,2.23 C7.054,2.198 7.075,2.163 7.088,2.129 C7.105,2.087 7.111,2.047 7.114,2.019 C7.115,1.993 7.115,1.977 7.115,1.977 L7.115,1.946 C7.113,1.914 7.107,1.862 7.082,1.812 C7.07,1.788 7.053,1.765 7.03,1.743 C7.004,1.716 6.972,1.695 6.937,1.68 C6.869,1.649 6.792,1.637 6.728,1.634 C6.698,1.632 6.673,1.63 6.651,1.63 L6.322,1.63 Z" id="Shape" fill="#000000"></path>
            <path d="M5.822,1.184 L5.822,4.01 L6.872,4.01 C6.872,4.01 7.385,4.023 7.667,3.738 C7.897,3.505 7.881,3.235 7.881,3.235 C7.881,3.235 7.897,2.954 7.684,2.737 C7.502,2.554 7.271,2.504 7.271,2.504 C7.271,2.504 7.375,2.455 7.457,2.373 C7.494,2.335 7.628,2.212 7.628,1.915 C7.628,1.615 7.431,1.443 7.431,1.443 C7.431,1.443 7.214,1.184 6.728,1.184 L5.822,1.184 Z M4.742,0.634 L8.858,0.634 L8.858,4.557 L4.742,4.557 L4.742,0.634 Z" id="Shape" fill="#000000"></path>
            <path d="M1.58,2.804 L1.58,3.575 L2.075,3.575 C2.075,3.575 2.084,3.574 2.1,3.574 C2.117,3.573 2.141,3.572 2.169,3.57 C2.223,3.564 2.293,3.554 2.362,3.53 C2.424,3.51 2.483,3.478 2.531,3.431 C2.549,3.412 2.563,3.394 2.575,3.374 C2.614,3.312 2.623,3.25 2.625,3.214 C2.627,3.199 2.627,3.19 2.627,3.19 L2.627,3.172 C2.625,3.157 2.623,3.128 2.616,3.097 C2.606,3.06 2.589,3.018 2.558,2.979 C2.553,2.972 2.546,2.965 2.54,2.958 C2.525,2.944 2.511,2.93 2.496,2.918 C2.468,2.898 2.437,2.881 2.404,2.867 C2.359,2.846 2.309,2.832 2.254,2.822 C2.227,2.816 2.197,2.812 2.167,2.81 C2.148,2.807 2.129,2.806 2.11,2.805 C2.093,2.804 2.075,2.804 2.058,2.804 L1.58,2.804 Z" id="Shape" fill="#000000"></path>
            <path d="M1.58,1.63 L1.58,2.361 L1.82,2.361 L1.857,2.361 C1.873,2.36 1.893,2.36 1.91,2.358 C1.959,2.355 2.028,2.348 2.096,2.329 C2.11,2.325 2.122,2.321 2.136,2.316 C2.189,2.296 2.24,2.27 2.28,2.23 C2.312,2.198 2.332,2.163 2.346,2.129 C2.363,2.087 2.369,2.047 2.371,2.019 C2.373,1.993 2.373,1.977 2.373,1.977 L2.373,1.945 C2.37,1.914 2.365,1.862 2.34,1.812 C2.328,1.788 2.311,1.765 2.29,1.743 C2.262,1.716 2.229,1.695 2.194,1.68 C2.126,1.649 2.05,1.637 1.984,1.634 C1.957,1.632 1.931,1.63 1.91,1.63 L1.58,1.63 Z" id="Shape" fill="#000000"></path>
            <path d="M1.08,1.184 L1.08,4.01 L2.13,4.01 C2.13,4.01 2.642,4.023 2.924,3.738 C3.154,3.505 3.138,3.235 3.138,3.235 C3.138,3.235 3.154,2.954 2.941,2.737 C2.759,2.554 2.528,2.504 2.528,2.504 C2.528,2.504 2.633,2.455 2.713,2.373 C2.751,2.335 2.885,2.212 2.885,1.915 C2.885,1.615 2.688,1.443 2.688,1.443 C2.688,1.443 2.473,1.184 1.986,1.184 L1.08,1.184 Z M0,0.634 L4.116,0.634 L4.116,4.557 L0,4.557 L0,0.634 Z" id="Shape" fill="#000000"></path>
            <path d="M0,5.529 L0,8.772 L0.459,8.772 L0.459,7.365 L0.652,7.365 C0.888,7.365 1.078,7.442 1.502,8.107 L1.925,8.772 L2.473,8.772 C2.252,8.464 2.173,8.355 2.036,8.13 C1.793,7.727 1.615,7.427 1.323,7.232 C1.666,7.093 1.859,6.814 1.859,6.437 C1.859,5.876 1.455,5.528 0.808,5.528 L0,5.529 L0,5.529 Z M0.459,5.929 L0.756,5.929 C1.201,5.929 1.38,6.114 1.384,6.419 C1.389,6.69 1.249,6.947 0.756,6.947 L0.459,6.947 L0.459,5.929 Z" id="Shape" fill="#000000"></path>
            <path d="M4.146,5.511 L3.823,5.511 L2.447,8.772 L2.916,8.772 L3.321,7.817 L4.682,7.817 L5.109,8.772 L5.578,8.772 L4.146,5.511 Z M3.978,6.224 L4.495,7.398 L3.499,7.398 L3.978,6.224 Z" id="Shape" fill="#000000"></path>
            <path d="M5.96,8.772 L7.209,8.772 C8.266,8.772 8.908,7.983 8.908,7.151 C8.908,6.385 8.387,5.528 7.205,5.528 L5.96,5.528 L5.96,8.772 Z M6.421,5.948 L7.129,5.948 C8.026,5.948 8.435,6.499 8.435,7.151 C8.435,7.55 8.196,8.354 7.154,8.354 L6.421,8.354 L6.421,5.948 Z" id="Shape" fill="#000000"></path>
            <path d="M9.668,5.529 L9.668,8.772" id="Shape" stroke="#000000" stroke-width="0.4625"></path>
            <path d="M10.429,7.151 C10.429,8.031 11.092,8.815 12.137,8.815 C13.221,8.815 13.87,8.026 13.87,7.151 C13.87,6.248 13.203,5.487 12.147,5.487 C11.109,5.487 10.429,6.252 10.429,7.151 M10.903,7.151 C10.903,6.437 11.434,5.915 12.147,5.915 C12.866,5.915 13.396,6.437 13.396,7.151 C13.396,7.859 12.866,8.387 12.147,8.387 C11.434,8.388 10.903,7.859 10.903,7.151" id="Shape" fill="#000000"></path>
            <path d="M26.771,0 C21.167,0 16.625,4.604 16.625,10.283 C16.625,15.962 21.167,20.566 26.771,20.566 C32.375,20.566 36.917,15.962 36.917,10.283 C36.917,4.604 32.375,0 26.771,0 M27.36,7.869 C29.928,7.869 31.723,9.853 31.723,12.694 C31.723,14.069 31.192,15.353 30.227,16.31 C29.244,17.285 27.938,17.806 26.563,17.777 C24.241,17.777 21.888,16.607 21.466,14.019 L25.162,14.019 C25.45,14.455 25.925,14.712 26.507,14.712 C27.639,14.712 28.246,13.671 28.246,12.692 C28.246,11.724 27.709,10.747 26.507,10.747 C25.788,10.747 25.391,10.96 24.934,11.589 L24.825,11.737 L21.587,11.737 L23.252,3.36 L31.898,3.36 L31.298,6.416 L25.847,6.416 C25.847,6.416 25.589,7.611 25.471,8.294 C26.015,8.007 26.632,7.869 27.36,7.869" id="Shape" fill="#00B3DF"></path>
            <polygon id="Shape" fill="#00B3DF" points="41.679 6.435 40.397 6.435 40.26 7.375 41.542 7.375"></polygon>
            <polygon id="Shape" fill="#00B3DF" points="40.789 13.363 41.47 8.104 40.187 8.104 39.507 13.363"></polygon>
            <path d="M44.136,13.363 L46.722,8.103 L45.347,8.103 C45.347,8.103 44.159,10.682 43.882,11.285 C43.753,10.644 43.241,8.103 43.241,8.103 L41.891,8.103 L43.116,13.363 L44.136,13.363 Z" id="Shape" fill="#00B3DF"></path>
            <path d="M50.171,8.676 C49.817,8.269 49.298,8.045 48.705,8.045 C47.667,8.045 46.465,8.75 46.21,10.73 C46.091,11.647 46.233,12.347 46.634,12.809 C46.982,13.21 47.525,13.423 48.202,13.423 C48.952,13.423 49.636,13.13 50.179,12.575 L50.284,12.468 L49.442,11.652 L49.339,11.746 C49.043,12.017 48.649,12.186 48.303,12.186 C47.998,12.186 47.758,12.095 47.61,11.921 C47.487,11.78 47.423,11.581 47.423,11.339 C47.423,11.313 47.428,11.286 47.43,11.259 L50.475,11.259 L50.598,10.308 C50.614,10.195 50.619,10.083 50.619,9.975 C50.622,9.469 50.466,9.017 50.171,8.676 M49.328,10.139 L47.584,10.139 C47.724,9.607 48.095,9.282 48.584,9.282 C48.817,9.282 49.008,9.356 49.135,9.497 C49.265,9.64 49.33,9.852 49.33,10.117 C49.33,10.123 49.328,10.131 49.328,10.139" id="Shape" fill="#00B3DF"></path>
            <polygon id="Shape" fill="#00B3DF" points="39.562 6.435 38.28 6.435 37.38 13.357 38.662 13.357"></polygon>
        </g>
    </g>
</svg>