<?xml version="1.0" encoding="UTF-8"?>
<svg width="54px" height="54px" viewBox="0 0 54 54" version="1.1" xmlns="http://www.w3.org/2000/svg" xmlns:xlink="http://www.w3.org/1999/xlink">
    <!-- Generator: Sketch 41.2 (35397) - http://www.bohemiancoding.com/sketch -->
    <title>Untitled 3</title>
    <desc>Created with Sketch.</desc>
    <defs></defs>
    <g id="Page-1" stroke="none" stroke-width="1" fill="none" fill-rule="evenodd">
        <rect id="radio4.large" fill="#FFFFFF" x="0" y="0" width="53" height="53"></rect>
        <g id="radio6.large" transform="translate(2.000000, 17.000000)">
            <path d="M11.823,1.14 C11.806,1.138 11.787,1.134 11.769,1.132 L11.747,1.128 C11.716,1.123 11.686,1.12 11.654,1.117 C11.632,1.115 11.61,1.114 11.589,1.113 C11.551,1.11 11.514,1.109 11.478,1.109 L11.435,1.109 C11.404,1.11 11.374,1.112 11.346,1.114 C11.329,1.115 11.313,1.116 11.297,1.117 C11.272,1.119 11.249,1.121 11.225,1.126 L11.206,1.128 L11.183,1.132 L11.157,1.136 C11.146,1.138 11.134,1.14 11.123,1.142 C11.106,1.145 11.091,1.148 11.076,1.151 C10.98,1.172 10.892,1.198 10.811,1.23 C10.768,1.247 10.727,1.263 10.69,1.283 C10.657,1.299 10.627,1.316 10.597,1.334 C10.568,1.35 10.541,1.366 10.514,1.383 C10.499,1.395 10.484,1.404 10.469,1.415 C10.456,1.424 10.444,1.432 10.432,1.441 C10.406,1.461 10.382,1.482 10.358,1.502 C10.337,1.522 10.316,1.54 10.297,1.559 C10.28,1.576 10.262,1.594 10.248,1.613 C10.23,1.632 10.214,1.649 10.199,1.669 C10.181,1.69 10.167,1.71 10.151,1.732 C10.138,1.749 10.128,1.765 10.116,1.782 C10.108,1.795 10.102,1.804 10.095,1.817 C10.052,1.884 10.016,1.959 9.985,2.037 C9.948,2.132 9.921,2.238 9.906,2.349 C9.902,2.384 9.898,2.421 9.895,2.458 C9.893,2.485 9.893,2.515 9.893,2.542 L9.893,2.606 C9.895,2.628 9.898,2.65 9.9,2.671 L9.902,2.688 C9.905,2.714 9.909,2.739 9.914,2.763 C9.916,2.773 9.918,2.782 9.92,2.792 C9.924,2.813 9.929,2.833 9.933,2.854 C9.941,2.88 9.948,2.904 9.957,2.931 C9.967,2.962 9.979,2.991 9.99,3.021 C10.01,3.067 10.032,3.111 10.054,3.153 C10.068,3.177 10.082,3.202 10.096,3.226 C10.108,3.243 10.119,3.261 10.131,3.278 C10.146,3.302 10.163,3.323 10.179,3.343 C10.196,3.365 10.214,3.386 10.232,3.406 C10.253,3.431 10.274,3.454 10.295,3.474 L10.306,3.485 C10.324,3.502 10.342,3.521 10.364,3.539 C10.379,3.551 10.394,3.564 10.411,3.577 C10.426,3.59 10.442,3.602 10.459,3.614 C10.48,3.629 10.5,3.642 10.523,3.658 C10.548,3.672 10.573,3.689 10.6,3.704 C10.653,3.734 10.711,3.762 10.777,3.789 C10.8,3.799 10.826,3.807 10.851,3.816 C10.877,3.825 10.903,3.834 10.93,3.841 C10.977,3.853 11.026,3.865 11.076,3.876 C11.117,3.884 11.161,3.89 11.206,3.895 C11.249,3.901 11.295,3.905 11.341,3.907 C11.365,3.909 11.389,3.909 11.411,3.911 L11.445,3.911 C11.53,3.911 11.608,3.907 11.68,3.901 L11.695,3.9 C11.724,3.898 11.751,3.894 11.778,3.89 C11.821,3.886 11.859,3.88 11.897,3.872 C11.92,3.868 11.943,3.863 11.966,3.859 C12.001,3.851 12.034,3.842 12.065,3.835 C12.089,3.829 12.111,3.822 12.133,3.815 C12.159,3.807 12.183,3.799 12.207,3.792 L12.23,3.783 C12.242,3.779 12.257,3.773 12.275,3.766 C12.3,3.756 12.329,3.745 12.362,3.731 C12.382,3.721 12.404,3.713 12.427,3.703 C12.445,3.693 12.466,3.682 12.488,3.675 C12.496,3.669 12.505,3.665 12.514,3.661 L12.514,3.144 C12.508,3.148 12.501,3.153 12.495,3.156 L12.46,3.177 C12.425,3.198 12.39,3.218 12.357,3.238 C12.319,3.258 12.281,3.276 12.245,3.295 C12.182,3.325 12.12,3.35 12.061,3.371 C11.948,3.411 11.845,3.436 11.754,3.453 C11.743,3.455 11.732,3.457 11.722,3.459 C11.696,3.463 11.672,3.465 11.648,3.469 C11.613,3.471 11.579,3.473 11.55,3.475 C11.53,3.475 11.512,3.478 11.495,3.478 C11.458,3.478 11.42,3.475 11.381,3.473 C11.336,3.469 11.291,3.465 11.244,3.457 C11.17,3.444 11.094,3.426 11.022,3.398 C11.01,3.395 11,3.39 10.989,3.384 C10.982,3.382 10.975,3.38 10.967,3.376 C10.956,3.371 10.944,3.366 10.932,3.361 C10.906,3.348 10.881,3.337 10.857,3.322 C10.845,3.315 10.833,3.308 10.82,3.3 C10.809,3.292 10.796,3.284 10.784,3.276 C10.77,3.265 10.754,3.255 10.74,3.244 C10.725,3.233 10.711,3.221 10.699,3.211 L10.682,3.195 L10.673,3.187 L10.668,3.183 L10.662,3.177 C10.638,3.154 10.617,3.13 10.597,3.107 C10.587,3.093 10.577,3.08 10.566,3.067 C10.558,3.054 10.549,3.043 10.541,3.029 C10.532,3.017 10.525,3.006 10.518,2.992 C10.507,2.974 10.497,2.956 10.488,2.938 C10.481,2.923 10.474,2.907 10.468,2.892 C10.456,2.866 10.447,2.839 10.439,2.814 C10.433,2.796 10.428,2.775 10.422,2.757 C10.41,2.703 10.403,2.653 10.398,2.611 C10.396,2.594 10.396,2.579 10.395,2.565 C10.394,2.545 10.394,2.527 10.394,2.512 L10.394,2.481 C10.395,2.451 10.398,2.413 10.404,2.371 C10.407,2.345 10.413,2.317 10.42,2.288 C10.424,2.268 10.43,2.249 10.436,2.229 C10.442,2.211 10.448,2.192 10.456,2.172 C10.46,2.159 10.466,2.147 10.472,2.133 C10.479,2.116 10.488,2.1 10.497,2.082 C10.504,2.067 10.511,2.055 10.519,2.041 C10.536,2.012 10.556,1.982 10.577,1.953 C10.585,1.942 10.593,1.932 10.601,1.922 C10.612,1.909 10.624,1.896 10.636,1.883 C10.642,1.877 10.649,1.869 10.655,1.862 C10.75,1.768 10.857,1.696 10.966,1.647 C10.984,1.638 11.001,1.632 11.018,1.625 C11.036,1.618 11.053,1.612 11.071,1.605 C11.089,1.599 11.109,1.593 11.128,1.587 C11.146,1.583 11.165,1.577 11.183,1.572 C11.202,1.568 11.22,1.565 11.238,1.562 C11.258,1.558 11.277,1.555 11.298,1.551 C11.317,1.549 11.337,1.547 11.357,1.547 C11.395,1.543 11.431,1.541 11.467,1.541 L11.504,1.541 C11.531,1.541 11.556,1.543 11.582,1.543 C11.6,1.55 11.617,1.55 11.635,1.55 C11.666,1.554 11.699,1.558 11.728,1.563 C11.754,1.567 11.781,1.571 11.804,1.575 C11.841,1.584 11.875,1.592 11.907,1.601 C11.926,1.605 11.943,1.61 11.96,1.616 C11.985,1.624 12.006,1.631 12.023,1.635 C12.052,1.647 12.068,1.652 12.068,1.652 C12.093,1.661 12.119,1.673 12.143,1.68 C12.176,1.695 12.207,1.707 12.237,1.721 C12.262,1.734 12.286,1.745 12.308,1.754 C12.327,1.764 12.344,1.774 12.36,1.781 C12.388,1.797 12.413,1.808 12.432,1.82 L12.485,1.849 L12.485,1.339 C12.485,1.339 12.453,1.327 12.399,1.306 C12.374,1.298 12.345,1.287 12.312,1.276 C12.295,1.269 12.276,1.263 12.255,1.255 C12.239,1.251 12.223,1.244 12.206,1.239 C12.186,1.232 12.167,1.225 12.146,1.219 C12.131,1.215 12.116,1.209 12.099,1.204 L12.086,1.2 C12.071,1.196 12.055,1.192 12.041,1.188 C12.022,1.183 12.003,1.177 11.984,1.171 C11.972,1.169 11.96,1.167 11.947,1.165 C11.927,1.159 11.908,1.154 11.886,1.15 C11.865,1.148 11.845,1.145 11.823,1.14 L11.823,1.14 Z M9.285,0.612 L13.314,0.612 L13.314,4.403 L9.285,4.403 L9.285,0.612 Z" id="Shape" fill="#000000"></path>
            <path d="M6.189,2.709 L6.189,3.454 L6.672,3.454 C6.672,3.454 6.682,3.453 6.697,3.453 C6.714,3.452 6.737,3.451 6.766,3.449 C6.817,3.444 6.887,3.434 6.954,3.411 C7.015,3.391 7.073,3.361 7.119,3.316 C7.136,3.298 7.151,3.28 7.163,3.261 C7.2,3.201 7.21,3.142 7.212,3.107 C7.213,3.09 7.213,3.083 7.213,3.083 L7.213,3.065 C7.213,3.049 7.211,3.022 7.204,2.992 C7.194,2.957 7.177,2.916 7.147,2.878 C7.14,2.872 7.134,2.865 7.128,2.858 C7.115,2.845 7.1,2.831 7.084,2.82 C7.057,2.801 7.027,2.784 6.994,2.77 C6.951,2.75 6.902,2.736 6.848,2.728 C6.822,2.722 6.792,2.718 6.763,2.716 C6.744,2.712 6.727,2.712 6.707,2.71 C6.69,2.709 6.673,2.709 6.656,2.709 L6.189,2.709 Z" id="Shape" fill="#000000"></path>
            <path d="M6.189,1.575 L6.189,2.281 L6.423,2.281 L6.459,2.281 C6.476,2.28 6.494,2.28 6.512,2.278 C6.56,2.275 6.627,2.268 6.693,2.251 C6.707,2.247 6.72,2.243 6.732,2.237 C6.784,2.218 6.834,2.192 6.874,2.153 C6.905,2.124 6.925,2.089 6.938,2.056 C6.955,2.016 6.961,1.978 6.964,1.95 C6.965,1.925 6.965,1.911 6.965,1.911 L6.965,1.88 C6.964,1.85 6.957,1.798 6.933,1.751 C6.921,1.728 6.905,1.706 6.882,1.685 C6.857,1.659 6.825,1.639 6.791,1.624 C6.725,1.594 6.649,1.581 6.586,1.579 C6.557,1.577 6.532,1.575 6.511,1.575 L6.189,1.575 Z" id="Shape" fill="#000000"></path>
            <path d="M5.699,1.145 L5.699,3.876 L6.728,3.876 C6.728,3.876 7.23,3.888 7.506,3.612 C7.731,3.385 7.715,3.126 7.715,3.126 C7.715,3.126 7.731,2.855 7.522,2.645 C7.344,2.468 7.118,2.419 7.118,2.419 C7.118,2.419 7.22,2.372 7.299,2.294 C7.336,2.257 7.467,2.138 7.467,1.851 C7.467,1.561 7.274,1.394 7.274,1.394 C7.274,1.394 7.063,1.145 6.586,1.145 L5.699,1.145 Z M4.643,0.612 L8.672,0.612 L8.672,4.403 L4.643,4.403 L4.643,0.612 Z" id="Shape" fill="#000000"></path>
            <path d="M1.546,2.709 L1.546,3.454 L2.03,3.454 C2.03,3.454 2.039,3.453 2.055,3.453 C2.071,3.452 2.095,3.451 2.123,3.449 C2.176,3.444 2.244,3.434 2.312,3.411 C2.372,3.391 2.431,3.361 2.477,3.316 C2.495,3.298 2.509,3.28 2.521,3.261 C2.559,3.201 2.568,3.142 2.57,3.108 C2.572,3.091 2.572,3.084 2.572,3.084 L2.572,3.065 C2.57,3.05 2.569,3.022 2.561,2.992 C2.552,2.957 2.535,2.916 2.504,2.878 C2.5,2.872 2.493,2.865 2.487,2.858 C2.472,2.845 2.458,2.831 2.444,2.82 C2.416,2.801 2.386,2.784 2.354,2.77 C2.309,2.75 2.261,2.736 2.207,2.728 C2.181,2.722 2.151,2.718 2.122,2.716 C2.104,2.712 2.084,2.712 2.065,2.71 C2.05,2.709 2.032,2.709 2.015,2.709 L1.546,2.709 Z" id="Shape" fill="#000000"></path>
            <path d="M1.546,1.575 L1.546,2.281 L1.781,2.281 L1.816,2.281 C1.833,2.28 1.853,2.28 1.87,2.278 C1.918,2.275 1.986,2.268 2.052,2.251 C2.065,2.247 2.077,2.243 2.091,2.237 C2.143,2.218 2.193,2.192 2.232,2.153 C2.263,2.124 2.283,2.089 2.297,2.056 C2.313,2.016 2.32,1.978 2.322,1.95 C2.324,1.925 2.324,1.911 2.324,1.911 L2.324,1.88 C2.321,1.85 2.315,1.798 2.291,1.751 C2.28,1.728 2.263,1.706 2.242,1.685 C2.215,1.659 2.183,1.639 2.147,1.624 C2.082,1.594 2.007,1.581 1.942,1.579 C1.916,1.577 1.891,1.575 1.87,1.575 L1.546,1.575 Z" id="Shape" fill="#000000"></path>
            <path d="M1.058,1.145 L1.058,3.876 L2.086,3.876 C2.086,3.876 2.587,3.888 2.863,3.612 C3.089,3.385 3.073,3.126 3.073,3.126 C3.073,3.126 3.089,2.854 2.88,2.645 C2.702,2.468 2.476,2.419 2.476,2.419 C2.476,2.419 2.578,2.372 2.657,2.294 C2.694,2.257 2.825,2.138 2.825,1.851 C2.825,1.561 2.632,1.394 2.632,1.394 C2.632,1.394 2.421,1.145 1.945,1.145 L1.058,1.145 Z M0,0.612 L4.029,0.612 L4.029,4.403 L0,4.403 L0,0.612 Z" id="Shape" fill="#000000"></path>
            <path d="M0,5.343 L0,8.478 L0.45,8.478 L0.45,7.118 L0.638,7.118 C0.87,7.118 1.056,7.19 1.471,7.835 L1.885,8.478 L2.422,8.478 C2.206,8.18 2.128,8.073 1.994,7.856 C1.755,7.466 1.581,7.178 1.296,6.989 C1.631,6.855 1.82,6.585 1.82,6.221 C1.82,5.679 1.425,5.343 0.791,5.343 L0,5.343 Z M0.45,5.729 L0.74,5.729 C1.176,5.729 1.351,5.909 1.356,6.202 C1.36,6.464 1.222,6.712 0.74,6.712 L0.45,6.712 L0.45,5.729 Z" id="Shape" fill="#000000"></path>
            <path d="M4.06,5.325 L3.743,5.325 L2.396,8.477 L2.856,8.477 L3.252,7.555 L4.584,7.555 L5.002,8.477 L5.46,8.477 L4.06,5.325 Z M3.895,6.015 L4.4,7.149 L3.425,7.149 L3.895,6.015 Z" id="Shape" fill="#000000"></path>
            <path d="M5.835,8.478 L7.058,8.478 C8.092,8.478 8.72,7.715 8.72,6.912 C8.72,6.172 8.211,5.344 7.053,5.344 L5.835,5.344 L5.835,8.478 Z M6.286,5.748 L6.978,5.748 C7.857,5.748 8.257,6.28 8.257,6.911 C8.257,7.297 8.023,8.073 7.003,8.073 L6.286,8.073 L6.286,5.748 Z" id="Shape" fill="#000000"></path>
            <path d="M9.465,8.478 L9.465,5.343" id="Shape" stroke="#000000" stroke-width="0.45"></path>
            <path d="M10.209,6.911 C10.209,7.761 10.857,8.518 11.881,8.518 C12.943,8.518 13.578,7.755 13.578,6.911 C13.578,6.038 12.925,5.303 11.891,5.303 C10.875,5.303 10.209,6.042 10.209,6.911 M10.673,6.911 C10.673,6.221 11.193,5.717 11.891,5.717 C12.594,5.717 13.114,6.221 13.114,6.911 C13.114,7.595 12.594,8.105 11.891,8.105 C11.193,8.105 10.673,7.595 10.673,6.911" id="Shape" fill="#000000"></path>
            <path d="M39.344,13.103 C39.339,13.276 39.332,13.435 39.129,13.558 C38.986,13.638 38.858,13.638 38.803,13.638 C38.612,13.638 38.483,13.552 38.427,13.479 C38.354,13.38 38.354,13.238 38.354,13.097 L38.354,11.101 L37.399,11.101 L37.399,13.122 C37.399,13.645 37.429,13.836 37.595,14.07 C37.819,14.379 38.205,14.409 38.415,14.409 C38.624,14.409 38.834,14.359 39.023,14.262 C39.197,14.176 39.252,14.115 39.343,14.008 L39.343,14.317 L40.292,14.317 L40.292,11.102 L39.343,11.102 L39.343,13.103 L39.344,13.103 Z" id="Shape" fill="#2B7A82"></path>
            <path d="M42.294,12.215 C41.986,12.159 41.781,12.122 41.781,11.938 C41.781,11.846 41.869,11.699 42.238,11.699 C42.46,11.699 42.744,11.785 43.045,12.018 L43.63,11.477 C43.408,11.322 42.953,10.996 42.195,10.996 C41.297,10.996 40.84,11.545 40.84,12.074 C40.84,12.314 40.94,12.537 41.081,12.678 C41.222,12.821 41.42,12.9 41.615,12.955 C41.758,12.998 41.906,13.029 42.048,13.055 C42.233,13.084 42.453,13.104 42.596,13.178 C42.651,13.209 42.718,13.25 42.718,13.362 C42.718,13.602 42.374,13.676 42.147,13.676 C41.79,13.676 41.469,13.485 41.21,13.232 L40.613,13.774 C40.816,13.966 41.277,14.397 42.171,14.397 C42.929,14.397 43.692,14.028 43.692,13.271 C43.692,12.505 42.94,12.331 42.294,12.215" id="Shape" fill="#2B7A82"></path>
            <rect id="Rectangle-path" fill="#2B7A82" x="43.959" y="11.095" width="0.937" height="3.221"></rect>
            <rect id="Rectangle-path" fill="#2B7A82" x="43.959" y="9.962" width="0.937" height="0.731"></rect>
            <path d="M47.418,13.447 C47.219,13.668 46.985,13.668 46.937,13.668 C46.432,13.668 46.223,13.134 46.223,12.708 C46.223,12.32 46.395,11.735 46.906,11.735 C47.053,11.735 47.171,11.784 47.263,11.846 C47.418,11.956 47.479,12.067 47.534,12.184 L48.237,11.784 C47.831,11.112 47.219,11.014 46.863,11.014 C45.792,11.014 45.251,11.801 45.251,12.739 C45.251,14.05 46.23,14.421 46.845,14.421 C47.208,14.421 47.522,14.302 47.769,14.132 C48.028,13.946 48.157,13.743 48.274,13.558 L47.561,13.189 C47.528,13.28 47.497,13.354 47.418,13.447" id="Shape" fill="#2B7A82"></path>
            <path d="M35.083,11.567 C34.911,11.388 34.878,11.02 34.237,11.02 C33.682,11.02 33.435,11.309 33.325,11.438 L33.325,11.106 L32.388,11.106 L32.388,14.315 L33.325,14.315 L33.325,12.485 C33.325,12.264 33.331,12.005 33.54,11.864 C33.626,11.808 33.725,11.79 33.799,11.79 C33.954,11.79 34.095,11.858 34.169,11.956 C34.255,12.079 34.261,12.271 34.261,12.413 L34.261,14.315 L35.197,14.315 L35.197,12.565 C35.197,12.214 35.197,12.03 35.377,11.889 C35.469,11.814 35.593,11.789 35.685,11.789 C35.758,11.789 36.011,11.808 36.097,12.078 C36.134,12.201 36.134,12.442 36.134,12.627 L36.134,14.315 L37.071,14.315 L37.071,12.22 C37.071,11.875 37.065,11.655 36.984,11.482 C36.886,11.286 36.616,11.03 36.087,11.02 C35.401,11.011 35.268,11.413 35.083,11.567" id="Shape" fill="#2B7A82"></path>
            <path d="M27.262,8.537 C28.42,9.205 28.815,10.684 28.149,11.842 C27.481,13.001 26.001,13.398 24.843,12.728 C23.686,12.062 23.288,10.582 23.957,9.423 C24.625,8.267 26.106,7.869 27.262,8.537 M26.215,19.881 C29.658,19.881 32.809,18.132 34.645,15.205 C34.645,15.204 34.645,15.203 34.647,15.203 L34.647,15.203 L34.647,15.202 C34.657,15.186 34.661,15.169 34.661,15.151 C34.661,15.12 34.645,15.089 34.616,15.072 C34.571,15.044 34.514,15.055 34.485,15.1 C32.843,17.685 29.598,19.356 26.215,19.356 C21.023,19.356 16.799,15.131 16.799,9.94 C16.799,5.038 20.567,1 25.358,0.565 L20.995,8.128 C19.68,10.777 20.63,14.025 23.227,15.525 C25.93,17.087 29.384,16.161 30.946,13.458 C32.508,10.755 31.581,7.298 28.879,5.736 C28.049,5.258 27.15,5.017 26.257,4.986 L28.65,0.836 C32.73,1.899 35.92,5.565 35.92,9.913 C35.92,9.966 35.962,10.008 36.016,10.008 C36.067,10.008 36.11,9.966 36.11,9.913 L36.11,9.858 C36.108,4.33 31.667,0 26.215,0 C20.734,0 16.274,4.459 16.274,9.94 C16.274,15.421 20.734,19.881 26.215,19.881" id="Shape" fill="#2B7A82"></path>
        </g>
    </g>
</svg>