<?xml version="1.0" encoding="UTF-8"?>
<svg width="35px" height="21px" viewBox="0 0 35 21" version="1.1" xmlns="http://www.w3.org/2000/svg" xmlns:xlink="http://www.w3.org/1999/xlink">
    <!-- Generator: Sketch 41.2 (35397) - http://www.bohemiancoding.com/sketch -->
    <title>radio5live.small</title>
    <desc>Created with Sketch.</desc>
    <defs></defs>
    <g id="Page-1" stroke="none" stroke-width="1" fill="none" fill-rule="evenodd">
        <g id="radio5live.large" fill="#00B3DF">
            <path d="M10.771,0 C5.167,0 0.625,4.604 0.625,10.283 C0.625,15.962 5.167,20.566 10.771,20.566 C16.375,20.566 20.917,15.962 20.917,10.283 C20.917,4.604 16.375,0 10.771,0 M11.36,7.869 C13.928,7.869 15.723,9.853 15.723,12.694 C15.723,14.069 15.192,15.353 14.227,16.31 C13.244,17.285 11.938,17.806 10.563,17.777 C8.241,17.777 5.888,16.607 5.466,14.019 L9.162,14.019 C9.45,14.455 9.925,14.712 10.507,14.712 C11.639,14.712 12.246,13.671 12.246,12.692 C12.246,11.724 11.709,10.747 10.507,10.747 C9.788,10.747 9.391,10.96 8.934,11.589 L8.825,11.737 L5.587,11.737 L7.252,3.36 L15.898,3.36 L15.298,6.416 L9.847,6.416 C9.847,6.416 9.589,7.611 9.471,8.294 C10.015,8.007 10.632,7.869 11.36,7.869" id="Shape"></path>
            <polygon id="Shape" points="25.679 6.435 24.397 6.435 24.26 7.375 25.542 7.375"></polygon>
            <polygon id="Shape" points="24.789 13.363 25.47 8.104 24.187 8.104 23.507 13.363"></polygon>
            <path d="M28.136,13.363 L30.722,8.103 L29.347,8.103 C29.347,8.103 28.159,10.682 27.882,11.285 C27.753,10.644 27.241,8.103 27.241,8.103 L25.891,8.103 L27.116,13.363 L28.136,13.363 Z" id="Shape"></path>
            <path d="M34.171,8.676 C33.817,8.269 33.298,8.045 32.705,8.045 C31.667,8.045 30.465,8.75 30.21,10.73 C30.091,11.647 30.233,12.347 30.634,12.809 C30.982,13.21 31.525,13.423 32.202,13.423 C32.952,13.423 33.636,13.13 34.179,12.575 L34.284,12.468 L33.442,11.652 L33.339,11.746 C33.043,12.017 32.649,12.186 32.303,12.186 C31.998,12.186 31.758,12.095 31.61,11.921 C31.487,11.78 31.423,11.581 31.423,11.339 C31.423,11.313 31.428,11.286 31.43,11.259 L34.475,11.259 L34.598,10.308 C34.614,10.195 34.619,10.083 34.619,9.975 C34.622,9.469 34.466,9.017 34.171,8.676 M33.328,10.139 L31.584,10.139 C31.724,9.607 32.095,9.282 32.584,9.282 C32.817,9.282 33.008,9.356 33.135,9.497 C33.265,9.64 33.33,9.852 33.33,10.117 C33.33,10.123 33.328,10.131 33.328,10.139" id="Shape"></path>
            <polygon id="Shape" points="23.562 6.435 22.28 6.435 21.38 13.357 22.662 13.357"></polygon>
        </g>
    </g>
</svg>