<?xml version="1.0" encoding="UTF-8"?>
<svg width="211px" height="211px" viewBox="0 0 211 211" version="1.1" xmlns="http://www.w3.org/2000/svg" xmlns:xlink="http://www.w3.org/1999/xlink">
    <!-- Generator: Sketch 41.2 (35397) - http://www.bohemiancoding.com/sketch -->
    <title>Untitled 3</title>
    <desc>Created with Sketch.</desc>
    <defs></defs>
    <g id="Page-1" stroke="none" stroke-width="1" fill="none" fill-rule="evenodd">
        <rect id="radio4.large" fill="#FFFFFF" x="0" y="0" width="211" height="211"></rect>
        <g id="radio4extra.large" transform="translate(6.000000, 63.000000)">
            <g id="layer1" transform="translate(0.235660, 0.723250)">
                <g id="g3099" transform="translate(0.224978, 0.975126)">
                    <rect id="rect3036" stroke="#FFFFFF" stroke-width="3.98400895" fill="#FFFFFF" x="86.2299176" y="13.253773" width="46.3141041" height="54.7801231"></rect>
                    <path d="M49.4057188,4.92719392 C49.3340067,4.91125788 49.2543265,4.89930585 49.1826143,4.88336982 L49.0909821,4.8754018 C48.9634938,4.85548175 48.8360056,4.83954572 48.7045333,4.8315777 C48.6129011,4.81962567 48.5252529,4.81564166 48.4376047,4.81165766 C48.2742603,4.79970563 48.122868,4.79572162 47.9754596,4.79572162 L47.7961792,4.79572162 C47.6686909,4.79572162 47.5451867,4.80368964 47.4256664,4.81165766 C47.3579382,4.81564166 47.2902101,4.81962567 47.2224819,4.82759369 C47.1228817,4.83556171 47.0272655,4.84352973 46.9276653,4.85946576 L46.8479851,4.86743378 L46.7523689,4.87938581 L46.6448006,4.89930585 C46.5969925,4.90727387 46.5491844,4.91524189 46.5053603,4.92719392 C46.4336482,4.93516193 46.369904,4.95109797 46.3101439,4.96305 C45.911743,5.04671418 45.5452142,5.15826643 45.2105574,5.28575472 C45.035261,5.35746688 44.8639486,5.43316305 44.7085723,5.50885922 C44.573116,5.57658737 44.4496117,5.64431553 44.3221234,5.71602769 C44.2065872,5.78375584 44.0910509,5.85148399 43.9794986,5.92319615 C43.9197385,5.96702025 43.8559944,6.00686034 43.7922502,6.05466845 C43.7404581,6.09052453 43.69265,6.12638061 43.6408579,6.17020471 C43.5332896,6.24988489 43.4336894,6.33753308 43.3340892,6.41721326 C43.246441,6.49689344 43.1627768,6.58055763 43.0791126,6.6562538 C43.0113845,6.72398195 42.9356883,6.79569411 42.8759282,6.87537429 C42.804216,6.95107046 42.7364878,7.02676663 42.6767277,7.10644681 C42.6010315,7.190111 42.5412714,7.2777592 42.4775273,7.36540739 C42.4217511,7.43313555 42.377927,7.5008637 42.3341029,7.57257586 C42.2982469,7.62038397 42.2703588,7.66819207 42.2464547,7.71600018 C42.0671743,7.99886482 41.919766,8.3016495 41.7882937,8.62833823 C41.6329174,9.03470715 41.5213651,9.47294813 41.457621,9.93110916 C41.4416849,10.0785175 41.4297329,10.2259258 41.4177809,10.3813022 C41.4098129,10.4968384 41.4058289,10.6163587 41.4058289,10.731895 C41.4058289,10.8235272 41.4058289,10.9111754 41.4098129,10.9988236 C41.4177809,11.0904558 41.4297329,11.178104 41.4377009,11.2697362 L41.4416849,11.3334803 C41.457621,11.4410486 41.473557,11.5446328 41.4934771,11.644233 C41.5014451,11.6880571 41.5094131,11.7278972 41.5173811,11.7677373 C41.5333171,11.8514015 41.5572212,11.9390497 41.5731572,12.0187299 C41.6050293,12.1262981 41.6369014,12.2298823 41.6727575,12.3374506 C41.7165816,12.4649389 41.7643897,12.5884431 41.8121978,12.7079634 C41.891878,12.8991958 41.9835102,13.0824602 42.0751424,13.2577566 C42.1309185,13.3613409 42.1906786,13.4609411 42.2464547,13.5565573 C42.2982469,13.6322535 42.346055,13.7039656 42.3938631,13.7756778 C42.4576072,13.871294 42.5253354,13.9629262 42.5930635,14.0465904 C42.6607917,14.1382226 42.7364878,14.2218868 42.812184,14.305551 C42.8958482,14.4051512 42.9874804,14.5007674 43.0751286,14.5884156 L43.1149687,14.6322397 C43.1946489,14.7039519 43.270345,14.7796481 43.3579932,14.8593282 C43.4177534,14.9031523 43.4814975,14.9629125 43.5532097,15.0147046 C43.6129698,15.0625127 43.684682,15.1182888 43.7524101,15.1660969 C43.8400583,15.2298411 43.9237225,15.2896012 44.0153547,15.3493613 C44.122923,15.4091215 44.2265072,15.4768496 44.3340754,15.5405938 C44.5531959,15.664098 44.8002045,15.7836183 45.0671331,15.8911866 C45.1667333,15.9310266 45.2703175,15.9668827 45.3778858,16.0027388 C45.485454,16.0425789 45.5930223,16.074451 45.7045745,16.106323 C45.899791,16.1581152 46.1029754,16.2099073 46.3101439,16.2537314 C46.4814563,16.2856034 46.6647207,16.3134915 46.8479851,16.3334115 C47.0272655,16.3573156 47.2184979,16.3732516 47.4097304,16.3812197 C47.5093306,16.3891877 47.6049468,16.3891877 47.700563,16.3971557 L47.8400033,16.3971557 C48.1905961,16.3971557 48.5133008,16.3812197 48.8121015,16.3573156 L48.8718616,16.3533316 C48.9953659,16.3413796 49.1069182,16.3294275 49.2184704,16.3134915 C49.3937668,16.2935715 49.5531272,16.2696674 49.7085035,16.2377953 C49.8081037,16.2258433 49.90372,16.2019393 49.9953522,16.1860032 C50.1427605,16.1541311 50.2782168,16.1182751 50.4096891,16.086403 C50.5053053,16.0585149 50.5969375,16.0346109 50.6885697,16.0027388 C50.796138,15.9748507 50.8957382,15.9389947 50.9953384,15.9031386 L51.0909546,15.8752505 C51.1387627,15.8553305 51.2025069,15.8314264 51.278203,15.8035384 C51.3778033,15.7636983 51.5013075,15.7158902 51.6367639,15.65613 C51.724412,15.6202739 51.8120602,15.5804339 51.9036924,15.5405938 C51.9793886,15.5007537 52.0710208,15.4569296 52.158669,15.4170895 C52.1905411,15.4011535 52.2303812,15.3812334 52.2702213,15.3652974 L52.2702213,13.2219006 C52.2423332,13.2418206 52.2144451,13.2577566 52.1905411,13.2736927 L52.0431328,13.3613409 C51.8957244,13.4489891 51.7562841,13.5326533 51.6168438,13.6123334 C51.4614675,13.6920136 51.3060911,13.7716938 51.1507148,13.84739 C50.8917542,13.9708942 50.6327936,14.0744785 50.389769,14.1621267 C49.92364,14.329455 49.493367,14.4330393 49.1188702,14.5047514 C49.0710621,14.5127195 49.027238,14.5206875 48.9834139,14.5246715 C48.8798297,14.5406075 48.7802294,14.5565436 48.6806292,14.5645116 C48.5332209,14.5804476 48.3937806,14.5884156 48.2742603,14.5923996 C48.1905961,14.5963836 48.1188839,14.6043517 48.0431878,14.6043517 C47.8917954,14.6043517 47.7364191,14.5963836 47.5730747,14.5844316 C47.3858263,14.5724796 47.2025619,14.5485755 47.0073454,14.5206875 C46.6965927,14.4649113 46.3858401,14.3852312 46.0870394,14.2776629 C46.0352473,14.2617269 45.9914232,14.2418068 45.9475991,14.2218868 C45.919711,14.2139188 45.8918229,14.2019668 45.8599509,14.1900147 C45.8121428,14.1661107 45.7643347,14.1461906 45.7125425,14.1262706 C45.6049743,14.0744785 45.5013901,14.0226864 45.3978058,13.9629262 C45.3499977,13.9350382 45.3021896,13.9031661 45.2503975,13.879262 C45.2025894,13.843406 45.1507973,13.8115339 45.0990052,13.7716938 C45.039245,13.7358377 44.9755009,13.6880296 44.9197248,13.6442055 C44.8559806,13.5963974 44.8002045,13.5446053 44.7444284,13.5047652 L44.6767002,13.433053 L44.6408441,13.401181 L44.6209241,13.3812609 L44.593036,13.3573569 C44.4974198,13.2617406 44.4097716,13.1621404 44.3261074,13.0665242 C44.2862673,13.0107481 44.2424432,12.954972 44.1986191,12.9031798 C44.1627631,12.8474037 44.126907,12.7956116 44.0910509,12.7438195 C44.0551948,12.6920274 44.0273068,12.6442193 43.9994187,12.5884431 C43.9516106,12.516731 43.9117705,12.4410348 43.8719304,12.3653386 C43.8440423,12.3015945 43.8161543,12.2378503 43.7882662,12.1741062 C43.7404581,12.066538 43.704602,11.9589697 43.67273,11.8553855 C43.6448419,11.7757053 43.6209378,11.6920411 43.6010178,11.6163449 C43.5492257,11.3932404 43.5173536,11.190056 43.5014176,11.0147596 C43.4894655,10.9470314 43.4894655,10.8832873 43.4854815,10.8275112 C43.4814975,10.743847 43.4814975,10.6681508 43.4814975,10.6083907 L43.4814975,10.4729344 C43.4854815,10.3534141 43.5014176,10.1980378 43.5253216,10.0187574 C43.5372736,9.91118911 43.5611777,9.79963686 43.5930498,9.67613259 C43.6089858,9.59645241 43.6289059,9.51677223 43.6567939,9.43310804 C43.684682,9.35741187 43.708586,9.2817157 43.7404581,9.19805151 C43.7563941,9.1462594 43.7802982,9.09446728 43.8042022,9.03869115 C43.8360743,8.96697899 43.8719304,8.89526683 43.9077865,8.82355467 C43.9356745,8.76777855 43.9675466,8.71200242 44.0034027,8.65622629 C44.0711308,8.53670603 44.150811,8.41320175 44.2424432,8.29368148 C44.2743153,8.24985738 44.3061874,8.20603328 44.3420435,8.16220918 C44.3898516,8.11041707 44.4336757,8.05065693 44.4854678,7.99886482 C44.5133558,7.97097675 44.5372599,7.94308869 44.565148,7.91520063 C44.9555808,7.52476775 45.3978058,7.22995109 45.8519829,7.02278262 C45.927679,6.99091055 45.9993912,6.95903848 46.0711033,6.93115042 C46.1428155,6.90326236 46.2145277,6.8793583 46.2902238,6.85147024 C46.36592,6.82756619 46.4456002,6.80366213 46.5252804,6.77975808 C46.6009765,6.75983803 46.6806567,6.73991799 46.7523689,6.71999794 C46.828065,6.70406191 46.9077452,6.68812587 46.9794574,6.67617385 C47.0631216,6.66023781 47.1428018,6.64828578 47.2264659,6.63633376 C47.3101301,6.62836574 47.3898103,6.61641371 47.4734745,6.6124297 C47.6328349,6.60047768 47.7802432,6.59250966 47.9276515,6.59250966 L48.0830279,6.59250966 C48.1945801,6.59649367 48.2981643,6.60047768 48.4057326,6.60446168 C48.4814288,6.6124297 48.5531409,6.6124297 48.6248531,6.62039772 C48.7523414,6.63633376 48.8877977,6.64828578 49.011302,6.66820583 C49.1188702,6.68812587 49.2304224,6.70406191 49.3260387,6.71999794 C49.481415,6.75585402 49.6208553,6.7877261 49.7523276,6.82358218 C49.8280238,6.83951821 49.90372,6.86342227 49.9714481,6.88732632 C50.0750323,6.91919839 50.1626805,6.94708645 50.2343927,6.9670065 C50.349929,7.0108306 50.4216411,7.03075064 50.4216411,7.03075064 C50.5212413,7.07059073 50.6288096,7.11441483 50.7284098,7.15425492 C50.8678501,7.21003105 50.9953384,7.26580717 51.1228267,7.3255673 C51.2224269,7.37337541 51.3220271,7.42118352 51.4136593,7.46102361 C51.4933395,7.5008637 51.5650517,7.54070379 51.6287958,7.57257586 C51.7483161,7.63233599 51.8479163,7.68811212 51.9275965,7.73193622 L52.146717,7.85145649 L52.146717,5.75188377 C52.146717,5.75188377 52.0152447,5.70009165 51.7881562,5.61244345 C51.688556,5.57658737 51.5690357,5.53276328 51.4335794,5.48495517 C51.3578832,5.45706711 51.278203,5.42917904 51.1945389,5.39730697 C51.1307947,5.37340292 51.0630666,5.34949886 50.9913544,5.32957882 C50.9076902,5.30169076 50.82801,5.26981869 50.7443458,5.24591463 C50.6806017,5.2299786 50.6168576,5.20607454 50.5491294,5.19013851 L50.4933533,5.17420247 C50.4335931,5.15428243 50.365865,5.13834639 50.3100889,5.12241035 C50.2264247,5.10249031 50.1507285,5.07858626 50.0710483,5.05866621 C50.0232402,5.05069819 49.9714481,5.03874617 49.919656,5.02679414 C49.8359918,5.00687409 49.7563116,4.98695405 49.6646794,4.97101801 C49.5810152,4.95109797 49.493367,4.93516193 49.4057188,4.92719392 L49.4057188,4.92719392 Z M38.8879352,2.73200498 L55.5809327,2.73200498 L55.5809327,18.4409523 L38.8879352,18.4409523 L38.8879352,2.73200498 Z" id="path3038" fill="#000000"></path>
                    <path d="M26.0594264,11.4211285 L26.0594264,14.5087354 L28.0633829,14.5087354 C28.0633829,14.5087354 28.103223,14.5047514 28.1629831,14.5047514 C28.2346953,14.5007674 28.3303115,14.4927994 28.4498317,14.4888154 C28.6609842,14.4649113 28.9518169,14.4250713 29.2306975,14.329455 C29.4816901,14.2497749 29.7247146,14.1222866 29.911963,13.9350382 C29.9836752,13.859342 30.0434353,13.7836458 30.0952274,13.7079496 C30.2466198,13.4609411 30.2904439,13.2099485 30.2984119,13.0705082 C30.3023959,13.0027801 30.3023959,12.970908 30.3023959,12.970908 L30.3023959,12.8952118 C30.3023959,12.8354517 30.2944279,12.7199154 30.2625558,12.5964111 C30.2227157,12.4490028 30.1549876,12.2816744 30.0314833,12.1223141 C30.0035952,12.094426 29.9757072,12.066538 29.9478191,12.0386499 C29.896027,11.9828738 29.8322829,11.9270976 29.7685387,11.8792895 C29.6569865,11.7996094 29.5334822,11.7318812 29.3980259,11.6721211 C29.2187455,11.5924409 29.015561,11.5366648 28.7884725,11.4928407 C28.6809043,11.4729206 28.5574,11.4530006 28.4378797,11.4450326 C28.3581995,11.4330805 28.2864874,11.4330805 28.2068072,11.4251125 C28.135095,11.4211285 28.0673669,11.4211285 27.9916707,11.4211285 L26.0594264,11.4211285 Z" id="path3040" fill="#000000"></path>
                    <path d="M26.0594264,6.72398195 L26.0594264,9.65222853 L27.0275405,9.65222853 C27.0275405,9.65222853 27.0912847,9.65222853 27.1789329,9.64824452 C27.2506451,9.64824452 27.3223572,9.64426052 27.3980534,9.6362925 C27.5972538,9.62434047 27.8761345,9.59645241 28.1470471,9.52075624 C28.2068072,9.5048202 28.2585993,9.48490016 28.3064074,9.46896412 C28.5255279,9.38928394 28.7326964,9.2817157 28.9000248,9.12235534 C29.027513,8.99486706 29.1071932,8.85144273 29.1629693,8.71598643 C29.2346815,8.54865805 29.2585856,8.3892977 29.2705376,8.27774544 C29.2745216,8.1701772 29.2745216,8.11041707 29.2745216,8.11041707 L29.2745216,7.98292878 C29.2705376,7.8594245 29.2426495,7.64827203 29.1390653,7.45305559 C29.0912572,7.35743938 29.027513,7.26182316 28.9318968,7.17417496 C28.8243286,7.07059073 28.6968403,6.98294253 28.553416,6.91919839 C28.2785194,6.79967812 27.9637827,6.75187002 27.7048221,6.73593398 C27.5853018,6.72796596 27.4817176,6.72398195 27.3940694,6.72398195 L26.0594264,6.72398195 Z" id="path3042" fill="#000000"></path>
                    <path d="M24.0315658,4.93516193 L24.0315658,16.2537314 L28.2904714,16.2537314 C28.2904714,16.2537314 30.3701241,16.3055235 31.5135346,15.1621129 C32.4497767,14.2258708 32.3820486,13.1462044 32.3820486,13.1462044 C32.3820486,13.1462044 32.4497767,12.0187299 31.5852468,11.1541999 C30.8442211,10.4211423 29.907979,10.2259258 29.907979,10.2259258 C29.907979,10.2259258 30.330284,10.0267254 30.6609567,9.70003664 C30.8123491,9.5486443 31.3541743,9.0586112 31.3541743,7.86739252 C31.3541743,6.66422182 30.5573725,5.97498827 30.5573725,5.97498827 C30.5573725,5.97498827 29.6808905,4.93516193 27.7048221,4.93516193 L24.0315658,4.93516193 L24.0315658,4.93516193 Z M19.65314,2.73200498 L36.3461375,2.73200498 L36.3461375,18.4409523 L19.65314,18.4409523 L19.65314,2.73200498 Z" id="path3044" fill="#000000"></path>
                    <path d="M6.82463115,11.4211285 L6.82463115,14.5087354 L8.83257166,14.5087354 C8.83257166,14.5087354 8.86842774,14.5047514 8.93615589,14.5047514 C8.99990004,14.5007674 9.09950026,14.4927994 9.21503652,14.4888154 C9.43415701,14.4649113 9.71702165,14.4250713 9.99590228,14.329455 C10.2468948,14.2497749 10.4899194,14.1222866 10.6811518,13.9350382 C10.752864,13.859342 10.8126241,13.7836458 10.8604322,13.7079496 C11.0158086,13.4609411 11.0556487,13.2099485 11.0636167,13.0705082 C11.0715847,13.0027801 11.0715847,12.970908 11.0715847,12.970908 L11.0715847,12.8952118 C11.0636167,12.8354517 11.0556487,12.7199154 11.0277606,12.5964111 C10.9919045,12.4490028 10.9201924,12.2816744 10.7927041,12.1223141 C10.772784,12.094426 10.744896,12.066538 10.7170079,12.0386499 C10.6612318,11.9828738 10.6014716,11.9270976 10.5377275,11.8792895 C10.4261752,11.7996094 10.302671,11.7318812 10.1672147,11.6721211 C9.98395025,11.5924409 9.78076579,11.5366648 9.5616453,11.4928407 C9.45009305,11.4729206 9.32658877,11.4530006 9.2070685,11.4450326 C9.13137233,11.4330805 9.05169215,11.4330805 8.97599598,11.4251125 C8.90826783,11.4211285 8.83257166,11.4211285 8.76484351,11.4211285 L6.82463115,11.4211285 Z" id="path3046" fill="#000000"></path>
                    <path d="M6.82463115,6.72398195 L6.82463115,9.65222853 L7.79672933,9.65222853 C7.79672933,9.65222853 7.86047348,9.65222853 7.94413767,9.64824452 C8.01186582,9.64824452 8.09553001,9.64426052 8.16325816,9.6362925 C8.36245861,9.62434047 8.64133923,9.59645241 8.91623585,9.52075624 C8.97201198,9.5048202 9.02380409,9.48490016 9.07958022,9.46896412 C9.2947167,9.38928394 9.50188517,9.2817157 9.66124552,9.12235534 C9.79271782,8.99486706 9.872398,8.85144273 9.93215813,8.71598643 C9.99988629,8.54865805 10.0277743,8.3892977 10.0357424,8.27774544 C10.0437104,8.1701772 10.0437104,8.11041707 10.0437104,8.11041707 L10.0437104,7.98292878 C10.0317584,7.8594245 10.0078543,7.64827203 9.90825408,7.45305559 C9.86044597,7.35743938 9.79271782,7.26182316 9.70506962,7.17417496 C9.59351737,7.07059073 9.46204508,6.98294253 9.31862075,6.91919839 C9.04372414,6.79967812 8.73297144,6.75187002 8.46604284,6.73593398 C8.35449059,6.72796596 8.24692235,6.72398195 8.16325816,6.72398195 L6.82463115,6.72398195 Z" id="path3048" fill="#000000"></path>
                    <path d="M4.79677059,4.93516193 L4.79677059,16.2537314 L9.05567616,16.2537314 C9.05567616,16.2537314 11.1353288,16.3055235 12.2787394,15.1621129 C13.2109975,14.2258708 13.1472534,13.1462044 13.1472534,13.1462044 C13.1472534,13.1462044 13.2109975,12.0187299 12.3464676,11.1541999 C11.6094259,10.4211423 10.6731838,10.2219418 10.6731838,10.2219418 C10.6731838,10.2219418 11.0994728,10.0227414 11.4221775,9.69605263 C11.5775538,9.54466029 12.119379,9.05462719 12.119379,7.86340851 C12.119379,6.66023781 11.3185932,5.97100426 11.3185932,5.97100426 C11.3185932,5.97100426 10.4460953,4.93516193 8.47401086,4.93516193 L4.79677059,4.93516193 Z M0.414360745,2.73200498 L17.1073583,2.73200498 L17.1073583,18.4409523 L0.414360745,18.4409523 L0.414360745,2.73200498 Z" id="path3050" fill="#000000"></path>
                    <path d="M0.414360745,22.337313 L0.414360745,35.3251822 L2.27887693,35.3251822 L2.27887693,29.6838255 L3.05974269,29.6838255 C4.01590484,29.6838255 4.78880257,29.9905942 6.50989444,32.6558962 L8.22301829,35.3211982 L10.4540633,35.3211982 C9.55766129,34.0861554 9.23495657,33.6479145 8.67719531,32.7515124 C7.68916109,31.1379888 6.96805547,29.9388021 5.78878882,29.1579364 C7.17522394,28.6041591 7.9600737,27.4806686 7.9600737,25.9747132 C7.9600737,23.7277322 6.32264602,22.337313 3.69320011,22.337313 L0.414360745,22.337313 Z M2.28286094,23.9349006 L3.48603165,23.9349006 C5.2907877,23.9349006 6.01986134,24.6759263 6.03579738,25.895033 C6.05173341,26.9826675 5.48202013,28.0105418 3.48603165,28.0105418 L2.28286094,28.0105418 L2.28286094,23.9349006 Z" id="path3052" fill="#000000"></path>
                    <path d="M17.2388306,22.2656009 L15.9241076,22.2656009 L10.3425111,35.3211982 L12.2468673,35.3211982 L13.888279,31.4965496 L19.4101154,31.4965496 L21.1431593,35.3211982 L23.0435316,35.3211982 L17.2388306,22.2656009 Z M16.553581,25.1181513 L18.6491697,29.8192819 L14.6093846,29.8192819 L16.553581,25.1181513 Z" id="path3054" fill="#000000"></path>
                    <path d="M24.5933111,35.3251822 L29.6569865,35.3251822 C33.9437801,35.3251822 36.5493219,32.1658631 36.5493219,28.8312476 C36.5493219,25.7675447 34.4377972,22.337313 29.6410504,22.337313 L24.5933111,22.337313 L24.5933111,35.3251822 Z M26.4618113,24.0145808 L29.3302977,24.0145808 C32.9716819,24.0145808 34.6290296,26.2257058 34.6290296,28.8312476 C34.6290296,30.4328192 33.6569314,33.6518985 29.433882,33.6518985 L26.4618113,33.6518985 L26.4618113,24.0145808 Z" id="path3056" fill="#000000"></path>
                    <path d="M39.574449,35.3211998 L39.574449,22.3333298" id="line3058" stroke="#000000" stroke-width="1.86451615"></path>
                    <path d="M42.7165678,28.8312476 C42.7165678,32.3531115 45.4057738,35.4925106 49.6487434,35.4925106 C54.0470893,35.4925106 56.6765352,32.3331915 56.6765352,28.8312476 C56.6765352,25.2137675 53.9753771,22.1660007 49.6885835,22.1660007 C45.477486,22.1660007 42.7165678,25.2336875 42.7165678,28.8312476 M44.6408441,28.8312476 C44.6408441,25.9747132 46.792209,23.8831085 49.6885835,23.8831085 C52.600894,23.8831085 54.7522589,25.9747132 54.7522589,28.8312476 C54.7522589,31.667862 52.600894,33.7833708 49.6885835,33.7833708 C46.792209,33.7833708 44.6408441,31.667862 44.6408441,28.8312476" id="path3060" fill="#000000"></path>
                    <path d="M109.010477,0.194191279 C86.2737377,0.194191279 67.8437123,18.6321847 67.8437123,41.3729078 C67.8437123,64.1176149 86.2697537,82.5516244 109.010477,82.5516244 C131.739248,82.5516244 150.165289,64.1176149 150.165289,41.3729078 C150.165289,18.6321847 131.739248,0.194191279 109.010477,0.194191279 L109.010477,0.194191279 Z M131.344831,57.7312486 L122.970444,57.7312486 L122.994348,68.3366804 L107.998539,68.3526164 L107.974634,58.810915 C107.974634,58.810915 107.958698,57.7591366 106.699752,57.7153125 L85.2538314,57.7312486 L85.2617994,48.9305728 C85.2617994,47.6556899 85.8912728,45.7632857 86.6641706,44.7354114 L109.596126,13.9828463 C110.36504,12.954972 112.038324,12.1143461 113.325158,12.1183301 L123.002316,12.1223141 L122.98638,45.3887888 L131.364751,45.3648848 L131.344831,57.7312486 L131.344831,57.7312486 Z" id="path3062" fill="#853F98"></path>
                    <path d="M109.261469,36.094096 C106.010518,36.1618241 103.40896,38.8629822 103.48864,42.1179175 C103.564337,44.9425798 105.675861,47.2652571 108.432795,47.7592742 L110.552288,48.137755 C109.998511,51.8867074 108.600124,54.6954338 105.444789,57.022095 C109.695726,55.1296907 112.966598,51.0540496 114.468569,46.7433519 C115.974524,42.4207022 115.121947,35.9745757 109.261469,36.094096" id="path3064" fill="#853F98"></path>
                    <polygon id="path3068" fill="#853F98" points="139.865861 12.6650055 147.078982 12.6834916 150.437118 18.3572316 153.96087 12.6992401 159.182204 12.6650326 153.1162 21.6071884 159.518912 31.0969678 154.33737 31.0969678 150.434353 24.7229823 146.571128 31.0969678 143.660671 30.554852 139.865861 12.6650326"></polygon>
                    <path d="M137.697398,12.3670153 C130.240488,12.3670153 127.939315,18.5237858 127.939315,21.887923 C127.939315,27.5332561 132.206308,31.6460063 137.697398,31.6460063 C144.942124,31.6460063 146.574543,25.1406174 146.574543,25.1406174 L141.492208,25.1406174 C141.492208,25.1406174 140.083249,27.3090804 137.561869,27.3090804 C133.926332,27.3090804 133.360472,24.056386 133.360472,24.056386 L146.913366,24.056386 L146.913366,21.887923 C146.913366,18.1040419 144.566438,12.3670153 137.697398,12.3670153 Z M137.561869,16.4328834 C141.102318,16.4328834 141.763266,19.71946 141.763266,19.71946 L133.360472,19.6855778 C133.360472,19.6855778 133.926332,16.4328834 137.561869,16.4328834 Z" id="path3066" fill="#FFFFFF"></path>
                    <path d="M169.682227,26.7600147 L169.682227,31.0969407 L168.055879,31.0969407 C164.345693,31.0969407 161.550491,27.998386 161.550491,25.1336675 L161.550491,17.0019314 L159.382028,17.0019314 L159.382028,12.6650055 L161.550491,12.6650055 L161.550491,8.32807958 L165.887416,8.32807958 L165.887416,12.6650055 L169.140111,12.6650055 L169.140111,17.0019314 L165.887416,17.0019314 L165.887416,23.5073203 C165.887416,25.6167306 166.730352,26.7600202 168.597995,26.7600147 L169.682227,26.7600147 Z" id="path3070" fill="#853F98"></path>
                    <path d="M170.766458,31.0969407 L170.766458,12.6650055 L175.103384,12.6650055 L175.103384,14.5651645 C175.103384,14.5651645 176.078162,12.4254229 181.066657,12.4254229 L181.066657,17.0019314 L178.863987,17.0019314 C176.563356,17.0019314 175.103384,19.3270712 175.103384,21.2074539 L175.103384,31.0969407 L170.766458,31.0969407 Z" id="path3072" fill="#853F98"></path>
                    <path d="M190.180978,12.3670153 C185.887476,12.3670153 181.507126,14.8697685 181.507126,18.6013463 L185.945699,18.6352286 C185.945699,17.5495388 187.512034,16.1279433 190.147096,16.1279433 C192.053392,16.1279433 193.535319,17.0374129 193.535319,17.8898194 C193.535319,19.0941133 191.9827,19.7081678 188.046397,20.1599291 C185.187984,20.4246117 180.761717,21.2674227 180.761717,25.4116753 C180.761717,27.7844021 182.549452,31.4765952 188.148044,31.4765952 C192.382347,31.4765952 194.077435,28.7998987 194.077435,28.7998987 C194.077435,30.2400508 194.246846,31.1038906 194.246846,31.1038906 L198.414361,31.1038906 C198.414361,31.1038906 197.872245,29.2267986 197.872245,27.5801383 L197.872245,18.0253484 C197.872245,15.6136489 195.579258,12.3670153 190.180978,12.3670153 Z M193.535319,22.4978032 L193.535319,24.056386 C193.535319,25.2861213 192.564661,27.3090804 188.757924,27.3090804 C186.084318,27.3090804 185.403583,26.2790876 185.403583,25.4116753 C185.403583,23.9021107 187.56077,23.6723891 188.893453,23.480388 C190.564362,23.3222691 191.662201,23.1220495 193.535319,22.4978032 Z" id="path3074" fill="#853F98"></path>
                </g>
            </g>
        </g>
    </g>
</svg>