<?xml version="1.0" encoding="UTF-8" standalone="no"?>
<!-- Created with Inkscape (http://www.inkscape.org/) -->

<svg
   xmlns:dc="http://purl.org/dc/elements/1.1/"
   xmlns:cc="http://creativecommons.org/ns#"
   xmlns:rdf="http://www.w3.org/1999/02/22-rdf-syntax-ns#"
   xmlns:svg="http://www.w3.org/2000/svg"
   xmlns="http://www.w3.org/2000/svg"
   xmlns:sodipodi="http://sodipodi.sourceforge.net/DTD/sodipodi-0.dtd"
   xmlns:inkscape="http://www.inkscape.org/namespaces/inkscape"
   width="200"
   height="73.085831"
   id="svg2"
   sodipodi:version="0.32"
   inkscape:version="0.48.2 r9819"
   version="1.0"
   inkscape:output_extension="org.inkscape.output.svg.inkscape"
   sodipodi:docname="BBC_Asian_Network.svg">
  <metadata
     id="metadata54">
    <rdf:RDF>
      <cc:Work
         rdf:about="">
        <dc:format>image/svg+xml</dc:format>
        <dc:type
           rdf:resource="http://purl.org/dc/dcmitype/StillImage" />
      </cc:Work>
    </rdf:RDF>
  </metadata>
  <defs
     id="defs52" />
  <sodipodi:namedview
     pagecolor="#ffffff"
     bordercolor="#666666"
     borderopacity="1"
     objecttolerance="10"
     gridtolerance="10"
     guidetolerance="10"
     inkscape:pageopacity="0"
     inkscape:pageshadow="2"
     inkscape:window-width="1276"
     inkscape:window-height="1038"
     id="namedview50"
     showgrid="false"
     fit-margin-left="0.1"
     fit-margin-top="0.1"
     fit-margin-bottom="0.1"
     fit-margin-right="0.1"
     inkscape:zoom="2"
     inkscape:cx="228.99639"
     inkscape:cy="53.785351"
     inkscape:window-x="652"
     inkscape:window-y="0"
     inkscape:window-maximized="0"
     inkscape:current-layer="layer1">
    <inkscape:grid
       type="xygrid"
       id="grid3042"
       empspacing="5"
       visible="true"
       enabled="true"
       snapvisiblegridlinesonly="true" />
  </sodipodi:namedview>
  <g
     inkscape:label="Layer 1"
     inkscape:groupmode="layer"
     id="layer1"
     transform="translate(-116.26942,-1285.4592)">
    <g
       id="g3281"
       transform="matrix(1.619685,0,0,1.619685,-72.112383,-841.80801)">
      <path
         sodipodi:type="arc"
         style="font-size:18px;font-style:normal;font-variant:normal;font-weight:bold;font-stretch:normal;line-height:125%;letter-spacing:0px;word-spacing:0px;fill:#eb018a;fill-opacity:1;fill-rule:nonzero;stroke:none;font-family:Futura Bk;-inkscape-font-specification:Futura Bk Bold"
         id="path3189"
         sodipodi:cx="161"
         sodipodi:cy="528"
         sodipodi:rx="10"
         sodipodi:ry="10"
         d="m 171,528 c 0,5.52285 -4.47715,10 -10,10 -5.52285,0 -10,-4.47715 -10,-10 0,-5.52285 4.47715,-10 10,-10 5.52285,0 10,4.47715 10,10 z"
         transform="matrix(2.2500001,0,0,2.2500001,-186.5366,147.94499)" />
      <g
         style="fill:#ffffff"
         transform="matrix(3.6210848,0,0,-3.6210848,182.59858,1326.8142)"
         id="g3115">
        <path
           style="fill:#ffffff;fill-rule:nonzero;stroke:none"
           d="m 0,0 -0.109,0.289 c -1.639,-1.444 -3.143,-2.937 -4.335,-4.738 l 0.497,0 C -3.019,-3.006 -1.559,-1.448 0,0 m -0.394,0.364 c 0.068,0.056 0.132,0.109 0.195,0.163 L -0.315,0.835 C -0.394,0.772 -0.475,0.707 -0.553,0.643 -2.733,-1.138 -4.355,-2.827 -5.34,-4.449 l 0.427,0 c 0.971,1.55 2.425,3.067 4.519,4.813 m 0.023,0.623 -0.503,1.335 -1.922,0 -2.099,-5.457 c 1.231,1.568 2.787,2.936 4.524,4.122 m 0.469,-1.248 c -1.029,-1.03 -1.97,-2.062 -2.708,-3.011 l 1.969,0 0.44,-1.177 1.876,0 -1.577,4.188 z"
           id="path3117"
           inkscape:connector-curvature="0" />
      </g>
      <path
         style="fill:#1a171b;fill-rule:evenodd;stroke:none"
         d="m 137.38814,1314.834 9.12053,0 0,8.5848 -9.12053,0 0,-8.5848 z m 5.74553,1.1947 c -0.0375,-0.01 -0.0803,-0.011 -0.12053,-0.022 l -0.0482,-0.01 c -0.0723,-0.011 -0.14196,-0.019 -0.2116,-0.027 -0.0509,-0.01 -0.0991,-0.01 -0.14732,-0.011 -0.0857,-0.01 -0.17143,-0.01 -0.25179,-0.01 -0.0375,0 -0.0616,0 -0.0964,0 -0.0723,0 -0.13928,0.01 -0.20357,0.01 -0.0375,0 -0.075,0.01 -0.1125,0.01 -0.0536,0.01 -0.10714,0.011 -0.16071,0.019 l -0.0429,0.01 -0.0509,0.01 -0.0589,0.011 c -0.0268,0 -0.0536,0.01 -0.0777,0.013 -0.0375,0.01 -0.0723,0.013 -0.10714,0.021 -0.21697,0.046 -0.41786,0.1044 -0.6,0.1767 -0.0964,0.038 -0.19018,0.078 -0.27322,0.1206 -0.075,0.037 -0.14464,0.072 -0.2116,0.1125 -0.0643,0.037 -0.1259,0.075 -0.1875,0.1152 -0.0322,0.027 -0.0696,0.043 -0.10179,0.07 -0.0295,0.021 -0.0563,0.04 -0.083,0.062 -0.0589,0.043 -0.11518,0.091 -0.16875,0.1339 -0.0455,0.046 -0.0937,0.091 -0.13929,0.1313 -0.0375,0.037 -0.0777,0.078 -0.10982,0.1205 -0.0402,0.04 -0.075,0.083 -0.10982,0.1259 -0.0402,0.046 -0.0723,0.091 -0.10982,0.142 -0.0295,0.038 -0.0509,0.072 -0.0777,0.1125 -0.0187,0.027 -0.0321,0.051 -0.0482,0.078 -0.0964,0.1553 -0.17946,0.3214 -0.2491,0.5009 -0.0857,0.2196 -0.14732,0.4607 -0.17947,0.7098 -0.0107,0.083 -0.0187,0.1634 -0.0241,0.2464 -0.005,0.064 -0.005,0.1313 -0.005,0.1929 l 0,0.1446 c 0.005,0.051 0.0107,0.099 0.0161,0.1473 l 0.003,0.032 c 0.008,0.062 0.0187,0.1178 0.0295,0.1741 0.003,0.024 0.008,0.043 0.0134,0.067 0.0107,0.048 0.0214,0.091 0.0321,0.1393 0.0161,0.059 0.0321,0.1152 0.0536,0.1741 0.0214,0.07 0.0482,0.1366 0.0723,0.2036 0.0455,0.1045 0.0964,0.2063 0.14464,0.3 0.0322,0.054 0.0643,0.1098 0.0937,0.1661 0.0295,0.038 0.0536,0.08 0.0804,0.1152 0.0348,0.053 0.0723,0.1044 0.10982,0.15 0.0375,0.051 0.0804,0.094 0.12054,0.1419 0.0455,0.054 0.0937,0.1072 0.14196,0.1527 l 0.0241,0.024 c 0.0429,0.037 0.083,0.083 0.13125,0.1232 0.0348,0.027 0.0696,0.056 0.10446,0.086 0.0375,0.027 0.0723,0.056 0.10982,0.086 0.0482,0.032 0.0937,0.064 0.14733,0.099 0.0563,0.03 0.1125,0.067 0.1741,0.1018 0.11786,0.067 0.25179,0.134 0.39911,0.1929 0.0536,0.021 0.10982,0.043 0.16875,0.062 0.0589,0.019 0.11786,0.037 0.17678,0.056 0.10715,0.029 0.21965,0.056 0.33215,0.078 0.0937,0.019 0.19553,0.035 0.29464,0.046 0.0991,0.013 0.20089,0.024 0.30536,0.027 0.0563,0.01 0.10982,0.01 0.16071,0.011 l 0.075,0 c 0.19286,0 0.36964,-0.011 0.53304,-0.024 l 0.0321,0 c 0.067,-0.01 0.12857,-0.013 0.19018,-0.022 0.0964,-0.011 0.18214,-0.024 0.26785,-0.04 0.0536,-0.01 0.10447,-0.022 0.15536,-0.03 0.0804,-0.019 0.15536,-0.037 0.225,-0.056 0.0536,-0.013 0.10446,-0.027 0.15536,-0.043 0.0589,-0.016 0.1125,-0.035 0.16607,-0.056 l 0.0536,-0.016 c 0.0268,-0.011 0.0616,-0.022 0.10179,-0.037 0.0563,-0.022 0.12053,-0.048 0.19553,-0.083 0.0455,-0.016 0.0937,-0.038 0.14464,-0.062 0.0429,-0.021 0.0911,-0.045 0.14197,-0.067 0.0161,-0.01 0.0375,-0.019 0.0589,-0.027 l 0,-1.1732 c -0.0161,0.011 -0.0295,0.019 -0.0429,0.027 l -0.0804,0.048 c -0.0804,0.048 -0.15803,0.094 -0.23571,0.1366 -0.083,0.045 -0.16875,0.088 -0.25179,0.1286 -0.14196,0.07 -0.28393,0.1258 -0.41785,0.1741 -0.25447,0.091 -0.4875,0.1446 -0.69375,0.1848 -0.0241,0.01 -0.0482,0.01 -0.0723,0.013 -0.0589,0.01 -0.1125,0.016 -0.16608,0.021 -0.0804,0.01 -0.15803,0.011 -0.22232,0.013 -0.0455,0 -0.0857,0.01 -0.12589,0.01 -0.083,0 -0.16875,0 -0.25714,-0.01 -0.10179,-0.01 -0.20357,-0.021 -0.31072,-0.037 -0.16875,-0.029 -0.34017,-0.072 -0.50357,-0.1312 -0.0241,-0.01 -0.0509,-0.019 -0.0723,-0.03 -0.0188,-0.01 -0.0348,-0.013 -0.0509,-0.019 -0.0241,-0.011 -0.0509,-0.022 -0.0804,-0.035 -0.0563,-0.027 -0.1125,-0.059 -0.16875,-0.088 -0.0268,-0.016 -0.0536,-0.032 -0.083,-0.048 -0.0268,-0.019 -0.0536,-0.037 -0.083,-0.059 -0.0321,-0.019 -0.067,-0.045 -0.0991,-0.072 -0.0348,-0.027 -0.0643,-0.051 -0.0937,-0.075 l -0.0375,-0.035 -0.0188,-0.019 -0.0107,-0.011 -0.0161,-0.011 c -0.0536,-0.054 -0.0991,-0.1072 -0.14464,-0.1607 -0.0241,-0.029 -0.0482,-0.059 -0.0696,-0.086 -0.0214,-0.029 -0.0402,-0.059 -0.0589,-0.088 -0.0214,-0.027 -0.0375,-0.056 -0.0509,-0.086 -0.0268,-0.038 -0.0482,-0.08 -0.0696,-0.1232 -0.0161,-0.029 -0.0321,-0.07 -0.0455,-0.1044 -0.0268,-0.056 -0.0455,-0.1179 -0.0643,-0.1715 -0.0161,-0.043 -0.0268,-0.091 -0.0375,-0.1339 -0.0295,-0.1179 -0.0455,-0.2304 -0.0563,-0.3268 -0.005,-0.037 -0.005,-0.07 -0.008,-0.1018 l 0,-0.1205 0,-0.072 c 0,-0.07 0.008,-0.1527 0.0214,-0.2465 0.008,-0.064 0.0214,-0.1232 0.0375,-0.1875 0.0107,-0.048 0.0187,-0.091 0.0348,-0.1366 0.0134,-0.043 0.0295,-0.083 0.0455,-0.1259 0.0107,-0.032 0.0214,-0.059 0.0375,-0.088 0.0134,-0.038 0.0348,-0.078 0.0563,-0.1179 0.0134,-0.03 0.0321,-0.062 0.0509,-0.088 0.0375,-0.07 0.0804,-0.1339 0.12857,-0.2009 0.0187,-0.024 0.0375,-0.048 0.0563,-0.07 0.0241,-0.032 0.0509,-0.064 0.0777,-0.091 0.0161,-0.013 0.0295,-0.03 0.0429,-0.046 0.21428,-0.2143 0.45803,-0.375 0.70446,-0.4875 0.0402,-0.016 0.0804,-0.035 0.12054,-0.051 0.0402,-0.013 0.075,-0.029 0.11785,-0.043 0.0429,-0.016 0.0857,-0.027 0.12857,-0.038 0.0402,-0.013 0.0857,-0.024 0.1259,-0.035 0.0402,-0.01 0.083,-0.016 0.12321,-0.027 0.0455,-0.01 0.0884,-0.013 0.13661,-0.019 0.0429,-0.01 0.0884,-0.011 0.13393,-0.011 0.0857,-0.01 0.16875,-0.013 0.2491,-0.013 0.0295,0 0.0563,0 0.083,0 0.0616,0 0.11786,0 0.17678,0.01 0.0402,0.01 0.0777,0.01 0.12054,0.01 0.0696,0.011 0.14196,0.016 0.20893,0.027 0.0616,0.011 0.12053,0.022 0.17411,0.03 0.083,0.019 0.16071,0.037 0.23035,0.056 0.0429,0.011 0.083,0.022 0.12054,0.035 0.0563,0.019 0.10446,0.032 0.14464,0.046 0.0643,0.024 0.10179,0.032 0.10179,0.032 0.0563,0.024 0.1125,0.048 0.16875,0.067 0.075,0.032 0.14464,0.062 0.21428,0.094 0.0563,0.027 0.10714,0.053 0.16072,0.075 0.0402,0.021 0.0804,0.043 0.11517,0.062 0.0643,0.035 0.12054,0.064 0.1634,0.088 l 0.12053,0.064 0,-1.1491 c 0,0 -0.075,-0.029 -0.19553,-0.078 -0.0563,-0.019 -0.12054,-0.043 -0.19554,-0.07 -0.0402,-0.016 -0.083,-0.03 -0.12857,-0.048 -0.0375,-0.01 -0.0723,-0.021 -0.1125,-0.032 -0.0455,-0.016 -0.0884,-0.032 -0.13393,-0.048 -0.0375,-0.01 -0.0696,-0.021 -0.10714,-0.032 l -0.0295,-0.01 c -0.0321,-0.011 -0.0696,-0.019 -0.10178,-0.029 -0.0429,-0.011 -0.0857,-0.022 -0.12857,-0.035 -0.0268,-0.01 -0.0563,-0.011 -0.083,-0.019 -0.0482,-0.011 -0.0911,-0.021 -0.13928,-0.03 -0.0482,-0.01 -0.0937,-0.019 -0.14465,-0.027"
         id="path3123"
         inkscape:connector-curvature="0" />
      <g
         transform="matrix(2.6785686,0,0,-2.6785686,130.38176,1319.5789)"
         id="g3125">
        <path
           style="fill:#1a171b;fill-rule:evenodd;stroke:none"
           d="m 0,0 0,-0.63 0.408,0 c 0,0 0.008,0.001 0.021,0.001 0.014,0.001 0.033,0.002 0.058,0.004 0.043,0.004 0.102,0.012 0.159,0.031 0.052,0.017 0.101,0.043 0.139,0.081 0.015,0.016 0.027,0.031 0.038,0.046 0.031,0.051 0.039,0.102 0.041,0.131 0.001,0.014 0.001,0.021 0.001,0.021 l 0,0.014 c 0,0.013 -0.002,0.035 -0.008,0.062 C 0.849,-0.209 0.835,-0.176 0.81,-0.143 0.804,-0.138 0.799,-0.132 0.793,-0.126 0.782,-0.114 0.77,-0.103 0.756,-0.094 0.733,-0.078 0.708,-0.063 0.681,-0.052 0.644,-0.035 0.603,-0.023 0.556,-0.015 0.535,-0.011 0.509,-0.007 0.485,-0.005 0.469,-0.002 0.454,-0.002 0.437,-0.001 0.423,0 0.409,0 0.394,0 L 0,0 z"
           id="path3127"
           inkscape:connector-curvature="0" />
      </g>
      <g
         transform="matrix(2.6785686,0,0,-2.6785686,130.38176,1317.0128)"
         id="g3129">
        <path
           style="fill:#1a171b;fill-rule:evenodd;stroke:none"
           d="m 0,0 0,-0.597 0.197,0 0.031,0 c 0.014,0.001 0.029,0.001 0.044,0.003 0.041,0.003 0.098,0.009 0.153,0.025 0.012,0.002 0.024,0.006 0.033,0.009 0.044,0.017 0.087,0.039 0.121,0.071 0.026,0.027 0.043,0.055 0.054,0.083 0.014,0.034 0.019,0.067 0.021,0.09 0.002,0.021 0.002,0.034 0.002,0.034 0,0 0,0.01 -0.001,0.025 C 0.654,-0.23 0.649,-0.188 0.628,-0.148 0.618,-0.129 0.605,-0.11 0.585,-0.092 0.564,-0.07 0.537,-0.053 0.508,-0.04 0.452,-0.015 0.388,-0.005 0.335,-0.003 0.311,-0.001 0.29,0 0.272,0 L 0,0 z"
           id="path3131"
           inkscape:connector-curvature="0" />
      </g>
      <path
         style="fill:#1a171b;fill-rule:evenodd;stroke:none"
         d="m 126.88012,1314.834 9.12053,0 0,8.5848 -9.12053,0 0,-8.5848 z m 2.38928,1.2027 0,6.1821 2.33036,0 c 0,0 1.13571,0.029 1.75982,-0.5946 0.5116,-0.5116 0.47678,-1.0982 0.47678,-1.0982 0,0 0.0348,-0.6188 -0.43928,-1.0929 -0.40179,-0.3991 -0.9134,-0.5089 -0.9134,-0.5089 0,0 0.23036,-0.1072 0.40983,-0.2866 0.083,-0.083 0.38035,-0.3482 0.38035,-1.0045 0,-0.6536 -0.4366,-1.0286 -0.4366,-1.0286 0,0 -0.47947,-0.5678 -1.55893,-0.5678 l -2.00893,0 z"
         id="path3133"
         inkscape:connector-curvature="0" />
      <g
         transform="matrix(2.6785686,0,0,-2.6785686,119.87106,1319.5789)"
         id="g3135">
        <path
           style="fill:#1a171b;fill-rule:evenodd;stroke:none"
           d="m 0,0 0,-0.63 0.409,0 c 0,0 0.008,0.001 0.021,0.001 0.014,0.001 0.034,0.002 0.057,0.004 0.045,0.004 0.103,0.012 0.16,0.031 0.051,0.017 0.1,0.043 0.14,0.081 0.014,0.016 0.026,0.031 0.036,0.046 0.032,0.051 0.039,0.102 0.041,0.131 0.002,0.014 0.002,0.021 0.002,0.021 l 0,0.014 C 0.864,-0.288 0.863,-0.266 0.857,-0.239 0.849,-0.209 0.835,-0.176 0.809,-0.143 0.805,-0.138 0.799,-0.132 0.794,-0.126 0.782,-0.114 0.77,-0.103 0.757,-0.094 0.734,-0.078 0.709,-0.063 0.681,-0.052 0.644,-0.035 0.603,-0.023 0.558,-0.015 0.535,-0.011 0.51,-0.007 0.486,-0.005 0.47,-0.002 0.454,-0.002 0.439,-0.001 0.424,0 0.41,0 0.395,0 L 0,0 z"
           id="path3137"
           inkscape:connector-curvature="0" />
      </g>
      <g
         transform="matrix(2.6785686,0,0,-2.6785686,119.87106,1317.0128)"
         id="g3139">
        <path
           style="fill:#1a171b;fill-rule:evenodd;stroke:none"
           d="m 0,0 0,-0.597 0.198,0 0.03,0 c 0.014,0.001 0.03,0.001 0.045,0.003 0.04,0.003 0.098,0.009 0.153,0.025 0.012,0.002 0.022,0.006 0.034,0.009 0.043,0.017 0.086,0.039 0.119,0.071 0.026,0.027 0.042,0.055 0.054,0.083 0.014,0.034 0.02,0.067 0.021,0.09 0.002,0.021 0.002,0.034 0.002,0.034 l 0,0.025 C 0.654,-0.23 0.649,-0.188 0.629,-0.148 0.619,-0.129 0.605,-0.11 0.588,-0.092 0.564,-0.07 0.537,-0.053 0.508,-0.04 0.452,-0.015 0.389,-0.005 0.335,-0.003 0.312,-0.001 0.29,0 0.273,0 L 0,0 z"
           id="path3141"
           inkscape:connector-curvature="0" />
      </g>
      <path
         style="fill:#1a171b;fill-rule:evenodd;stroke:none"
         d="m 116.36942,1314.834 9.12052,0 0,8.5848 -9.12052,0 0,-8.5848 z m 2.39196,1.2027 0,6.1821 2.32767,0 c 0,0 1.13572,0.029 1.75982,-0.5946 0.51161,-0.5116 0.47679,-1.0982 0.47679,-1.0982 0,0 0.0348,-0.6188 -0.43661,-1.0929 -0.40446,-0.3991 -0.91607,-0.5089 -0.91607,-0.5089 0,0 0.23036,-0.1072 0.40982,-0.2866 0.083,-0.083 0.38036,-0.3482 0.38036,-1.0045 0,-0.6536 -0.43661,-1.0286 -0.43661,-1.0286 0,0 -0.47678,-0.5678 -1.55625,-0.5678 l -2.00892,0 z"
         id="path3143"
         inkscape:connector-curvature="0" />
      <g
         transform="matrix(2.6785686,0,0,-2.6785686,117.38802,1326.4173)"
         id="g3145">
        <path
           style="fill:#1a171b;fill-rule:evenodd;stroke:none"
           d="M 0,0 0.245,0 C 0.613,0 0.762,-0.15 0.766,-0.4 0.769,-0.621 0.652,-0.831 0.245,-0.831 L 0,-0.831 0,0 z m -0.38,0.327 0,-2.649 0.38,0 0,1.149 0.159,0 c 0.195,0 0.353,-0.062 0.704,-0.606 l 0.349,-0.543 0.454,0 c -0.182,0.251 -0.248,0.342 -0.361,0.523 -0.202,0.331 -0.35,0.576 -0.59,0.735 0.283,0.113 0.443,0.342 0.443,0.649 0,0.458 -0.334,0.742 -0.87,0.742 l -0.668,0 z"
           id="path3147"
           inkscape:connector-curvature="0" />
      </g>
      <g
         transform="matrix(2.6785686,0,0,-2.6785686,125.18534,1327.0628)"
         id="g3149">
        <path
           style="fill:#1a171b;fill-rule:evenodd;stroke:none"
           d="m 0,0 0.428,-0.958 -0.824,0 L 0,0 z m 0.14,0.583 -0.268,0 -1.139,-2.664 0.389,0 0.335,0.779 1.126,0 0.353,-0.779 0.388,0 -1.184,2.664 z"
           id="path3151"
           inkscape:connector-curvature="0" />
      </g>
      <g
         transform="matrix(2.6785686,0,0,-2.6785686,130.6014,1326.4575)"
         id="g3153">
        <path
           style="fill:#1a171b;fill-rule:evenodd;stroke:none"
           d="m 0,0 0.584,0 c 0.743,0 1.082,-0.452 1.082,-0.984 0,-0.326 -0.199,-0.981 -1.061,-0.981 L 0,-1.965 0,0 z m -0.382,-2.307 1.033,0 c 0.875,0 1.406,0.645 1.406,1.323 0,0.626 -0.431,1.326 -1.409,1.326 l -1.03,0 0,-2.649 z"
           id="path3155"
           inkscape:connector-curvature="0" />
      </g>
      <path
         style="fill:#1a171b;fill-rule:evenodd;stroke:none"
         d="m 137.28636,1325.5429 1.01785,0 0,7.0956 -1.01785,0 0,-7.0956 z"
         id="path3157"
         inkscape:connector-curvature="0" />
      <g
         transform="matrix(2.6785686,0,0,-2.6785686,140.53353,1329.0932)"
         id="g3159">
        <path
           style="fill:#1a171b;fill-rule:evenodd;stroke:none"
           d="M 0,0 C 0,0.584 0.439,1.01 1.029,1.01 1.624,1.01 2.063,0.584 2.063,0 2.063,-0.578 1.624,-1.01 1.029,-1.01 0.439,-1.01 0,-0.578 0,0 m -0.393,0 c 0,-0.718 0.549,-1.358 1.414,-1.358 0.897,0 1.434,0.644 1.434,1.358 0,0.739 -0.551,1.36 -1.426,1.36 C 0.17,1.36 -0.393,0.735 -0.393,0"
           id="path3161"
           inkscape:connector-curvature="0" />
      </g>
      <path
         inkscape:connector-curvature="0"
         id="path3165"
         d="m 166.91217,1348.0312 c -1e-5,-0.4182 -0.097,-0.7436 -0.29111,-0.9762 -0.19407,-0.2325 -0.45673,-0.3488 -0.78798,-0.3488 -0.33795,0 -0.61065,0.1188 -0.8181,0.3564 -0.20746,0.2375 -0.31118,0.5604 -0.31118,0.9686 0,0.4015 0.10121,0.7194 0.30365,0.9536 0.20243,0.2343 0.47764,0.3514 0.82563,0.3514 0.32456,0 0.58555,-0.1197 0.78297,-0.3589 0.19741,-0.2392 0.29611,-0.5546 0.29612,-0.9461 z m 1.84198,2.63 -1.84198,0 0,-0.7177 c -0.18738,0.3111 -0.42244,0.5362 -0.70517,0.675 -0.28275,0.1389 -0.64328,0.2083 -1.0816,0.2083 -0.70936,0 -1.28237,-0.256 -1.71902,-0.7679 -0.43665,-0.5119 -0.65498,-1.1878 -0.65498,-2.0277 0,-0.8699 0.21916,-1.5567 0.65749,-2.0603 0.43833,-0.5036 1.03057,-0.7553 1.77673,-0.7554 0.39148,10e-5 0.72692,0.072 1.00632,0.2159 0.27939,0.1439 0.51946,0.3664 0.72023,0.6675 l 0,-0.7227 1.84198,0 z"
         style="font-size:18px;font-style:normal;font-variant:normal;font-weight:bold;font-stretch:normal;line-height:125%;letter-spacing:0px;word-spacing:0px;fill:#ffffff;fill-opacity:1;stroke:none;font-family:Futura Bk;-inkscape-font-specification:Futura Bk Bold" />
      <path
         inkscape:connector-curvature="0"
         id="path3167"
         d="m 173.98923,1349.0451 c 0,0.542 -0.20578,0.9745 -0.61733,1.2974 -0.41157,0.3229 -0.96533,0.4843 -1.6613,0.4843 -0.46175,0 -0.89088,-0.053 -1.28738,-0.1606 -0.3965,-0.1071 -0.77377,-0.2693 -1.13179,-0.4868 l 0.39148,-1.4305 c 0.26434,0.2343 0.56213,0.4166 0.89339,0.5471 0.33125,0.1305 0.66418,0.1958 0.99879,0.1958 0.23087,0 0.3965,-0.032 0.49688,-0.095 0.10038,-0.064 0.15057,-0.1656 0.15057,-0.3062 0,-0.2442 -0.23924,-0.4232 -0.71772,-0.537 -0.14388,-0.034 -0.25765,-0.06 -0.34129,-0.08 -0.5521,-0.1439 -0.95697,-0.3438 -1.21461,-0.5998 -0.25764,-0.2559 -0.38646,-0.5847 -0.38646,-0.9862 0,-0.5086 0.19239,-0.9143 0.57719,-1.2171 0.38479,-0.3028 0.90844,-0.4542 1.57095,-0.4543 0.38144,10e-5 0.74281,0.038 1.08411,0.1155 0.34129,0.077 0.68593,0.1991 1.03392,0.3664 l -0.38145,1.2848 c -0.23422,-0.1606 -0.48685,-0.2869 -0.75787,-0.3789 -0.27103,-0.092 -0.52868,-0.138 -0.77293,-0.138 -0.21749,0 -0.37978,0.031 -0.48685,0.093 -0.10707,0.062 -0.16061,0.1548 -0.1606,0.2786 -1e-5,0.1874 0.2476,0.3463 0.74281,0.4768 0.20076,0.05 0.35969,0.094 0.47681,0.1305 0.53536,0.164 0.91931,0.3714 1.15186,0.6224 0.23255,0.2509 0.34882,0.5771 0.34882,0.9787 z"
         style="font-size:18px;font-style:normal;font-variant:normal;font-weight:bold;font-stretch:normal;line-height:125%;letter-spacing:0px;word-spacing:0px;fill:#ffffff;fill-opacity:1;stroke:none;font-family:Futura Bk;-inkscape-font-specification:Futura Bk Bold" />
      <path
         inkscape:connector-curvature="0"
         id="path3169"
         d="m 176.42324,1350.6612 -1.8721,0 0,-5.285 1.8721,0 z m 0.0903,-6.8861 c 0,0.2844 -0.10122,0.5303 -0.30365,0.7378 -0.20244,0.2074 -0.44419,0.3112 -0.72525,0.3112 -0.27772,0 -0.51863,-0.1046 -0.72274,-0.3137 -0.20411,-0.2091 -0.30616,-0.4542 -0.30616,-0.7353 0,-0.2811 0.10122,-0.5228 0.30365,-0.7253 0.20243,-0.2024 0.44418,-0.3036 0.72525,-0.3036 0.28441,0 0.527,0.1 0.72776,0.2986 0.20076,0.1991 0.30114,0.4425 0.30114,0.7303 z"
         style="font-size:18px;font-style:normal;font-variant:normal;font-weight:bold;font-stretch:normal;line-height:125%;letter-spacing:0px;word-spacing:0px;fill:#ffffff;fill-opacity:1;stroke:none;font-family:Futura Bk;-inkscape-font-specification:Futura Bk Bold" />
      <path
         inkscape:connector-curvature="0"
         id="path3171"
         d="m 181.10619,1348.0312 c 0,-0.4182 -0.097,-0.7436 -0.2911,-0.9762 -0.19407,-0.2325 -0.45673,-0.3488 -0.78799,-0.3488 -0.33795,0 -0.61065,0.1188 -0.8181,0.3564 -0.20745,0.2375 -0.31118,0.5604 -0.31118,0.9686 0,0.4015 0.10122,0.7194 0.30365,0.9536 0.20244,0.2343 0.47764,0.3514 0.82563,0.3514 0.32456,0 0.58555,-0.1197 0.78297,-0.3589 0.19741,-0.2392 0.29612,-0.5546 0.29612,-0.9461 z m 1.84198,2.63 -1.84198,0 0,-0.7177 c -0.18738,0.3111 -0.42244,0.5362 -0.70517,0.675 -0.28274,0.1389 -0.64327,0.2083 -1.0816,0.2083 -0.70936,0 -1.28236,-0.256 -1.71901,-0.7679 -0.43666,-0.5119 -0.65499,-1.1878 -0.65499,-2.0277 0,-0.8699 0.21917,-1.5567 0.6575,-2.0603 0.43832,-0.5036 1.03057,-0.7553 1.77673,-0.7554 0.39148,10e-5 0.72692,0.072 1.00631,0.2159 0.27939,0.1439 0.51947,0.3664 0.72023,0.6675 l 0,-0.7227 1.84198,0 z"
         style="font-size:18px;font-style:normal;font-variant:normal;font-weight:bold;font-stretch:normal;line-height:125%;letter-spacing:0px;word-spacing:0px;fill:#ffffff;fill-opacity:1;stroke:none;font-family:Futura Bk;-inkscape-font-specification:Futura Bk Bold" />
      <path
         inkscape:connector-curvature="0"
         id="path3173"
         d="m 189.19592,1350.6612 -1.8721,0 0,-2.7454 c 0,-0.4484 -0.0602,-0.7621 -0.18068,-0.9411 -0.12047,-0.179 -0.32792,-0.2685 -0.62236,-0.2685 -0.3413,0 -0.59392,0.1481 -0.75788,0.4442 -0.16395,0.2961 -0.24593,0.7537 -0.24593,1.3727 l 0,2.1381 -1.87209,0 0,-5.285 1.87209,0 0,0.8833 c 0.23757,-0.3848 0.49019,-0.655 0.75787,-0.8106 0.26768,-0.1556 0.61065,-0.2333 1.0289,-0.2334 0.67589,10e-5 1.16023,0.1908 1.45301,0.5722 0.29277,0.3815 0.43916,1.0022 0.43917,1.8621 z"
         style="font-size:18px;font-style:normal;font-variant:normal;font-weight:bold;font-stretch:normal;line-height:125%;letter-spacing:0px;word-spacing:0px;fill:#ffffff;fill-opacity:1;stroke:none;font-family:Futura Bk;-inkscape-font-specification:Futura Bk Bold" />
      <path
         inkscape:connector-curvature="0"
         id="path3175"
         d="m 203.79871,1350.6612 -1.8721,0 0,-2.7454 c 0,-0.4484 -0.0602,-0.7621 -0.18069,-0.9411 -0.12046,-0.179 -0.32791,-0.2685 -0.62235,-0.2685 -0.3413,0 -0.59393,0.1481 -0.75788,0.4442 -0.16396,0.2961 -0.24593,0.7537 -0.24593,1.3727 l 0,2.1381 -1.8721,0 0,-5.285 1.8721,0 0,0.8833 c 0.23756,-0.3848 0.49019,-0.655 0.75787,-0.8106 0.26768,-0.1556 0.61065,-0.2333 1.0289,-0.2334 0.67589,10e-5 1.16023,0.1908 1.45301,0.5722 0.29277,0.3815 0.43916,1.0022 0.43917,1.8621 z"
         style="font-size:18px;font-style:normal;font-variant:normal;font-weight:bold;font-stretch:normal;line-height:125%;letter-spacing:0px;word-spacing:0px;fill:#eb018a;fill-opacity:1;stroke:none;font-family:Futura Bk;-inkscape-font-specification:Futura Bk Bold" />
      <path
         inkscape:connector-curvature="0"
         id="path3177"
         d="m 207.86118,1347.3486 c -0.0335,-0.3111 -0.13887,-0.5562 -0.3162,-0.7353 -0.17734,-0.179 -0.4032,-0.2685 -0.67757,-0.2685 -0.27772,0 -0.50525,0.096 -0.68258,0.2886 -0.17734,0.1924 -0.26936,0.4308 -0.27605,0.7152 z m 1.80183,1.0289 -3.75423,0 c 0,0.3614 0.0979,0.6458 0.29361,0.8533 0.19574,0.2074 0.45422,0.3111 0.77544,0.3111 0.20076,0 0.39734,-0.054 0.58974,-0.1631 0.19239,-0.1087 0.33209,-0.2534 0.41909,-0.4341 l 1.40532,0.5671 c -0.2543,0.4752 -0.57217,0.8131 -0.95361,1.0139 -0.38145,0.2007 -0.87834,0.3011 -1.49065,0.3011 -0.90343,0 -1.60191,-0.2426 -2.09544,-0.7277 -0.49354,-0.4852 -0.74031,-1.1611 -0.74031,-2.0277 0,-0.8499 0.25095,-1.5384 0.75285,-2.0654 0.50191,-0.5269 1.17278,-0.7904 2.01263,-0.7905 0.86662,10e-5 1.54753,0.2728 2.04275,0.8181 0.4952,0.5455 0.7428,1.3 0.74281,2.2636 z"
         style="font-size:18px;font-style:normal;font-variant:normal;font-weight:bold;font-stretch:normal;line-height:125%;letter-spacing:0px;word-spacing:0px;fill:#eb018a;fill-opacity:1;stroke:none;font-family:Futura Bk;-inkscape-font-specification:Futura Bk Bold" />
      <path
         inkscape:connector-curvature="0"
         id="path3179"
         d="m 213.09515,1346.8668 -0.90342,0 0,3.7944 -1.8721,0 0,-3.7944 -0.61734,0 0,-1.4906 0.61734,0 0,-1.5911 1.8721,0 0,1.5911 0.90342,0 z"
         style="font-size:18px;font-style:normal;font-variant:normal;font-weight:bold;font-stretch:normal;line-height:125%;letter-spacing:0px;word-spacing:0px;fill:#eb018a;fill-opacity:1;stroke:none;font-family:Futura Bk;-inkscape-font-specification:Futura Bk Bold" />
      <path
         inkscape:connector-curvature="0"
         id="path3181"
         d="m 223.28524,1345.3762 -2.40913,5.285 -1.41536,0 -1.18449,-3.1018 -1.22464,3.1018 -1.52076,0 -2.38404,-5.285 1.99757,0 1.28487,3.1168 1.13932,-3.1168 1.35513,0 1.17445,3.1168 1.18951,-3.1168 z"
         style="font-size:18px;font-style:normal;font-variant:normal;font-weight:bold;font-stretch:normal;line-height:125%;letter-spacing:0px;word-spacing:0px;fill:#eb018a;fill-opacity:1;stroke:none;font-family:Futura Bk;-inkscape-font-specification:Futura Bk Bold" />
      <path
         inkscape:connector-curvature="0"
         id="path3183"
         d="m 226.90538,1348.0212 c 0,-0.3346 -0.10373,-0.6157 -0.31118,-0.8432 -0.20745,-0.2275 -0.46677,-0.3413 -0.77795,-0.3413 -0.32791,0 -0.59141,0.1138 -0.79049,0.3413 -0.19909,0.2275 -0.29864,0.5086 -0.29863,0.8432 -10e-6,0.358 0.0979,0.6441 0.29361,0.8582 0.19574,0.2142 0.46091,0.3213 0.79551,0.3213 0.32122,0 0.58304,-0.1071 0.78548,-0.3213 0.20243,-0.2141 0.30365,-0.5002 0.30365,-0.8582 z m 1.9524,0 c -1e-5,0.803 -0.28693,1.4714 -0.86076,2.0051 -0.57385,0.5337 -1.30077,0.8005 -2.18077,0.8005 -0.89003,0 -1.61947,-0.266 -2.18829,-0.798 -0.56882,-0.532 -0.85323,-1.2012 -0.85323,-2.0076 0,-0.793 0.2911,-1.4589 0.87331,-1.9976 0.5822,-0.5387 1.30494,-0.808 2.16821,-0.8081 0.88335,10e-5 1.6111,0.2619 2.18328,0.7855 0.57216,0.5237 0.85824,1.1971 0.85825,2.0202 z"
         style="font-size:18px;font-style:normal;font-variant:normal;font-weight:bold;font-stretch:normal;line-height:125%;letter-spacing:0px;word-spacing:0px;fill:#eb018a;fill-opacity:1;stroke:none;font-family:Futura Bk;-inkscape-font-specification:Futura Bk Bold" />
      <path
         inkscape:connector-curvature="0"
         id="path3185"
         d="m 233.13652,1345.2894 -0.19073,1.8269 c -0.13384,-0.037 -0.25095,-0.063 -0.35132,-0.078 -0.10039,-0.015 -0.19742,-0.023 -0.29111,-0.023 -0.44168,0 -0.77126,0.133 -0.98874,0.399 -0.2175,0.266 -0.32624,0.6667 -0.32624,1.202 l 0,2.088 -1.86206,0 0,-5.2851 1.86206,0 0,1.0189 c 0.19072,-0.4015 0.41908,-0.6985 0.6851,-0.8909 0.266,-0.1924 0.57467,-0.2886 0.926,-0.2886 0.0669,0 0.14472,0 0.23339,0.01 0.0887,0.01 0.18988,0.013 0.30365,0.023 z"
         style="font-size:18px;font-style:normal;font-variant:normal;font-weight:bold;font-stretch:normal;line-height:125%;letter-spacing:0px;word-spacing:0px;fill:#eb018a;fill-opacity:1;stroke:none;font-family:Futura Bk;-inkscape-font-specification:Futura Bk Bold" />
      <path
         inkscape:connector-curvature="0"
         id="path3187"
         d="m 239.72674,1350.6612 -2.46936,0 -1.99255,-2.3539 0,2.3539 -1.8721,0 0,-8.4822 1.8721,0 0,5.4909 1.92228,-2.2937 2.32381,0 -2.38905,2.5295 z"
         style="font-size:18px;font-style:normal;font-variant:normal;font-weight:bold;font-stretch:normal;line-height:125%;letter-spacing:0px;word-spacing:0px;fill:#eb018a;fill-opacity:1;stroke:none;font-family:Futura Bk;-inkscape-font-specification:Futura Bk Bold" />
    </g>
  </g>
</svg>
