<?xml version="1.0" encoding="UTF-8"?>
<svg width="55px" height="55px" viewBox="0 0 55 55" version="1.1" xmlns="http://www.w3.org/2000/svg" xmlns:xlink="http://www.w3.org/1999/xlink">
    <!-- Generator: Sketch 41.2 (35397) - http://www.bohemiancoding.com/sketch -->
    <title>Untitled 3</title>
    <desc>Created with Sketch.</desc>
    <defs></defs>
    <g id="Page-1" stroke="none" stroke-width="1" fill="none" fill-rule="evenodd">
        <rect id="radio4.large" fill="#FFFFFF" x="0" y="0" width="55" height="55"></rect>
        <g id="radio5liveextra.large" transform="translate(2.000000, 17.000000)">
            <rect id="Rectangle-path" stroke="#FFFFFF" fill="#FFFFFF" x="21.526" y="3.032" width="10.896" height="14.429"></rect>
            <path d="M12.078,1.166 C12.06,1.162 12.041,1.16 12.023,1.156 L12.001,1.153 C11.969,1.149 11.938,1.145 11.905,1.143 C11.883,1.14 11.861,1.139 11.839,1.138 C11.8,1.135 11.762,1.134 11.725,1.134 L11.681,1.134 C11.65,1.134 11.62,1.137 11.59,1.139 C11.573,1.14 11.557,1.141 11.54,1.143 C11.515,1.145 11.492,1.147 11.467,1.151 L11.447,1.153 L11.424,1.156 L11.398,1.161 C11.386,1.162 11.374,1.164 11.363,1.167 C11.346,1.169 11.33,1.173 11.315,1.176 C11.217,1.197 11.126,1.224 11.044,1.256 C11.001,1.274 10.959,1.292 10.92,1.311 C10.887,1.327 10.856,1.344 10.825,1.362 C10.796,1.378 10.768,1.395 10.741,1.413 C10.726,1.424 10.71,1.434 10.694,1.445 C10.682,1.455 10.669,1.463 10.657,1.473 C10.631,1.493 10.606,1.514 10.582,1.534 C10.56,1.554 10.539,1.574 10.519,1.593 C10.502,1.61 10.483,1.627 10.468,1.647 C10.451,1.665 10.434,1.684 10.419,1.704 C10.401,1.724 10.386,1.746 10.37,1.768 C10.357,1.784 10.346,1.801 10.335,1.819 C10.326,1.831 10.319,1.842 10.313,1.854 C10.269,1.924 10.232,1.999 10.2,2.079 C10.162,2.179 10.134,2.287 10.119,2.4 C10.115,2.437 10.112,2.473 10.109,2.511 C10.107,2.54 10.106,2.569 10.106,2.598 C10.106,2.621 10.106,2.642 10.107,2.664 C10.109,2.686 10.112,2.708 10.114,2.73 L10.115,2.746 C10.118,2.772 10.123,2.798 10.127,2.823 C10.13,2.833 10.132,2.843 10.134,2.853 C10.138,2.874 10.143,2.895 10.148,2.916 C10.155,2.942 10.163,2.968 10.172,2.994 C10.182,3.026 10.194,3.056 10.206,3.086 C10.226,3.133 10.248,3.179 10.271,3.222 C10.285,3.247 10.299,3.271 10.313,3.296 C10.326,3.314 10.337,3.332 10.349,3.349 C10.365,3.373 10.382,3.395 10.399,3.416 C10.415,3.439 10.434,3.459 10.453,3.48 C10.474,3.505 10.496,3.528 10.517,3.549 L10.528,3.561 C10.547,3.578 10.565,3.597 10.587,3.616 C10.602,3.628 10.618,3.641 10.635,3.655 C10.65,3.667 10.667,3.68 10.684,3.692 C10.706,3.708 10.726,3.722 10.75,3.737 C10.776,3.751 10.801,3.768 10.828,3.784 C10.882,3.814 10.942,3.844 11.009,3.87 C11.033,3.881 11.059,3.889 11.085,3.898 C11.111,3.908 11.138,3.916 11.166,3.924 C11.214,3.937 11.264,3.949 11.315,3.96 C11.357,3.968 11.402,3.975 11.447,3.979 C11.492,3.985 11.539,3.99 11.586,3.992 C11.61,3.994 11.634,3.994 11.658,3.995 L11.692,3.995 C11.778,3.995 11.858,3.992 11.932,3.985 L11.947,3.984 C11.977,3.982 12.004,3.978 12.032,3.975 C12.076,3.97 12.115,3.964 12.153,3.957 C12.178,3.953 12.201,3.947 12.224,3.943 C12.26,3.935 12.294,3.926 12.325,3.918 C12.349,3.912 12.372,3.906 12.395,3.899 C12.422,3.891 12.446,3.882 12.47,3.874 L12.494,3.866 C12.506,3.862 12.522,3.856 12.54,3.849 C12.565,3.839 12.595,3.827 12.629,3.813 C12.649,3.804 12.672,3.794 12.695,3.784 C12.713,3.774 12.735,3.764 12.757,3.754 C12.765,3.75 12.775,3.745 12.784,3.741 L12.784,3.211 C12.778,3.215 12.771,3.22 12.765,3.223 L12.729,3.245 C12.693,3.267 12.658,3.287 12.623,3.307 C12.585,3.327 12.546,3.346 12.509,3.365 C12.444,3.395 12.381,3.421 12.321,3.443 C12.206,3.484 12.1,3.509 12.007,3.527 C11.996,3.528 11.985,3.53 11.975,3.532 C11.948,3.536 11.924,3.539 11.9,3.542 C11.864,3.545 11.829,3.547 11.799,3.549 C11.778,3.55 11.761,3.551 11.742,3.551 C11.705,3.551 11.667,3.55 11.627,3.547 C11.581,3.543 11.535,3.538 11.487,3.53 C11.411,3.517 11.334,3.498 11.26,3.471 C11.248,3.467 11.237,3.462 11.226,3.458 C11.219,3.455 11.212,3.452 11.204,3.449 C11.192,3.444 11.18,3.439 11.168,3.433 C11.142,3.421 11.116,3.408 11.091,3.393 C11.079,3.386 11.067,3.378 11.054,3.372 C11.042,3.363 11.029,3.355 11.016,3.346 C11.002,3.336 10.986,3.325 10.972,3.313 C10.957,3.301 10.942,3.289 10.929,3.279 L10.912,3.263 L10.904,3.255 L10.898,3.25 L10.892,3.245 C10.868,3.221 10.846,3.197 10.826,3.173 C10.816,3.16 10.805,3.146 10.794,3.133 C10.785,3.12 10.777,3.107 10.768,3.093 C10.76,3.081 10.752,3.069 10.745,3.056 C10.734,3.039 10.724,3.02 10.714,3 C10.707,2.985 10.7,2.969 10.694,2.953 C10.682,2.927 10.673,2.9 10.665,2.874 C10.658,2.855 10.652,2.834 10.647,2.815 C10.634,2.761 10.627,2.711 10.623,2.667 C10.62,2.651 10.62,2.635 10.619,2.621 C10.618,2.601 10.618,2.582 10.618,2.568 L10.618,2.535 C10.619,2.505 10.623,2.467 10.628,2.423 C10.632,2.396 10.637,2.368 10.645,2.339 C10.649,2.318 10.654,2.299 10.661,2.278 C10.667,2.259 10.674,2.241 10.682,2.22 C10.686,2.207 10.691,2.195 10.697,2.182 C10.705,2.164 10.714,2.146 10.723,2.128 C10.73,2.114 10.738,2.1 10.746,2.087 C10.763,2.057 10.783,2.027 10.805,1.998 C10.813,1.986 10.821,1.976 10.83,1.965 C10.841,1.952 10.853,1.938 10.865,1.925 C10.872,1.918 10.878,1.911 10.885,1.905 C10.982,1.808 11.091,1.735 11.202,1.684 C11.221,1.677 11.238,1.669 11.256,1.662 C11.274,1.655 11.291,1.648 11.31,1.642 C11.329,1.636 11.348,1.63 11.368,1.625 C11.386,1.619 11.406,1.614 11.424,1.61 C11.443,1.605 11.462,1.602 11.48,1.598 C11.5,1.595 11.52,1.592 11.541,1.589 C11.561,1.587 11.582,1.584 11.602,1.583 C11.641,1.58 11.678,1.578 11.714,1.578 L11.752,1.578 C11.78,1.579 11.805,1.58 11.832,1.581 C11.85,1.583 11.868,1.583 11.886,1.585 C11.918,1.589 11.951,1.592 11.981,1.597 C12.008,1.601 12.035,1.605 12.059,1.61 C12.097,1.618 12.131,1.627 12.163,1.635 C12.183,1.639 12.201,1.645 12.218,1.651 C12.243,1.659 12.265,1.665 12.283,1.671 C12.311,1.681 12.328,1.687 12.328,1.687 C12.354,1.696 12.38,1.707 12.405,1.716 C12.439,1.731 12.47,1.744 12.501,1.758 C12.527,1.77 12.551,1.782 12.574,1.792 C12.593,1.802 12.61,1.812 12.627,1.82 C12.656,1.835 12.68,1.849 12.7,1.859 L12.754,1.889 L12.754,1.37 C12.754,1.37 12.721,1.357 12.666,1.335 C12.641,1.326 12.612,1.316 12.578,1.304 C12.56,1.296 12.54,1.29 12.52,1.283 C12.503,1.278 12.487,1.272 12.469,1.266 C12.449,1.26 12.429,1.252 12.408,1.246 C12.392,1.242 12.377,1.237 12.36,1.232 L12.346,1.228 C12.332,1.224 12.315,1.22 12.301,1.215 C12.281,1.211 12.262,1.205 12.243,1.2 C12.231,1.198 12.217,1.195 12.205,1.192 C12.184,1.187 12.164,1.182 12.143,1.178 C12.121,1.173 12.1,1.168 12.078,1.166 L12.078,1.166 Z M9.485,0.626 L13.601,0.626 L13.601,4.5 L9.485,4.5 L9.485,0.626 Z" id="Shape" fill="#000000"></path>
            <path d="M6.323,2.768 L6.323,3.529 L6.817,3.529 C6.817,3.529 6.827,3.528 6.842,3.528 C6.859,3.527 6.883,3.526 6.912,3.524 C6.964,3.518 7.036,3.509 7.105,3.485 C7.167,3.465 7.226,3.434 7.273,3.388 C7.291,3.369 7.306,3.351 7.318,3.332 C7.356,3.271 7.366,3.209 7.368,3.174 C7.369,3.158 7.369,3.15 7.369,3.15 L7.369,3.131 C7.369,3.117 7.367,3.088 7.359,3.057 C7.35,3.021 7.333,2.98 7.302,2.941 C7.294,2.934 7.289,2.927 7.282,2.92 C7.269,2.906 7.253,2.893 7.237,2.881 C7.209,2.862 7.18,2.844 7.146,2.83 C7.101,2.81 7.052,2.796 6.996,2.786 C6.97,2.781 6.938,2.776 6.909,2.774 C6.89,2.771 6.872,2.77 6.852,2.769 C6.834,2.768 6.817,2.768 6.8,2.768 L6.323,2.768 Z" id="Shape" fill="#000000"></path>
            <path d="M6.323,1.61 L6.323,2.332 L6.562,2.332 C6.562,2.332 6.578,2.332 6.599,2.331 C6.616,2.331 6.635,2.33 6.653,2.328 C6.702,2.325 6.77,2.318 6.838,2.299 C6.852,2.296 6.866,2.291 6.877,2.286 C6.931,2.267 6.981,2.24 7.022,2.201 C7.053,2.17 7.074,2.135 7.088,2.101 C7.105,2.06 7.112,2.02 7.114,1.993 C7.116,1.967 7.116,1.952 7.116,1.952 C7.116,1.952 7.116,1.94 7.115,1.921 C7.114,1.89 7.107,1.838 7.083,1.789 C7.071,1.766 7.054,1.743 7.031,1.721 C7.004,1.695 6.973,1.674 6.938,1.659 C6.87,1.628 6.792,1.617 6.729,1.613 C6.699,1.611 6.674,1.61 6.651,1.61 L6.323,1.61 Z" id="Shape" fill="#000000"></path>
            <path d="M5.822,1.168 L5.822,3.959 L6.873,3.959 C6.873,3.959 7.385,3.972 7.667,3.69 C7.897,3.459 7.882,3.193 7.882,3.193 C7.882,3.193 7.897,2.915 7.684,2.701 C7.502,2.521 7.271,2.471 7.271,2.471 C7.271,2.471 7.376,2.423 7.457,2.342 C7.494,2.305 7.628,2.184 7.628,1.89 C7.628,1.594 7.431,1.424 7.431,1.424 C7.431,1.424 7.215,1.168 6.728,1.168 L5.822,1.168 Z M4.743,0.626 L8.859,0.626 L8.859,4.5 L4.743,4.5 L4.743,0.626 Z" id="Shape" fill="#000000"></path>
            <path d="M1.58,2.768 L1.58,3.529 L2.075,3.529 C2.075,3.529 2.084,3.528 2.1,3.528 C2.117,3.527 2.141,3.526 2.169,3.524 C2.223,3.518 2.293,3.509 2.362,3.485 C2.424,3.465 2.484,3.434 2.531,3.388 C2.549,3.369 2.563,3.351 2.575,3.332 C2.614,3.271 2.623,3.209 2.625,3.174 C2.627,3.158 2.627,3.15 2.627,3.15 L2.627,3.131 C2.625,3.117 2.624,3.088 2.616,3.057 C2.607,3.021 2.589,2.98 2.558,2.941 C2.553,2.934 2.547,2.927 2.54,2.92 C2.525,2.906 2.512,2.893 2.496,2.881 C2.468,2.862 2.437,2.844 2.404,2.83 C2.359,2.81 2.309,2.796 2.255,2.786 C2.227,2.781 2.197,2.776 2.167,2.774 C2.149,2.771 2.13,2.77 2.111,2.769 C2.094,2.768 2.075,2.768 2.058,2.768 L1.58,2.768 Z" id="Shape" fill="#000000"></path>
            <path d="M1.58,1.61 L1.58,2.332 L1.82,2.332 C1.82,2.332 1.836,2.332 1.856,2.331 C1.873,2.331 1.893,2.33 1.91,2.328 C1.959,2.325 2.028,2.318 2.096,2.299 C2.109,2.296 2.122,2.291 2.136,2.286 C2.189,2.267 2.24,2.24 2.28,2.201 C2.311,2.17 2.331,2.135 2.346,2.101 C2.363,2.06 2.369,2.02 2.371,1.993 C2.374,1.967 2.374,1.952 2.374,1.952 L2.374,1.921 C2.371,1.89 2.365,1.838 2.34,1.789 C2.328,1.766 2.311,1.743 2.29,1.721 C2.262,1.695 2.23,1.674 2.194,1.659 C2.127,1.628 2.051,1.617 1.985,1.613 C1.957,1.611 1.931,1.61 1.91,1.61 L1.58,1.61 Z" id="Shape" fill="#000000"></path>
            <path d="M1.08,1.168 L1.08,3.959 L2.131,3.959 C2.131,3.959 2.643,3.972 2.925,3.69 C3.155,3.459 3.139,3.193 3.139,3.193 C3.139,3.193 3.155,2.915 2.942,2.701 C2.76,2.521 2.529,2.471 2.529,2.471 C2.529,2.471 2.634,2.423 2.714,2.342 C2.751,2.305 2.886,2.184 2.886,1.89 C2.886,1.594 2.688,1.424 2.688,1.424 C2.688,1.424 2.473,1.168 1.986,1.168 L1.08,1.168 Z M0,0.626 L4.116,0.626 L4.116,4.5 L0,4.5 L0,0.626 Z" id="Shape" fill="#000000"></path>
            <path d="M0,5.458 L0,8.66 L0.46,8.66 L0.46,7.271 L0.653,7.271 C0.889,7.271 1.079,7.346 1.503,8.003 L1.926,8.66 L2.474,8.66 C2.254,8.356 2.174,8.247 2.037,8.026 C1.793,7.628 1.615,7.333 1.324,7.141 C1.666,7.004 1.859,6.727 1.859,6.356 C1.859,5.802 1.456,5.459 0.808,5.459 L0,5.458 L0,5.458 Z M0.46,5.854 L0.757,5.854 C1.201,5.854 1.381,6.036 1.385,6.338 C1.39,6.605 1.249,6.858 0.757,6.858 L0.46,6.858 L0.46,5.854 Z" id="Shape" fill="#000000"></path>
            <path d="M4.147,5.441 L3.824,5.441 L2.448,8.66 L2.917,8.66 L3.322,7.718 L4.683,7.718 L5.109,8.66 L5.578,8.66 L4.147,5.441 Z M3.979,6.145 L4.496,7.304 L3.5,7.304 L3.979,6.145 Z" id="Shape" fill="#000000"></path>
            <path d="M5.961,8.66 L7.209,8.66 C8.266,8.66 8.908,7.881 8.908,7.06 C8.908,6.304 8.387,5.458 7.205,5.458 L5.961,5.458 L5.961,8.66 Z M6.421,5.872 L7.128,5.872 C8.026,5.872 8.435,6.417 8.435,7.06 C8.435,7.454 8.195,8.248 7.153,8.248 L6.421,8.248 L6.421,5.872 Z" id="Shape" fill="#000000"></path>
            <path d="M9.669,8.661 L9.669,5.458" id="Shape" stroke="#000000" stroke-width="0.46"></path>
            <path d="M10.43,7.06 C10.43,7.928 11.092,8.703 12.139,8.703 C13.223,8.703 13.871,7.923 13.871,7.06 C13.871,6.168 13.205,5.417 12.148,5.417 C11.11,5.417 10.43,6.173 10.43,7.06 M10.904,7.06 C10.904,6.355 11.435,5.84 12.148,5.84 C12.867,5.84 13.397,6.355 13.397,7.06 C13.397,7.759 12.867,8.281 12.148,8.281 C11.435,8.281 10.904,7.759 10.904,7.06" id="Shape" fill="#000000"></path>
            <path d="M26.771,0 C21.17,0 16.625,4.546 16.625,10.153 C16.625,15.759 21.169,20.306 26.771,20.306 C32.376,20.306 36.918,15.759 36.918,10.153 C36.92,4.546 32.378,0 26.771,0 M27.361,7.769 C29.931,7.769 31.726,9.728 31.726,12.533 C31.726,13.889 31.195,15.157 30.228,16.102 C29.246,17.065 27.941,17.58 26.564,17.549 C24.243,17.549 21.888,16.395 21.467,13.84 L25.163,13.84 C25.451,14.27 25.925,14.524 26.508,14.524 C27.638,14.524 28.246,13.5 28.246,12.533 C28.246,11.577 27.709,10.612 26.508,10.612 C25.789,10.612 25.392,10.822 24.935,11.442 L24.826,11.59 L21.587,11.59 L23.252,3.319 L31.9,3.319 L31.3,6.334 L25.85,6.334 C25.85,6.334 25.593,7.515 25.474,8.189 C26.018,7.906 26.635,7.769 27.361,7.769" id="Shape" fill="#499337"></path>
            <polygon id="Shape" fill="#499337" points="41.156 10.176 41.837 4.983 40.555 4.983 39.874 10.176"></polygon>
            <polygon id="Shape" fill="#499337" points="42.047 3.335 40.764 3.335 40.627 4.263 41.91 4.263"></polygon>
            <path d="M44.504,10.176 L47.089,4.983 L45.715,4.983 C45.715,4.983 44.527,7.529 44.25,8.124 C44.121,7.491 43.609,4.983 43.609,4.983 L42.258,4.983 L43.484,10.176 L44.504,10.176 Z" id="Shape" fill="#499337"></path>
            <path d="M50.539,5.548 C50.185,5.146 49.665,4.924 49.072,4.924 C48.035,4.924 46.833,5.62 46.578,7.575 C46.459,8.48 46.6,9.171 47.002,9.626 C47.35,10.024 47.893,10.233 48.57,10.233 C49.32,10.233 50.004,9.944 50.547,9.397 L50.652,9.291 L49.81,8.484 L49.708,8.576 C49.411,8.845 49.017,9.012 48.672,9.012 C48.366,9.012 48.127,8.922 47.978,8.751 C47.855,8.612 47.792,8.415 47.792,8.175 C47.792,8.15 47.797,8.123 47.798,8.097 L50.843,8.097 L50.967,7.158 C50.982,7.046 50.989,6.936 50.989,6.829 C50.99,6.332 50.834,5.885 50.539,5.548 M49.695,6.993 L47.951,6.993 C48.091,6.468 48.461,6.147 48.951,6.147 C49.183,6.147 49.375,6.22 49.502,6.359 C49.631,6.5 49.697,6.71 49.697,6.971 C49.697,6.977 49.695,6.984 49.695,6.993" id="Shape" fill="#499337"></path>
            <polygon id="Shape" fill="#499337" points="39.93 3.335 38.646 3.335 37.746 10.17 39.029 10.17"></polygon>
            <path d="M38.16,13.097 C37.876,13.097 37.681,13.013 37.512,12.818 L37.469,12.769 L36.992,13.179 L37.038,13.228 C37.309,13.521 37.65,13.671 38.057,13.671 C38.674,13.671 39.133,13.358 39.203,12.892 C39.236,12.666 39.198,12.478 39.091,12.343 C38.981,12.206 38.805,12.13 38.569,12.113 L38.182,12.086 C38.057,12.076 38.002,12.042 37.981,12.014 C37.964,11.994 37.96,11.968 37.962,11.938 C37.973,11.881 37.996,11.709 38.346,11.709 C38.555,11.709 38.721,11.77 38.905,11.913 L38.951,11.949 L39.38,11.519 L39.333,11.472 C39.093,11.243 38.802,11.134 38.413,11.134 C37.847,11.134 37.434,11.441 37.364,11.912 C37.336,12.108 37.374,12.278 37.475,12.407 C37.587,12.551 37.77,12.635 37.999,12.653 L38.411,12.692 C38.505,12.7 38.562,12.719 38.591,12.754 C38.61,12.775 38.613,12.808 38.608,12.851 C38.583,13.005 38.416,13.097 38.16,13.097" id="Shape" fill="#499337"></path>
            <path d="M39.887,11.162 L39.449,14.104 L40.053,14.104 C40.092,13.844 40.135,13.557 40.149,13.458 C40.307,13.6 40.475,13.67 40.67,13.67 C41.022,13.67 41.258,13.492 41.393,13.343 C41.567,13.157 41.625,12.985 41.71,12.414 C41.795,11.837 41.787,11.66 41.667,11.471 C41.573,11.317 41.385,11.133 41.027,11.133 C40.834,11.133 40.636,11.202 40.465,11.321 C40.47,11.282 40.487,11.161 40.487,11.161 L39.887,11.161 L39.887,11.162 Z M40.813,11.735 C40.934,11.735 41.018,11.764 41.071,11.823 C41.17,11.936 41.143,12.168 41.11,12.395 C41.053,12.776 40.979,13.067 40.596,13.067 C40.481,13.067 40.401,13.04 40.35,12.981 C40.247,12.862 40.272,12.626 40.303,12.414 C40.355,12.058 40.436,11.735 40.813,11.735 L40.813,11.735 Z" id="Shape" fill="#499337"></path>
            <path d="M42.955,13.671 C43.266,13.671 43.536,13.564 43.76,13.351 C43.995,13.127 44.096,12.898 44.168,12.411 C44.24,11.922 44.209,11.691 44.033,11.463 C43.87,11.245 43.627,11.135 43.312,11.135 C43,11.135 42.73,11.243 42.508,11.455 C42.271,11.679 42.172,11.907 42.101,12.393 C42.076,12.553 42.064,12.688 42.064,12.801 C42.064,13.036 42.117,13.192 42.234,13.345 C42.396,13.562 42.641,13.671 42.955,13.671 M42.701,12.41 C42.752,12.067 42.793,11.995 42.885,11.885 C42.963,11.796 43.108,11.736 43.242,11.736 C43.372,11.736 43.495,11.794 43.543,11.876 C43.576,11.939 43.596,11.99 43.596,12.093 C43.596,12.164 43.588,12.258 43.567,12.399 C43.516,12.739 43.477,12.813 43.383,12.921 C43.307,13.011 43.162,13.068 43.028,13.068 C42.897,13.068 42.774,13.011 42.727,12.929 C42.668,12.824 42.65,12.752 42.701,12.41" id="Shape" fill="#499337"></path>
            <path d="M45.965,11.134 C45.748,11.134 45.555,11.201 45.389,11.325 C45.395,11.284 45.412,11.162 45.412,11.162 L44.81,11.162 L44.441,13.643 L45.045,13.643 L45.263,12.172 C45.312,11.85 45.545,11.734 45.732,11.734 C45.836,11.734 45.894,11.757 45.984,11.835 L46.031,11.873 L46.523,11.373 L46.472,11.329 C46.318,11.199 46.154,11.134 45.965,11.134" id="Shape" fill="#499337"></path>
            <path d="M49.172,11.708 C49.381,11.708 49.548,11.769 49.731,11.912 L49.776,11.948 L50.207,11.518 L50.16,11.471 C49.92,11.242 49.628,11.133 49.239,11.133 C48.674,11.133 48.26,11.44 48.19,11.911 C48.162,12.107 48.201,12.277 48.302,12.406 C48.414,12.55 48.596,12.634 48.826,12.654 L49.238,12.691 C49.333,12.699 49.39,12.718 49.418,12.753 C49.436,12.774 49.441,12.807 49.434,12.852 C49.412,13.005 49.246,13.098 48.989,13.098 C48.707,13.098 48.51,13.014 48.341,12.817 L48.299,12.77 L47.821,13.18 L47.867,13.229 C48.138,13.522 48.479,13.671 48.888,13.671 C49.503,13.671 49.963,13.358 50.034,12.893 C50.067,12.666 50.028,12.479 49.92,12.343 C49.81,12.206 49.634,12.13 49.398,12.114 L49.013,12.087 C48.885,12.076 48.831,12.042 48.81,12.015 C48.794,11.994 48.789,11.969 48.793,11.937 C48.798,11.88 48.822,11.708 49.172,11.708" id="Shape" fill="#499337"></path>
            <path d="M38.502,16.492 L38.123,16.123 L38.086,16.156 C37.938,16.29 37.736,16.373 37.566,16.373 C37.414,16.373 37.295,16.327 37.22,16.242 C37.16,16.174 37.129,16.078 37.129,15.963 C37.129,15.942 37.133,15.919 37.136,15.898 L38.613,15.898 L38.679,15.458 C38.687,15.398 38.693,15.338 38.693,15.281 C38.693,15.051 38.623,14.843 38.488,14.687 C38.322,14.498 38.077,14.392 37.795,14.392 C37.299,14.392 36.719,14.724 36.58,15.662 C36.517,16.098 36.578,16.428 36.768,16.646 C36.928,16.834 37.188,16.933 37.51,16.933 C37.868,16.933 38.198,16.794 38.463,16.533 L38.502,16.492 Z M37.729,14.949 C37.846,14.949 37.944,14.985 38.006,15.057 C38.069,15.125 38.1,15.225 38.1,15.35 C38.1,15.365 38.098,15.378 38.096,15.393 L37.219,15.393 C37.291,15.121 37.479,14.949 37.729,14.949 L37.729,14.949 Z" id="Shape" fill="#499337"></path>
            <path d="M40.391,14.417 C40.391,14.417 39.932,15.021 39.842,15.138 C39.781,15.007 39.506,14.417 39.506,14.417 L38.811,14.417 C38.811,14.417 39.41,15.567 39.442,15.628 C39.397,15.681 38.401,16.901 38.401,16.901 L39.114,16.901 C39.114,16.901 39.61,16.27 39.7,16.157 C39.763,16.284 40.065,16.901 40.065,16.901 L40.76,16.901 C40.76,16.901 40.135,15.702 40.104,15.641 C40.147,15.587 41.106,14.415 41.106,14.415 L40.391,14.417 L40.391,14.417 Z" id="Shape" fill="#499337"></path>
            <path d="M41.775,16.325 C41.767,16.315 41.763,16.299 41.763,16.274 C41.763,16.26 41.765,16.246 41.767,16.227 C41.767,16.227 41.931,15.126 41.965,14.891 L42.312,14.891 L42.381,14.417 L42.035,14.417 C42.041,14.371 42.061,14.23 42.084,14.083 L41.496,14.083 C41.474,14.234 41.453,14.381 41.446,14.417 L41.207,14.417 L41.138,14.891 L41.377,14.891 C41.358,15.005 41.174,16.253 41.174,16.253 C41.168,16.295 41.166,16.336 41.166,16.376 C41.166,16.518 41.205,16.637 41.283,16.727 C41.381,16.842 41.531,16.903 41.717,16.903 L42.013,16.903 L42.097,16.344 L41.855,16.344 C41.828,16.345 41.791,16.34 41.775,16.325" id="Shape" fill="#499337"></path>
            <path d="M45.205,14.39 C44.812,14.39 44.527,14.506 44.31,14.755 L44.275,14.797 L44.693,15.155 L44.728,15.11 C44.82,14.989 44.929,14.949 45.164,14.949 C45.359,14.949 45.475,14.975 45.521,15.032 C45.537,15.05 45.554,15.078 45.554,15.136 C45.554,15.152 45.552,15.17 45.549,15.191 C45.549,15.191 45.528,15.333 45.521,15.392 L44.906,15.392 C44.34,15.392 44.031,15.769 43.974,16.142 C43.968,16.185 43.965,16.226 43.965,16.267 C43.965,16.429 44.015,16.572 44.112,16.683 C44.252,16.845 44.475,16.931 44.758,16.931 C45.008,16.931 45.185,16.886 45.314,16.785 C45.31,16.806 45.295,16.903 45.295,16.903 L45.883,16.903 L46.131,15.235 C46.168,14.983 46.125,14.788 46.004,14.647 C45.855,14.474 45.596,14.39 45.205,14.39 M45.43,16.006 C45.381,16.336 45.278,16.372 44.889,16.372 C44.737,16.372 44.627,16.339 44.574,16.276 C44.549,16.247 44.537,16.211 44.537,16.169 C44.537,16.157 44.537,16.146 44.539,16.134 C44.567,15.937 44.772,15.896 44.938,15.896 L45.448,15.896 C45.439,15.947 45.43,16.006 45.43,16.006" id="Shape" fill="#499337"></path>
            <path d="M43.837,14.39 C43.611,14.39 43.41,14.464 43.242,14.599 C43.25,14.54 43.267,14.417 43.267,14.417 L42.68,14.417 L42.311,16.901 L42.901,16.901 L43.12,15.425 C43.17,15.093 43.412,14.975 43.602,14.975 C43.688,14.975 43.747,14.995 43.815,15.042 L44.303,14.553 C44.163,14.444 44.01,14.39 43.837,14.39" id="Shape" fill="#499337"></path>
            <path d="M47.281,13.063 C47.271,13.053 47.267,13.039 47.267,13.014 C47.267,12.999 47.269,12.985 47.271,12.967 C47.271,12.967 47.435,11.866 47.47,11.631 L47.818,11.631 L47.886,11.157 L47.54,11.157 C47.546,11.111 47.566,10.969 47.59,10.823 L47.001,10.823 C46.979,10.974 46.956,11.121 46.952,11.157 L46.712,11.157 L46.643,11.631 L46.882,11.631 C46.863,11.745 46.68,12.992 46.68,12.992 C46.673,13.035 46.67,13.076 46.67,13.115 C46.67,13.257 46.71,13.376 46.788,13.467 C46.887,13.581 47.036,13.643 47.223,13.643 L47.518,13.643 L47.602,13.083 L47.362,13.083 C47.332,13.084 47.295,13.08 47.281,13.063" id="Shape" fill="#499337"></path>
        </g>
    </g>
</svg>