<?xml version="1.0" encoding="utf-8"?>
<!-- Generator: Adobe Illustrator 12.0.0, SVG Export Plug-In  -->
<!DOCTYPE svg PUBLIC "-//W3C//DTD SVG 1.1//EN" "http://www.w3.org/Graphics/SVG/1.1/DTD/svg11.dtd" [
	<!ENTITY ns_flows "http://ns.adobe.com/Flows/1.0/">
	<!ENTITY ns_svg "http://www.w3.org/2000/svg">
	<!ENTITY ns_xlink "http://www.w3.org/1999/xlink">
]>
<svg  version="1.1" xmlns="&ns_svg;" xmlns:xlink="&ns_xlink;" xmlns:a="http://ns.adobe.com/AdobeSVGViewerExtensions/3.0/"
	 width="50" height="21" viewBox="-0.972 -0.763 50 21" enable-background="new -0.972 -0.763 50 21" xml:space="preserve">
<defs>
</defs>
<path fill-rule="evenodd" clip-rule="evenodd" d="M11.823,1.14c-0.017-0.002-0.036-0.006-0.054-0.008l-0.022-0.004
	c-0.031-0.005-0.061-0.008-0.093-0.011c-0.022-0.002-0.044-0.003-0.065-0.004c-0.038-0.003-0.075-0.004-0.111-0.004
	c-0.017,0-0.027,0-0.043,0c-0.031,0.001-0.061,0.003-0.089,0.005c-0.017,0.001-0.033,0.002-0.049,0.003
	c-0.025,0.002-0.048,0.004-0.072,0.009l-0.019,0.002l-0.023,0.004l-0.026,0.004c-0.011,0.002-0.023,0.004-0.034,0.006
	c-0.017,0.003-0.032,0.006-0.047,0.009c-0.096,0.021-0.184,0.047-0.265,0.079c-0.043,0.017-0.084,0.033-0.121,0.053
	c-0.033,0.016-0.063,0.033-0.093,0.051c-0.029,0.016-0.056,0.032-0.083,0.049c-0.015,0.012-0.03,0.021-0.045,0.032
	c-0.013,0.009-0.025,0.017-0.037,0.026c-0.026,0.02-0.05,0.041-0.074,0.061c-0.021,0.02-0.042,0.038-0.061,0.057
	c-0.017,0.017-0.035,0.035-0.049,0.054c-0.018,0.019-0.034,0.036-0.049,0.056c-0.018,0.021-0.032,0.041-0.048,0.063
	c-0.013,0.017-0.023,0.033-0.035,0.05c-0.008,0.013-0.014,0.022-0.021,0.035c-0.043,0.067-0.079,0.142-0.11,0.22
	C9.948,2.132,9.921,2.238,9.906,2.349C9.902,2.384,9.898,2.421,9.895,2.458C9.893,2.485,9.893,2.515,9.893,2.542
	c0,0.022,0,0.043,0,0.064C9.895,2.628,9.898,2.65,9.9,2.671l0.002,0.017c0.003,0.026,0.007,0.051,0.012,0.075
	c0.002,0.01,0.004,0.019,0.006,0.029c0.004,0.021,0.009,0.041,0.013,0.062C9.941,2.88,9.948,2.904,9.957,2.931
	c0.01,0.031,0.022,0.06,0.033,0.09c0.02,0.046,0.042,0.09,0.064,0.132c0.014,0.024,0.028,0.049,0.042,0.073
	c0.012,0.017,0.023,0.035,0.035,0.052c0.015,0.024,0.032,0.045,0.048,0.065c0.017,0.022,0.035,0.043,0.053,0.063
	c0.021,0.025,0.042,0.048,0.063,0.068l0.011,0.011c0.018,0.017,0.036,0.036,0.058,0.054c0.015,0.012,0.03,0.025,0.047,0.038
	c0.015,0.013,0.031,0.025,0.048,0.037c0.021,0.015,0.041,0.028,0.064,0.044c0.025,0.014,0.05,0.031,0.077,0.046
	c0.053,0.03,0.111,0.058,0.177,0.085c0.023,0.01,0.049,0.018,0.074,0.027c0.026,0.009,0.052,0.018,0.079,0.025
	c0.047,0.012,0.096,0.024,0.146,0.035c0.041,0.008,0.085,0.014,0.13,0.019c0.043,0.006,0.089,0.01,0.135,0.012
	c0.024,0.002,0.048,0.002,0.07,0.004h0.034c0.085,0,0.163-0.004,0.235-0.01l0.015-0.001c0.029-0.002,0.056-0.006,0.083-0.01
	c0.043-0.004,0.081-0.01,0.119-0.018c0.023-0.004,0.046-0.009,0.069-0.013c0.035-0.008,0.068-0.017,0.099-0.024
	c0.024-0.006,0.046-0.013,0.068-0.02c0.026-0.008,0.05-0.016,0.074-0.023l0.023-0.009c0.012-0.004,0.027-0.01,0.045-0.017
	c0.025-0.01,0.054-0.021,0.087-0.035c0.02-0.01,0.042-0.018,0.065-0.028c0.018-0.01,0.039-0.021,0.061-0.028
	c0.008-0.006,0.017-0.01,0.026-0.014V3.144c-0.006,0.004-0.013,0.009-0.019,0.012L12.46,3.177c-0.035,0.021-0.07,0.041-0.103,0.061
	c-0.038,0.02-0.076,0.038-0.112,0.057c-0.063,0.03-0.125,0.055-0.184,0.076c-0.113,0.04-0.216,0.065-0.307,0.082
	c-0.011,0.002-0.022,0.004-0.032,0.006c-0.026,0.004-0.05,0.006-0.074,0.01c-0.035,0.002-0.069,0.004-0.098,0.006
	c-0.02,0-0.038,0.003-0.055,0.003c-0.037,0-0.075-0.003-0.114-0.005c-0.045-0.004-0.09-0.008-0.137-0.016
	c-0.074-0.013-0.15-0.031-0.222-0.059C11.01,3.395,11,3.39,10.989,3.384c-0.007-0.002-0.014-0.004-0.022-0.008
	c-0.011-0.005-0.023-0.01-0.035-0.015c-0.026-0.013-0.051-0.024-0.075-0.039C10.845,3.315,10.833,3.308,10.82,3.3
	c-0.011-0.008-0.024-0.016-0.036-0.024c-0.014-0.011-0.03-0.021-0.044-0.032c-0.015-0.011-0.029-0.023-0.041-0.033l-0.017-0.016
	l-0.009-0.008l-0.005-0.004l-0.006-0.006c-0.024-0.023-0.045-0.047-0.065-0.07c-0.01-0.014-0.02-0.027-0.031-0.04
	c-0.008-0.013-0.017-0.024-0.025-0.038c-0.009-0.012-0.016-0.023-0.023-0.037c-0.011-0.018-0.021-0.036-0.03-0.054
	c-0.007-0.015-0.014-0.031-0.02-0.046c-0.012-0.026-0.021-0.053-0.029-0.078c-0.006-0.018-0.011-0.039-0.017-0.057
	c-0.012-0.054-0.019-0.104-0.024-0.146c-0.002-0.017-0.002-0.032-0.003-0.046c-0.001-0.02-0.001-0.038-0.001-0.053V2.481
	c0.001-0.03,0.004-0.068,0.01-0.11c0.003-0.026,0.009-0.054,0.016-0.083c0.004-0.02,0.01-0.039,0.016-0.059
	c0.006-0.018,0.012-0.037,0.02-0.057c0.004-0.013,0.01-0.025,0.016-0.039c0.007-0.017,0.016-0.033,0.025-0.051
	c0.007-0.015,0.014-0.027,0.022-0.041c0.017-0.029,0.037-0.059,0.058-0.088c0.008-0.011,0.016-0.021,0.024-0.031
	c0.011-0.013,0.023-0.026,0.035-0.039c0.006-0.006,0.013-0.014,0.019-0.021c0.095-0.094,0.202-0.166,0.311-0.215
	c0.018-0.009,0.035-0.015,0.052-0.022c0.018-0.007,0.035-0.013,0.053-0.02c0.018-0.006,0.038-0.012,0.057-0.018
	c0.018-0.004,0.037-0.01,0.055-0.015c0.019-0.004,0.037-0.007,0.055-0.01c0.02-0.004,0.039-0.007,0.06-0.011
	c0.019-0.002,0.039-0.004,0.059-0.004c0.038-0.004,0.074-0.006,0.11-0.006c0.013,0,0.025,0,0.037,0c0.027,0,0.052,0.002,0.078,0.002
	C11.6,1.55,11.617,1.55,11.635,1.55c0.031,0.004,0.064,0.008,0.093,0.013c0.026,0.004,0.053,0.008,0.076,0.012
	c0.037,0.009,0.071,0.017,0.103,0.026c0.019,0.004,0.036,0.009,0.053,0.015c0.025,0.008,0.046,0.015,0.063,0.019
	c0.029,0.012,0.045,0.017,0.045,0.017c0.025,0.009,0.051,0.021,0.075,0.028c0.033,0.015,0.064,0.027,0.094,0.041
	c0.025,0.013,0.049,0.024,0.071,0.033c0.019,0.01,0.036,0.02,0.052,0.027c0.028,0.016,0.053,0.027,0.072,0.039l0.053,0.029v-0.51
	c0,0-0.032-0.012-0.086-0.033c-0.025-0.008-0.054-0.019-0.087-0.03c-0.017-0.007-0.036-0.013-0.057-0.021
	c-0.016-0.004-0.032-0.011-0.049-0.016c-0.02-0.007-0.039-0.014-0.06-0.02c-0.015-0.004-0.03-0.01-0.047-0.015l-0.013-0.004
	c-0.015-0.004-0.031-0.008-0.045-0.012c-0.019-0.005-0.038-0.011-0.057-0.017c-0.012-0.002-0.024-0.004-0.037-0.006
	c-0.02-0.006-0.039-0.011-0.061-0.015C11.865,1.148,11.845,1.145,11.823,1.14 M9.285,0.612h4.029v3.791H9.285V0.612z"/>
<path fill-rule="evenodd" clip-rule="evenodd" d="M6.189,2.709v0.745h0.483c0,0,0.01-0.001,0.025-0.001
	c0.017-0.001,0.04-0.002,0.069-0.004c0.051-0.005,0.121-0.015,0.188-0.038c0.061-0.02,0.119-0.05,0.165-0.095
	C7.136,3.298,7.151,3.28,7.163,3.261C7.2,3.201,7.21,3.142,7.212,3.107c0.001-0.017,0.001-0.024,0.001-0.024s0-0.007,0-0.018
	c0-0.016-0.002-0.043-0.009-0.073c-0.01-0.035-0.027-0.076-0.057-0.114C7.14,2.872,7.134,2.865,7.128,2.858
	C7.115,2.845,7.1,2.831,7.084,2.82c-0.027-0.019-0.057-0.036-0.09-0.05C6.951,2.75,6.902,2.736,6.848,2.728
	c-0.026-0.006-0.056-0.01-0.085-0.012C6.744,2.712,6.727,2.712,6.707,2.71C6.69,2.709,6.673,2.709,6.656,2.709H6.189z"/>
<path fill-rule="evenodd" clip-rule="evenodd" d="M6.189,1.575v0.706h0.234c0,0,0.015,0,0.036,0C6.476,2.28,6.494,2.28,6.512,2.278
	c0.048-0.003,0.115-0.01,0.181-0.027C6.707,2.247,6.72,2.243,6.732,2.237c0.052-0.019,0.102-0.045,0.142-0.084
	c0.031-0.029,0.051-0.064,0.064-0.097C6.955,2.016,6.961,1.978,6.964,1.95c0.001-0.025,0.001-0.039,0.001-0.039s0-0.013,0-0.031
	C6.964,1.85,6.957,1.798,6.933,1.751C6.921,1.728,6.905,1.706,6.882,1.685C6.857,1.659,6.825,1.639,6.791,1.624
	c-0.066-0.03-0.142-0.043-0.205-0.045C6.557,1.577,6.532,1.575,6.511,1.575H6.189z"/>
<path fill-rule="evenodd" clip-rule="evenodd" d="M5.699,1.145v2.731h1.029c0,0,0.502,0.012,0.778-0.264
	c0.225-0.227,0.209-0.486,0.209-0.486s0.016-0.271-0.193-0.481C7.344,2.468,7.118,2.419,7.118,2.419S7.22,2.372,7.299,2.294
	c0.037-0.037,0.168-0.156,0.168-0.443c0-0.29-0.193-0.457-0.193-0.457S7.063,1.145,6.586,1.145H5.699z M4.643,0.612h4.029v3.791
	H4.643V0.612z"/>
<path fill-rule="evenodd" clip-rule="evenodd" d="M1.546,2.709v0.745h0.484c0,0,0.009-0.001,0.025-0.001
	c0.016-0.001,0.04-0.002,0.068-0.004c0.053-0.005,0.121-0.015,0.189-0.038c0.06-0.02,0.119-0.05,0.165-0.095
	C2.495,3.298,2.509,3.28,2.521,3.261c0.038-0.06,0.047-0.119,0.049-0.153c0.002-0.017,0.002-0.024,0.002-0.024V3.065
	C2.57,3.05,2.569,3.022,2.561,2.992C2.552,2.957,2.535,2.916,2.504,2.878C2.5,2.872,2.493,2.865,2.487,2.858
	C2.472,2.845,2.458,2.831,2.444,2.82c-0.028-0.019-0.058-0.036-0.09-0.05C2.309,2.75,2.261,2.736,2.207,2.728
	c-0.026-0.006-0.056-0.01-0.085-0.012C2.104,2.712,2.084,2.712,2.065,2.71C2.05,2.709,2.032,2.709,2.015,2.709H1.546z"/>
<path fill-rule="evenodd" clip-rule="evenodd" d="M1.546,1.575v0.706h0.235c0,0,0.015,0,0.035,0C1.833,2.28,1.853,2.28,1.87,2.278
	c0.048-0.003,0.116-0.01,0.182-0.027c0.013-0.004,0.025-0.008,0.039-0.014c0.052-0.019,0.102-0.045,0.141-0.084
	c0.031-0.029,0.051-0.064,0.065-0.097C2.313,2.016,2.32,1.978,2.322,1.95c0.002-0.025,0.002-0.039,0.002-0.039V1.88
	C2.321,1.85,2.315,1.798,2.291,1.751C2.28,1.728,2.263,1.706,2.242,1.685C2.215,1.659,2.183,1.639,2.147,1.624
	c-0.065-0.03-0.14-0.043-0.205-0.045C1.916,1.577,1.891,1.575,1.87,1.575H1.546z"/>
<path fill-rule="evenodd" clip-rule="evenodd" d="M1.058,1.145v2.731h1.028c0,0,0.501,0.012,0.777-0.264
	c0.226-0.227,0.21-0.486,0.21-0.486S3.089,2.854,2.88,2.645C2.702,2.468,2.476,2.419,2.476,2.419s0.102-0.047,0.181-0.125
	c0.037-0.037,0.168-0.156,0.168-0.443c0-0.29-0.193-0.457-0.193-0.457S2.421,1.145,1.945,1.145H1.058z M0,0.612h4.029v3.791H0V0.612
	z"/>
<path fill-rule="evenodd" clip-rule="evenodd" d="M0,5.343v3.135h0.45V7.118h0.188c0.232,0,0.418,0.072,0.833,0.717l0.414,0.643
	h0.537C2.206,8.18,2.128,8.073,1.994,7.856C1.755,7.466,1.581,7.178,1.296,6.989C1.631,6.855,1.82,6.585,1.82,6.221
	c0-0.542-0.395-0.878-1.029-0.878H0z M0.45,5.729h0.29c0.436,0,0.611,0.18,0.616,0.473c0.004,0.262-0.134,0.51-0.616,0.51H0.45
	V5.729z"/>
<path fill-rule="evenodd" clip-rule="evenodd" d="M4.06,5.325H3.743L2.396,8.477h0.46l0.396-0.922h1.332l0.418,0.922H5.46
	L4.06,5.325z M3.895,6.015L4.4,7.149H3.425L3.895,6.015z"/>
<path fill-rule="evenodd" clip-rule="evenodd" d="M5.835,8.478h1.223c1.034,0,1.662-0.763,1.662-1.566
	c0-0.74-0.509-1.568-1.667-1.568H5.835V8.478z M6.286,5.748h0.692c0.879,0,1.279,0.532,1.279,1.163c0,0.386-0.234,1.162-1.254,1.162
	H6.286V5.748z"/>
<line fill="none" stroke="#000000" stroke-width="0.45" stroke-miterlimit="10" x1="9.465" y1="8.478" x2="9.465" y2="5.343"/>
<path fill-rule="evenodd" clip-rule="evenodd" d="M10.209,6.911c0,0.85,0.648,1.607,1.672,1.607c1.062,0,1.697-0.763,1.697-1.607
	c0-0.873-0.653-1.608-1.687-1.608C10.875,5.303,10.209,6.042,10.209,6.911 M10.673,6.911c0-0.69,0.52-1.194,1.218-1.194
	c0.703,0,1.223,0.504,1.223,1.194c0,0.684-0.52,1.194-1.223,1.194C11.193,8.105,10.673,7.595,10.673,6.911"/>
<path fill="#2B7A82" d="M39.344,13.103c-0.005,0.173-0.012,0.332-0.215,0.455c-0.143,0.08-0.271,0.08-0.326,0.08
	c-0.191,0-0.32-0.086-0.376-0.159c-0.073-0.099-0.073-0.241-0.073-0.382v-1.996h-0.955v2.021c0,0.523,0.03,0.714,0.196,0.948
	c0.224,0.309,0.61,0.339,0.82,0.339c0.209,0,0.419-0.05,0.608-0.147c0.174-0.086,0.229-0.147,0.32-0.254v0.309h0.949v-3.215h-0.949
	V13.103z"/>
<path fill="#2B7A82" d="M42.294,12.215c-0.308-0.056-0.513-0.093-0.513-0.277c0-0.092,0.088-0.239,0.457-0.239
	c0.222,0,0.506,0.086,0.807,0.319l0.585-0.541c-0.222-0.155-0.677-0.481-1.435-0.481c-0.898,0-1.355,0.549-1.355,1.078
	c0,0.24,0.1,0.463,0.241,0.604c0.141,0.143,0.339,0.222,0.534,0.277c0.143,0.043,0.291,0.074,0.433,0.1
	c0.185,0.029,0.405,0.049,0.548,0.123c0.055,0.031,0.122,0.072,0.122,0.184c0,0.24-0.344,0.314-0.571,0.314
	c-0.357,0-0.678-0.191-0.937-0.444l-0.597,0.542c0.203,0.192,0.664,0.623,1.558,0.623c0.758,0,1.521-0.369,1.521-1.126
	C43.692,12.505,42.94,12.331,42.294,12.215"/>
<rect x="43.959" y="11.095" fill="#2B7A82" width="0.937" height="3.221"/>
<rect x="43.959" y="9.962" fill="#2B7A82" width="0.937" height="0.731"/>
<path fill="#2B7A82" d="M47.418,13.447c-0.199,0.221-0.433,0.221-0.481,0.221c-0.505,0-0.714-0.534-0.714-0.96
	c0-0.388,0.172-0.973,0.683-0.973c0.147,0,0.265,0.049,0.357,0.111c0.155,0.11,0.216,0.221,0.271,0.338l0.703-0.4
	c-0.406-0.672-1.018-0.77-1.374-0.77c-1.071,0-1.612,0.787-1.612,1.725c0,1.311,0.979,1.682,1.594,1.682
	c0.363,0,0.677-0.119,0.924-0.289c0.259-0.186,0.388-0.389,0.505-0.574l-0.713-0.369C47.528,13.28,47.497,13.354,47.418,13.447"/>
<path fill="#2B7A82" d="M35.083,11.567c-0.172-0.179-0.205-0.547-0.846-0.547c-0.555,0-0.802,0.289-0.912,0.418v-0.332h-0.937v3.209
	h0.937v-1.83c0-0.221,0.006-0.48,0.215-0.621c0.086-0.056,0.185-0.074,0.259-0.074c0.155,0,0.296,0.068,0.37,0.166
	c0.086,0.123,0.092,0.315,0.092,0.457v1.902h0.936v-1.75c0-0.351,0-0.535,0.18-0.676c0.092-0.075,0.216-0.1,0.308-0.1
	c0.073,0,0.326,0.019,0.412,0.289c0.037,0.123,0.037,0.364,0.037,0.549v1.688h0.937v-2.095c0-0.345-0.006-0.565-0.087-0.738
	c-0.098-0.196-0.368-0.452-0.897-0.462C35.401,11.011,35.268,11.413,35.083,11.567"/>
<path fill="#2B7A82" d="M27.262,8.537c1.158,0.668,1.553,2.147,0.887,3.305c-0.668,1.159-2.148,1.556-3.306,0.886
	c-1.157-0.666-1.555-2.146-0.886-3.305C24.625,8.267,26.106,7.869,27.262,8.537 M26.215,19.881c3.443,0,6.594-1.749,8.43-4.676
	c0-0.001,0-0.002,0.002-0.002l0,0v-0.001c0.01-0.016,0.014-0.033,0.014-0.051c0-0.031-0.016-0.062-0.045-0.079
	c-0.045-0.028-0.102-0.017-0.131,0.028c-1.642,2.585-4.887,4.256-8.27,4.256c-5.192,0-9.416-4.225-9.416-9.416
	c0-4.902,3.768-8.94,8.559-9.375l-4.363,7.563c-1.315,2.649-0.365,5.897,2.232,7.397c2.703,1.562,6.157,0.636,7.719-2.067
	s0.635-6.16-2.067-7.722c-0.83-0.478-1.729-0.719-2.622-0.75l2.393-4.15c4.08,1.063,7.27,4.729,7.27,9.077
	c0,0.053,0.042,0.095,0.096,0.095c0.051,0,0.094-0.042,0.094-0.095V9.858C36.108,4.33,31.667,0,26.215,0
	c-5.481,0-9.941,4.459-9.941,9.94S20.734,19.881,26.215,19.881"/>
</svg>
