<?xml version="1.0" encoding="utf-8"?>
<!-- Generator: Adobe Illustrator 12.0.0, SVG Export Plug-In  -->
<!DOCTYPE svg PUBLIC "-//W3C//DTD SVG 1.1//EN" "http://www.w3.org/Graphics/SVG/1.1/DTD/svg11.dtd" [
	<!ENTITY ns_flows "http://ns.adobe.com/Flows/1.0/">
	<!ENTITY ns_svg "http://www.w3.org/2000/svg">
	<!ENTITY ns_xlink "http://www.w3.org/1999/xlink">
]>
<svg  version="1.1" xmlns="&ns_svg;" xmlns:xlink="&ns_xlink;" xmlns:a="http://ns.adobe.com/AdobeSVGViewerExtensions/3.0/"
	 width="37" height="21" viewBox="-0.891 -0.721 37 21" enable-background="new -0.891 -0.721 37 21" xml:space="preserve">
<defs>
</defs>
<g id="XMLID_15_">
	<g>
		<rect x="21.988" y="1.822" fill="#FFFFFF" width="8.66" height="16.12"/>
	</g>
	<g>
		<rect x="21.988" y="1.822" fill="none" stroke="#FF601F" width="8.66" height="16.12"/>
	</g>
</g>
<path fill="#120B14" d="M11.778,1.136c-0.017-0.004-0.036-0.006-0.054-0.01l-0.022-0.003c-0.03-0.004-0.061-0.008-0.093-0.01
	c-0.021-0.003-0.043-0.004-0.064-0.005c-0.038-0.003-0.075-0.004-0.111-0.004c-0.016,0-0.027,0.001-0.043,0.001
	c-0.031,0-0.06,0.002-0.089,0.004c-0.016,0.001-0.033,0.002-0.048,0.004c-0.025,0.002-0.048,0.004-0.071,0.007l-0.02,0.003
	l-0.022,0.003l-0.027,0.005c-0.011,0.001-0.022,0.003-0.033,0.006c-0.017,0.002-0.033,0.005-0.047,0.009
	c-0.096,0.02-0.184,0.046-0.265,0.078c-0.042,0.017-0.082,0.034-0.12,0.053c-0.033,0.016-0.063,0.032-0.093,0.049
	c-0.028,0.016-0.055,0.033-0.082,0.051c-0.015,0.01-0.03,0.02-0.045,0.031c-0.013,0.009-0.025,0.017-0.037,0.026
	c-0.025,0.02-0.05,0.041-0.073,0.061c-0.021,0.019-0.042,0.038-0.062,0.057c-0.016,0.016-0.034,0.033-0.049,0.053
	c-0.017,0.017-0.033,0.036-0.048,0.055c-0.018,0.02-0.032,0.041-0.048,0.062c-0.013,0.017-0.023,0.033-0.034,0.05
	c-0.008,0.012-0.015,0.023-0.021,0.035c-0.043,0.067-0.079,0.141-0.11,0.219C9.91,2.123,9.883,2.229,9.868,2.339
	C9.864,2.375,9.86,2.41,9.857,2.447C9.855,2.475,9.855,2.504,9.855,2.532c0,0.022,0,0.043,0,0.064
	C9.857,2.618,9.86,2.639,9.862,2.661l0.002,0.015c0.003,0.026,0.007,0.051,0.012,0.075c0.002,0.011,0.004,0.02,0.006,0.03
	c0.004,0.02,0.009,0.04,0.013,0.061C9.903,2.867,9.91,2.894,9.919,2.918c0.01,0.031,0.022,0.061,0.033,0.09
	c0.02,0.046,0.042,0.09,0.063,0.132c0.014,0.024,0.028,0.048,0.042,0.072c0.012,0.018,0.023,0.035,0.035,0.053
	c0.016,0.023,0.032,0.044,0.048,0.065c0.017,0.022,0.035,0.042,0.053,0.062c0.02,0.024,0.042,0.047,0.063,0.068l0.01,0.011
	c0.019,0.016,0.037,0.035,0.058,0.053c0.015,0.012,0.03,0.026,0.047,0.038c0.015,0.012,0.031,0.025,0.048,0.037
	c0.021,0.015,0.041,0.029,0.064,0.044c0.025,0.014,0.05,0.03,0.076,0.046c0.053,0.029,0.112,0.058,0.176,0.084
	c0.024,0.01,0.049,0.018,0.075,0.027c0.025,0.009,0.051,0.017,0.078,0.025c0.047,0.013,0.096,0.025,0.146,0.035
	c0.041,0.008,0.085,0.014,0.129,0.019c0.043,0.006,0.089,0.01,0.135,0.012c0.024,0.002,0.047,0.002,0.07,0.004h0.033
	c0.085,0,0.162-0.004,0.235-0.01l0.014-0.001c0.029-0.002,0.056-0.006,0.083-0.01c0.043-0.004,0.081-0.01,0.118-0.017
	c0.024-0.004,0.047-0.009,0.069-0.013c0.036-0.008,0.068-0.017,0.099-0.024c0.024-0.006,0.046-0.013,0.068-0.02
	c0.026-0.007,0.05-0.016,0.074-0.024l0.023-0.007c0.011-0.005,0.027-0.01,0.044-0.017c0.025-0.009,0.054-0.021,0.087-0.036
	c0.02-0.008,0.042-0.018,0.064-0.027c0.018-0.01,0.04-0.02,0.061-0.03c0.008-0.004,0.018-0.009,0.027-0.012V3.131
	c-0.007,0.004-0.014,0.008-0.019,0.012l-0.035,0.02c-0.036,0.022-0.07,0.042-0.104,0.061c-0.036,0.02-0.074,0.039-0.111,0.057
	c-0.063,0.03-0.124,0.055-0.183,0.076c-0.113,0.04-0.215,0.065-0.306,0.082c-0.011,0.001-0.022,0.003-0.032,0.005
	c-0.026,0.003-0.049,0.007-0.073,0.009c-0.035,0.004-0.069,0.006-0.098,0.007c-0.02,0.001-0.038,0.002-0.055,0.002
	c-0.036,0-0.074-0.001-0.113-0.004c-0.045-0.003-0.09-0.009-0.137-0.016c-0.074-0.013-0.149-0.032-0.221-0.058
	c-0.012-0.003-0.022-0.008-0.033-0.013c-0.007-0.002-0.014-0.005-0.022-0.008c-0.011-0.005-0.023-0.01-0.035-0.015
	c-0.025-0.012-0.05-0.025-0.075-0.039c-0.011-0.007-0.023-0.015-0.036-0.022c-0.011-0.008-0.024-0.016-0.036-0.025
	c-0.015-0.009-0.03-0.02-0.044-0.032c-0.015-0.011-0.028-0.023-0.041-0.033l-0.017-0.015l-0.008-0.008l-0.005-0.005l-0.007-0.006
	c-0.023-0.023-0.044-0.046-0.064-0.07c-0.01-0.012-0.02-0.026-0.031-0.038c-0.009-0.013-0.017-0.026-0.025-0.039
	c-0.009-0.012-0.016-0.024-0.023-0.037c-0.011-0.017-0.021-0.035-0.03-0.054c-0.007-0.015-0.014-0.031-0.02-0.045
	c-0.012-0.026-0.021-0.052-0.028-0.078c-0.007-0.018-0.012-0.039-0.018-0.057C10.37,2.692,10.363,2.644,10.359,2.6
	c-0.003-0.016-0.003-0.031-0.004-0.045c-0.001-0.02-0.001-0.037-0.001-0.052V2.471c0.001-0.03,0.005-0.067,0.01-0.109
	c0.004-0.027,0.009-0.054,0.016-0.083c0.005-0.02,0.01-0.039,0.016-0.059c0.006-0.018,0.012-0.036,0.02-0.056
	c0.004-0.013,0.01-0.025,0.016-0.038c0.007-0.018,0.016-0.035,0.025-0.052c0.007-0.014,0.014-0.027,0.022-0.04
	c0.017-0.029,0.036-0.059,0.058-0.088c0.007-0.01,0.016-0.021,0.024-0.031c0.011-0.013,0.022-0.027,0.034-0.04
	c0.007-0.006,0.013-0.013,0.019-0.019c0.095-0.094,0.201-0.165,0.31-0.215c0.018-0.008,0.035-0.015,0.052-0.022
	c0.018-0.007,0.035-0.013,0.053-0.019c0.018-0.007,0.037-0.012,0.057-0.017c0.018-0.006,0.037-0.01,0.055-0.015
	c0.018-0.004,0.036-0.007,0.054-0.011c0.02-0.003,0.039-0.006,0.06-0.009c0.019-0.002,0.039-0.005,0.059-0.006
	c0.038-0.003,0.074-0.005,0.109-0.005c0.014,0,0.025,0,0.037,0.001c0.027,0,0.052,0.001,0.078,0.002
	c0.018,0.002,0.035,0.002,0.052,0.004c0.032,0.004,0.064,0.007,0.093,0.012c0.027,0.004,0.053,0.008,0.076,0.012
	c0.037,0.009,0.071,0.017,0.102,0.025c0.019,0.004,0.037,0.01,0.054,0.015c0.024,0.008,0.046,0.014,0.063,0.02
	c0.028,0.01,0.044,0.015,0.044,0.015c0.025,0.009,0.05,0.02,0.075,0.029c0.033,0.014,0.064,0.027,0.094,0.041
	c0.025,0.012,0.048,0.024,0.07,0.033c0.019,0.01,0.036,0.019,0.052,0.027c0.028,0.015,0.052,0.028,0.072,0.039l0.053,0.028V1.334
	c0,0-0.033-0.013-0.087-0.034c-0.024-0.008-0.053-0.019-0.086-0.03c-0.017-0.007-0.036-0.014-0.056-0.021
	c-0.016-0.004-0.032-0.01-0.05-0.016C12.14,1.228,12.121,1.22,12.1,1.214c-0.016-0.004-0.03-0.01-0.047-0.014L12.04,1.196
	c-0.015-0.004-0.031-0.008-0.045-0.012c-0.019-0.005-0.038-0.01-0.056-0.015c-0.012-0.002-0.025-0.005-0.037-0.008
	c-0.021-0.005-0.04-0.01-0.061-0.014S11.8,1.139,11.778,1.136 M9.249,0.61h4.014v3.777H9.249V0.61z"/>
<path fill="#120B14" d="M6.165,2.699V3.44h0.481c0,0,0.011-0.001,0.025-0.001c0.017-0.001,0.04-0.002,0.068-0.004
	C6.791,3.431,6.86,3.42,6.927,3.398c0.061-0.02,0.119-0.051,0.164-0.096c0.018-0.018,0.032-0.036,0.044-0.054
	c0.037-0.06,0.047-0.12,0.049-0.154C7.185,3.08,7.185,3.072,7.185,3.072s0-0.008,0-0.02c0-0.014-0.002-0.042-0.009-0.072
	C7.166,2.946,7.15,2.906,7.12,2.868C7.113,2.86,7.107,2.854,7.1,2.848C7.087,2.833,7.072,2.821,7.057,2.809
	C7.03,2.79,7,2.772,6.967,2.76C6.924,2.74,6.876,2.726,6.821,2.717c-0.025-0.005-0.055-0.01-0.084-0.012
	C6.718,2.702,6.701,2.701,6.681,2.7C6.664,2.699,6.647,2.699,6.63,2.699H6.165z"/>
<path fill="#120B14" d="M6.165,1.569v0.704h0.233c0,0,0.015,0,0.036-0.001c0.017,0,0.035-0.001,0.052-0.003
	C6.534,2.266,6.601,2.26,6.667,2.241c0.014-0.003,0.027-0.008,0.039-0.012C6.758,2.21,6.808,2.184,6.848,2.145
	c0.03-0.03,0.05-0.064,0.064-0.097c0.016-0.04,0.022-0.079,0.025-0.106c0.001-0.025,0.001-0.04,0.001-0.04s0-0.011,0-0.03
	c-0.001-0.03-0.008-0.08-0.032-0.128c-0.012-0.023-0.028-0.045-0.05-0.066C6.83,1.652,6.799,1.631,6.764,1.616
	C6.699,1.587,6.623,1.575,6.561,1.572C6.532,1.57,6.507,1.569,6.486,1.569H6.165z"/>
<path fill="#120B14" d="M5.677,1.139V3.86h1.025c0,0,0.5,0.013,0.775-0.262c0.224-0.225,0.209-0.485,0.209-0.485
	s0.015-0.271-0.193-0.479C7.316,2.458,7.09,2.41,7.09,2.41s0.102-0.047,0.181-0.126c0.037-0.037,0.167-0.155,0.167-0.442
	c0-0.288-0.192-0.454-0.192-0.454S7.035,1.139,6.561,1.139H5.677z M4.625,0.61h4.014v3.777H4.625V0.61z"/>
<path fill="#120B14" d="M1.54,2.699V3.44h0.482c0,0,0.01-0.001,0.025-0.001c0.016-0.001,0.04-0.002,0.068-0.004
	C2.167,3.431,2.236,3.42,2.303,3.398c0.06-0.02,0.118-0.051,0.164-0.096C2.485,3.285,2.499,3.267,2.51,3.249
	c0.038-0.06,0.047-0.12,0.049-0.154C2.561,3.08,2.561,3.072,2.561,3.072v-0.02C2.559,3.039,2.558,3.011,2.551,2.98
	c-0.01-0.035-0.027-0.075-0.057-0.113C2.489,2.86,2.483,2.854,2.476,2.848C2.462,2.833,2.449,2.821,2.433,2.809
	C2.406,2.79,2.376,2.772,2.344,2.76C2.3,2.74,2.251,2.726,2.198,2.717c-0.027-0.005-0.056-0.01-0.085-0.012
	C2.095,2.702,2.076,2.701,2.057,2.7C2.041,2.699,2.023,2.699,2.006,2.699H1.54z"/>
<path fill="#120B14" d="M1.54,1.569v0.704h0.234c0,0,0.015,0,0.035-0.001c0.017,0,0.036-0.001,0.053-0.003
	C1.91,2.266,1.977,2.26,2.043,2.241c0.013-0.003,0.025-0.008,0.039-0.012c0.051-0.019,0.102-0.045,0.14-0.084
	c0.031-0.03,0.051-0.064,0.065-0.097c0.016-0.04,0.023-0.079,0.025-0.106c0.002-0.025,0.002-0.04,0.002-0.04v-0.03
	c-0.003-0.03-0.008-0.08-0.032-0.128C2.27,1.721,2.253,1.699,2.233,1.678C2.206,1.652,2.174,1.631,2.139,1.616
	c-0.065-0.029-0.14-0.041-0.204-0.044C1.908,1.57,1.882,1.569,1.862,1.569H1.54z"/>
<path fill="#120B14" d="M1.053,1.139V3.86h1.024c0,0,0.5,0.013,0.775-0.262c0.224-0.225,0.209-0.485,0.209-0.485
	s0.015-0.271-0.193-0.479C2.691,2.458,2.466,2.41,2.466,2.41s0.102-0.047,0.18-0.126c0.037-0.037,0.168-0.155,0.168-0.442
	c0-0.288-0.193-0.454-0.193-0.454s-0.21-0.249-0.684-0.249H1.053z M0,0.61h4.014v3.777H0V0.61z"/>
<path fill="#120B14" d="M0,5.323v3.122h0.448V7.09h0.188c0.23,0,0.416,0.074,0.829,0.715l0.412,0.64h0.535
	C2.197,8.148,2.12,8.042,1.986,7.827C1.748,7.438,1.574,7.149,1.29,6.962C1.625,6.829,1.813,6.56,1.813,6.198
	c0-0.54-0.394-0.875-1.026-0.875H0z M0.448,5.708h0.289c0.434,0,0.609,0.178,0.613,0.472c0.005,0.26-0.133,0.508-0.613,0.508H0.448
	V5.708z"/>
<path fill="#120B14" d="M4.043,5.305H3.728l-1.342,3.14h0.457l0.395-0.919h1.328l0.416,0.919H5.44L4.043,5.305z M3.879,5.992
	l0.504,1.13H3.412L3.879,5.992z"/>
<path fill="#120B14" d="M5.813,8.445H7.03c1.03,0,1.656-0.76,1.656-1.56c0-0.737-0.507-1.562-1.661-1.562H5.813V8.445z M6.262,5.726
	h0.69c0.875,0,1.274,0.531,1.274,1.159c0,0.384-0.234,1.158-1.25,1.158H6.262V5.726z"/>
<rect x="9.204" y="5.322" fill="#120B14" width="0.448" height="3.122"/>
<path fill="#120B14" d="M10.169,6.884c0,0.847,0.647,1.602,1.667,1.602c1.058,0,1.69-0.76,1.69-1.602c0-0.87-0.65-1.602-1.681-1.602
	C10.833,5.282,10.169,6.02,10.169,6.884 M10.632,6.884c0-0.687,0.518-1.19,1.213-1.19c0.701,0,1.219,0.503,1.219,1.19
	c0,0.682-0.518,1.19-1.219,1.19C11.15,8.074,10.632,7.566,10.632,6.884"/>
<path fill="#120B14" d="M26.109,0c-5.466,0-9.896,4.433-9.896,9.9c0,5.469,4.43,9.9,9.896,9.9c5.465,0,9.896-4.432,9.896-9.9
	C36.003,4.433,31.574,0,26.109,0 M27.929,16.537h-3.484V7.066h-1.49l2.058-3.817h2.918L27.929,16.537L27.929,16.537z"/>
</svg>
