<?xml version="1.0" encoding="UTF-8"?>
<svg width="206px" height="124px" viewBox="0 0 206 124" version="1.1" xmlns="http://www.w3.org/2000/svg" xmlns:xlink="http://www.w3.org/1999/xlink">
    <!-- Generator: Sketch 41.2 (35397) - http://www.bohemiancoding.com/sketch -->
    <title>radio_ulster.small</title>
    <desc>Created with Sketch.</desc>
    <defs></defs>
    <g id="Page-1" stroke="none" stroke-width="1" fill="none" fill-rule="evenodd">
        <g id="BBC_Radio_Ulster_logo">
            <g id="g202" transform="translate(0.924833, 0.204410)">
                <g id="g3168" transform="translate(60.868760, 61.136056) scale(1, -1) translate(-60.868760, -61.136056) translate(22.766666, 29.565750)" fill="#A7BE0F">
                    <path d="M47.8997742,45.7225118 C52.0060912,45.7225118 55.3481891,49.0646096 55.3481891,53.1687494 C55.3481891,57.2837754 52.0060912,60.6193415 47.8997742,60.6193415 C43.7934572,60.6193415 40.4448275,57.2837754 40.4448275,53.1687494 C40.4448275,49.0646096 43.7934572,45.7225118 47.8997742,45.7225118 M74.6844571,28.0235452 C74.6322028,33.0268943 73.9920876,37.7559084 72.8163659,42.0777744 C72.1544781,44.5010675 71.307523,46.7828386 70.3146913,48.8730105 C68.0699337,53.5671884 65.0217662,57.2685346 61.2659885,59.959631 C61.4009788,59.6961822 61.5577417,59.4501516 61.6905547,59.180171 C62.5266235,57.4100567 62.9729623,55.4418114 62.9729623,53.4321981 C62.9729623,53.2101174 62.9686077,52.9771503 62.9511896,52.7441832 C62.7944267,49.7656881 61.7253909,46.9352469 59.8377043,44.5511445 C58.8840634,43.3492957 57.7584187,42.315096 56.4912519,41.4572546 C54.1071495,39.8460804 51.3463807,38.996948 48.5137622,38.996948 C47.2335319,38.996948 45.948947,39.1841926 44.670894,39.5630362 C38.6594723,41.3549232 33.7671636,46.9287152 29.0250859,52.310908 L28.5047202,52.9074779 C24.7837786,57.1378989 20.5620667,61.9387626 16.7039576,62.0193213 C16.3185822,62.0345621 15.9092568,61.9997259 15.5282359,61.9082809 C14.2741327,61.6252368 13.057043,60.8479541 11.7855217,59.5350648 C11.3304739,59.0713079 10.8601852,58.524815 10.4073146,57.9238906 L9.21635201,56.2190941 C8.06458017,54.451157 6.36631545,51.5183844 4.8204591,47.5710076 C4.23695276,46.0948236 3.72747334,44.5968671 3.30943895,43.1119741 C2.35362072,39.8460804 1.77446891,36.5693004 1.56327445,33.3839654 C1.52190646,32.5304785 1.48053848,31.6682825 1.48053848,30.825682 C1.48053848,30.6079557 1.49142479,30.3793432 1.49142479,30.1637942 C1.52190646,28.8160687 1.61117422,27.466166 1.77446891,26.155454 L2.0705766,24.2263994 C2.48425647,21.8444743 3.15703057,19.4952081 4.04970818,17.2482732 C4.61579642,15.8395844 5.27986148,14.4330729 6.03537155,13.0744611 L6.84966771,11.6657723 C7.32866546,10.8819578 7.84032213,10.1155614 8.36939691,9.36876038 C9.00080303,8.4630192 9.68446344,7.57687338 10.4182009,6.70379113 L12.053325,4.8552953 C13.5012045,3.30508442 15.1080242,1.79406427 16.9347474,0.276512333 C15.197292,3.35516146 12.8502031,7.66178661 11.4262734,12.3712053 C10.6032682,15.0775426 10.1939429,17.5813944 10.1939429,19.8849381 C10.1939429,25.160445 12.3450782,29.349498 16.6146899,32.4041973 C20.3704676,35.0887619 24.4920255,35.8638673 28.868323,34.71645 C33.2881658,33.5603236 38.0128254,30.435952 43.3492957,25.1756859 C44.9060383,23.6298295 46.5346307,21.8945513 48.3156313,19.8631655 C50.4798302,17.4050361 52.526457,14.9207797 54.501234,12.5236137 C57.2707119,9.16627498 59.8703632,6.00053535 62.0541575,3.86028635 C62.7182226,3.22017118 63.3060834,2.69980546 63.8547536,2.27523928 C64.7082404,1.61335149 65.418028,1.23015329 65.9732299,1.12346743 C66.9225164,0.947109172 67.8870436,1.79406427 68.3747504,2.31660726 C68.6926308,2.65843747 69.0192201,3.07211734 69.3479868,3.54676055 L70.1775238,4.92061317 L70.6717623,5.9047358 C71.1507601,6.91934011 71.6058079,8.07111196 72.0194878,9.3273924 C72.7466935,11.4828822 73.3323771,13.8974663 73.7808931,16.4905859 L74.1249006,18.7484071 C74.3404496,20.3835312 74.501567,22.0665551 74.5951893,23.7365154 C74.6648617,24.9122371 74.6953434,26.1053769 74.6953434,27.2854532 C74.6953434,27.5271293 74.6844571,27.7753373 74.6844571,28.0235452" id="path3170"></path>
                </g>
                <g id="g3172" transform="translate(60.740090, 61.160006) scale(1, -1) translate(-60.740090, -61.160006) translate(0.865373, 0.196657)" fill="#A7BE0F">
                    <path d="M119.749436,60.963349 C119.529532,93.9684707 92.5946181,120.546314 59.5916737,120.32641 C26.586552,120.106507 0.00870904986,93.1715926 0.228612559,60.1664709 C0.45069333,27.1635265 27.38343,0.585683603 60.3863745,0.805587112 C73.8788699,0.897032135 86.2936205,5.45404247 96.2458872,13.0635748 C96.4505499,13.2138059 96.5898947,13.4445957 96.5877174,13.7167535 C96.5855402,14.1696241 96.2154056,14.533227 95.762535,14.5310497 C95.4381229,14.5288724 95.2465238,14.3568687 95.2465238,14.3568687 C85.9779175,7.3547926 74.460199,3.16356236 61.9496489,3.08082639 C31.0673581,2.87398645 5.86554508,27.7426783 5.66088241,58.6249691 C5.45404247,89.5094372 30.3227343,114.71125 61.2050251,114.91809 C92.0873159,115.122753 117.289129,90.2540609 117.495969,59.3717701 C117.537337,53.0424682 116.52491,46.952665 114.626337,41.2678328 L114.628514,41.2678328 C114.60021,41.1763877 114.578437,41.0805882 114.580614,40.9804341 C114.582792,40.4774865 114.994294,40.0725157 115.497242,40.0768702 C116.100344,40.0790474 116.361615,40.6843264 116.361615,40.6843264 C118.597664,47.0245147 119.797335,53.8524098 119.749436,60.963349" id="path3174"></path>
                </g>
                <g id="g3176" transform="translate(117.215231, 97.365052) scale(1, -1) translate(-117.215231, -97.365052) translate(108.506181, 86.478740)" fill="#000000">
                    <path d="M8.70904986,0 C7.22851138,0 3.55764687,0.346184732 1.46529764,3.55111508 C0.413679868,5.1622893 0.0914450235,6.57533264 0.0914450235,9.59955021 L0.0914450235,19.9263061 L0.0914450235,20.3595813 L0.524720254,20.3595813 L2.64101937,20.3595813 L3.0742946,20.3595813 L3.0742946,19.9263061 L3.0742946,9.4841553 C3.0742946,6.82789509 3.43572017,5.54984202 4.51128783,4.42419733 C5.52153761,3.36169325 7.0129624,2.7781869 8.70904986,2.7781869 C12.0729204,2.7781869 13.3879869,4.96851294 13.7102217,5.64128705 C14.0847109,6.40115165 14.2871963,7.76629521 14.2871963,9.4841553 L14.2871963,19.9263061 L14.2871963,20.3595813 L14.7204715,20.3595813 L16.8345934,20.3595813 L17.2678686,20.3595813 L17.2678686,19.9263061 L17.2678686,9.59955021 C17.2678686,6.82354056 16.9848245,5.39525639 16.1444012,3.9386678 C15.6153264,3.01550851 13.5142681,0 8.70904986,0" id="path3178"></path>
                </g>
                <g id="g3180" transform="translate(134.396221, 97.114881) scale(1, -1) translate(-134.396221, -97.114881) translate(127.864434, 86.228569)" fill="#000000">
                    <polygon id="path3182" points="13.0635748 0 12.6302996 0 1.43046144 0 0.997186209 0 0.997186209 0.43327523 0.997186209 19.6759209 0.997186209 20.1113734 1.43046144 20.1113734 3.54458329 20.1113734 3.97785852 20.1113734 3.97785852 19.6759209 3.97785852 2.72593261 12.6302996 2.72593261 13.0635748 2.72593261 13.0635748 2.29265738 13.0635748 0.43327523"></polygon>
                </g>
                <g id="g3184" transform="translate(148.218792, 97.364400) scale(1, -1) translate(-148.218792, -97.364400) translate(141.687005, 86.478088)" fill="#000000">
                    <path d="M6.53178739,0 C4.77038206,0 2.93930433,0.631406115 1.23450782,1.82454595 L1.05161777,1.95300443 L1.05161777,2.17943973 L1.05161777,4.77909111 L1.05161777,5.82417709 L1.78970975,5.08390785 C2.65190568,4.22171192 4.40677923,2.7781869 6.47735583,2.7781869 C9.05958911,2.7781869 9.62567736,4.78780016 9.62567736,5.5629056 C9.62567736,6.42074701 9.62567736,7.48760562 5.55637381,9.40577385 C2.28394833,10.9429211 0.886145823,12.6368313 0.886145823,15.073188 C0.886145823,18.2824729 3.46402458,20.6077892 7.01731692,20.6077892 C9.3448105,20.6077892 10.9080849,19.6802754 11.5765045,19.2861909 L11.7898762,19.1577324 L11.7898762,18.913879 L11.7898762,16.5145358 L11.7898762,15.6501626 L11.0975068,16.1661738 C10.3703011,16.7061349 8.85928097,17.8317796 6.98683525,17.8317796 C3.86681814,17.8317796 3.83198194,15.3279277 3.83198194,15.3018006 C3.83198194,13.6122449 5.63910978,12.7021492 7.23286591,11.9030939 C10.8710715,10.1003206 12.5823998,8.90064895 12.5823998,5.70878218 C12.5823998,2.0009042 9.46455993,0 6.53178739,0" id="path3186"></path>
                </g>
                <g id="g3188" transform="translate(164.177470, 97.114881) scale(1, -1) translate(-164.177470, -97.114881) translate(154.379789, 86.228569)" fill="#000000">
                    <polygon id="path3190" points="10.8863123 0 10.4530371 0 8.33673798 0 7.90564001 0 7.90564001 0.43327523 7.90564001 17.3832635 1.3978025 17.3832635 0.964527272 17.3832635 0.964527272 17.8165387 0.964527272 19.6780982 0.964527272 20.1113734 1.3978025 20.1113734 17.3985044 20.1113734 17.8317796 20.1113734 17.8317796 19.6780982 17.8317796 17.8165387 17.8317796 17.3832635 17.3985044 17.3832635 10.8863123 17.3832635 10.8863123 0.43327523"></polygon>
                </g>
                <g id="g3192" transform="translate(179.275695, 97.114881) scale(1, -1) translate(-179.275695, -97.114881) translate(172.743908, 86.228569)" fill="#000000">
                    <polygon id="path3194" points="13.0635748 0 12.6302996 0 1.68520115 0 1.25192592 0 1.25192592 0.43327523 1.25192592 19.6780982 1.25192592 20.1113734 1.68520115 20.1113734 12.4082188 20.1113734 12.8393168 20.1113734 12.8393168 19.6780982 12.8393168 17.8165387 12.8393168 17.3832635 12.4082188 17.3832635 4.23259823 17.3832635 4.23259823 11.5024776 12.1513018 11.5024776 12.584577 11.5024776 12.584577 11.0713796 12.584577 9.20982022 12.584577 8.77654499 12.1513018 8.77654499 4.23259823 8.77654499 4.23259823 2.72593261 12.6302996 2.72593261 13.0635748 2.72593261 13.0635748 2.29265738 13.0635748 0.43327523"></polygon>
                </g>
                <g id="g3196" transform="translate(195.411828, 98.643756) scale(1, -1) translate(-195.411828, -98.643756) translate(186.702779, 87.757444)" fill="#000000">
                    <path d="M4.35452493,13.0635748 L6.40115165,13.0635748 C7.88386738,13.0635748 10.3746556,13.446773 10.3746556,16.0115882 C10.3746556,17.8818566 8.9616123,18.9117018 6.40115165,18.9117018 L4.35452493,18.9117018 L4.35452493,13.0635748 Z M17.3723772,1.52843825 L16.5341312,1.52843825 L13.9910886,1.52843825 L13.7515897,1.52843825 L13.6253085,1.73092366 L11.7985853,4.63974631 C10.9886437,5.90909033 10.1612839,7.09352111 9.33610145,8.15820245 C8.20610223,9.59737294 7.26987937,10.3311104 5.30381136,10.3311104 L4.35452493,10.3311104 L4.35452493,1.96171348 L4.35452493,1.52843825 L3.9212497,1.52843825 L1.80495058,1.52843825 L1.37385262,1.52843825 L1.37385262,1.96171348 L1.37385262,21.2065364 L1.37385262,21.6398116 L1.80495058,21.6398116 L6.71467744,21.6398116 C13.0047887,21.6398116 13.4946728,17.3549591 13.4946728,16.0420698 C13.4946728,13.8756937 12.4299914,12.1883153 10.476987,11.223788 C11.6723041,10.2004746 12.7260991,8.53922339 14.7008762,5.43662437 C15.42155,4.28267527 15.8417617,3.69045988 16.6038036,2.61706948 L16.8890249,2.21209866 L17.3723772,1.52843825 Z" id="path3198"></path>
                </g>
            </g>
        </g>
    </g>
</svg>