<?xml version="1.0" encoding="utf-8"?>
<!-- Generator: Adobe Illustrator 12.0.0, SVG Export Plug-In  -->
<!DOCTYPE svg PUBLIC "-//W3C//DTD SVG 1.1//EN" "http://www.w3.org/Graphics/SVG/1.1/DTD/svg11.dtd" [
	<!ENTITY ns_flows "http://ns.adobe.com/Flows/1.0/">
	<!ENTITY ns_svg "http://www.w3.org/2000/svg">
	<!ENTITY ns_xlink "http://www.w3.org/1999/xlink">
]>
<svg  version="1.1" xmlns="&ns_svg;" xmlns:xlink="&ns_xlink;" xmlns:a="http://ns.adobe.com/AdobeSVGViewerExtensions/3.0/"
	 width="52" height="22" viewBox="-0.504 -0.917 52 22" enable-background="new -0.504 -0.917 52 22" xml:space="preserve">
<defs>
</defs>
<rect x="21.526" y="3.032" fill="#FFFFFF" stroke="#FFFFFF" width="10.896" height="14.429"/>
<path d="M12.078,1.166c-0.018-0.004-0.037-0.006-0.055-0.01l-0.022-0.003c-0.032-0.004-0.063-0.008-0.096-0.01
	c-0.022-0.003-0.044-0.004-0.066-0.005c-0.039-0.003-0.077-0.004-0.114-0.004c-0.017,0-0.027,0-0.044,0
	c-0.031,0-0.061,0.003-0.091,0.005c-0.017,0.001-0.033,0.002-0.05,0.004c-0.025,0.002-0.048,0.004-0.073,0.008l-0.02,0.002
	l-0.023,0.003l-0.026,0.005c-0.012,0.001-0.024,0.003-0.035,0.006c-0.017,0.002-0.033,0.006-0.048,0.009
	c-0.098,0.021-0.189,0.048-0.271,0.08c-0.043,0.018-0.085,0.036-0.124,0.055c-0.033,0.016-0.064,0.033-0.095,0.051
	c-0.029,0.016-0.057,0.033-0.084,0.051c-0.015,0.011-0.031,0.021-0.047,0.032c-0.012,0.01-0.025,0.018-0.037,0.028
	c-0.026,0.02-0.051,0.041-0.075,0.061c-0.022,0.02-0.043,0.04-0.063,0.059c-0.017,0.017-0.036,0.034-0.051,0.054
	c-0.017,0.018-0.034,0.037-0.049,0.057c-0.018,0.02-0.033,0.042-0.049,0.064c-0.013,0.016-0.024,0.033-0.035,0.051
	c-0.009,0.012-0.016,0.023-0.022,0.035c-0.044,0.07-0.081,0.145-0.113,0.225c-0.038,0.1-0.066,0.208-0.081,0.321
	c-0.004,0.037-0.007,0.073-0.01,0.111c-0.002,0.029-0.003,0.058-0.003,0.087c0,0.023,0,0.044,0.001,0.066
	c0.002,0.022,0.005,0.044,0.007,0.066l0.001,0.016c0.003,0.026,0.008,0.052,0.012,0.077c0.003,0.01,0.005,0.02,0.007,0.03
	c0.004,0.021,0.009,0.042,0.014,0.063c0.007,0.026,0.015,0.052,0.024,0.078c0.01,0.032,0.022,0.062,0.034,0.092
	c0.02,0.047,0.042,0.093,0.065,0.136c0.014,0.025,0.028,0.049,0.042,0.074c0.013,0.018,0.024,0.036,0.036,0.053
	c0.016,0.024,0.033,0.046,0.05,0.067c0.016,0.023,0.035,0.043,0.054,0.064c0.021,0.025,0.043,0.048,0.064,0.069l0.011,0.012
	c0.019,0.017,0.037,0.036,0.059,0.055c0.015,0.012,0.031,0.025,0.048,0.039c0.015,0.012,0.032,0.025,0.049,0.037
	c0.022,0.016,0.042,0.03,0.066,0.045c0.026,0.014,0.051,0.031,0.078,0.047c0.054,0.03,0.114,0.06,0.181,0.086
	c0.024,0.011,0.05,0.019,0.076,0.028c0.026,0.01,0.053,0.018,0.081,0.026c0.048,0.013,0.098,0.025,0.149,0.036
	c0.042,0.008,0.087,0.015,0.132,0.019c0.045,0.006,0.092,0.011,0.139,0.013c0.024,0.002,0.048,0.002,0.072,0.003h0.034
	c0.086,0,0.166-0.003,0.24-0.01l0.015-0.001c0.03-0.002,0.057-0.006,0.085-0.009c0.044-0.005,0.083-0.011,0.121-0.018
	c0.025-0.004,0.048-0.01,0.071-0.014c0.036-0.008,0.07-0.017,0.101-0.025c0.024-0.006,0.047-0.012,0.07-0.019
	c0.027-0.008,0.051-0.017,0.075-0.025l0.024-0.008c0.012-0.004,0.028-0.01,0.046-0.017c0.025-0.01,0.055-0.022,0.089-0.036
	c0.02-0.009,0.043-0.019,0.066-0.029c0.018-0.01,0.04-0.02,0.062-0.03c0.008-0.004,0.018-0.009,0.027-0.013v-0.53
	c-0.006,0.004-0.013,0.009-0.019,0.012l-0.036,0.022c-0.036,0.022-0.071,0.042-0.106,0.062c-0.038,0.02-0.077,0.039-0.114,0.058
	c-0.065,0.03-0.128,0.056-0.188,0.078c-0.115,0.041-0.221,0.066-0.314,0.084c-0.011,0.001-0.022,0.003-0.032,0.005
	c-0.027,0.004-0.051,0.007-0.075,0.01c-0.036,0.003-0.071,0.005-0.101,0.007c-0.021,0.001-0.038,0.002-0.057,0.002
	c-0.037,0-0.075-0.001-0.115-0.004c-0.046-0.004-0.092-0.009-0.14-0.017c-0.076-0.013-0.153-0.032-0.227-0.059
	c-0.012-0.004-0.023-0.009-0.034-0.013c-0.007-0.003-0.014-0.006-0.022-0.009c-0.012-0.005-0.024-0.01-0.036-0.016
	c-0.026-0.012-0.052-0.025-0.077-0.04c-0.012-0.007-0.024-0.015-0.037-0.021c-0.012-0.009-0.025-0.017-0.038-0.026
	c-0.014-0.01-0.03-0.021-0.044-0.033c-0.015-0.012-0.03-0.024-0.043-0.034l-0.017-0.016l-0.008-0.008L10.898,3.25l-0.006-0.005
	c-0.024-0.024-0.046-0.048-0.066-0.072c-0.01-0.013-0.021-0.027-0.032-0.04c-0.009-0.013-0.017-0.026-0.026-0.04
	c-0.008-0.012-0.016-0.024-0.023-0.037C10.734,3.039,10.724,3.02,10.714,3c-0.007-0.015-0.014-0.031-0.02-0.047
	c-0.012-0.026-0.021-0.053-0.029-0.079c-0.007-0.019-0.013-0.04-0.018-0.059c-0.013-0.054-0.02-0.104-0.024-0.148
	c-0.003-0.016-0.003-0.032-0.004-0.046c-0.001-0.02-0.001-0.039-0.001-0.053V2.535c0.001-0.03,0.005-0.068,0.01-0.112
	c0.004-0.027,0.009-0.055,0.017-0.084c0.004-0.021,0.009-0.04,0.016-0.061c0.006-0.019,0.013-0.037,0.021-0.058
	c0.004-0.013,0.009-0.025,0.015-0.038c0.008-0.018,0.017-0.036,0.026-0.054c0.007-0.014,0.015-0.028,0.023-0.041
	c0.017-0.03,0.037-0.06,0.059-0.089c0.008-0.012,0.016-0.022,0.025-0.033c0.011-0.013,0.023-0.027,0.035-0.04
	c0.007-0.007,0.013-0.014,0.02-0.02c0.097-0.097,0.206-0.17,0.317-0.221c0.019-0.007,0.036-0.015,0.054-0.022
	s0.035-0.014,0.054-0.02c0.019-0.006,0.038-0.012,0.058-0.017c0.018-0.006,0.038-0.011,0.056-0.015
	c0.019-0.005,0.038-0.008,0.056-0.012c0.02-0.003,0.04-0.006,0.061-0.009c0.02-0.002,0.041-0.005,0.061-0.006
	c0.039-0.003,0.076-0.005,0.112-0.005c0.014,0,0.026,0,0.038,0c0.028,0.001,0.053,0.002,0.08,0.003
	c0.018,0.002,0.036,0.002,0.054,0.004c0.032,0.004,0.065,0.007,0.095,0.012c0.027,0.004,0.054,0.008,0.078,0.013
	c0.038,0.008,0.072,0.017,0.104,0.025c0.02,0.004,0.038,0.01,0.055,0.016c0.025,0.008,0.047,0.014,0.065,0.02
	c0.028,0.01,0.045,0.016,0.045,0.016c0.026,0.009,0.052,0.02,0.077,0.029c0.034,0.015,0.065,0.028,0.096,0.042
	c0.026,0.012,0.05,0.024,0.073,0.034c0.019,0.01,0.036,0.02,0.053,0.028c0.029,0.015,0.053,0.029,0.073,0.039l0.054,0.03V1.37
	c0,0-0.033-0.013-0.088-0.035c-0.025-0.009-0.054-0.019-0.088-0.031C12.56,1.296,12.54,1.29,12.52,1.283
	c-0.017-0.005-0.033-0.011-0.051-0.017c-0.02-0.006-0.04-0.014-0.061-0.02c-0.016-0.004-0.031-0.009-0.048-0.014l-0.014-0.004
	c-0.014-0.004-0.031-0.008-0.045-0.013c-0.02-0.004-0.039-0.01-0.058-0.015c-0.012-0.002-0.026-0.005-0.038-0.008
	c-0.021-0.005-0.041-0.01-0.062-0.014C12.121,1.173,12.1,1.168,12.078,1.166 M9.485,0.626h4.116V4.5H9.485V0.626z"/>
<path d="M6.323,2.768v0.761h0.494c0,0,0.01-0.001,0.025-0.001c0.017-0.001,0.041-0.002,0.07-0.004
	c0.052-0.006,0.124-0.015,0.193-0.039c0.062-0.02,0.121-0.051,0.168-0.097c0.018-0.019,0.033-0.037,0.045-0.056
	c0.038-0.061,0.048-0.123,0.05-0.158C7.369,3.158,7.369,3.15,7.369,3.15s0-0.007,0-0.019c0-0.014-0.002-0.043-0.01-0.074
	C7.35,3.021,7.333,2.98,7.302,2.941C7.294,2.934,7.289,2.927,7.282,2.92C7.269,2.906,7.253,2.893,7.237,2.881
	C7.209,2.862,7.18,2.844,7.146,2.83c-0.045-0.02-0.094-0.034-0.15-0.044C6.97,2.781,6.938,2.776,6.909,2.774
	C6.89,2.771,6.872,2.77,6.852,2.769C6.834,2.768,6.817,2.768,6.8,2.768H6.323z"/>
<path d="M6.323,1.61v0.722h0.239c0,0,0.016,0,0.037-0.001c0.017,0,0.036-0.001,0.054-0.003c0.049-0.003,0.117-0.01,0.185-0.029
	c0.014-0.003,0.028-0.008,0.039-0.013C6.931,2.267,6.981,2.24,7.022,2.201c0.031-0.031,0.052-0.066,0.066-0.1
	C7.105,2.06,7.112,2.02,7.114,1.993c0.002-0.026,0.002-0.041,0.002-0.041s0-0.012-0.001-0.031C7.114,1.89,7.107,1.838,7.083,1.789
	C7.071,1.766,7.054,1.743,7.031,1.721C7.004,1.695,6.973,1.674,6.938,1.659C6.87,1.628,6.792,1.617,6.729,1.613
	C6.699,1.611,6.674,1.61,6.651,1.61H6.323z"/>
<path d="M5.822,1.168v2.791h1.051c0,0,0.512,0.013,0.794-0.269c0.23-0.231,0.215-0.497,0.215-0.497s0.015-0.278-0.198-0.492
	c-0.182-0.18-0.413-0.23-0.413-0.23s0.105-0.048,0.186-0.129C7.494,2.305,7.628,2.184,7.628,1.89c0-0.296-0.197-0.466-0.197-0.466
	S7.215,1.168,6.728,1.168H5.822z M4.743,0.626h4.116V4.5H4.743V0.626z"/>
<path d="M1.58,2.768v0.761h0.495c0,0,0.009-0.001,0.025-0.001c0.017-0.001,0.041-0.002,0.069-0.004
	c0.054-0.006,0.124-0.015,0.193-0.039c0.062-0.02,0.122-0.051,0.169-0.097c0.018-0.019,0.032-0.037,0.044-0.056
	c0.039-0.061,0.048-0.123,0.05-0.158C2.627,3.158,2.627,3.15,2.627,3.15V3.131C2.625,3.117,2.624,3.088,2.616,3.057
	C2.607,3.021,2.589,2.98,2.558,2.941C2.553,2.934,2.547,2.927,2.54,2.92C2.525,2.906,2.512,2.893,2.496,2.881
	C2.468,2.862,2.437,2.844,2.404,2.83C2.359,2.81,2.309,2.796,2.255,2.786c-0.028-0.005-0.058-0.01-0.088-0.012
	C2.149,2.771,2.13,2.77,2.111,2.769C2.094,2.768,2.075,2.768,2.058,2.768H1.58z"/>
<path d="M1.58,1.61v0.722h0.24c0,0,0.016,0,0.036-0.001c0.017,0,0.037-0.001,0.054-0.003c0.049-0.003,0.118-0.01,0.186-0.029
	c0.013-0.003,0.026-0.008,0.04-0.013C2.189,2.267,2.24,2.24,2.28,2.201c0.031-0.031,0.051-0.066,0.066-0.1
	C2.363,2.06,2.369,2.02,2.371,1.993c0.003-0.026,0.003-0.041,0.003-0.041V1.921C2.371,1.89,2.365,1.838,2.34,1.789
	C2.328,1.766,2.311,1.743,2.29,1.721C2.262,1.695,2.23,1.674,2.194,1.659C2.127,1.628,2.051,1.617,1.985,1.613
	C1.957,1.611,1.931,1.61,1.91,1.61H1.58z"/>
<path d="M1.08,1.168v2.791h1.051c0,0,0.512,0.013,0.794-0.269c0.23-0.231,0.214-0.497,0.214-0.497s0.016-0.278-0.197-0.492
	c-0.182-0.18-0.413-0.23-0.413-0.23s0.105-0.048,0.185-0.129C2.751,2.305,2.886,2.184,2.886,1.89c0-0.296-0.198-0.466-0.198-0.466
	S2.473,1.168,1.986,1.168H1.08z M0,0.626h4.116V4.5H0V0.626z"/>
<path d="M0,5.458V8.66h0.46V7.271h0.193c0.236,0,0.426,0.075,0.85,0.732L1.926,8.66h0.548c-0.22-0.304-0.3-0.413-0.437-0.634
	C1.793,7.628,1.615,7.333,1.324,7.141c0.342-0.137,0.535-0.414,0.535-0.785c0-0.554-0.403-0.897-1.051-0.897L0,5.458L0,5.458z
	 M0.46,5.854h0.297c0.444,0,0.624,0.182,0.628,0.484c0.005,0.267-0.136,0.52-0.628,0.52H0.46V5.854z"/>
<path d="M4.147,5.441H3.824L2.448,8.66h0.469l0.405-0.942h1.361L5.109,8.66h0.469L4.147,5.441z M3.979,6.145l0.517,1.159H3.5
	L3.979,6.145z"/>
<path d="M5.961,8.66h1.248c1.057,0,1.699-0.779,1.699-1.6c0-0.756-0.521-1.602-1.703-1.602H5.961V8.66z M6.421,5.872h0.707
	c0.898,0,1.307,0.545,1.307,1.188c0,0.394-0.24,1.188-1.282,1.188H6.421V5.872z"/>
<line fill="none" stroke="#000000" stroke-width="0.46" stroke-miterlimit="10" x1="9.669" y1="8.661" x2="9.669" y2="5.458"/>
<path d="M10.43,7.06c0,0.868,0.662,1.643,1.709,1.643c1.084,0,1.732-0.78,1.732-1.643c0-0.892-0.666-1.643-1.723-1.643
	C11.11,5.417,10.43,6.173,10.43,7.06 M10.904,7.06c0-0.705,0.531-1.22,1.244-1.22c0.719,0,1.249,0.515,1.249,1.22
	c0,0.699-0.53,1.221-1.249,1.221C11.435,8.281,10.904,7.759,10.904,7.06"/>
<path fill="#499337" d="M26.771,0C21.17,0,16.625,4.546,16.625,10.153c0,5.606,4.544,10.153,10.146,10.153
	c5.605,0,10.147-4.547,10.147-10.153C36.92,4.546,32.378,0,26.771,0 M27.361,7.769c2.57,0,4.365,1.959,4.365,4.764
	c0,1.356-0.531,2.624-1.498,3.569c-0.982,0.963-2.287,1.478-3.664,1.447c-2.321,0-4.676-1.154-5.097-3.709h3.696
	c0.288,0.43,0.762,0.684,1.345,0.684c1.13,0,1.738-1.024,1.738-1.991c0-0.956-0.537-1.921-1.738-1.921
	c-0.719,0-1.116,0.21-1.573,0.83l-0.109,0.148h-3.239l1.665-8.271H31.9l-0.6,3.015H25.85c0,0-0.257,1.181-0.376,1.855
	C26.018,7.906,26.635,7.769,27.361,7.769"/>
<polygon fill="#499337" points="41.156,10.176 41.837,4.983 40.555,4.983 39.874,10.176 "/>
<polygon fill="#499337" points="42.047,3.335 40.764,3.335 40.627,4.263 41.91,4.263 "/>
<path fill="#499337" d="M44.504,10.176l2.585-5.193h-1.374c0,0-1.188,2.546-1.465,3.141c-0.129-0.633-0.641-3.141-0.641-3.141
	h-1.351l1.226,5.193H44.504z"/>
<path fill="#499337" d="M50.539,5.548c-0.354-0.402-0.874-0.624-1.467-0.624c-1.037,0-2.239,0.696-2.494,2.651
	C46.459,8.48,46.6,9.171,47.002,9.626c0.348,0.398,0.891,0.607,1.568,0.607c0.75,0,1.434-0.289,1.977-0.836l0.105-0.106
	l-0.842-0.807l-0.102,0.092c-0.297,0.269-0.691,0.436-1.036,0.436c-0.306,0-0.545-0.09-0.694-0.261
	c-0.123-0.139-0.186-0.336-0.186-0.576c0-0.025,0.005-0.052,0.006-0.078h3.045l0.124-0.939c0.015-0.112,0.022-0.222,0.022-0.329
	C50.99,6.332,50.834,5.885,50.539,5.548 M49.695,6.993h-1.744c0.14-0.525,0.51-0.846,1-0.846c0.232,0,0.424,0.073,0.551,0.212
	c0.129,0.141,0.195,0.351,0.195,0.612C49.697,6.977,49.695,6.984,49.695,6.993"/>
<polygon fill="#499337" points="39.93,3.335 38.646,3.335 37.746,10.17 39.029,10.17 "/>
<path fill="#499337" d="M38.16,13.097c-0.284,0-0.479-0.084-0.648-0.279l-0.043-0.049l-0.477,0.41l0.046,0.049
	c0.271,0.293,0.612,0.443,1.019,0.443c0.617,0,1.076-0.313,1.146-0.779c0.033-0.226-0.005-0.414-0.112-0.549
	c-0.11-0.137-0.286-0.213-0.522-0.23l-0.387-0.027c-0.125-0.01-0.18-0.044-0.201-0.072c-0.017-0.02-0.021-0.046-0.019-0.076
	c0.011-0.057,0.034-0.229,0.384-0.229c0.209,0,0.375,0.061,0.559,0.204l0.046,0.036l0.429-0.43l-0.047-0.047
	c-0.24-0.229-0.531-0.338-0.92-0.338c-0.566,0-0.979,0.307-1.049,0.778c-0.028,0.196,0.01,0.366,0.111,0.495
	c0.112,0.144,0.295,0.228,0.524,0.246l0.412,0.039c0.094,0.008,0.151,0.027,0.18,0.062c0.019,0.021,0.022,0.054,0.017,0.097
	C38.583,13.005,38.416,13.097,38.16,13.097"/>
<path fill="#499337" d="M39.887,11.162l-0.438,2.942h0.604c0.039-0.26,0.082-0.547,0.096-0.646c0.158,0.142,0.326,0.212,0.521,0.212
	c0.352,0,0.588-0.178,0.723-0.327c0.174-0.186,0.232-0.358,0.317-0.929c0.085-0.577,0.077-0.754-0.043-0.943
	c-0.094-0.154-0.282-0.338-0.64-0.338c-0.193,0-0.391,0.069-0.562,0.188c0.005-0.039,0.022-0.16,0.022-0.16H39.887z M40.813,11.735
	c0.121,0,0.205,0.029,0.258,0.088c0.099,0.113,0.072,0.345,0.039,0.572c-0.057,0.381-0.131,0.672-0.514,0.672
	c-0.115,0-0.195-0.027-0.246-0.086c-0.103-0.119-0.078-0.355-0.047-0.567C40.355,12.058,40.436,11.735,40.813,11.735"/>
<path fill="#499337" d="M42.955,13.671c0.311,0,0.581-0.107,0.805-0.32c0.235-0.224,0.336-0.453,0.408-0.94
	c0.072-0.489,0.041-0.72-0.135-0.948c-0.163-0.218-0.406-0.328-0.721-0.328c-0.312,0-0.582,0.108-0.804,0.32
	c-0.237,0.224-0.336,0.452-0.407,0.938c-0.025,0.16-0.037,0.295-0.037,0.408c0,0.235,0.053,0.391,0.17,0.544
	C42.396,13.562,42.641,13.671,42.955,13.671 M42.701,12.41c0.051-0.343,0.092-0.415,0.184-0.525
	c0.078-0.089,0.223-0.149,0.357-0.149c0.13,0,0.253,0.058,0.301,0.14c0.033,0.063,0.053,0.114,0.053,0.217
	c0,0.071-0.008,0.165-0.029,0.306c-0.051,0.34-0.09,0.414-0.184,0.522c-0.076,0.09-0.221,0.147-0.355,0.147
	c-0.131,0-0.254-0.057-0.301-0.139C42.668,12.824,42.65,12.752,42.701,12.41"/>
<path fill="#499337" d="M45.965,11.134c-0.217,0-0.41,0.067-0.576,0.191c0.006-0.041,0.023-0.163,0.023-0.163h-0.602l-0.369,2.481
	h0.604l0.218-1.471c0.049-0.322,0.282-0.438,0.469-0.438c0.104,0,0.162,0.023,0.252,0.101l0.047,0.038l0.492-0.5l-0.051-0.044
	C46.318,11.199,46.154,11.134,45.965,11.134"/>
<path fill="#499337" d="M49.172,11.708c0.209,0,0.376,0.061,0.559,0.204l0.045,0.036l0.431-0.43l-0.047-0.047
	c-0.24-0.229-0.532-0.338-0.921-0.338c-0.565,0-0.979,0.307-1.049,0.778c-0.028,0.196,0.011,0.366,0.112,0.495
	c0.112,0.144,0.294,0.228,0.524,0.248l0.412,0.037c0.095,0.008,0.152,0.027,0.18,0.062c0.018,0.021,0.023,0.054,0.016,0.099
	c-0.022,0.153-0.188,0.246-0.445,0.246c-0.282,0-0.479-0.084-0.648-0.281l-0.042-0.047l-0.478,0.41l0.046,0.049
	c0.271,0.293,0.612,0.442,1.021,0.442c0.615,0,1.075-0.313,1.146-0.778c0.033-0.227-0.006-0.414-0.114-0.55
	c-0.11-0.137-0.286-0.213-0.522-0.229l-0.385-0.027c-0.128-0.011-0.182-0.045-0.203-0.072c-0.016-0.021-0.021-0.046-0.017-0.078
	C48.798,11.88,48.822,11.708,49.172,11.708"/>
<path fill="#499337" d="M38.502,16.492l-0.379-0.369l-0.037,0.033c-0.148,0.134-0.35,0.217-0.52,0.217
	c-0.152,0-0.271-0.046-0.346-0.131c-0.06-0.068-0.091-0.164-0.091-0.279c0-0.021,0.004-0.044,0.007-0.065h1.477l0.066-0.44
	c0.008-0.06,0.014-0.12,0.014-0.177c0-0.23-0.07-0.438-0.205-0.594c-0.166-0.189-0.411-0.295-0.693-0.295
	c-0.496,0-1.076,0.332-1.215,1.27c-0.063,0.436-0.002,0.766,0.188,0.984c0.16,0.188,0.42,0.287,0.742,0.287
	c0.358,0,0.688-0.139,0.953-0.4L38.502,16.492z M37.729,14.949c0.117,0,0.215,0.036,0.277,0.108
	c0.063,0.068,0.094,0.168,0.094,0.293c0,0.015-0.002,0.028-0.004,0.043h-0.877C37.291,15.121,37.479,14.949,37.729,14.949"/>
<path fill="#499337" d="M40.391,14.417c0,0-0.459,0.604-0.549,0.721c-0.061-0.131-0.336-0.721-0.336-0.721h-0.695
	c0,0,0.599,1.15,0.631,1.211c-0.045,0.053-1.041,1.273-1.041,1.273h0.713c0,0,0.496-0.631,0.586-0.744
	c0.063,0.127,0.365,0.744,0.365,0.744h0.695c0,0-0.625-1.199-0.656-1.26c0.043-0.054,1.002-1.226,1.002-1.226L40.391,14.417
	L40.391,14.417z"/>
<path fill="#499337" d="M41.775,16.325c-0.008-0.01-0.012-0.026-0.012-0.051c0-0.014,0.002-0.028,0.004-0.047
	c0,0,0.164-1.101,0.198-1.336h0.347l0.069-0.474h-0.346c0.006-0.046,0.026-0.187,0.049-0.334h-0.588
	c-0.022,0.151-0.043,0.298-0.05,0.334h-0.239l-0.069,0.474h0.239c-0.019,0.114-0.203,1.362-0.203,1.362
	c-0.006,0.042-0.008,0.083-0.008,0.123c0,0.142,0.039,0.261,0.117,0.351c0.098,0.115,0.248,0.176,0.434,0.176h0.296l0.084-0.559
	h-0.242C41.828,16.345,41.791,16.34,41.775,16.325"/>
<path fill="#499337" d="M45.205,14.39c-0.393,0-0.678,0.116-0.895,0.365l-0.035,0.042l0.418,0.358l0.035-0.045
	c0.092-0.121,0.201-0.161,0.436-0.161c0.195,0,0.311,0.026,0.357,0.083c0.016,0.018,0.033,0.046,0.033,0.104
	c0,0.016-0.002,0.034-0.005,0.055c0,0-0.021,0.142-0.028,0.201h-0.615c-0.566,0-0.875,0.377-0.932,0.75
	c-0.006,0.043-0.009,0.084-0.009,0.125c0,0.162,0.05,0.305,0.147,0.416c0.14,0.162,0.363,0.248,0.646,0.248
	c0.25,0,0.427-0.045,0.556-0.146c-0.004,0.021-0.019,0.118-0.019,0.118h0.588l0.248-1.668c0.037-0.252-0.006-0.447-0.127-0.588
	C45.855,14.474,45.596,14.39,45.205,14.39 M45.43,16.006c-0.049,0.33-0.152,0.366-0.541,0.366c-0.152,0-0.262-0.033-0.315-0.096
	c-0.025-0.029-0.037-0.065-0.037-0.107c0-0.012,0-0.023,0.002-0.035c0.028-0.197,0.233-0.238,0.399-0.238h0.51
	C45.439,15.947,45.43,16.006,45.43,16.006"/>
<path fill="#499337" d="M43.837,14.39c-0.226,0-0.427,0.074-0.595,0.209c0.008-0.059,0.025-0.182,0.025-0.182H42.68l-0.369,2.484
	h0.59l0.219-1.476c0.05-0.332,0.292-0.45,0.482-0.45c0.086,0,0.145,0.02,0.213,0.067l0.488-0.489
	C44.163,14.444,44.01,14.39,43.837,14.39"/>
<path fill="#499337" d="M47.281,13.063c-0.01-0.01-0.014-0.024-0.014-0.049c0-0.015,0.002-0.029,0.004-0.047
	c0,0,0.164-1.101,0.199-1.336h0.348l0.068-0.474H47.54c0.006-0.046,0.026-0.188,0.05-0.334h-0.589
	c-0.022,0.151-0.045,0.298-0.049,0.334h-0.24l-0.069,0.474h0.239c-0.019,0.114-0.202,1.361-0.202,1.361
	c-0.007,0.043-0.01,0.084-0.01,0.123c0,0.142,0.04,0.261,0.118,0.352c0.099,0.114,0.248,0.176,0.435,0.176h0.295l0.084-0.56h-0.24
	C47.332,13.084,47.295,13.08,47.281,13.063"/>
</svg>
