<?xml version="1.0" encoding="UTF-8"?>
<svg width="304px" height="124px" viewBox="0 0 304 124" version="1.1" xmlns="http://www.w3.org/2000/svg" xmlns:xlink="http://www.w3.org/1999/xlink">
    <!-- Generator: Sketch 41.2 (35397) - http://www.bohemiancoding.com/sketch -->
    <title>radio_ulster.large</title>
    <desc>Created with Sketch.</desc>
    <defs></defs>
    <g id="Page-1" stroke="none" stroke-width="1" fill="none" fill-rule="evenodd">
        <g id="BBC_Radio_Ulster_logo">
            <g id="g202" transform="translate(0.924833, 0.204410)">
                <path d="M58.7257945,5.27708195 L83.3005558,5.27708195 L83.3005558,28.4148497 L58.7257945,28.4148497 L58.7257945,5.27708195 Z M74.2083078,8.4994295 C74.1037962,8.47765231 73.9927586,8.46895092 73.8773632,8.43847233 L73.7467273,8.42322711 C73.5594826,8.39709922 73.3765933,8.37750331 73.1762846,8.35790739 C73.0456487,8.34266217 72.9171906,8.33831147 72.7843781,8.3317795 C72.5470565,8.31218359 72.3293297,8.30783289 72.105072,8.30783289 C72.004923,8.30783289 71.9417774,8.31221915 71.8416225,8.31221915 C71.647847,8.31221915 71.4714885,8.33181507 71.3016619,8.33834704 C71.1971504,8.3427333 71.0948225,8.35359226 70.992491,8.35794296 C70.8487912,8.37318818 70.7094468,8.38407084 70.5679247,8.41454943 L70.441643,8.4232034 L70.3066529,8.43844862 L70.1498903,8.46892721 C70.0780386,8.47758118 70.0061905,8.48852313 69.9386954,8.51028846 C69.8428971,8.52335241 69.7449199,8.53859763 69.6491192,8.56472552 C69.0721457,8.68665171 68.5234755,8.84776974 68.0401225,9.04372298 C67.7766742,9.14387199 67.5241122,9.25709442 67.2954991,9.37248983 C67.0951904,9.46393744 66.9144776,9.56408881 66.7294106,9.67077453 C66.5508756,9.76657284 66.3941118,9.87325974 66.2221087,9.97341349 C66.1306611,10.0430839 66.041396,10.1040494 65.9434187,10.1693679 C65.8737483,10.2259744 65.7997201,10.2760489 65.7235153,10.3326625 C65.571107,10.4480567 65.4143444,10.5786926 65.2728223,10.70062 C65.1443641,10.8203696 65.0202602,10.9379416 64.8939786,11.0533358 C64.7938296,11.1534967 64.6849614,11.255821 64.5956939,11.3755707 C64.4890129,11.4822516 64.3932087,11.5932975 64.2995857,11.7152237 C64.1950741,11.8349734 64.1036325,11.961255 64.0100095,12.0984217 C63.9294564,12.19422 63.8684874,12.2943761 63.8009923,12.4010619 C63.7487365,12.4729136 63.7073753,12.5382297 63.6703564,12.6035471 C63.4069081,13.0281134 63.1870047,13.4766287 62.9975834,13.9512719 C62.7667926,14.5521968 62.6013215,15.1966665 62.5098763,15.8694407 C62.4859297,16.0915218 62.4663338,16.3092475 62.4510885,16.5356829 C62.4380246,16.7076872 62.4336739,16.8796902 62.4336739,17.0516945 C62.4336739,17.1866846 62.4336739,17.3173205 62.4380602,17.443601 C62.4511241,17.5764146 62.4663693,17.7026962 62.4816027,17.8442183 L62.485989,17.9400166 C62.5099356,18.0967792 62.5317128,18.2470098 62.5621913,18.3994182 C62.5774366,18.4647379 62.586138,18.5148124 62.5970206,18.5801309 C62.6231485,18.7020583 62.6558084,18.821808 62.679755,18.9480884 C62.7254788,19.104851 62.7712026,19.2616148 62.8299856,19.4205551 C62.8844227,19.6056221 62.9584438,19.7928669 63.0302943,19.9735796 C63.1500439,20.2457376 63.2806786,20.5200721 63.41567,20.7813439 C63.4984043,20.929398 63.587673,21.0730967 63.6704086,21.2211507 C63.7422603,21.3256623 63.8184627,21.4388764 63.8837812,21.5455633 C63.9795795,21.6805535 64.0819122,21.8111894 64.1820659,21.9374698 C64.2822149,22.0789919 64.3932608,22.1943873 64.4999465,22.3250232 C64.6284047,22.4730761 64.7568629,22.610244 64.8896765,22.7343479 L64.9549962,22.801837 C65.0638585,22.9019979 65.1770773,23.0130319 65.303359,23.1349581 C65.3991573,23.2046286 65.4906025,23.2851899 65.5951117,23.3657478 C65.684378,23.4375995 65.7823564,23.5138019 65.8868644,23.5900066 C66.0153238,23.679273 66.1416042,23.7598332 66.2787721,23.8621646 C66.4333582,23.9427177 66.5857665,24.0428774 66.7403514,24.1386769 C67.0712959,24.3150342 67.428366,24.4979247 67.8268056,24.6546873 C67.9683278,24.7156563 68.1229138,24.7657308 68.2862084,24.8158053 C68.4386167,24.8767625 68.5997336,24.9268488 68.7586739,24.9725679 C69.0460723,25.0487703 69.3465348,25.1293305 69.6578834,25.188117 C69.9060913,25.2338408 70.1760715,25.2795647 70.4416976,25.3056925 C70.7116778,25.3405337 70.9838358,25.3644803 71.2712343,25.3818949 C71.4171119,25.3905489 71.558634,25.3905489 71.7001561,25.3971402 L71.9069956,25.3971402 C72.4164752,25.3971402 72.8954726,25.3818949 73.3396337,25.3405337 L73.4310813,25.3296273 C73.6074398,25.3209733 73.7750886,25.3013181 73.9362067,25.2795528 C74.199655,25.2447117 74.4282681,25.2098824 74.6590577,25.1641586 C74.8049341,25.1489134 74.9464562,25.1140841 75.0814463,25.0836055 C75.2991732,25.0378817 75.4907722,24.9878072 75.6932574,24.9377291 C75.8282475,24.9007186 75.9654154,24.8615267 76.1025821,24.8201536 C76.2615224,24.7809618 76.4052222,24.728706 76.5554528,24.6742773 L76.696975,24.6285534 C76.7688266,24.6046068 76.864625,24.5675963 76.9734872,24.5218725 C77.1215413,24.4674354 77.2978998,24.4021228 77.4960308,24.3063233 C77.6266666,24.2605995 77.7573025,24.1952798 77.8944692,24.1386745 C78.0055127,24.0777055 78.1361463,24.0189248 78.2646044,23.9579617 C78.3146789,23.9361845 78.3734667,23.8969927 78.4235447,23.8817593 L78.4235447,20.7203749 C78.3865342,20.7465028 78.3495118,20.7726307 78.3146825,20.7965773 L78.0991333,20.9185047 C77.8835842,21.0600256 77.6767447,21.175421 77.4655498,21.2929929 C77.2369379,21.4127426 77.0083248,21.5324923 76.7884214,21.64571 C76.3986914,21.8155365 76.0198477,21.9722991 75.6649542,22.109467 C74.9704075,22.3511428 74.3455325,22.5035511 73.7903315,22.6037049 C73.7184798,22.6146113 73.6575179,22.6298328 73.5922005,22.6407155 C73.4376145,22.6581301 73.2895604,22.6799073 73.1458617,22.6951407 C72.9281349,22.7212685 72.7300039,22.7299818 72.5471146,22.7343325 C72.4164787,22.7408526 72.3185015,22.7517471 72.2096381,22.7517471 C71.9875581,22.7517471 71.7502365,22.7408407 71.5172692,22.7299699 C71.2429335,22.7060233 70.9685989,22.6755329 70.6790227,22.6298209 C70.2239754,22.549256 69.7667504,22.43169 69.3269424,22.2749262 C69.25074,22.2509796 69.1897757,22.2248517 69.1244572,22.1943731 C69.0787334,22.1813092 69.0395416,22.1660639 68.9894671,22.1399361 C68.9197966,22.1094575 68.8457684,22.085499 68.7739179,22.0484884 C68.6149776,21.9722861 68.4669247,21.8917247 68.3123386,21.8068114 C68.2470189,21.7610876 68.1751708,21.7218958 68.0946129,21.6805309 C68.0184106,21.6304564 67.9465589,21.5847326 67.8681776,21.5281226 C67.7810925,21.4736856 67.6896413,21.3974867 67.6003738,21.3321682 C67.5132888,21.2668485 67.4283696,21.1862918 67.3478117,21.1253287 L67.2498322,21.0295304 L67.1932257,20.9838066 L67.1649165,20.95986 L67.1300754,20.9184987 C66.984199,20.7813309 66.8557408,20.6354545 66.7316369,20.4939324 C66.6684985,20.4198994 66.6118873,20.3328144 66.5422145,20.2522554 C66.4899587,20.1717023 66.4377029,20.099847 66.3941604,20.0192892 C66.3353726,19.9430868 66.2809474,19.8734116 66.2504617,19.7928538 C66.1829726,19.6861728 66.1241801,19.5794812 66.0610393,19.464087 C66.0240287,19.3682887 65.9826556,19.2768422 65.9391131,19.1810427 C65.8737934,19.0242801 65.8171869,18.8588079 65.7714643,18.7129315 C65.7300912,18.601888 65.6974432,18.4690779 65.6647833,18.3536825 C65.5907622,18.0292711 65.5450336,17.7331629 65.5167292,17.4740689 C65.4993146,17.3695573 65.4993146,17.2781156 65.4927826,17.1975566 C65.4906487,17.071275 65.4906487,16.9645893 65.4906487,16.879676 L65.4906487,16.681545 C65.4927826,16.5008323 65.5167766,16.2678661 65.5450858,16.0109486 C65.5755644,15.8498318 65.6038736,15.6821817 65.6517668,15.501469 C65.6800759,15.3795428 65.7127239,15.2685016 65.7410331,15.1422212 C65.7824062,15.0311777 65.8172355,14.9201401 65.8738467,14.7938584 C65.8977933,14.724188 65.9282719,14.6436278 65.9674638,14.567423 C66.0153688,14.4607421 66.0610808,14.3540516 66.1198721,14.2495436 C66.1612452,14.164628 66.2113197,14.0840713 66.2548622,14.0013358 C66.3637245,13.8249773 66.4747656,13.6442645 66.6119335,13.4722603 C66.655476,13.3960579 66.7055505,13.3416244 66.7578099,13.2741293 C66.8231296,13.1979269 66.8928,13.1086582 66.9690048,13.0368077 C67.0038459,12.9976159 67.0452072,12.958424 67.084399,12.9105272 C67.6657279,12.3313748 68.3123754,11.9068085 68.9807953,11.5976376 C69.0853069,11.554095 69.1963445,11.5018393 69.2964982,11.4626474 C69.4118924,11.4169236 69.5120474,11.3820943 69.6252651,11.3407201 C69.7297766,11.3058789 69.8517004,11.279751 69.9736266,11.240571 C70.0781382,11.2057299 70.2022397,11.179602 70.3067477,11.153486 C70.4199607,11.1295394 70.5375374,11.1034115 70.6442231,11.0838156 C70.7596173,11.0642197 70.8771904,11.0489744 71.0034721,11.0272091 C71.1253983,11.0141452 71.2451479,11.0032625 71.3692518,10.992368 C71.5978649,10.972772 71.8199449,10.9575268 72.0376718,10.9575268 C72.1247568,10.9575268 72.1922566,10.9575268 72.2597517,10.9684332 C72.431756,10.9684332 72.5841643,10.9728195 72.7387504,10.9814971 C72.8454313,10.9924035 72.9542995,10.9924035 73.0609852,11.0032743 C73.2547607,11.0228703 73.4550694,11.0489981 73.6336045,11.0838274 C73.7925448,11.0990726 73.9536628,11.1295512 74.1017169,11.1534978 C74.3259745,11.1992216 74.532814,11.2492962 74.724413,11.3059062 C74.8376259,11.3363848 74.9464941,11.3603432 75.0531798,11.3973538 C75.1990562,11.4408963 75.3340464,11.4822694 75.4363778,11.512748 C75.6062044,11.5780677 75.7085358,11.612897 75.7085358,11.612897 C75.8587676,11.6695035 76.0133525,11.7348244 76.1614066,11.7957875 C76.368246,11.8719899 76.5554908,11.9525501 76.7383813,12.0418176 C76.8886119,12.1136693 77.0323117,12.1789855 77.1716561,12.2399486 C77.2826996,12.3052683 77.389383,12.3553428 77.487359,12.4054209 C77.6593633,12.4968685 77.8074173,12.5839559 77.9293435,12.6383882 L78.2428699,12.8147467 L78.2428699,9.72085615 C78.2428699,9.72085615 78.0512709,9.63594051 77.7225041,9.50966124 C77.5722723,9.45740547 77.3980915,9.3964483 77.197784,9.32677195 C77.0867405,9.28104814 76.9735251,9.23968689 76.845067,9.20049031 C76.7470874,9.17001173 76.6512903,9.1308199 76.5467823,9.10469201 C76.4248549,9.0589682 76.3138149,9.01977637 76.1810025,8.97405612 C76.0895549,8.9588109 75.998112,8.92398162 75.8957806,8.89350303 L75.8086955,8.87390712 C75.7237799,8.84777923 75.6323382,8.82600203 75.5408929,8.79117275 C75.4254987,8.77157684 75.3035713,8.7367357 75.1990621,8.69972514 C75.1228597,8.69107117 75.0422995,8.67141598 74.966096,8.66053331 C74.8441686,8.63005472 74.7244189,8.59521359 74.5981385,8.5690857 C74.4718568,8.54948978 74.3455752,8.52336189 74.2084085,8.49941528 L74.2083078,8.4994295 Z" id="path3128" fill="#000000"></path>
                <g id="g3130" transform="translate(43.103936, 21.337005) scale(1, -1) translate(-43.103936, -21.337005) translate(39.838042, 18.071111)" fill="#000000">
                    <path d="M0,6.53178739 L0,1.98784063 L2.94801338,1.98784063 C2.94801338,1.98784063 3.00679946,1.99437242 3.0917127,1.99437242 C3.20493035,1.99872694 3.34209788,2.00743599 3.51845614,2.0183223 C3.82980467,2.04880398 4.25654812,2.09888102 4.67022799,2.2447576 C5.03818534,2.3666843 5.39525639,2.55392887 5.66959146,2.8304412 C5.77627732,2.93712706 5.86554508,3.04816745 5.94174927,3.15920784 C6.16383004,3.52934245 6.22479339,3.89729981 6.24003422,4.10849427 C6.24221149,4.19558477 6.24221149,4.25001633 6.24221149,4.25001633 C6.24221149,4.25001633 6.24656601,4.28920705 6.24221149,4.35670219 C6.24221149,4.44814721 6.2356797,4.61797369 6.1834254,4.79868647 C6.13334836,5.01858998 6.02883976,5.26462064 5.84159519,5.49758772 C5.80458173,5.53242392 5.76103648,5.57814643 5.72184576,5.62386895 C5.64346431,5.70442766 5.55855107,5.78063184 5.46275152,5.86119055 C5.29727958,5.96569915 5.11221227,6.07673954 4.91190412,6.15947551 C4.65063262,6.27487042 4.3501704,6.35978366 4.01704925,6.42510153 C3.85810909,6.45558321 3.67521904,6.48606488 3.49668352,6.49259667 C3.38782039,6.51219203 3.27895727,6.51219203 3.1613851,6.52090108 C3.05905376,6.53178739 2.94801338,6.53178739 2.84350478,6.53178739 L0,6.53178739 Z" id="path3132"></path>
                </g>
                <g id="g3134" transform="translate(43.103936, 13.336218) scale(1, -1) translate(-43.103936, -13.336218) translate(39.838042, 11.158956)" fill="#000000">
                    <path d="M0,4.35452493 L0,0.0522542991 L1.42175239,0.0522542991 L1.64601042,0.0522542991 C1.75269628,0.0522542991 1.85502762,0.0522542991 1.96389074,0.0674951364 C2.2621757,0.089267761 2.66932378,0.13281301 3.06994007,0.239498871 C3.15485331,0.265626021 3.23758928,0.289575908 3.30943895,0.315703057 C3.62949653,0.435452493 3.92995875,0.59221539 4.18034393,0.829536999 C4.36541124,1.01678157 4.4895152,1.22362151 4.57007391,1.42175239 C4.67458251,1.67431484 4.71159597,1.90510466 4.72030502,2.07710839 C4.73554586,2.23387129 4.73554586,2.31443 4.73554586,2.31443 C4.73554586,2.31443 4.73554586,2.39063419 4.73119134,2.50167457 C4.72030502,2.68891914 4.68546882,2.99591315 4.53741498,3.2833118 C4.46338805,3.42918838 4.36541124,3.56635592 4.23042097,3.69916893 C4.06712628,3.84940004 3.87770445,3.98003578 3.67086452,4.07148081 C3.2658937,4.25437086 2.79995953,4.31751147 2.4189386,4.33928409 C2.24693486,4.35452493 2.09017197,4.35452493 1.96389074,4.35452493 L0,4.35452493 Z" id="path3136"></path>
                </g>
                <path d="M30.4017867,5.27708195 L54.98308,5.27708195 L54.98308,28.4148497 L30.4017867,28.4148497 L30.4017867,5.27708195 Z M36.8486607,8.52337967 L36.8486607,25.1881467 L43.1257082,25.1881467 C43.1257082,25.1881467 46.1847624,25.2643491 47.8699638,23.5835043 C49.2438153,22.2052973 49.1458393,20.6137176 49.1458393,20.6137176 C49.1458393,20.6137176 49.2438189,18.9611761 47.9722952,17.6765908 C46.8836632,16.601024 45.5032785,16.30927 45.5032785,16.30927 C45.5032785,16.30927 46.1281535,16.0218716 46.607151,15.5319879 C46.8314086,15.3055525 47.6326422,14.5870557 47.6326422,12.8365369 C47.6326422,11.0642445 46.4525649,10.0431088 46.4525649,10.0431088 C46.4525649,10.0431088 45.1614489,8.52337967 42.2569808,8.52337967 L36.8486607,8.52337967 Z" id="path3138" fill="#000000"></path>
                <g id="g3140" transform="translate(14.777533, 21.337005) scale(1, -1) translate(-14.777533, -21.337005) translate(11.511640, 18.071111)" fill="#000000">
                    <path d="M0,6.53178739 L0,1.98784063 L2.9523679,1.98784063 C2.9523679,1.98784063 3.00897673,1.99437242 3.10477627,1.99437242 C3.20057582,1.99872694 3.34645241,2.00743599 3.5206334,2.0183223 C3.83633646,2.04880398 4.25437086,2.09888102 4.66805072,2.2447576 C5.03600808,2.3666843 5.39743365,2.55392887 5.68047777,2.8304412 C5.78280911,2.93712706 5.86554508,3.04816745 5.94174927,3.15920784 C6.16383004,3.52934245 6.22479339,3.89729981 6.24003422,4.10849427 C6.24874327,4.19558477 6.24874327,4.25001633 6.24874327,4.25001633 L6.24874327,4.35670219 C6.24003422,4.44814721 6.23132517,4.61797369 6.18995719,4.79868647 C6.1311711,5.01858998 6.02883976,5.26462064 5.84377245,5.49758772 C5.81111352,5.53242392 5.76974553,5.57814643 5.73055481,5.62386895 C5.64346431,5.70442766 5.55855107,5.78063184 5.46710605,5.86119055 C5.29945684,5.96569915 5.11438953,6.07673954 4.91625864,6.15947551 C4.65063262,6.27487042 4.35452493,6.35978366 4.02358103,6.42510153 C3.86681814,6.45558321 3.69045988,6.48606488 3.50321531,6.49259667 C3.39870671,6.51219203 3.28113453,6.51219203 3.17009415,6.52090108 C3.06994007,6.53178739 2.95672243,6.53178739 2.85656835,6.53178739 L0,6.53178739 Z" id="path3142"></path>
                </g>
                <g id="g3144" transform="translate(14.777533, 13.336218) scale(1, -1) translate(-14.777533, -13.336218) translate(11.511640, 11.158956)" fill="#000000">
                    <path d="M0,4.35452493 L0,0.0522542991 L1.42828418,0.0522542991 L1.65036495,0.0522542991 C1.7461645,0.0522542991 1.87244572,0.0522542991 1.97259979,0.0674951364 C2.2621757,0.089267761 2.67585557,0.13281301 3.07864912,0.239498871 C3.15920784,0.265626021 3.2310575,0.289575908 3.31597073,0.315703057 C3.63167379,0.435452493 3.9386678,0.59221539 4.17381214,0.829536999 C4.36323398,1.01678157 4.48733794,1.22362151 4.57442844,1.42175239 C4.67022799,1.67431484 4.71377324,1.90510466 4.72465955,2.07710839 C4.73990039,2.23387129 4.73990039,2.31443 4.73990039,2.31443 L4.73990039,2.50167457 C4.72465955,2.68891914 4.68982335,2.99591315 4.5417695,3.2833118 C4.46774258,3.42918838 4.36323398,3.56635592 4.24130728,3.69916893 C4.07365807,3.84940004 3.87770445,3.98003578 3.6599782,4.07148081 C3.26371643,4.25437086 2.80649132,4.31751147 2.41240681,4.33928409 C2.24911213,4.35452493 2.09670375,4.35452493 1.97259979,4.35452493 L0,4.35452493 Z" id="path3146"></path>
                </g>
                <path d="M2.07560233,5.27708195 L26.6568956,5.27708195 L26.6568956,28.4148497 L2.07560233,28.4148497 L2.07560233,5.27708195 Z M8.52465288,8.52337967 L8.52465288,25.1881467 L14.7973461,25.1881467 C14.7973461,25.1881467 17.8564003,25.2643491 19.5459559,23.5835043 C20.917631,22.2052973 20.8174772,20.6137176 20.8174772,20.6137176 C20.8174772,20.6137176 20.9176262,18.9611761 19.6461097,17.6765908 C18.5553011,16.601024 17.1749176,16.30927 17.1749176,16.30927 C17.1749176,16.30927 17.8019691,16.0218716 18.2809666,15.5319879 C18.507402,15.3055525 19.310812,14.5870557 19.310812,12.8365369 C19.310812,11.0642445 18.1307348,10.0431088 18.1307348,10.0431088 C18.1307348,10.0431088 16.8483273,8.52337967 13.9395049,8.52337967 L8.52465288,8.52337967 L8.52465288,8.52337967 Z" id="path3148" fill="#000000"></path>
                <g id="g3150" transform="translate(9.173042, 43.029724) scale(1, -1) translate(-9.173042, -43.029724) translate(0.463992, 32.143412)" fill="#000000">
                    <path d="M4.35452493,17.4180997 L6.12463931,17.4180997 C8.78089952,17.4180997 9.85646718,16.3229367 9.88041706,14.5310497 C9.90436695,12.9285845 9.0661209,11.4153871 6.12463931,11.4153871 L4.35452493,11.4153871 L4.35452493,17.4180997 Z M1.61117422,19.7695432 L1.61117422,0.646646952 L4.35452493,0.646646952 L4.35452493,8.94201694 L5.50629677,8.94201694 C6.91280832,8.94201694 8.05587112,8.50220992 10.5858501,4.57007391 L13.1092973,0.646646952 L16.3839,0.646646952 C15.0710108,2.46466111 14.592013,3.11566259 13.7733624,4.42855185 C12.318951,6.81700878 11.2499152,8.58276863 9.51899149,9.73018595 C11.5634409,10.5466594 12.7152128,12.1970243 12.7152128,14.4134775 C12.7152128,17.7250937 10.3006287,19.7695432 6.43381058,19.7695432 L1.61117422,19.7695432 Z" id="path3152"></path>
                </g>
                <g id="g3154" transform="translate(25.836067, 43.687475) scale(1, -1) translate(-25.836067, -43.687475) translate(14.949755, 33.889794)" fill="#000000">
                    <path d="M10.8863123,15.2408373 L13.9736705,8.3236744 L8.02756671,8.3236744 L10.8863123,15.2408373 Z M11.8987394,19.4516629 L9.95444399,19.4516629 L1.74180997,0.217726246 L4.54394676,0.217726246 L6.96288536,5.85030424 L15.0906061,5.85030424 L17.644535,0.217726246 L20.44014,0.217726246 L11.8987394,19.4516629 Z" id="path3156"></path>
                </g>
                <g id="g3158" transform="translate(45.869277, 43.145772) scale(1, -1) translate(-45.869277, -43.145772) translate(36.071596, 32.259460)" fill="#000000">
                    <path d="M4.35452493,17.4180997 L8.57841411,17.4180997 C13.9431888,17.4180997 16.3795455,14.1609151 16.3795455,10.3202241 C16.3795455,7.96660336 14.9512613,3.2310575 8.72864522,3.2310575 L4.35452493,3.2310575 L4.35452493,17.4180997 Z M1.6068197,0.764219125 L9.06394364,0.764219125 C15.3736503,0.764219125 19.2099867,5.41920627 19.2099867,10.3202241 C19.2099867,14.8380437 16.0986787,19.8871154 9.03563923,19.8871154 L1.6068197,19.8871154 L1.6068197,0.764219125 Z" id="path3160"></path>
                </g>
                <polygon id="path3162" fill="#000000" points="58.2511513 53.2683009 61.3951176 53.2683009 61.3951176 34.1454046 58.2511513 34.1454046"></polygon>
                <g id="g3164" transform="translate(74.814239, 43.711860) scale(1, -1) translate(-74.814239, -43.711860) translate(62.839296, 32.825547)" fill="#000000">
                    <path d="M4.35452493,10.8863123 C4.35452493,15.0971379 7.52679634,18.1757871 11.7898762,18.1757871 C16.0790833,18.1757871 19.2470002,15.0971379 19.2470002,10.8863123 C19.2470002,6.7168547 16.0790833,3.60119212 11.7898762,3.60119212 C7.52679634,3.60119212 4.35452493,6.7168547 4.35452493,10.8863123 M1.52408373,10.8863123 C1.52408373,5.70660492 5.48016962,1.07774492 11.7332674,1.07774492 C18.2062687,1.07774492 22.0774414,5.73708659 22.0774414,10.8863123 C22.0774414,16.2162508 18.0995829,20.705766 11.7898762,20.705766 C5.59338727,20.705766 1.52408373,16.1923009 1.52408373,10.8863123" id="path3166"></path>
                </g>
                <g id="g3168" transform="translate(158.868760, 61.136056) scale(1, -1) translate(-158.868760, -61.136056) translate(120.766666, 29.565750)" fill="#A7BE0F">
                    <path d="M47.8997742,45.7225118 C52.0060912,45.7225118 55.3481891,49.0646096 55.3481891,53.1687494 C55.3481891,57.2837754 52.0060912,60.6193415 47.8997742,60.6193415 C43.7934572,60.6193415 40.4448275,57.2837754 40.4448275,53.1687494 C40.4448275,49.0646096 43.7934572,45.7225118 47.8997742,45.7225118 M74.6844571,28.0235452 C74.6322028,33.0268943 73.9920876,37.7559084 72.8163659,42.0777744 C72.1544781,44.5010675 71.307523,46.7828386 70.3146913,48.8730105 C68.0699337,53.5671884 65.0217662,57.2685346 61.2659885,59.959631 C61.4009788,59.6961822 61.5577417,59.4501516 61.6905547,59.180171 C62.5266235,57.4100567 62.9729623,55.4418114 62.9729623,53.4321981 C62.9729623,53.2101174 62.9686077,52.9771503 62.9511896,52.7441832 C62.7944267,49.7656881 61.7253909,46.9352469 59.8377043,44.5511445 C58.8840634,43.3492957 57.7584187,42.315096 56.4912519,41.4572546 C54.1071495,39.8460804 51.3463807,38.996948 48.5137622,38.996948 C47.2335319,38.996948 45.948947,39.1841926 44.670894,39.5630362 C38.6594723,41.3549232 33.7671636,46.9287152 29.0250859,52.310908 L28.5047202,52.9074779 C24.7837786,57.1378989 20.5620667,61.9387626 16.7039576,62.0193213 C16.3185822,62.0345621 15.9092568,61.9997259 15.5282359,61.9082809 C14.2741327,61.6252368 13.057043,60.8479541 11.7855217,59.5350648 C11.3304739,59.0713079 10.8601852,58.524815 10.4073146,57.9238906 L9.21635201,56.2190941 C8.06458017,54.451157 6.36631545,51.5183844 4.8204591,47.5710076 C4.23695276,46.0948236 3.72747334,44.5968671 3.30943895,43.1119741 C2.35362072,39.8460804 1.77446891,36.5693004 1.56327445,33.3839654 C1.52190646,32.5304785 1.48053848,31.6682825 1.48053848,30.825682 C1.48053848,30.6079557 1.49142479,30.3793432 1.49142479,30.1637942 C1.52190646,28.8160687 1.61117422,27.466166 1.77446891,26.155454 L2.0705766,24.2263994 C2.48425647,21.8444743 3.15703057,19.4952081 4.04970818,17.2482732 C4.61579642,15.8395844 5.27986148,14.4330729 6.03537155,13.0744611 L6.84966771,11.6657723 C7.32866546,10.8819578 7.84032213,10.1155614 8.36939691,9.36876038 C9.00080303,8.4630192 9.68446344,7.57687338 10.4182009,6.70379113 L12.053325,4.8552953 C13.5012045,3.30508442 15.1080242,1.79406427 16.9347474,0.276512333 C15.197292,3.35516146 12.8502031,7.66178661 11.4262734,12.3712053 C10.6032682,15.0775426 10.1939429,17.5813944 10.1939429,19.8849381 C10.1939429,25.160445 12.3450782,29.349498 16.6146899,32.4041973 C20.3704676,35.0887619 24.4920255,35.8638673 28.868323,34.71645 C33.2881658,33.5603236 38.0128254,30.435952 43.3492957,25.1756859 C44.9060383,23.6298295 46.5346307,21.8945513 48.3156313,19.8631655 C50.4798302,17.4050361 52.526457,14.9207797 54.501234,12.5236137 C57.2707119,9.16627498 59.8703632,6.00053535 62.0541575,3.86028635 C62.7182226,3.22017118 63.3060834,2.69980546 63.8547536,2.27523928 C64.7082404,1.61335149 65.418028,1.23015329 65.9732299,1.12346743 C66.9225164,0.947109172 67.8870436,1.79406427 68.3747504,2.31660726 C68.6926308,2.65843747 69.0192201,3.07211734 69.3479868,3.54676055 L70.1775238,4.92061317 L70.6717623,5.9047358 C71.1507601,6.91934011 71.6058079,8.07111196 72.0194878,9.3273924 C72.7466935,11.4828822 73.3323771,13.8974663 73.7808931,16.4905859 L74.1249006,18.7484071 C74.3404496,20.3835312 74.501567,22.0665551 74.5951893,23.7365154 C74.6648617,24.9122371 74.6953434,26.1053769 74.6953434,27.2854532 C74.6953434,27.5271293 74.6844571,27.7753373 74.6844571,28.0235452" id="path3170"></path>
                </g>
                <g id="g3172" transform="translate(158.740090, 61.160006) scale(1, -1) translate(-158.740090, -61.160006) translate(98.865373, 0.196657)" fill="#A7BE0F">
                    <path d="M119.749436,60.963349 C119.529532,93.9684707 92.5946181,120.546314 59.5916737,120.32641 C26.586552,120.106507 0.00870904986,93.1715926 0.228612559,60.1664709 C0.45069333,27.1635265 27.38343,0.585683603 60.3863745,0.805587112 C73.8788699,0.897032135 86.2936205,5.45404247 96.2458872,13.0635748 C96.4505499,13.2138059 96.5898947,13.4445957 96.5877174,13.7167535 C96.5855402,14.1696241 96.2154056,14.533227 95.762535,14.5310497 C95.4381229,14.5288724 95.2465238,14.3568687 95.2465238,14.3568687 C85.9779175,7.3547926 74.460199,3.16356236 61.9496489,3.08082639 C31.0673581,2.87398645 5.86554508,27.7426783 5.66088241,58.6249691 C5.45404247,89.5094372 30.3227343,114.71125 61.2050251,114.91809 C92.0873159,115.122753 117.289129,90.2540609 117.495969,59.3717701 C117.537337,53.0424682 116.52491,46.952665 114.626337,41.2678328 L114.628514,41.2678328 C114.60021,41.1763877 114.578437,41.0805882 114.580614,40.9804341 C114.582792,40.4774865 114.994294,40.0725157 115.497242,40.0768702 C116.100344,40.0790474 116.361615,40.6843264 116.361615,40.6843264 C118.597664,47.0245147 119.797335,53.8524098 119.749436,60.963349" id="path3174"></path>
                </g>
                <g id="g3176" transform="translate(215.215231, 97.365052) scale(1, -1) translate(-215.215231, -97.365052) translate(206.506181, 86.478740)" fill="#000000">
                    <path d="M8.70904986,0 C7.22851138,0 3.55764687,0.346184732 1.46529764,3.55111508 C0.413679868,5.1622893 0.0914450235,6.57533264 0.0914450235,9.59955021 L0.0914450235,19.9263061 L0.0914450235,20.3595813 L0.524720254,20.3595813 L2.64101937,20.3595813 L3.0742946,20.3595813 L3.0742946,19.9263061 L3.0742946,9.4841553 C3.0742946,6.82789509 3.43572017,5.54984202 4.51128783,4.42419733 C5.52153761,3.36169325 7.0129624,2.7781869 8.70904986,2.7781869 C12.0729204,2.7781869 13.3879869,4.96851294 13.7102217,5.64128705 C14.0847109,6.40115165 14.2871963,7.76629521 14.2871963,9.4841553 L14.2871963,19.9263061 L14.2871963,20.3595813 L14.7204715,20.3595813 L16.8345934,20.3595813 L17.2678686,20.3595813 L17.2678686,19.9263061 L17.2678686,9.59955021 C17.2678686,6.82354056 16.9848245,5.39525639 16.1444012,3.9386678 C15.6153264,3.01550851 13.5142681,0 8.70904986,0" id="path3178"></path>
                </g>
                <g id="g3180" transform="translate(232.396221, 97.114881) scale(1, -1) translate(-232.396221, -97.114881) translate(225.864434, 86.228569)" fill="#000000">
                    <polygon id="path3182" points="13.0635748 0 12.6302996 0 1.43046144 0 0.997186209 0 0.997186209 0.43327523 0.997186209 19.6759209 0.997186209 20.1113734 1.43046144 20.1113734 3.54458329 20.1113734 3.97785852 20.1113734 3.97785852 19.6759209 3.97785852 2.72593261 12.6302996 2.72593261 13.0635748 2.72593261 13.0635748 2.29265738 13.0635748 0.43327523"></polygon>
                </g>
                <g id="g3184" transform="translate(246.218792, 97.364400) scale(1, -1) translate(-246.218792, -97.364400) translate(239.687005, 86.478088)" fill="#000000">
                    <path d="M6.53178739,0 C4.77038206,0 2.93930433,0.631406115 1.23450782,1.82454595 L1.05161777,1.95300443 L1.05161777,2.17943973 L1.05161777,4.77909111 L1.05161777,5.82417709 L1.78970975,5.08390785 C2.65190568,4.22171192 4.40677923,2.7781869 6.47735583,2.7781869 C9.05958911,2.7781869 9.62567736,4.78780016 9.62567736,5.5629056 C9.62567736,6.42074701 9.62567736,7.48760562 5.55637381,9.40577385 C2.28394833,10.9429211 0.886145823,12.6368313 0.886145823,15.073188 C0.886145823,18.2824729 3.46402458,20.6077892 7.01731692,20.6077892 C9.3448105,20.6077892 10.9080849,19.6802754 11.5765045,19.2861909 L11.7898762,19.1577324 L11.7898762,18.913879 L11.7898762,16.5145358 L11.7898762,15.6501626 L11.0975068,16.1661738 C10.3703011,16.7061349 8.85928097,17.8317796 6.98683525,17.8317796 C3.86681814,17.8317796 3.83198194,15.3279277 3.83198194,15.3018006 C3.83198194,13.6122449 5.63910978,12.7021492 7.23286591,11.9030939 C10.8710715,10.1003206 12.5823998,8.90064895 12.5823998,5.70878218 C12.5823998,2.0009042 9.46455993,0 6.53178739,0" id="path3186"></path>
                </g>
                <g id="g3188" transform="translate(262.177470, 97.114881) scale(1, -1) translate(-262.177470, -97.114881) translate(252.379789, 86.228569)" fill="#000000">
                    <polygon id="path3190" points="10.8863123 0 10.4530371 0 8.33673798 0 7.90564001 0 7.90564001 0.43327523 7.90564001 17.3832635 1.3978025 17.3832635 0.964527272 17.3832635 0.964527272 17.8165387 0.964527272 19.6780982 0.964527272 20.1113734 1.3978025 20.1113734 17.3985044 20.1113734 17.8317796 20.1113734 17.8317796 19.6780982 17.8317796 17.8165387 17.8317796 17.3832635 17.3985044 17.3832635 10.8863123 17.3832635 10.8863123 0.43327523"></polygon>
                </g>
                <g id="g3192" transform="translate(277.275695, 97.114881) scale(1, -1) translate(-277.275695, -97.114881) translate(270.743908, 86.228569)" fill="#000000">
                    <polygon id="path3194" points="13.0635748 0 12.6302996 0 1.68520115 0 1.25192592 0 1.25192592 0.43327523 1.25192592 19.6780982 1.25192592 20.1113734 1.68520115 20.1113734 12.4082188 20.1113734 12.8393168 20.1113734 12.8393168 19.6780982 12.8393168 17.8165387 12.8393168 17.3832635 12.4082188 17.3832635 4.23259823 17.3832635 4.23259823 11.5024776 12.1513018 11.5024776 12.584577 11.5024776 12.584577 11.0713796 12.584577 9.20982022 12.584577 8.77654499 12.1513018 8.77654499 4.23259823 8.77654499 4.23259823 2.72593261 12.6302996 2.72593261 13.0635748 2.72593261 13.0635748 2.29265738 13.0635748 0.43327523"></polygon>
                </g>
                <g id="g3196" transform="translate(293.411828, 98.643756) scale(1, -1) translate(-293.411828, -98.643756) translate(284.702779, 87.757444)" fill="#000000">
                    <path d="M4.35452493,13.0635748 L6.40115165,13.0635748 C7.88386738,13.0635748 10.3746556,13.446773 10.3746556,16.0115882 C10.3746556,17.8818566 8.9616123,18.9117018 6.40115165,18.9117018 L4.35452493,18.9117018 L4.35452493,13.0635748 Z M17.3723772,1.52843825 L16.5341312,1.52843825 L13.9910886,1.52843825 L13.7515897,1.52843825 L13.6253085,1.73092366 L11.7985853,4.63974631 C10.9886437,5.90909033 10.1612839,7.09352111 9.33610145,8.15820245 C8.20610223,9.59737294 7.26987937,10.3311104 5.30381136,10.3311104 L4.35452493,10.3311104 L4.35452493,1.96171348 L4.35452493,1.52843825 L3.9212497,1.52843825 L1.80495058,1.52843825 L1.37385262,1.52843825 L1.37385262,1.96171348 L1.37385262,21.2065364 L1.37385262,21.6398116 L1.80495058,21.6398116 L6.71467744,21.6398116 C13.0047887,21.6398116 13.4946728,17.3549591 13.4946728,16.0420698 C13.4946728,13.8756937 12.4299914,12.1883153 10.476987,11.223788 C11.6723041,10.2004746 12.7260991,8.53922339 14.7008762,5.43662437 C15.42155,4.28267527 15.8417617,3.69045988 16.6038036,2.61706948 L16.8890249,2.21209866 L17.3723772,1.52843825 Z" id="path3198"></path>
                </g>
            </g>
        </g>
    </g>
</svg>