<?xml version="1.0" encoding="utf-8"?>
<!-- Generator: Adobe Illustrator 12.0.0, SVG Export Plug-In  -->
<!DOCTYPE svg PUBLIC "-//W3C//DTD SVG 1.1//EN" "http://www.w3.org/Graphics/SVG/1.1/DTD/svg11.dtd" [
	<!ENTITY ns_flows "http://ns.adobe.com/Flows/1.0/">
	<!ENTITY ns_svg "http://www.w3.org/2000/svg">
	<!ENTITY ns_xlink "http://www.w3.org/1999/xlink">
]>
<svg  version="1.1" xmlns="&ns_svg;" xmlns:xlink="&ns_xlink;" xmlns:a="http://ns.adobe.com/AdobeSVGViewerExtensions/3.0/"
	 width="39" height="22" viewBox="-0.523 -0.847 39 22" enable-background="new -0.523 -0.847 39 22" xml:space="preserve">
<defs>
</defs>
<rect x="21.54" y="3.278" fill="#FFFFFF" stroke="#FFFFFF" width="11.625" height="13.75"/>
<path d="M12.297,1.188c-0.018-0.004-0.038-0.007-0.056-0.011l-0.023-0.002c-0.032-0.005-0.064-0.009-0.097-0.011
	c-0.023-0.003-0.045-0.004-0.067-0.005c-0.041-0.003-0.079-0.004-0.116-0.004c-0.018,0-0.028,0-0.045,0
	c-0.032,0-0.063,0.002-0.093,0.004c-0.017,0.001-0.034,0.002-0.051,0.004c-0.025,0.002-0.049,0.004-0.074,0.008l-0.02,0.002
	l-0.024,0.003l-0.027,0.005c-0.012,0.002-0.024,0.004-0.035,0.007c-0.018,0.002-0.034,0.006-0.049,0.009
	c-0.1,0.021-0.192,0.049-0.276,0.081c-0.044,0.018-0.087,0.037-0.126,0.056c-0.034,0.017-0.065,0.034-0.097,0.052
	c-0.029,0.017-0.058,0.034-0.086,0.052c-0.015,0.011-0.031,0.021-0.047,0.033C10.875,1.48,10.863,1.489,10.85,1.5
	c-0.027,0.02-0.052,0.042-0.077,0.062c-0.022,0.02-0.043,0.041-0.064,0.06c-0.017,0.017-0.036,0.035-0.051,0.055
	c-0.018,0.019-0.035,0.038-0.05,0.058c-0.019,0.021-0.034,0.043-0.05,0.065c-0.014,0.017-0.025,0.034-0.036,0.052
	c-0.009,0.012-0.016,0.024-0.022,0.036c-0.045,0.071-0.082,0.147-0.115,0.229c-0.039,0.102-0.067,0.212-0.083,0.327
	c-0.004,0.037-0.007,0.074-0.01,0.113c-0.002,0.029-0.003,0.059-0.003,0.088c0,0.023,0,0.045,0.001,0.067
	c0.002,0.023,0.005,0.045,0.007,0.068l0.001,0.016c0.004,0.027,0.008,0.053,0.013,0.078c0.002,0.011,0.004,0.021,0.006,0.031
	c0.004,0.021,0.01,0.043,0.014,0.063c0.008,0.027,0.016,0.053,0.025,0.08c0.011,0.032,0.023,0.063,0.035,0.093
	c0.02,0.048,0.043,0.094,0.066,0.138c0.014,0.026,0.029,0.051,0.043,0.075c0.013,0.019,0.025,0.037,0.037,0.055
	c0.016,0.024,0.033,0.047,0.05,0.068c0.017,0.023,0.036,0.044,0.055,0.065c0.021,0.025,0.044,0.049,0.066,0.071l0.01,0.011
	c0.02,0.018,0.039,0.037,0.061,0.057c0.015,0.011,0.031,0.026,0.049,0.039c0.015,0.012,0.033,0.026,0.05,0.038
	c0.022,0.016,0.043,0.031,0.066,0.046c0.027,0.015,0.053,0.032,0.08,0.048c0.055,0.031,0.117,0.061,0.184,0.088
	c0.025,0.01,0.051,0.019,0.078,0.028c0.027,0.01,0.054,0.018,0.082,0.026c0.049,0.013,0.1,0.026,0.152,0.037
	c0.043,0.008,0.089,0.015,0.135,0.02c0.045,0.006,0.093,0.01,0.141,0.012c0.025,0.002,0.049,0.002,0.073,0.004h0.035
	c0.088,0,0.169-0.004,0.244-0.01l0.015-0.001c0.031-0.003,0.059-0.006,0.087-0.01c0.044-0.005,0.084-0.011,0.123-0.019
	c0.025-0.003,0.049-0.009,0.072-0.013c0.037-0.008,0.071-0.017,0.104-0.025c0.024-0.007,0.047-0.013,0.07-0.021
	c0.027-0.007,0.052-0.016,0.077-0.025l0.024-0.007c0.012-0.005,0.028-0.011,0.047-0.018c0.025-0.01,0.056-0.022,0.09-0.037
	c0.022-0.009,0.044-0.019,0.067-0.029c0.019-0.01,0.042-0.021,0.064-0.031c0.008-0.004,0.018-0.009,0.028-0.013V3.27
	c-0.007,0.005-0.014,0.009-0.02,0.013l-0.037,0.022c-0.037,0.022-0.072,0.043-0.107,0.063c-0.039,0.02-0.078,0.04-0.117,0.059
	c-0.065,0.031-0.13,0.057-0.191,0.079c-0.117,0.042-0.225,0.068-0.319,0.086c-0.012,0.002-0.023,0.004-0.034,0.005
	c-0.026,0.004-0.051,0.008-0.076,0.01c-0.037,0.004-0.072,0.006-0.102,0.007c-0.021,0.001-0.039,0.003-0.058,0.003
	c-0.038,0-0.077-0.002-0.118-0.005c-0.047-0.003-0.093-0.009-0.142-0.016c-0.078-0.014-0.156-0.034-0.231-0.061
	c-0.013-0.004-0.024-0.009-0.035-0.014c-0.007-0.002-0.014-0.005-0.022-0.008c-0.012-0.006-0.024-0.011-0.037-0.016
	c-0.027-0.013-0.053-0.026-0.079-0.041c-0.012-0.007-0.024-0.015-0.037-0.021c-0.012-0.009-0.025-0.017-0.038-0.027
	c-0.015-0.009-0.031-0.021-0.045-0.032c-0.016-0.012-0.03-0.025-0.044-0.035L11.11,3.323l-0.009-0.008L11.096,3.31l-0.007-0.006
	c-0.024-0.024-0.046-0.049-0.067-0.073c-0.01-0.014-0.021-0.028-0.032-0.041c-0.009-0.014-0.018-0.027-0.027-0.04
	c-0.009-0.013-0.016-0.025-0.023-0.039c-0.012-0.018-0.022-0.037-0.032-0.056c-0.007-0.016-0.014-0.032-0.021-0.048
	c-0.012-0.027-0.021-0.054-0.029-0.08c-0.007-0.02-0.013-0.041-0.018-0.06c-0.013-0.056-0.021-0.107-0.025-0.151
	c-0.003-0.017-0.003-0.033-0.004-0.047c-0.001-0.021-0.001-0.04-0.001-0.055V2.58c0.001-0.03,0.005-0.069,0.011-0.114
	c0.003-0.027,0.009-0.055,0.017-0.086c0.004-0.02,0.009-0.04,0.016-0.061c0.007-0.019,0.013-0.038,0.021-0.059
	c0.004-0.013,0.01-0.026,0.016-0.04c0.008-0.018,0.017-0.036,0.026-0.054c0.007-0.014,0.015-0.028,0.024-0.042
	c0.017-0.03,0.037-0.061,0.06-0.091C11.009,2.022,11.017,2.011,11.026,2c0.012-0.013,0.023-0.028,0.036-0.041
	c0.007-0.007,0.013-0.014,0.02-0.021c0.098-0.098,0.209-0.172,0.323-0.224c0.019-0.008,0.037-0.016,0.055-0.023
	c0.018-0.007,0.036-0.013,0.055-0.02c0.019-0.006,0.039-0.012,0.059-0.018c0.019-0.005,0.039-0.01,0.057-0.015
	c0.019-0.004,0.039-0.008,0.057-0.011c0.021-0.004,0.041-0.007,0.062-0.01c0.021-0.002,0.041-0.005,0.062-0.006
	c0.04-0.003,0.077-0.005,0.114-0.005c0.014,0,0.026,0,0.039,0c0.028,0.001,0.054,0.002,0.081,0.003
	c0.019,0.002,0.037,0.002,0.055,0.004c0.032,0.004,0.066,0.007,0.097,0.012c0.027,0.005,0.055,0.009,0.079,0.013
	c0.039,0.009,0.074,0.017,0.107,0.026c0.019,0.004,0.038,0.01,0.055,0.016c0.026,0.008,0.048,0.015,0.066,0.02
	c0.029,0.011,0.047,0.016,0.047,0.016c0.025,0.01,0.052,0.021,0.077,0.031c0.035,0.014,0.067,0.028,0.099,0.043
	c0.025,0.012,0.05,0.024,0.073,0.034c0.02,0.01,0.038,0.02,0.054,0.028c0.03,0.015,0.055,0.029,0.075,0.04l0.055,0.03V1.395
	c0,0-0.033-0.013-0.09-0.035c-0.025-0.009-0.055-0.02-0.089-0.032c-0.019-0.007-0.039-0.014-0.06-0.022
	C12.73,1.3,12.713,1.294,12.695,1.289c-0.021-0.007-0.041-0.015-0.062-0.021c-0.016-0.004-0.032-0.01-0.049-0.014L12.57,1.25
	c-0.015-0.005-0.032-0.009-0.046-0.013c-0.021-0.005-0.04-0.011-0.06-0.016c-0.012-0.002-0.025-0.005-0.038-0.008
	c-0.021-0.005-0.041-0.01-0.064-0.014C12.341,1.194,12.319,1.19,12.297,1.188 M9.657,0.637h4.19V4.58h-4.19V0.637z"/>
<path d="M6.437,2.818v0.775H6.94c0,0,0.01-0.001,0.025-0.001c0.018-0.001,0.042-0.003,0.072-0.004
	c0.053-0.006,0.126-0.016,0.196-0.04c0.063-0.02,0.124-0.052,0.171-0.099C7.422,3.43,7.437,3.411,7.45,3.392
	c0.038-0.062,0.049-0.125,0.051-0.16c0.001-0.017,0.001-0.025,0.001-0.025s0-0.008,0-0.019c0-0.015-0.002-0.044-0.01-0.075
	c-0.01-0.037-0.027-0.079-0.058-0.119C7.427,2.987,7.42,2.98,7.413,2.973C7.4,2.959,7.384,2.945,7.368,2.933
	C7.34,2.913,7.309,2.896,7.275,2.881C7.23,2.861,7.179,2.847,7.122,2.836c-0.027-0.005-0.058-0.01-0.088-0.012
	c-0.02-0.003-0.038-0.003-0.058-0.005C6.958,2.818,6.941,2.818,6.922,2.818H6.437z"/>
<path d="M6.437,1.639v0.735H6.68c0,0,0.016,0,0.038-0.001c0.018,0,0.036-0.001,0.055-0.003c0.05-0.003,0.12-0.01,0.188-0.029
	c0.015-0.004,0.028-0.009,0.04-0.013c0.055-0.02,0.107-0.047,0.149-0.087c0.032-0.032,0.052-0.068,0.066-0.102
	c0.018-0.042,0.024-0.082,0.027-0.11c0.001-0.027,0.001-0.042,0.001-0.042s0-0.012,0-0.032C7.243,1.924,7.236,1.871,7.21,1.822
	c-0.012-0.024-0.028-0.048-0.052-0.07C7.131,1.726,7.099,1.704,7.063,1.688C6.994,1.658,6.915,1.646,6.85,1.642
	C6.82,1.64,6.794,1.639,6.772,1.639H6.437z"/>
<path d="M5.928,1.19v2.841h1.069c0,0,0.522,0.013,0.809-0.274c0.235-0.235,0.218-0.506,0.218-0.506s0.017-0.283-0.2-0.5
	C7.638,2.567,7.403,2.518,7.403,2.518s0.106-0.05,0.189-0.132c0.038-0.038,0.174-0.161,0.174-0.46c0-0.302-0.2-0.475-0.2-0.475
	S7.346,1.19,6.85,1.19H5.928z M4.829,0.637h4.19V4.58h-4.19V0.637z"/>
<path d="M1.609,2.818v0.775h0.504c0,0,0.009-0.001,0.026-0.001c0.016-0.001,0.041-0.003,0.07-0.004
	c0.055-0.006,0.126-0.016,0.196-0.04c0.063-0.02,0.124-0.052,0.172-0.099C2.595,3.43,2.61,3.411,2.622,3.392
	c0.039-0.062,0.049-0.125,0.051-0.16c0.002-0.017,0.002-0.025,0.002-0.025V3.188C2.673,3.173,2.671,3.144,2.664,3.113
	C2.655,3.076,2.637,3.034,2.605,2.994C2.6,2.987,2.593,2.98,2.586,2.973c-0.014-0.014-0.029-0.028-0.045-0.04
	c-0.028-0.02-0.059-0.037-0.093-0.052c-0.046-0.02-0.097-0.034-0.152-0.045c-0.028-0.005-0.059-0.01-0.089-0.012
	C2.188,2.821,2.168,2.821,2.149,2.819C2.132,2.818,2.113,2.818,2.096,2.818H1.609z"/>
<path d="M1.609,1.639v0.735h0.244c0,0,0.016,0,0.037-0.001c0.017,0,0.038-0.001,0.055-0.003c0.05-0.003,0.12-0.01,0.189-0.029
	c0.014-0.004,0.027-0.009,0.041-0.013c0.054-0.02,0.106-0.047,0.146-0.087c0.033-0.032,0.053-0.068,0.068-0.102
	c0.017-0.042,0.024-0.082,0.026-0.11c0.002-0.027,0.002-0.042,0.002-0.042V1.955C2.414,1.924,2.408,1.871,2.383,1.822
	c-0.012-0.024-0.029-0.048-0.051-0.07C2.304,1.726,2.271,1.704,2.235,1.688c-0.069-0.03-0.147-0.042-0.214-0.046
	C1.993,1.64,1.966,1.639,1.945,1.639H1.609z"/>
<path d="M1.1,1.19v2.841h1.069c0,0,0.522,0.013,0.809-0.274c0.234-0.235,0.218-0.506,0.218-0.506s0.016-0.283-0.201-0.5
	c-0.185-0.184-0.42-0.234-0.42-0.234s0.107-0.05,0.188-0.132c0.039-0.038,0.175-0.161,0.175-0.46c0-0.302-0.201-0.475-0.201-0.475
	S2.518,1.19,2.023,1.19H1.1z M0,0.637h4.19V4.58H0V0.637z"/>
<path d="M0,5.558v3.26h0.468V7.402h0.196c0.24,0,0.434,0.077,0.866,0.746l0.43,0.669h0.56c-0.225-0.31-0.306-0.42-0.446-0.645
	C1.826,7.767,1.645,7.466,1.349,7.27c0.348-0.139,0.545-0.421,0.545-0.799c0-0.564-0.411-0.913-1.071-0.913H0z M0.469,5.959h0.302
	c0.453,0,0.636,0.186,0.64,0.492c0.004,0.273-0.139,0.531-0.64,0.531H0.469V5.959z"/>
<path d="M4.223,5.54h-0.33L2.492,8.817H2.97l0.412-0.96h1.386l0.435,0.96H5.68L4.223,5.54z M4.051,6.256l0.526,1.18H3.563
	L4.051,6.256z"/>
<path d="M6.069,8.818H7.34c1.076,0,1.73-0.793,1.73-1.63c0-0.769-0.53-1.63-1.734-1.63H6.069V8.818z M6.538,5.979h0.72
	c0.914,0,1.33,0.555,1.33,1.209c0,0.402-0.244,1.21-1.304,1.21H6.538V5.979z"/>
<line fill="none" stroke="#000000" stroke-width="0.468" stroke-miterlimit="10" x1="9.844" y1="8.817" x2="9.844" y2="5.557"/>
<path d="M10.618,7.188c0,0.884,0.675,1.672,1.74,1.672c1.104,0,1.764-0.793,1.764-1.672c0-0.908-0.678-1.673-1.754-1.673
	C11.311,5.515,10.618,6.285,10.618,7.188 M11.101,7.188c0-0.717,0.54-1.242,1.267-1.242c0.731,0,1.271,0.525,1.271,1.242
	c0,0.712-0.54,1.243-1.271,1.243C11.641,8.431,11.101,7.9,11.101,7.188"/>
<path fill="#002D5D" d="M27.258,0c-5.707,0-10.333,4.628-10.333,10.336c0,5.709,4.625,10.336,10.333,10.336
	c5.705,0,10.33-4.627,10.33-10.336C37.588,4.628,32.963,0,27.258,0 M32.864,14.442h-2.102l0.006,2.662l-3.764,0.004l-0.006-2.395
	c0,0-0.004-0.264-0.32-0.275l-5.383,0.004l0.002-2.209c0-0.32,0.158-0.795,0.352-1.053l5.756-7.719
	c0.193-0.258,0.613-0.469,0.936-0.468l2.429,0.001l-0.004,8.35l2.103-0.006L32.864,14.442z"/>
<path fill="#002D5D" d="M27.321,9.011c-0.816,0.017-1.469,0.695-1.449,1.512c0.019,0.709,0.549,1.292,1.241,1.416l0.532,0.095
	c-0.139,0.941-0.49,1.646-1.282,2.23c1.067-0.475,1.888-1.498,2.265-2.58C29.006,10.599,28.792,8.981,27.321,9.011"/>
</svg>
