<?xml version="1.0" encoding="UTF-8"?>
<svg width="21px" height="21px" viewBox="0 0 21 21" version="1.1" xmlns="http://www.w3.org/2000/svg" xmlns:xlink="http://www.w3.org/1999/xlink">
    <!-- Generator: Sketch 41.2 (35397) - http://www.bohemiancoding.com/sketch -->
    <title>radio3.small</title>
    <desc>Created with Sketch.</desc>
    <defs></defs>
    <g id="Page-1" stroke="none" stroke-width="1" fill="none" fill-rule="evenodd">
        <g id="radio3.large" fill="#E82B2E">
            <path d="M10.39,0 C4.657,0 0.009,4.65 0.009,10.386 C0.009,16.123 4.657,20.774 10.39,20.774 C16.123,20.774 20.771,16.125 20.771,10.386 C20.771,4.65 16.124,0 10.39,0 M8.131,3.454 C10.181,2.293 14.03,3.058 14.168,5.862 C14.289,8.331 11.24,9.997 9.403,11.003 C9.353,10.953 9,10.602 8.924,10.528 C10.57,9.284 12.41,7.063 11.598,4.857 C11.035,3.338 8.518,3.369 7.858,4.788 C8.488,4.569 9.386,4.536 9.872,5.082 C10.378,5.655 10.079,6.549 9.446,6.875 C8.46,7.383 6.724,6.949 6.643,5.664 C6.618,4.695 7.293,3.871 8.131,3.454 M14.312,16.742 C12.404,18.215 8.717,18.502 6.743,17.064 C5.915,16.46 5.208,15.748 5.233,14.767 C5.304,12.162 9.665,13.269 8.618,15.226 C8.187,15.914 7.148,15.912 6.472,15.656 C7.642,17.357 10.809,17.316 12.146,15.826 C12.817,15.078 12.896,14.084 12.813,13.105 C12.713,11.931 12.147,11.193 11.434,10.334 C11.873,10.019 12.133,9.844 12.555,9.503 C15.641,10.252 17.345,14.404 14.312,16.742 M15.426,7.794 C14.537,7.794 14.535,6.434 15.426,6.434 C16.299,6.434 16.297,7.794 15.426,7.794 M15.426,5.492 C14.537,5.492 14.535,4.133 15.426,4.133 C16.299,4.133 16.297,5.492 15.426,5.492" id="Shape"></path>
        </g>
    </g>
</svg>