<?xml version="1.0" encoding="UTF-8" standalone="no"?>
<!-- Created with Inkscape (http://www.inkscape.org/) -->

<svg
   xmlns:dc="http://purl.org/dc/elements/1.1/"
   xmlns:cc="http://creativecommons.org/ns#"
   xmlns:rdf="http://www.w3.org/1999/02/22-rdf-syntax-ns#"
   xmlns:svg="http://www.w3.org/2000/svg"
   xmlns="http://www.w3.org/2000/svg"
   xmlns:sodipodi="http://sodipodi.sourceforge.net/DTD/sodipodi-0.dtd"
   xmlns:inkscape="http://www.inkscape.org/namespaces/inkscape"
   width="200"
   height="84"
   id="svg2"
   version="1.1"
   inkscape:version="0.47 r22583"
   sodipodi:docname="New document 1">
  <defs
     id="defs4"><inkscape:perspective
   sodipodi:type="inkscape:persp3d"
   inkscape:vp_x="0 : 526.18109 : 1"
   inkscape:vp_y="0 : 1000 : 0"
   inkscape:vp_z="744.09448 : 526.18109 : 1"
   inkscape:persp3d-origin="372.04724 : 350.78739 : 1"
   id="perspective10" />
<inkscape:perspective
   id="perspective2824"
   inkscape:persp3d-origin="0.5 : 0.33333333 : 1"
   inkscape:vp_z="1 : 0.5 : 1"
   inkscape:vp_y="0 : 1000 : 0"
   inkscape:vp_x="0 : 0.5 : 1"
   sodipodi:type="inkscape:persp3d" />

<inkscape:perspective
   id="perspective2908"
   inkscape:persp3d-origin="19.5 : 7.3333333 : 1"
   inkscape:vp_z="39 : 11 : 1"
   inkscape:vp_y="0 : 1000 : 0"
   inkscape:vp_x="0 : 11 : 1"
   sodipodi:type="inkscape:persp3d" />
</defs>
  <sodipodi:namedview
     id="base"
     pagecolor="#ffffff"
     bordercolor="#666666"
     borderopacity="1.0"
     inkscape:pageopacity="0.0"
     inkscape:pageshadow="2"
     inkscape:zoom="4"
     inkscape:cx="162.17395"
     inkscape:cy="27.701203"
     inkscape:document-units="px"
     inkscape:current-layer="layer1"
     showgrid="false"
     inkscape:window-width="1920"
     inkscape:window-height="1000"
     inkscape:window-x="-8"
     inkscape:window-y="-8"
     inkscape:window-maximized="1">
    <inkscape:grid
       type="xygrid"
       id="grid2928"
       empspacing="5"
       visible="true"
       enabled="true"
       snapvisiblegridlinesonly="true" />
  </sodipodi:namedview>
  <metadata
     id="metadata7">
    <rdf:RDF>
      <cc:Work
         rdf:about="">
        <dc:format>image/svg+xml</dc:format>
        <dc:type
           rdf:resource="http://purl.org/dc/dcmitype/StillImage" />
        <dc:title></dc:title>
      </cc:Work>
    </rdf:RDF>
  </metadata>
  <g
     inkscape:label="Layer 1"
     inkscape:groupmode="layer"
     id="layer1"
     transform="translate(-286.76434,-267.27675)">
    <g
       transform="matrix(7.3490007,0,0,7.3490007,794.76434,311.35821)"
       id="g3034" />
    <g
       id="g3099"
       transform="matrix(0.54211574,0,0,0.54211574,-143.21492,99.377131)">
      <rect
         id="rect3036"
         height="13.75"
         width="11.625"
         y="3.2780001"
         x="21.540001"
         style="fill:#ffffff;stroke:#ffffff"
         transform="matrix(7.3490007,0,0,7.3490007,794.76434,311.35821)" />
      <path
         id="path3038"
         d="M 12.297,1.188 C 12.279,1.184 12.259,1.181 12.241,1.177 L 12.218,1.175 C 12.186,1.17 12.154,1.166 12.121,1.164 12.098,1.161 12.076,1.16 12.054,1.159 12.013,1.156 11.975,1.155 11.938,1.155 c -0.018,0 -0.028,0 -0.045,0 -0.032,0 -0.063,0.002 -0.093,0.004 C 11.783,1.16 11.766,1.161 11.749,1.163 11.724,1.165 11.7,1.167 11.675,1.171 l -0.02,0.002 -0.024,0.003 -0.027,0.005 C 11.592,1.183 11.58,1.185 11.569,1.188 11.551,1.19 11.535,1.194 11.52,1.197 11.42,1.218 11.328,1.246 11.244,1.278 11.2,1.296 11.157,1.315 11.118,1.334 11.084,1.351 11.053,1.368 11.021,1.386 10.992,1.403 10.963,1.42 10.935,1.438 10.92,1.449 10.904,1.459 10.888,1.471 10.875,1.48 10.863,1.489 10.85,1.5 10.823,1.52 10.798,1.542 10.773,1.562 10.751,1.582 10.73,1.603 10.709,1.622 10.692,1.639 10.673,1.657 10.658,1.677 10.64,1.696 10.623,1.715 10.608,1.735 10.589,1.756 10.574,1.778 10.558,1.8 10.544,1.817 10.533,1.834 10.522,1.852 10.513,1.864 10.506,1.876 10.5,1.888 c -0.045,0.071 -0.082,0.147 -0.115,0.229 -0.039,0.102 -0.067,0.212 -0.083,0.327 -0.004,0.037 -0.007,0.074 -0.01,0.113 -0.002,0.029 -0.003,0.059 -0.003,0.088 0,0.023 0,0.045 10e-4,0.067 0.002,0.023 0.005,0.045 0.007,0.068 l 10e-4,0.016 c 0.004,0.027 0.008,0.053 0.013,0.078 0.002,0.011 0.004,0.021 0.006,0.031 0.004,0.021 0.01,0.043 0.014,0.063 0.008,0.027 0.016,0.053 0.025,0.08 0.011,0.032 0.023,0.063 0.035,0.093 0.02,0.048 0.043,0.094 0.066,0.138 0.014,0.026 0.029,0.051 0.043,0.075 0.013,0.019 0.025,0.037 0.037,0.055 0.016,0.024 0.033,0.047 0.05,0.068 0.017,0.023 0.036,0.044 0.055,0.065 0.021,0.025 0.044,0.049 0.066,0.071 l 0.01,0.011 c 0.02,0.018 0.039,0.037 0.061,0.057 0.015,0.011 0.031,0.026 0.049,0.039 0.015,0.012 0.033,0.026 0.05,0.038 0.022,0.016 0.043,0.031 0.066,0.046 0.027,0.015 0.053,0.032 0.08,0.048 0.055,0.031 0.117,0.061 0.184,0.088 0.025,0.01 0.051,0.019 0.078,0.028 0.027,0.01 0.054,0.018 0.082,0.026 0.049,0.013 0.1,0.026 0.152,0.037 0.043,0.008 0.089,0.015 0.135,0.02 0.045,0.006 0.093,0.01 0.141,0.012 0.025,0.002 0.049,0.002 0.073,0.004 h 0.035 c 0.088,0 0.169,-0.004 0.244,-0.01 L 12.163,4.056 C 12.194,4.053 12.222,4.05 12.25,4.046 12.294,4.041 12.334,4.035 12.373,4.027 12.398,4.024 12.422,4.018 12.445,4.014 12.482,4.006 12.516,3.997 12.549,3.989 12.573,3.982 12.596,3.976 12.619,3.968 12.646,3.961 12.671,3.952 12.696,3.943 L 12.72,3.936 c 0.012,-0.005 0.028,-0.011 0.047,-0.018 0.025,-0.01 0.056,-0.022 0.09,-0.037 0.022,-0.009 0.044,-0.019 0.067,-0.029 0.019,-0.01 0.042,-0.021 0.064,-0.031 0.008,-0.004 0.018,-0.009 0.028,-0.013 V 3.27 c -0.007,0.005 -0.014,0.009 -0.02,0.013 l -0.037,0.022 c -0.037,0.022 -0.072,0.043 -0.107,0.063 -0.039,0.02 -0.078,0.04 -0.117,0.059 -0.065,0.031 -0.13,0.057 -0.191,0.079 -0.117,0.042 -0.225,0.068 -0.319,0.086 -0.012,0.002 -0.023,0.004 -0.034,0.005 -0.026,0.004 -0.051,0.008 -0.076,0.01 -0.037,0.004 -0.072,0.006 -0.102,0.007 -0.021,0.001 -0.039,0.003 -0.058,0.003 -0.038,0 -0.077,-0.002 -0.118,-0.005 C 11.79,3.609 11.744,3.603 11.695,3.596 11.617,3.582 11.539,3.562 11.464,3.535 11.451,3.531 11.44,3.526 11.429,3.521 11.422,3.519 11.415,3.516 11.407,3.513 11.395,3.507 11.383,3.502 11.37,3.497 11.343,3.484 11.317,3.471 11.291,3.456 11.279,3.449 11.267,3.441 11.254,3.435 11.242,3.426 11.229,3.418 11.216,3.408 11.201,3.399 11.185,3.387 11.171,3.376 11.155,3.364 11.141,3.351 11.127,3.341 L 11.11,3.323 11.101,3.315 11.096,3.31 11.089,3.304 C 11.065,3.28 11.043,3.255 11.022,3.231 11.012,3.217 11.001,3.203 10.99,3.19 10.981,3.176 10.972,3.163 10.963,3.15 10.954,3.137 10.947,3.125 10.94,3.111 10.928,3.093 10.918,3.074 10.908,3.055 10.901,3.039 10.894,3.023 10.887,3.007 10.875,2.98 10.866,2.953 10.858,2.927 10.851,2.907 10.845,2.886 10.84,2.867 10.827,2.811 10.819,2.76 10.815,2.716 10.812,2.699 10.812,2.683 10.811,2.669 10.81,2.648 10.81,2.629 10.81,2.614 V 2.58 C 10.811,2.55 10.815,2.511 10.821,2.466 10.824,2.439 10.83,2.411 10.838,2.38 10.842,2.36 10.847,2.34 10.854,2.319 10.861,2.3 10.867,2.281 10.875,2.26 10.879,2.247 10.885,2.234 10.891,2.22 10.899,2.202 10.908,2.184 10.917,2.166 10.924,2.152 10.932,2.138 10.941,2.124 10.958,2.094 10.978,2.063 11.001,2.033 11.009,2.022 11.017,2.011 11.026,2 11.038,1.987 11.049,1.972 11.062,1.959 11.069,1.952 11.075,1.945 11.082,1.938 11.18,1.84 11.291,1.766 11.405,1.714 11.424,1.706 11.442,1.698 11.46,1.691 11.478,1.684 11.496,1.678 11.515,1.671 11.534,1.665 11.554,1.659 11.574,1.653 11.593,1.648 11.613,1.643 11.631,1.638 11.65,1.634 11.67,1.63 11.688,1.627 11.709,1.623 11.729,1.62 11.75,1.617 c 0.021,-0.002 0.041,-0.005 0.062,-0.006 0.04,-0.003 0.077,-0.005 0.114,-0.005 0.014,0 0.026,0 0.039,0 0.028,10e-4 0.054,0.002 0.081,0.003 0.019,0.002 0.037,0.002 0.055,0.004 0.032,0.004 0.066,0.007 0.097,0.012 0.027,0.005 0.055,0.009 0.079,0.013 0.039,0.009 0.074,0.017 0.107,0.026 0.019,0.004 0.038,0.01 0.055,0.016 0.026,0.008 0.048,0.015 0.066,0.02 0.029,0.011 0.047,0.016 0.047,0.016 0.025,0.01 0.052,0.021 0.077,0.031 0.035,0.014 0.067,0.028 0.099,0.043 0.025,0.012 0.05,0.024 0.073,0.034 0.02,0.01 0.038,0.02 0.054,0.028 0.03,0.015 0.055,0.029 0.075,0.04 l 0.055,0.03 V 1.395 c 0,0 -0.033,-0.013 -0.09,-0.035 C 12.87,1.351 12.84,1.34 12.806,1.328 12.787,1.321 12.767,1.314 12.746,1.306 12.73,1.3 12.713,1.294 12.695,1.289 12.674,1.282 12.654,1.274 12.633,1.268 12.617,1.264 12.601,1.258 12.584,1.254 L 12.57,1.25 C 12.555,1.245 12.538,1.241 12.524,1.237 12.503,1.232 12.484,1.226 12.464,1.221 12.452,1.219 12.439,1.216 12.426,1.213 12.405,1.208 12.385,1.203 12.362,1.199 12.341,1.194 12.319,1.19 12.297,1.188 M 9.657,0.637 h 4.19 V 4.58 H 9.657 V 0.637 z"
         transform="matrix(7.3490007,0,0,7.3490007,794.76434,311.35821)" />
      <path
         id="path3040"
         d="M 6.437,2.818 V 3.593 H 6.94 c 0,0 0.01,-10e-4 0.025,-10e-4 C 6.983,3.591 7.007,3.589 7.037,3.588 7.09,3.582 7.163,3.572 7.233,3.548 7.296,3.528 7.357,3.496 7.404,3.449 7.422,3.43 7.437,3.411 7.45,3.392 7.488,3.33 7.499,3.267 7.501,3.232 7.502,3.215 7.502,3.207 7.502,3.207 c 0,0 0,-0.008 0,-0.019 C 7.502,3.173 7.5,3.144 7.492,3.113 7.482,3.076 7.465,3.034 7.434,2.994 7.427,2.987 7.42,2.98 7.413,2.973 7.4,2.959 7.384,2.945 7.368,2.933 7.34,2.913 7.309,2.896 7.275,2.881 7.23,2.861 7.179,2.847 7.122,2.836 7.095,2.831 7.064,2.826 7.034,2.824 7.014,2.821 6.996,2.821 6.976,2.819 6.958,2.818 6.941,2.818 6.922,2.818 H 6.437 z"
         transform="matrix(7.3490007,0,0,7.3490007,794.76434,311.35821)" />
      <path
         id="path3042"
         d="M 6.437,1.639 V 2.374 H 6.68 c 0,0 0.016,0 0.038,-10e-4 0.018,0 0.036,-0.001 0.055,-0.003 C 6.823,2.367 6.893,2.36 6.961,2.341 6.976,2.337 6.989,2.332 7.001,2.328 7.056,2.308 7.108,2.281 7.15,2.241 7.182,2.209 7.202,2.173 7.216,2.139 7.234,2.097 7.24,2.057 7.243,2.029 7.244,2.002 7.244,1.987 7.244,1.987 c 0,0 0,-0.012 0,-0.032 C 7.243,1.924 7.236,1.871 7.21,1.822 7.198,1.798 7.182,1.774 7.158,1.752 7.131,1.726 7.099,1.704 7.063,1.688 6.994,1.658 6.915,1.646 6.85,1.642 6.82,1.64 6.794,1.639 6.772,1.639 H 6.437 z"
         transform="matrix(7.3490007,0,0,7.3490007,794.76434,311.35821)" />
      <path
         id="path3044"
         d="m 5.928,1.19 v 2.841 h 1.069 c 0,0 0.522,0.013 0.809,-0.274 0.235,-0.235 0.218,-0.506 0.218,-0.506 0,0 0.017,-0.283 -0.2,-0.5 C 7.638,2.567 7.403,2.518 7.403,2.518 c 0,0 0.106,-0.05 0.189,-0.132 0.038,-0.038 0.174,-0.161 0.174,-0.46 0,-0.302 -0.2,-0.475 -0.2,-0.475 0,0 -0.22,-0.261 -0.716,-0.261 H 5.928 z M 4.829,0.637 h 4.19 V 4.58 H 4.829 V 0.637 z"
         transform="matrix(7.3490007,0,0,7.3490007,794.76434,311.35821)" />
      <path
         id="path3046"
         d="m 1.609,2.818 v 0.775 h 0.504 c 0,0 0.009,-10e-4 0.026,-10e-4 C 2.155,3.591 2.18,3.589 2.209,3.588 2.264,3.582 2.335,3.572 2.405,3.548 2.468,3.528 2.529,3.496 2.577,3.449 2.595,3.43 2.61,3.411 2.622,3.392 2.661,3.33 2.671,3.267 2.673,3.232 2.675,3.215 2.675,3.207 2.675,3.207 V 3.188 C 2.673,3.173 2.671,3.144 2.664,3.113 2.655,3.076 2.637,3.034 2.605,2.994 2.6,2.987 2.593,2.98 2.586,2.973 2.572,2.959 2.557,2.945 2.541,2.933 2.513,2.913 2.482,2.896 2.448,2.881 2.402,2.861 2.351,2.847 2.296,2.836 2.268,2.831 2.237,2.826 2.207,2.824 2.188,2.821 2.168,2.821 2.149,2.819 2.132,2.818 2.113,2.818 2.096,2.818 H 1.609 z"
         transform="matrix(7.3490007,0,0,7.3490007,794.76434,311.35821)" />
      <path
         id="path3048"
         d="m 1.609,1.639 v 0.735 h 0.244 c 0,0 0.016,0 0.037,-10e-4 0.017,0 0.038,-0.001 0.055,-0.003 C 1.995,2.367 2.065,2.36 2.134,2.341 2.148,2.337 2.161,2.332 2.175,2.328 2.229,2.308 2.281,2.281 2.321,2.241 2.354,2.209 2.374,2.173 2.389,2.139 2.406,2.097 2.413,2.057 2.415,2.029 2.417,2.002 2.417,1.987 2.417,1.987 V 1.955 C 2.414,1.924 2.408,1.871 2.383,1.822 2.371,1.798 2.354,1.774 2.332,1.752 2.304,1.726 2.271,1.704 2.235,1.688 2.166,1.658 2.088,1.646 2.021,1.642 1.993,1.64 1.966,1.639 1.945,1.639 H 1.609 z"
         transform="matrix(7.3490007,0,0,7.3490007,794.76434,311.35821)" />
      <path
         id="path3050"
         d="m 1.1,1.19 v 2.841 h 1.069 c 0,0 0.522,0.013 0.809,-0.274 0.234,-0.235 0.218,-0.506 0.218,-0.506 0,0 0.016,-0.283 -0.201,-0.5 C 2.81,2.567 2.575,2.517 2.575,2.517 c 0,0 0.107,-0.05 0.188,-0.132 C 2.802,2.347 2.938,2.224 2.938,1.925 2.938,1.623 2.737,1.45 2.737,1.45 c 0,0 -0.219,-0.26 -0.714,-0.26 H 1.1 z M 0,0.637 H 4.19 V 4.58 H 0 V 0.637 z"
         transform="matrix(7.3490007,0,0,7.3490007,794.76434,311.35821)" />
      <path
         id="path3052"
         d="m 0,5.558 v 3.26 H 0.468 V 7.402 h 0.196 c 0.24,0 0.434,0.077 0.866,0.746 L 1.96,8.817 H 2.52 C 2.295,8.507 2.214,8.397 2.074,8.172 1.826,7.767 1.645,7.466 1.349,7.27 1.697,7.131 1.894,6.849 1.894,6.471 1.894,5.907 1.483,5.558 0.823,5.558 H 0 z m 0.469,0.401 h 0.302 c 0.453,0 0.636,0.186 0.64,0.492 0.004,0.273 -0.139,0.531 -0.64,0.531 H 0.469 V 5.959 z"
         transform="matrix(7.3490007,0,0,7.3490007,794.76434,311.35821)" />
      <path
         id="path3054"
         d="M 4.223,5.54 H 3.893 L 2.492,8.817 H 2.97 l 0.412,-0.96 h 1.386 l 0.435,0.96 H 5.68 L 4.223,5.54 z M 4.051,6.256 4.577,7.436 H 3.563 l 0.488,-1.18 z"
         transform="matrix(7.3490007,0,0,7.3490007,794.76434,311.35821)" />
      <path
         id="path3056"
         d="M 6.069,8.818 H 7.34 c 1.076,0 1.73,-0.793 1.73,-1.63 0,-0.769 -0.53,-1.63 -1.734,-1.63 H 6.069 v 3.26 z M 6.538,5.979 h 0.72 c 0.914,0 1.33,0.555 1.33,1.209 0,0.402 -0.244,1.21 -1.304,1.21 H 6.538 V 5.979 z"
         transform="matrix(7.3490007,0,0,7.3490007,794.76434,311.35821)" />
      <line
         id="line3058"
         y2="5.5570002"
         x2="9.8439999"
         y1="8.8170004"
         x1="9.8439999"
         stroke-miterlimit="10"
         style="fill:none;stroke:#000000;stroke-width:0.46799999;stroke-miterlimit:10"
         transform="matrix(7.3490007,0,0,7.3490007,794.76434,311.35821)" />
      <path
         id="path3060"
         d="m 10.618,7.188 c 0,0.884 0.675,1.672 1.74,1.672 1.104,0 1.764,-0.793 1.764,-1.672 0,-0.908 -0.678,-1.673 -1.754,-1.673 -1.057,0 -1.75,0.77 -1.75,1.673 m 0.483,0 c 0,-0.717 0.54,-1.242 1.267,-1.242 0.731,0 1.271,0.525 1.271,1.242 0,0.712 -0.54,1.243 -1.271,1.243 -0.727,0 -1.267,-0.531 -1.267,-1.243"
         transform="matrix(7.3490007,0,0,7.3490007,794.76434,311.35821)" />
      <path
         id="path3062"
         d="m 27.258,0 c -5.707,0 -10.333,4.628 -10.333,10.336 0,5.709 4.625,10.336 10.333,10.336 5.705,0 10.33,-4.627 10.33,-10.336 C 37.588,4.628 32.963,0 27.258,0 m 5.606,14.442 h -2.102 l 0.006,2.662 -3.764,0.004 -0.006,-2.395 c 0,0 -0.004,-0.264 -0.32,-0.275 l -5.383,0.004 0.002,-2.209 c 0,-0.32 0.158,-0.795 0.352,-1.053 l 5.756,-7.719 c 0.193,-0.258 0.613,-0.469 0.936,-0.468 l 2.429,0.001 -0.004,8.35 2.103,-0.006 -0.005,3.104 z"
         style="fill:#853f98;fill-opacity:1"
         transform="matrix(7.3490007,0,0,7.3490007,794.76434,311.35821)" />
      <path
         id="path3064"
         d="m 27.321,9.011 c -0.816,0.017 -1.469,0.695 -1.449,1.512 0.019,0.709 0.549,1.292 1.241,1.416 l 0.532,0.095 c -0.139,0.941 -0.49,1.646 -1.282,2.23 1.067,-0.475 1.888,-1.498 2.265,-2.58 0.378,-1.085 0.164,-2.703 -1.307,-2.673"
         style="fill:#853f98;fill-opacity:1"
         transform="matrix(7.3490007,0,0,7.3490007,794.76434,311.35821)" />
      <path
         style="fill:#853f98;fill-opacity:1;stroke:none"
         d="m 1052,334.36218 13.3055,0.0341 6.1945,10.46592 6.5,-10.43687 9.6314,-0.0631 -11.1895,16.49492 11.8106,17.50508 -9.558,0 -7.1996,-11.75761 -7.1262,11.75761 -5.3687,-1 -7,-33 z"
         id="path3068"
         sodipodi:nodetypes="cccccccccccc" />
      <path
         id="path3066"
         d="m 1048,333.8125 c -13.7552,0 -18,11.35693 -18,17.5625 0,10.41352 7.871,18 18,18 13.3638,0 16.375,-12 16.375,-12 l -9.375,0 c 0,0 -2.599,4 -7.25,4 -6.7062,0 -7.75,-6 -7.75,-6 l 25,0 0,-4 c 0,-6.97984 -4.3292,-17.5625 -17,-17.5625 z m -0.25,7.5 c 6.5308,0 7.75,6.0625 7.75,6.0625 l -15.5,-0.0625 c 0,0 1.0438,-6 7.75,-6 z"
         style="fill:#ffffff;fill-opacity:1;stroke:none" />
      <path
         style="fill:#853f98;fill-opacity:1;stroke:none"
         d="m 1107,360.36218 0,8 -3,0 c -6.8439,0 -12,-5.71567 -12,-11 l 0,-15 -4,0 0,-8 4,0 0,-8 8,0 0,8 6,0 0,8 -6,0 0,12 c 0,3.89107 1.5549,6.00001 5,6 0,0 2,0 2,0 z"
         id="path3070"
         sodipodi:nodetypes="ccccccccccccccccc" />
      <path
         style="fill:#853f98;fill-opacity:1;stroke:none"
         d="m 1109,368.36218 0,-34 8,0 0,3.50508 c 0,0 1.7981,-3.94702 11,-3.94702 l 0,8.44194 c 0,0 -4.0631,0 -4.0631,0 -4.2438,0 -6.9369,4.28901 -6.9369,7.75761 l 0,18.24239 -8,0 z"
         id="path3072"
         sodipodi:nodetypes="cccccccccc" />
      <path
         id="path3074"
         d="m 1144.8125,333.8125 c -7.9199,0 -16,4.61664 -16,11.5 L 1137,345.375 c 0,-2.00269 2.8893,-4.625 7.75,-4.625 3.5164,0 6.25,1.67763 6.25,3.25 0,2.22147 -2.864,3.35417 -10.125,4.1875 -5.2727,0.48824 -13.4375,2.04291 -13.4375,9.6875 0,4.37679 3.2977,11.1875 13.625,11.1875 7.8107,0 10.9375,-4.9375 10.9375,-4.9375 0,2.65654 0.3125,4.25 0.3125,4.25 l 7.6875,0 c 0,0 -1,-3.46253 -1,-6.5 l 0,-17.625 c 0,-4.44868 -4.2297,-10.4375 -14.1875,-10.4375 z M 1151,352.5 l 0,2.875 c 0,2.2684 -1.7905,6 -8.8125,6 -4.9318,0 -6.1875,-1.89995 -6.1875,-3.5 0,-2.78458 3.9792,-3.20833 6.4375,-3.5625 3.0822,-0.29167 5.1073,-0.661 8.5625,-1.8125 z"
         style="fill:#853f98;fill-opacity:1;stroke:none" />
    </g>
  </g>
</svg>
