<?xml version="1.0" encoding="utf-8"?>
<!-- Generator: Adobe Illustrator 12.0.0, SVG Export Plug-In  -->
<!DOCTYPE svg PUBLIC "-//W3C//DTD SVG 1.1//EN" "http://www.w3.org/Graphics/SVG/1.1/DTD/svg11.dtd" [
	<!ENTITY ns_flows "http://ns.adobe.com/Flows/1.0/">
	<!ENTITY ns_svg "http://www.w3.org/2000/svg">
	<!ENTITY ns_xlink "http://www.w3.org/1999/xlink">
]>
<svg  version="1.1" xmlns="&ns_svg;" xmlns:xlink="&ns_xlink;" xmlns:a="http://ns.adobe.com/AdobeSVGViewerExtensions/3.0/"
	 width="52" height="22" viewBox="-0.788 -0.975 52 22" enable-background="new -0.788 -0.975 52 22" xml:space="preserve">
<defs>
</defs>
<rect x="21.814" y="3.592" fill="#FFFFFF" stroke="#FFFFFF" width="10.706" height="13.656"/>
<path d="M12.077,1.181c-0.018-0.004-0.037-0.006-0.055-0.01L12,1.167c-0.032-0.004-0.063-0.008-0.096-0.011
	c-0.022-0.003-0.044-0.004-0.066-0.005c-0.04-0.003-0.077-0.004-0.114-0.004c-0.017,0-0.027,0-0.044,0
	c-0.032,0-0.062,0.002-0.091,0.004c-0.017,0.001-0.034,0.002-0.05,0.004c-0.025,0.002-0.049,0.004-0.073,0.008l-0.021,0.002
	L11.424,1.17l-0.027,0.005c-0.012,0.001-0.023,0.003-0.035,0.006c-0.017,0.002-0.033,0.006-0.048,0.009
	c-0.098,0.021-0.188,0.048-0.271,0.081C11,1.29,10.958,1.308,10.919,1.327c-0.033,0.017-0.064,0.034-0.095,0.051
	c-0.029,0.017-0.057,0.034-0.084,0.052c-0.016,0.012-0.031,0.021-0.047,0.033c-0.012,0.009-0.025,0.018-0.037,0.027
	c-0.026,0.021-0.051,0.042-0.076,0.063c-0.021,0.021-0.042,0.04-0.063,0.06c-0.017,0.017-0.035,0.034-0.05,0.054
	c-0.018,0.019-0.034,0.038-0.049,0.058C10.4,1.746,10.385,1.768,10.369,1.79c-0.013,0.017-0.024,0.034-0.035,0.052
	c-0.008,0.012-0.016,0.023-0.022,0.036c-0.043,0.07-0.081,0.146-0.112,0.228c-0.038,0.102-0.066,0.211-0.081,0.326
	c-0.004,0.037-0.008,0.074-0.011,0.112c-0.002,0.029-0.002,0.059-0.002,0.088c0,0.023,0,0.044,0,0.066
	c0.002,0.021,0.005,0.045,0.007,0.067l0.001,0.016c0.003,0.027,0.008,0.053,0.013,0.078c0.002,0.01,0.004,0.02,0.006,0.03
	c0.004,0.021,0.01,0.042,0.014,0.063c0.008,0.027,0.015,0.053,0.024,0.08c0.01,0.032,0.022,0.063,0.034,0.093
	c0.02,0.048,0.042,0.094,0.065,0.138c0.014,0.025,0.028,0.05,0.042,0.075c0.012,0.019,0.024,0.037,0.036,0.055
	c0.016,0.024,0.033,0.046,0.049,0.068c0.017,0.022,0.036,0.043,0.054,0.064c0.021,0.025,0.043,0.049,0.065,0.07l0.011,0.011
	c0.019,0.017,0.037,0.037,0.06,0.056c0.015,0.012,0.03,0.026,0.047,0.04c0.016,0.012,0.032,0.025,0.049,0.038
	c0.021,0.016,0.042,0.03,0.065,0.045c0.026,0.015,0.051,0.032,0.079,0.047c0.054,0.031,0.114,0.061,0.181,0.088
	c0.024,0.01,0.05,0.019,0.076,0.028c0.026,0.01,0.053,0.018,0.081,0.026C11.213,3.987,11.263,4,11.314,4.01
	c0.042,0.008,0.087,0.015,0.132,0.021c0.045,0.006,0.091,0.01,0.139,0.013c0.024,0.001,0.048,0.001,0.071,0.003h0.034
	c0.086,0,0.167-0.004,0.241-0.01l0.014-0.001c0.03-0.002,0.058-0.006,0.085-0.01c0.043-0.005,0.083-0.011,0.121-0.019
	c0.024-0.004,0.048-0.009,0.071-0.014c0.036-0.008,0.07-0.017,0.102-0.025c0.024-0.006,0.047-0.013,0.069-0.02
	c0.026-0.007,0.051-0.017,0.076-0.025l0.023-0.007c0.012-0.004,0.028-0.01,0.046-0.018c0.025-0.01,0.055-0.021,0.089-0.037
	c0.021-0.009,0.043-0.019,0.066-0.029c0.019-0.01,0.041-0.021,0.063-0.03c0.008-0.004,0.018-0.009,0.027-0.013V3.252
	c-0.006,0.005-0.013,0.009-0.019,0.013l-0.036,0.021C12.692,3.31,12.657,3.33,12.622,3.35c-0.038,0.02-0.077,0.04-0.114,0.058
	C12.443,3.44,12.38,3.466,12.32,3.487c-0.116,0.042-0.221,0.067-0.314,0.085c-0.011,0.001-0.022,0.003-0.033,0.005
	c-0.026,0.004-0.05,0.007-0.075,0.01c-0.036,0.003-0.071,0.006-0.101,0.007c-0.021,0-0.039,0.002-0.057,0.002
	c-0.037,0-0.076-0.001-0.116-0.004c-0.046-0.003-0.092-0.009-0.14-0.017c-0.076-0.013-0.153-0.033-0.227-0.061
	c-0.012-0.003-0.022-0.008-0.034-0.013c-0.007-0.002-0.014-0.005-0.022-0.008c-0.011-0.006-0.023-0.01-0.036-0.016
	c-0.026-0.012-0.052-0.026-0.077-0.041c-0.012-0.007-0.023-0.015-0.037-0.022c-0.012-0.008-0.025-0.017-0.038-0.026
	c-0.015-0.01-0.031-0.021-0.044-0.033c-0.015-0.012-0.029-0.024-0.042-0.035L10.91,3.304l-0.009-0.008l-0.005-0.005L10.89,3.285
	c-0.024-0.024-0.045-0.048-0.066-0.072c-0.01-0.013-0.021-0.027-0.031-0.041c-0.009-0.014-0.018-0.026-0.026-0.041
	c-0.009-0.012-0.016-0.024-0.023-0.038c-0.011-0.019-0.021-0.037-0.031-0.056c-0.006-0.016-0.014-0.032-0.02-0.048
	c-0.012-0.026-0.021-0.054-0.029-0.08c-0.007-0.019-0.012-0.04-0.018-0.06c-0.013-0.055-0.02-0.106-0.024-0.15
	c-0.002-0.016-0.002-0.032-0.003-0.046c-0.001-0.021-0.001-0.04-0.001-0.054V2.567c0.001-0.031,0.004-0.069,0.01-0.113
	c0.004-0.027,0.009-0.056,0.017-0.086c0.004-0.021,0.01-0.04,0.016-0.061c0.006-0.019,0.013-0.038,0.021-0.059
	c0.004-0.013,0.009-0.026,0.016-0.039c0.008-0.018,0.016-0.036,0.025-0.054c0.007-0.015,0.015-0.029,0.023-0.042
	c0.017-0.03,0.037-0.061,0.059-0.091C10.813,2.012,10.821,2,10.829,1.99c0.011-0.013,0.023-0.028,0.035-0.041
	c0.007-0.006,0.013-0.013,0.02-0.02c0.097-0.098,0.206-0.172,0.318-0.223c0.018-0.008,0.036-0.016,0.054-0.023
	c0.018-0.007,0.035-0.014,0.054-0.02s0.039-0.012,0.059-0.018c0.018-0.005,0.038-0.01,0.056-0.015
	c0.019-0.004,0.038-0.008,0.056-0.011c0.02-0.004,0.04-0.007,0.061-0.01c0.02-0.002,0.04-0.005,0.061-0.006
	c0.039-0.003,0.076-0.005,0.112-0.005c0.014,0,0.025,0,0.038,0c0.027,0,0.053,0.001,0.08,0.002c0.019,0.002,0.036,0.002,0.054,0.004
	c0.032,0.003,0.065,0.007,0.095,0.012c0.027,0.004,0.054,0.008,0.078,0.013c0.038,0.009,0.072,0.017,0.104,0.026
	c0.02,0.004,0.038,0.01,0.055,0.016c0.025,0.008,0.047,0.015,0.064,0.02c0.029,0.011,0.046,0.017,0.046,0.017
	c0.025,0.009,0.051,0.021,0.076,0.03C12.438,1.752,12.47,1.766,12.5,1.78c0.025,0.012,0.049,0.024,0.072,0.035
	c0.019,0.01,0.037,0.02,0.053,0.028c0.029,0.015,0.053,0.029,0.073,0.04l0.054,0.03V1.387c0,0-0.033-0.013-0.088-0.035
	c-0.025-0.009-0.054-0.02-0.088-0.031c-0.018-0.007-0.038-0.014-0.058-0.021c-0.017-0.005-0.033-0.011-0.051-0.017
	c-0.02-0.007-0.04-0.015-0.061-0.021c-0.016-0.004-0.031-0.01-0.048-0.015l-0.014-0.004c-0.013-0.004-0.03-0.008-0.044-0.013
	c-0.02-0.004-0.039-0.011-0.058-0.016c-0.012-0.002-0.025-0.005-0.038-0.008c-0.021-0.005-0.041-0.01-0.063-0.014
	C12.121,1.188,12.1,1.184,12.077,1.181 M9.484,0.634H13.6v3.923H9.484V0.634z"/>
<path d="M6.322,2.804v0.771h0.493c0,0,0.011-0.001,0.026-0.001c0.017-0.001,0.04-0.002,0.07-0.004
	c0.052-0.006,0.124-0.016,0.193-0.04C7.166,3.51,7.225,3.478,7.272,3.431C7.29,3.413,7.305,3.394,7.317,3.375
	c0.038-0.062,0.048-0.124,0.05-0.16C7.368,3.199,7.368,3.19,7.368,3.19s0-0.007,0-0.019c0-0.015-0.002-0.044-0.009-0.075
	C7.349,3.06,7.332,3.018,7.301,2.979c-0.007-0.006-0.013-0.014-0.02-0.021C7.268,2.944,7.252,2.93,7.236,2.918
	c-0.027-0.02-0.058-0.037-0.091-0.051c-0.044-0.021-0.094-0.035-0.15-0.045C6.969,2.816,6.938,2.812,6.908,2.81
	C6.889,2.807,6.871,2.806,6.852,2.805C6.834,2.804,6.817,2.804,6.799,2.804H6.322z"/>
<path d="M6.322,1.63v0.731H6.56c0,0,0.016,0,0.037,0C6.616,2.36,6.634,2.36,6.651,2.358C6.7,2.355,6.769,2.348,6.837,2.329
	c0.014-0.004,0.028-0.008,0.04-0.013C6.931,2.296,6.981,2.27,7.023,2.23c0.031-0.032,0.052-0.067,0.065-0.101
	c0.017-0.042,0.023-0.082,0.026-0.11c0.001-0.026,0.001-0.042,0.001-0.042s0-0.012,0-0.031C7.113,1.914,7.107,1.862,7.082,1.812
	C7.07,1.788,7.053,1.765,7.03,1.743C7.004,1.716,6.972,1.695,6.937,1.68C6.869,1.649,6.792,1.637,6.728,1.634
	C6.698,1.632,6.673,1.63,6.651,1.63H6.322z"/>
<path d="M5.822,1.184V4.01h1.05c0,0,0.513,0.013,0.795-0.272c0.23-0.233,0.214-0.503,0.214-0.503s0.016-0.281-0.197-0.498
	C7.502,2.554,7.271,2.504,7.271,2.504s0.104-0.049,0.186-0.131c0.037-0.038,0.171-0.161,0.171-0.458c0-0.3-0.197-0.472-0.197-0.472
	S7.214,1.184,6.728,1.184H5.822z M4.742,0.634h4.116v3.923H4.742V0.634z"/>
<path d="M1.58,2.804v0.771h0.495c0,0,0.009-0.001,0.025-0.001C2.117,3.573,2.141,3.572,2.169,3.57
	c0.054-0.006,0.124-0.016,0.193-0.04C2.424,3.51,2.483,3.478,2.531,3.431c0.018-0.019,0.032-0.037,0.044-0.057
	c0.039-0.062,0.048-0.124,0.05-0.16C2.627,3.199,2.627,3.19,2.627,3.19V3.172C2.625,3.157,2.623,3.128,2.616,3.097
	C2.606,3.06,2.589,3.018,2.558,2.979C2.553,2.972,2.546,2.965,2.54,2.958C2.525,2.944,2.511,2.93,2.496,2.918
	c-0.028-0.02-0.059-0.037-0.092-0.051c-0.045-0.021-0.095-0.035-0.15-0.045C2.227,2.816,2.197,2.812,2.167,2.81
	C2.148,2.807,2.129,2.806,2.11,2.805C2.093,2.804,2.075,2.804,2.058,2.804H1.58z"/>
<path d="M1.58,1.63v0.731h0.24c0,0,0.016,0,0.037,0C1.873,2.36,1.893,2.36,1.91,2.358c0.049-0.003,0.118-0.01,0.186-0.029
	c0.014-0.004,0.026-0.008,0.04-0.013C2.189,2.296,2.24,2.27,2.28,2.23c0.032-0.032,0.052-0.067,0.066-0.101
	c0.017-0.042,0.023-0.082,0.025-0.11c0.002-0.026,0.002-0.042,0.002-0.042V1.945C2.37,1.914,2.365,1.862,2.34,1.812
	C2.328,1.788,2.311,1.765,2.29,1.743C2.262,1.716,2.229,1.695,2.194,1.68C2.126,1.649,2.05,1.637,1.984,1.634
	C1.957,1.632,1.931,1.63,1.91,1.63H1.58z"/>
<path d="M1.08,1.184V4.01h1.05c0,0,0.512,0.013,0.794-0.272c0.23-0.233,0.214-0.503,0.214-0.503s0.016-0.281-0.197-0.498
	C2.759,2.554,2.528,2.504,2.528,2.504s0.105-0.049,0.185-0.131c0.038-0.038,0.172-0.161,0.172-0.458c0-0.3-0.197-0.472-0.197-0.472
	S2.473,1.184,1.986,1.184H1.08z M0,0.634h4.116v3.923H0V0.634z"/>
<path d="M0,5.529v3.243h0.459V7.365h0.193c0.236,0,0.426,0.077,0.85,0.742l0.423,0.665h0.548c-0.221-0.308-0.3-0.417-0.437-0.642
	C1.793,7.727,1.615,7.427,1.323,7.232c0.343-0.139,0.536-0.418,0.536-0.795c0-0.561-0.404-0.909-1.051-0.909L0,5.529L0,5.529z
	 M0.459,5.929h0.297c0.445,0,0.624,0.185,0.628,0.49C1.389,6.69,1.249,6.947,0.756,6.947H0.459V5.929z"/>
<path d="M4.146,5.511H3.823L2.447,8.772h0.469l0.405-0.955h1.361l0.427,0.955h0.469L4.146,5.511z M3.978,6.224l0.517,1.174H3.499
	L3.978,6.224z"/>
<path d="M5.96,8.772h1.249c1.057,0,1.699-0.789,1.699-1.621c0-0.766-0.521-1.623-1.703-1.623H5.96V8.772z M6.421,5.948h0.708
	c0.897,0,1.306,0.551,1.306,1.203c0,0.399-0.239,1.203-1.281,1.203H6.421V5.948z"/>
<line fill="none" stroke="#000000" stroke-width="0.4625" stroke-miterlimit="10" x1="9.668" y1="5.529" x2="9.668" y2="8.772"/>
<path d="M10.429,7.151c0,0.88,0.663,1.664,1.708,1.664c1.084,0,1.733-0.789,1.733-1.664c0-0.903-0.667-1.664-1.723-1.664
	C11.109,5.487,10.429,6.252,10.429,7.151 M10.903,7.151c0-0.714,0.531-1.236,1.244-1.236c0.719,0,1.249,0.522,1.249,1.236
	c0,0.708-0.53,1.236-1.249,1.236C11.434,8.388,10.903,7.859,10.903,7.151"/>
<path fill="#00B3DF" d="M26.771,0c-5.604,0-10.146,4.604-10.146,10.283s4.542,10.283,10.146,10.283
	c5.604,0,10.146-4.604,10.146-10.283S32.375,0,26.771,0 M27.36,7.869c2.568,0,4.363,1.984,4.363,4.825
	c0,1.375-0.531,2.659-1.496,3.616c-0.983,0.975-2.289,1.496-3.664,1.467c-2.322,0-4.675-1.17-5.097-3.758h3.696
	c0.288,0.436,0.763,0.693,1.345,0.693c1.132,0,1.739-1.041,1.739-2.02c0-0.968-0.537-1.945-1.739-1.945
	c-0.719,0-1.116,0.213-1.573,0.842l-0.109,0.148h-3.238l1.665-8.377h8.646l-0.6,3.056h-5.451c0,0-0.258,1.195-0.376,1.878
	C26.015,8.007,26.632,7.869,27.36,7.869"/>
<polygon fill="#00B3DF" points="41.679,6.435 40.397,6.435 40.26,7.375 41.542,7.375 "/>
<polygon fill="#00B3DF" points="40.789,13.363 41.47,8.104 40.187,8.104 39.507,13.363 "/>
<path fill="#00B3DF" d="M44.136,13.363l2.586-5.26h-1.375c0,0-1.188,2.579-1.465,3.182c-0.129-0.641-0.641-3.182-0.641-3.182h-1.35
	l1.225,5.26H44.136z"/>
<path fill="#00B3DF" d="M50.171,8.676c-0.354-0.407-0.873-0.631-1.466-0.631c-1.038,0-2.24,0.705-2.495,2.685
	c-0.119,0.917,0.023,1.617,0.424,2.079c0.348,0.401,0.891,0.614,1.568,0.614c0.75,0,1.434-0.293,1.977-0.848l0.105-0.107
	l-0.842-0.816l-0.103,0.094c-0.296,0.271-0.69,0.44-1.036,0.44c-0.305,0-0.545-0.091-0.693-0.265
	c-0.123-0.141-0.187-0.34-0.187-0.582c0-0.026,0.005-0.053,0.007-0.08h3.045l0.123-0.951c0.016-0.113,0.021-0.225,0.021-0.333
	C50.622,9.469,50.466,9.017,50.171,8.676 M49.328,10.139h-1.744c0.14-0.532,0.511-0.857,1-0.857c0.233,0,0.424,0.074,0.551,0.215
	c0.13,0.143,0.195,0.355,0.195,0.62C49.33,10.123,49.328,10.131,49.328,10.139"/>
<polygon fill="#00B3DF" points="39.562,6.435 38.28,6.435 37.38,13.357 38.662,13.357 "/>
</svg>
