<?xml version="1.0" encoding="utf-8"?>
<!-- Generator: Adobe Illustrator 12.0.0, SVG Export Plug-In  -->
<!DOCTYPE svg PUBLIC "-//W3C//DTD SVG 1.1//EN" "http://www.w3.org/Graphics/SVG/1.1/DTD/svg11.dtd" [
	<!ENTITY ns_flows "http://ns.adobe.com/Flows/1.0/">
	<!ENTITY ns_svg "http://www.w3.org/2000/svg">
	<!ENTITY ns_xlink "http://www.w3.org/1999/xlink">
]>
<svg  version="1.1" xmlns="&ns_svg;" xmlns:xlink="&ns_xlink;" xmlns:a="http://ns.adobe.com/AdobeSVGViewerExtensions/3.0/"
	 width="39" height="22" viewBox="-0.625 -0.549 39 22" enable-background="new -0.625 -0.549 39 22" xml:space="preserve">
<defs>
</defs>
<rect x="21.288" y="2.831" fill="#FFFFFF" stroke="#FFFFFF" width="12.096" height="15.12"/>
<path d="M12.343,1.191c-0.018-0.004-0.038-0.006-0.056-0.01l-0.023-0.003C12.232,1.173,12.2,1.17,12.166,1.167
	c-0.022-0.003-0.045-0.004-0.067-0.005c-0.04-0.003-0.079-0.004-0.116-0.004c-0.018,0-0.028,0-0.045,0
	c-0.033,0.001-0.063,0.003-0.094,0.005c-0.017,0.001-0.034,0.002-0.051,0.004c-0.025,0.002-0.049,0.004-0.074,0.008l-0.021,0.002
	l-0.023,0.004l-0.027,0.005c-0.012,0.001-0.024,0.003-0.036,0.006c-0.017,0.002-0.034,0.006-0.049,0.009
	c-0.1,0.022-0.193,0.049-0.277,0.082c-0.044,0.018-0.087,0.036-0.126,0.056c-0.034,0.017-0.066,0.034-0.097,0.052
	c-0.03,0.017-0.059,0.034-0.087,0.052c-0.015,0.012-0.031,0.021-0.047,0.033c-0.013,0.01-0.026,0.019-0.038,0.028
	c-0.027,0.021-0.053,0.042-0.077,0.063c-0.022,0.02-0.044,0.041-0.064,0.06c-0.018,0.017-0.037,0.035-0.052,0.055
	C10.68,1.701,10.663,1.72,10.647,1.74c-0.018,0.021-0.033,0.043-0.05,0.066c-0.013,0.017-0.024,0.034-0.036,0.052
	c-0.008,0.012-0.015,0.024-0.022,0.036c-0.045,0.071-0.082,0.148-0.115,0.23c-0.039,0.102-0.067,0.213-0.083,0.328
	c-0.004,0.038-0.008,0.075-0.011,0.114c-0.002,0.029-0.002,0.059-0.002,0.088c0,0.023,0,0.045,0,0.067
	c0.002,0.023,0.005,0.046,0.007,0.068l0.002,0.016c0.003,0.027,0.008,0.054,0.013,0.079c0.002,0.011,0.004,0.02,0.006,0.031
	c0.004,0.021,0.01,0.043,0.014,0.064c0.008,0.027,0.016,0.053,0.025,0.08c0.011,0.032,0.023,0.063,0.035,0.094
	c0.02,0.048,0.043,0.095,0.066,0.139c0.015,0.025,0.029,0.05,0.044,0.075c0.012,0.019,0.024,0.037,0.036,0.055
	c0.016,0.024,0.034,0.047,0.051,0.068c0.017,0.023,0.036,0.044,0.055,0.066c0.021,0.025,0.044,0.049,0.066,0.071l0.011,0.011
	c0.019,0.017,0.038,0.037,0.061,0.056c0.015,0.012,0.031,0.027,0.048,0.04c0.016,0.012,0.033,0.026,0.051,0.038
	c0.022,0.016,0.043,0.031,0.066,0.046c0.027,0.015,0.053,0.032,0.081,0.048c0.055,0.031,0.116,0.061,0.184,0.089
	c0.025,0.01,0.052,0.019,0.079,0.028c0.026,0.01,0.053,0.018,0.082,0.026c0.049,0.013,0.1,0.026,0.153,0.037
	c0.042,0.008,0.088,0.015,0.134,0.021c0.046,0.006,0.094,0.011,0.142,0.013c0.025,0.001,0.049,0.001,0.073,0.003h0.035
	c0.089,0,0.17-0.004,0.246-0.01l0.015-0.001c0.03-0.003,0.059-0.006,0.087-0.01c0.044-0.005,0.085-0.011,0.124-0.018
	c0.025-0.004,0.049-0.01,0.072-0.014c0.037-0.008,0.071-0.017,0.104-0.025c0.024-0.006,0.048-0.013,0.071-0.021
	c0.027-0.007,0.052-0.016,0.077-0.025l0.024-0.008c0.012-0.004,0.028-0.01,0.047-0.017c0.025-0.01,0.056-0.022,0.091-0.038
	c0.021-0.008,0.044-0.018,0.067-0.029c0.019-0.01,0.042-0.021,0.064-0.03c0.008-0.005,0.018-0.01,0.028-0.013V3.282
	c-0.007,0.004-0.014,0.009-0.02,0.012l-0.037,0.022C12.972,3.339,12.936,3.36,12.9,3.38c-0.039,0.02-0.078,0.04-0.117,0.059
	c-0.066,0.031-0.13,0.057-0.192,0.079c-0.118,0.043-0.225,0.069-0.32,0.086c-0.012,0.002-0.023,0.004-0.034,0.006
	c-0.027,0.003-0.051,0.007-0.076,0.01c-0.037,0.003-0.073,0.006-0.103,0.007C12.038,3.628,12.02,3.629,12,3.629
	c-0.038,0-0.077-0.001-0.118-0.004c-0.047-0.004-0.094-0.009-0.143-0.017c-0.078-0.013-0.157-0.033-0.232-0.061
	c-0.013-0.003-0.024-0.008-0.035-0.013c-0.007-0.002-0.014-0.006-0.023-0.009c-0.011-0.005-0.024-0.01-0.036-0.016
	c-0.027-0.013-0.053-0.026-0.079-0.041c-0.012-0.007-0.024-0.015-0.038-0.022c-0.012-0.009-0.025-0.017-0.038-0.027
	c-0.015-0.009-0.031-0.021-0.045-0.033c-0.016-0.012-0.031-0.024-0.044-0.035l-0.017-0.016l-0.009-0.008l-0.006-0.005l-0.006-0.006
	c-0.025-0.024-0.047-0.049-0.068-0.073c-0.01-0.013-0.021-0.028-0.032-0.041c-0.009-0.014-0.018-0.027-0.027-0.041
	c-0.008-0.012-0.016-0.025-0.023-0.038c-0.012-0.018-0.022-0.037-0.032-0.057c-0.007-0.015-0.014-0.032-0.021-0.048
	c-0.012-0.026-0.021-0.054-0.03-0.08c-0.007-0.02-0.012-0.041-0.018-0.061c-0.013-0.055-0.02-0.107-0.024-0.151
	c-0.003-0.017-0.003-0.033-0.004-0.047c-0.001-0.021-0.001-0.04-0.001-0.055V2.59c0.001-0.031,0.005-0.07,0.01-0.114
	c0.004-0.028,0.01-0.056,0.017-0.087c0.005-0.02,0.01-0.04,0.017-0.062c0.006-0.019,0.013-0.038,0.021-0.059
	c0.004-0.013,0.01-0.026,0.016-0.039c0.008-0.019,0.017-0.037,0.026-0.055c0.008-0.014,0.015-0.028,0.024-0.042
	c0.017-0.03,0.038-0.061,0.06-0.091c0.008-0.012,0.017-0.022,0.025-0.033c0.012-0.014,0.024-0.028,0.036-0.042
	c0.007-0.006,0.014-0.013,0.02-0.02c0.099-0.099,0.211-0.174,0.325-0.225c0.019-0.008,0.037-0.016,0.055-0.023
	c0.018-0.007,0.036-0.014,0.055-0.021c0.019-0.007,0.039-0.013,0.06-0.019c0.018-0.005,0.038-0.01,0.057-0.015
	c0.019-0.004,0.039-0.008,0.057-0.011c0.021-0.004,0.041-0.007,0.062-0.01c0.021-0.002,0.042-0.005,0.063-0.006
	c0.039-0.003,0.077-0.005,0.114-0.005c0.014,0,0.026,0,0.039,0c0.028,0.001,0.054,0.002,0.081,0.003
	c0.019,0.002,0.037,0.002,0.055,0.004c0.033,0.004,0.067,0.007,0.098,0.012c0.027,0.005,0.055,0.009,0.08,0.013
	c0.038,0.009,0.073,0.017,0.106,0.026c0.02,0.005,0.039,0.011,0.056,0.016c0.026,0.008,0.048,0.015,0.066,0.021
	c0.03,0.011,0.047,0.016,0.047,0.016c0.026,0.009,0.052,0.021,0.078,0.03c0.035,0.015,0.067,0.029,0.099,0.043
	c0.025,0.012,0.05,0.025,0.074,0.035c0.019,0.01,0.037,0.02,0.054,0.028c0.029,0.015,0.054,0.029,0.075,0.04l0.055,0.031V1.399
	c0,0-0.034-0.013-0.09-0.035c-0.026-0.01-0.056-0.021-0.09-0.032c-0.018-0.007-0.038-0.014-0.06-0.022
	c-0.016-0.005-0.033-0.011-0.051-0.017c-0.021-0.006-0.041-0.014-0.063-0.02c-0.016-0.004-0.031-0.01-0.048-0.015l-0.015-0.004
	c-0.015-0.004-0.032-0.008-0.046-0.013c-0.021-0.004-0.04-0.01-0.06-0.016c-0.012-0.002-0.026-0.004-0.038-0.008
	c-0.022-0.005-0.042-0.01-0.064-0.014S12.367,1.194,12.343,1.191 M9.693,0.64h4.206v3.958H9.693V0.64z"/>
<path d="M6.461,2.829v0.778h0.505c0,0,0.01-0.002,0.025-0.002c0.018,0,0.042-0.002,0.072-0.003C7.116,3.596,7.19,3.586,7.26,3.562
	c0.063-0.02,0.124-0.053,0.172-0.1C7.45,3.443,7.465,3.425,7.478,3.405C7.517,3.343,7.528,3.28,7.53,3.244
	c0.001-0.016,0.001-0.025,0.001-0.025s0-0.007,0-0.019c0-0.015-0.002-0.044-0.01-0.075c-0.01-0.037-0.027-0.079-0.059-0.119
	c-0.007-0.007-0.013-0.015-0.02-0.021C7.428,2.97,7.413,2.957,7.396,2.945c-0.028-0.02-0.06-0.038-0.094-0.053
	c-0.045-0.02-0.096-0.034-0.153-0.045C7.122,2.842,7.091,2.837,7.06,2.835C7.042,2.832,7.022,2.831,7.002,2.83
	C6.984,2.829,6.968,2.829,6.949,2.829H6.461z"/>
<path d="M6.461,1.645v0.737h0.244c0,0,0.016,0,0.038,0C6.761,2.381,6.78,2.381,6.798,2.379c0.05-0.004,0.12-0.01,0.189-0.029
	c0.015-0.004,0.029-0.009,0.041-0.014c0.054-0.019,0.107-0.047,0.148-0.087c0.032-0.032,0.053-0.068,0.067-0.102
	C7.261,2.105,7.267,2.064,7.27,2.036C7.271,2.01,7.271,1.994,7.271,1.994s0-0.012,0-0.031c0-0.032-0.007-0.085-0.033-0.135
	c-0.012-0.024-0.03-0.047-0.052-0.069C7.159,1.732,7.125,1.71,7.09,1.695C7.021,1.664,6.941,1.652,6.875,1.648
	C6.847,1.646,6.82,1.645,6.797,1.645H6.461z"/>
<path d="M5.951,1.194v2.852h1.073c0,0,0.524,0.013,0.813-0.275c0.235-0.236,0.218-0.508,0.218-0.508S8.071,2.98,7.854,2.761
	C7.667,2.576,7.432,2.526,7.432,2.526s0.106-0.049,0.189-0.132c0.038-0.038,0.175-0.162,0.175-0.462
	c0-0.303-0.201-0.477-0.201-0.477S7.374,1.194,6.876,1.194H5.951z M4.848,0.64h4.206v3.958H4.848V0.64z"/>
<path d="M1.615,2.829v0.778h0.506c0,0,0.009-0.002,0.026-0.002s0.041-0.002,0.07-0.003c0.055-0.006,0.127-0.016,0.197-0.04
	c0.064-0.02,0.125-0.053,0.173-0.1C2.605,3.443,2.62,3.425,2.632,3.405C2.671,3.343,2.681,3.28,2.683,3.244
	c0.002-0.016,0.002-0.025,0.002-0.025V3.2C2.683,3.185,2.682,3.156,2.674,3.125C2.665,3.088,2.647,3.046,2.615,3.006
	C2.61,2.999,2.603,2.991,2.596,2.985C2.581,2.97,2.567,2.957,2.551,2.945c-0.029-0.02-0.06-0.038-0.094-0.053
	C2.411,2.872,2.36,2.857,2.304,2.847c-0.027-0.005-0.058-0.01-0.089-0.012C2.196,2.832,2.177,2.831,2.157,2.83
	C2.14,2.829,2.121,2.829,2.104,2.829H1.615z"/>
<path d="M1.615,1.645v0.737H1.86c0,0,0.016,0,0.037,0c0.017-0.001,0.038-0.001,0.055-0.003c0.051-0.004,0.121-0.01,0.19-0.029
	c0.014-0.004,0.027-0.009,0.041-0.014C2.237,2.317,2.29,2.289,2.33,2.249c0.032-0.032,0.053-0.068,0.068-0.102
	c0.017-0.042,0.024-0.083,0.026-0.111C2.426,2.01,2.426,1.994,2.426,1.994V1.963C2.423,1.931,2.417,1.878,2.392,1.828
	C2.38,1.804,2.362,1.781,2.341,1.759C2.312,1.732,2.279,1.71,2.243,1.695C2.174,1.664,2.096,1.652,2.029,1.648
	C2,1.646,1.974,1.645,1.952,1.645H1.615z"/>
<path d="M1.104,1.194v2.852h1.073c0,0,0.523,0.013,0.812-0.275c0.235-0.236,0.219-0.508,0.219-0.508S3.225,2.98,3.006,2.761
	C2.82,2.576,2.584,2.526,2.584,2.526s0.107-0.049,0.189-0.132C2.813,2.356,2.95,2.232,2.95,1.932c0-0.303-0.202-0.477-0.202-0.477
	s-0.22-0.261-0.717-0.261H1.104z M0,0.64h4.206v3.958H0V0.64z"/>
<path d="M0,5.578v3.273h0.47v-1.42h0.197c0.241,0,0.436,0.077,0.869,0.749l0.432,0.671h0.56C2.303,8.54,2.222,8.429,2.082,8.203
	C1.833,7.796,1.65,7.493,1.353,7.297C1.703,7.157,1.9,6.875,1.9,6.495c0-0.566-0.412-0.917-1.074-0.917H0z M0.47,5.982h0.303
	c0.455,0,0.638,0.187,0.642,0.494C1.42,6.75,1.276,7.009,0.773,7.009H0.47V5.982z"/>
<path d="M4.238,5.56H3.907L2.501,8.851h0.48l0.413-0.964h1.392l0.436,0.964h0.479L4.238,5.56z M4.066,6.28l0.528,1.184H3.576
	L4.066,6.28z"/>
<path d="M6.092,8.85h1.276c1.08,0,1.737-0.796,1.737-1.635c0-0.772-0.532-1.637-1.741-1.637H6.092V8.85z M6.563,6.001h0.723
	c0.917,0,1.335,0.557,1.335,1.214c0,0.403-0.245,1.214-1.309,1.214H6.563V6.001z"/>
<line fill="none" stroke="#000000" stroke-width="0.47" stroke-miterlimit="10" x1="9.881" y1="8.85" x2="9.881" y2="5.578"/>
<path d="M10.658,7.215c0,0.888,0.678,1.679,1.747,1.679c1.108,0,1.77-0.797,1.77-1.679c0-0.911-0.68-1.679-1.76-1.679
	C11.354,5.536,10.658,6.308,10.658,7.215 M11.143,7.215c0-0.72,0.542-1.247,1.272-1.247c0.734,0,1.276,0.527,1.276,1.247
	c0,0.715-0.542,1.248-1.276,1.248C11.685,8.463,11.143,7.93,11.143,7.215"/>
<path fill="#F47C22" d="M27.361,0c-5.728,0-10.37,4.645-10.37,10.375c0,5.73,4.643,10.376,10.37,10.376
	c5.729,0,10.369-4.646,10.369-10.376C37.73,4.645,33.089,0,27.361,0 M32.927,16.855h-11.45l5.91-6.939
	c0.842-0.951,1.299-1.597,1.299-2.288c0-0.622-0.427-1.293-1.115-1.293c-0.824,0-1.238,0.815-1.271,1.393L26.27,8.275h-3.793
	l0.031-0.609c0.057-1.069,0.236-1.656,0.738-2.419c1.018-1.546,2.441-2.298,4.354-2.298c3.225,0,5.227,1.7,5.227,4.438
	c0,1.154-0.396,2.087-1.313,3.102l-2.352,2.687h3.766L32.927,16.855L32.927,16.855z"/>
</svg>
