<?xml version="1.0" encoding="UTF-8" standalone="no"?>
<!-- Created with Inkscape (http://www.inkscape.org/) -->

<svg
   xmlns:dc="http://purl.org/dc/elements/1.1/"
   xmlns:cc="http://creativecommons.org/ns#"
   xmlns:rdf="http://www.w3.org/1999/02/22-rdf-syntax-ns#"
   xmlns:svg="http://www.w3.org/2000/svg"
   xmlns="http://www.w3.org/2000/svg"
   version="1.1"
   width="300"
   height="116.69094"
   id="svg7407">
  <defs
     id="defs7409">
    <clipPath
       id="clip5">
      <path
         d="m 122.24219,170.33203 64.3125,0 0,-25.01562 -64.3125,0 z"
         id="path376" />
    </clipPath>
  </defs>
  <metadata
     id="metadata7412">
    <rdf:RDF>
      <cc:Work
         rdf:about="">
        <dc:format>image/svg+xml</dc:format>
        <dc:type
           rdf:resource="http://purl.org/dc/dcmitype/StillImage" />
        <cc:license
           rdf:resource="" />
        <dc:title></dc:title>
      </cc:Work>
    </rdf:RDF>
  </metadata>
  <g
     transform="translate(-456.94755,-314.16315)"
     id="layer1">
    <g
       transform="matrix(4.664723,0,0,4.664723,-113.27841,-363.69765)"
       clip-path="url(#clip5)"
       id="g4368"
       style="fill:#000000;clip-rule:nonzero">
      <path
         d="m 133.9375,146.08594 5.07812,0 0,4.77734 -5.07812,0 z m 3.19922,0.66797 c -0.0234,-0.008 -0.0469,-0.008 -0.0703,-0.0156 l -0.0273,0 c -0.0391,-0.008 -0.0742,-0.0117 -0.11719,-0.0156 -0.0273,-0.004 -0.0547,-0.004 -0.0781,-0.004 -0.0508,-0.004 -0.0977,-0.004 -0.14453,-0.004 -0.0195,0 -0.0312,0 -0.0508,0 -0.0391,0 -0.0781,0.004 -0.11328,0.004 -0.0234,0 -0.043,0.004 -0.0625,0.004 -0.0312,0.004 -0.0586,0.008 -0.0898,0.0117 l -0.0234,0 -0.0312,0.004 -0.0312,0.008 c -0.0156,0 -0.0273,0.004 -0.043,0.008 -0.0195,0.004 -0.0391,0.008 -0.0586,0.0117 -0.12109,0.0234 -0.23437,0.0586 -0.33594,0.0977 -0.0508,0.0234 -0.10156,0.043 -0.15234,0.0664 -0.0391,0.0195 -0.0781,0.043 -0.11719,0.0625 -0.0352,0.0234 -0.0703,0.043 -0.10156,0.0664 -0.0195,0.0117 -0.0391,0.0234 -0.0586,0.0391 -0.0156,0.0117 -0.0312,0.0195 -0.0469,0.0312 -0.0312,0.0273 -0.0625,0.0508 -0.0937,0.0781 -0.0234,0.0234 -0.0508,0.0469 -0.0742,0.0703 -0.0234,0.0234 -0.043,0.043 -0.0625,0.0703 -0.0234,0.0195 -0.043,0.043 -0.0625,0.0664 -0.0234,0.0273 -0.0391,0.0547 -0.0586,0.082 -0.0156,0.0195 -0.0312,0.0391 -0.0469,0.0625 -0.008,0.0117 -0.0156,0.0273 -0.0234,0.043 -0.0547,0.0859 -0.10157,0.17578 -0.14063,0.27735 -0.0469,0.12109 -0.082,0.25781 -0.0977,0.39453 -0.008,0.0469 -0.0117,0.0898 -0.0156,0.13672 -0.004,0.0352 -0.004,0.0742 -0.004,0.10937 0,0.0273 0,0.0508 0,0.0781 0.004,0.0273 0.008,0.0547 0.0117,0.082 l 0,0.0195 c 0.004,0.0352 0.0117,0.0664 0.0156,0.0977 0.004,0.0117 0.004,0.0234 0.008,0.0352 0.004,0.0273 0.0117,0.0508 0.0195,0.0781 0.008,0.0312 0.0156,0.0625 0.0273,0.0977 0.0117,0.0391 0.0273,0.0742 0.043,0.11328 0.0234,0.0586 0.0508,0.11328 0.0781,0.16407 0.0195,0.0312 0.0352,0.0625 0.0547,0.0937 0.0156,0.0195 0.0273,0.043 0.043,0.0664 0.0195,0.0273 0.043,0.0547 0.0625,0.082 0.0195,0.0273 0.043,0.0508 0.0664,0.0781 0.0234,0.0312 0.0508,0.0586 0.0781,0.0859 l 0.0117,0.0117 c 0.0234,0.0234 0.0469,0.0469 0.0742,0.0703 0.0195,0.0156 0.0391,0.0312 0.0586,0.0469 0.0195,0.0156 0.0391,0.0312 0.0625,0.0469 0.0273,0.0195 0.0508,0.0352 0.0781,0.0547 0.0352,0.0195 0.0664,0.0391 0.0977,0.0586 0.0664,0.0391 0.14062,0.0742 0.22266,0.10547 0.0312,0.0117 0.0625,0.0234 0.0937,0.0352 0.0352,0.0117 0.0664,0.0234 0.10156,0.0312 0.0586,0.0156 0.12109,0.0312 0.18359,0.043 0.0508,0.0117 0.10938,0.0195 0.16406,0.0273 0.0547,0.008 0.11329,0.0117 0.16797,0.0156 0.0312,0 0.0625,0 0.0898,0.004 l 0.043,0 c 0.10546,0 0.20312,-0.008 0.29687,-0.0117 l 0.0156,-0.004 c 0.0391,-0.004 0.0742,-0.008 0.10546,-0.0117 0.0547,-0.004 0.10157,-0.0117 0.15235,-0.0234 0.0273,-0.004 0.0547,-0.008 0.0859,-0.0156 0.043,-0.008 0.0859,-0.0195 0.125,-0.0312 0.0273,-0.004 0.0586,-0.0117 0.0859,-0.0234 0.0312,-0.008 0.0625,-0.0195 0.0937,-0.0312 l 0.0273,-0.008 c 0.0156,-0.008 0.0352,-0.0117 0.0547,-0.0195 0.0312,-0.0117 0.0703,-0.0273 0.11329,-0.0469 0.0234,-0.0117 0.0508,-0.0234 0.0781,-0.0352 0.0234,-0.0117 0.0508,-0.0273 0.0781,-0.0352 0.0117,-0.008 0.0234,-0.0117 0.0352,-0.0156 l 0,-0.65625 c -0.0117,0.008 -0.0195,0.0117 -0.0234,0.0156 l -0.0469,0.0273 c -0.043,0.0273 -0.0859,0.0508 -0.12891,0.0781 -0.0469,0.0234 -0.0937,0.0469 -0.14062,0.0703 -0.0781,0.0391 -0.15625,0.0703 -0.23047,0.0977 -0.14453,0.0508 -0.27344,0.082 -0.39063,0.10156 -0.0117,0 -0.0273,0.004 -0.0391,0.008 -0.0312,0.004 -0.0625,0.008 -0.0937,0.0117 -0.043,0.004 -0.0859,0.008 -0.12109,0.008 -0.0273,0 -0.0508,0.004 -0.0703,0.004 -0.0469,0 -0.0937,-0.004 -0.14454,-0.008 -0.0547,-0.004 -0.11328,-0.008 -0.17187,-0.0195 -0.0937,-0.0156 -0.1875,-0.0391 -0.27734,-0.0742 -0.0156,-0.004 -0.0312,-0.008 -0.043,-0.0156 -0.0117,0 -0.0195,-0.004 -0.0273,-0.008 -0.0156,-0.008 -0.0312,-0.0156 -0.0469,-0.0195 -0.0312,-0.0156 -0.0625,-0.0312 -0.0937,-0.0508 -0.0156,-0.008 -0.0273,-0.0195 -0.0469,-0.0273 -0.0117,-0.008 -0.0273,-0.0195 -0.043,-0.0312 -0.0195,-0.0117 -0.0391,-0.0273 -0.0547,-0.0391 -0.0195,-0.0156 -0.0391,-0.0312 -0.0547,-0.043 l -0.0312,-0.0312 -0.008,-0.004 -0.008,-0.008 c -0.0273,-0.0312 -0.0547,-0.0586 -0.0781,-0.0898 -0.0156,-0.0156 -0.0273,-0.0312 -0.0391,-0.0469 -0.0117,-0.0156 -0.0234,-0.0312 -0.0352,-0.0508 -0.008,-0.0156 -0.0195,-0.0273 -0.0273,-0.043 -0.0117,-0.0234 -0.0273,-0.0469 -0.0391,-0.0703 -0.008,-0.0195 -0.0156,-0.0391 -0.0234,-0.0586 -0.0156,-0.0312 -0.0273,-0.0664 -0.0352,-0.0977 -0.008,-0.0234 -0.0156,-0.0469 -0.0234,-0.0742 -0.0156,-0.0625 -0.0234,-0.12891 -0.0312,-0.17969 0,-0.0195 0,-0.0391 -0.004,-0.0586 0,-0.0234 0,-0.0469 0,-0.0664 l 0,-0.0391 c 0,-0.0391 0.004,-0.0859 0.0117,-0.13672 0.004,-0.0352 0.0117,-0.0703 0.0195,-0.10547 0.008,-0.0273 0.0156,-0.0508 0.0195,-0.0742 0.008,-0.0234 0.0156,-0.0469 0.0273,-0.0742 0.004,-0.0156 0.0117,-0.0312 0.0195,-0.0469 0.008,-0.0195 0.0195,-0.043 0.0312,-0.0664 0.008,-0.0156 0.0195,-0.0352 0.0273,-0.0508 0.0234,-0.0352 0.0469,-0.0703 0.0742,-0.10938 0.008,-0.0117 0.0195,-0.0273 0.0312,-0.0391 0.0117,-0.0156 0.0273,-0.0352 0.043,-0.0508 0.008,-0.008 0.0156,-0.0156 0.0234,-0.0234 0.1211,-0.12109 0.25391,-0.21094 0.39063,-0.27344 0.0234,-0.008 0.0469,-0.0195 0.0664,-0.0273 0.0234,-0.008 0.043,-0.0156 0.0664,-0.0234 0.0234,-0.008 0.0469,-0.0156 0.0742,-0.0234 0.0195,-0.004 0.0469,-0.0117 0.0664,-0.0156 0.0234,-0.008 0.0508,-0.0117 0.0703,-0.0156 0.0234,-0.004 0.0508,-0.008 0.0742,-0.0117 0.0273,-0.004 0.0508,-0.004 0.0781,-0.008 0.0469,-0.004 0.0898,-0.004 0.13672,-0.004 0.0156,0 0.0312,0 0.0469,0 0.0352,0 0.0664,0 0.0977,0.004 0.0234,0 0.0469,0 0.0664,0.004 0.0391,0.004 0.082,0.008 0.11718,0.0156 0.0352,0.004 0.0664,0.008 0.0977,0.0156 0.0469,0.008 0.0859,0.0195 0.12891,0.0312 0.0234,0.004 0.043,0.0117 0.0664,0.0195 0.0312,0.008 0.0586,0.0156 0.0781,0.0234 0.0391,0.0117 0.0586,0.0195 0.0586,0.0195 0.0312,0.0117 0.0625,0.0273 0.0937,0.0352 0.043,0.0195 0.082,0.0352 0.11719,0.0547 0.0312,0.0117 0.0625,0.0273 0.0898,0.0391 0.0234,0.0117 0.0469,0.0273 0.0664,0.0352 0.0352,0.0195 0.0664,0.0352 0.0898,0.0469 l 0.0664,0.0391 0,-0.64062 c 0,0 -0.0391,-0.0156 -0.10938,-0.043 -0.0312,-0.0117 -0.0664,-0.0234 -0.10546,-0.0391 -0.0234,-0.008 -0.0469,-0.0156 -0.0742,-0.0234 -0.0195,-0.008 -0.0391,-0.0156 -0.0625,-0.0234 -0.0234,-0.008 -0.0469,-0.0156 -0.0742,-0.0234 -0.0195,-0.004 -0.0391,-0.0117 -0.0586,-0.0156 l -0.0156,-0.008 c -0.0195,-0.004 -0.0391,-0.008 -0.0586,-0.0156 -0.0234,-0.004 -0.0469,-0.0117 -0.0703,-0.0195 -0.0156,0 -0.0312,-0.004 -0.0469,-0.008 -0.0273,-0.008 -0.0508,-0.0117 -0.0781,-0.0195 -0.0273,-0.004 -0.0508,-0.008 -0.0781,-0.0117"
         id="path4370"
         style="fill:#000000;fill-opacity:1;fill-rule:evenodd;stroke:none" />
      <path
         d="m 130.03906,148.72656 0,0.94141 0.60938,0 c 0,0 0.0117,-0.004 0.0312,-0.004 0.0195,0 0.0508,0 0.0859,-0.004 0.0664,-0.008 0.15235,-0.0195 0.23829,-0.0469 0.0742,-0.0234 0.14843,-0.0625 0.20703,-0.12109 0.0234,-0.0234 0.0391,-0.043 0.0547,-0.0703 0.0469,-0.0742 0.0586,-0.14843 0.0625,-0.1914 0,-0.0195 0,-0.0312 0,-0.0312 0,0 0,-0.008 0,-0.0234 0,-0.0156 0,-0.0508 -0.0117,-0.0898 -0.0117,-0.0469 -0.0312,-0.0977 -0.0703,-0.14453 -0.008,-0.008 -0.0156,-0.0156 -0.0234,-0.0234 -0.0156,-0.0195 -0.0352,-0.0352 -0.0547,-0.0508 -0.0352,-0.0234 -0.0742,-0.043 -0.11328,-0.0625 -0.0547,-0.0234 -0.11719,-0.043 -0.1836,-0.0547 -0.0352,-0.004 -0.0703,-0.0117 -0.10937,-0.0156 -0.0234,-0.004 -0.0469,-0.004 -0.0703,-0.004 -0.0195,-0.004 -0.043,-0.004 -0.0625,-0.004 z"
         id="path4372"
         style="fill:#000000;fill-opacity:1;fill-rule:evenodd;stroke:none" />
      <path
         d="m 130.03906,147.30078 0,0.89063 0.29297,0 c 0,0 0.0195,0 0.0469,-0.004 0.0234,0 0.043,0 0.0664,-0.004 0.0625,-0.004 0.14453,-0.0117 0.23047,-0.0352 0.0156,-0.004 0.0312,-0.008 0.0469,-0.0156 0.0664,-0.0234 0.1289,-0.0547 0.17968,-0.10156 0.0391,-0.0391 0.0625,-0.082 0.082,-0.125 0.0195,-0.0508 0.0273,-0.10156 0.0312,-0.13281 0,-0.0312 0,-0.0508 0,-0.0508 0,0 0,-0.0156 0,-0.0391 0,-0.0391 -0.008,-0.10156 -0.0391,-0.16406 -0.0156,-0.0273 -0.0352,-0.0547 -0.0625,-0.082 -0.0352,-0.0312 -0.0742,-0.0586 -0.11719,-0.0781 -0.082,-0.0352 -0.17968,-0.0508 -0.25781,-0.0547 -0.0352,-0.004 -0.0664,-0.004 -0.0937,-0.004 z"
         id="path4374"
         style="fill:#000000;fill-opacity:1;fill-rule:evenodd;stroke:none" />
      <path
         d="m 128.09375,146.08594 5.07422,0 0,4.77734 -5.07422,0 z m 1.32812,0.67187 0,3.4375 1.29688,0 c 0,0 0.63281,0.0195 0.98047,-0.33203 0.28125,-0.28125 0.26172,-0.60937 0.26172,-0.60937 0,0 0.0195,-0.34375 -0.24219,-0.60547 -0.22656,-0.22266 -0.50781,-0.28516 -0.50781,-0.28516 0,0 0.1289,-0.0586 0.22656,-0.16016 0.0469,-0.0469 0.21094,-0.19531 0.21094,-0.55859 0,-0.36328 -0.24219,-0.57422 -0.24219,-0.57422 0,0 -0.26563,-0.3125 -0.86719,-0.3125 z"
         id="path4376"
         style="fill:#000000;fill-opacity:1;fill-rule:evenodd;stroke:none" />
      <path
         d="m 124.19141,148.72656 0,0.94141 0.60937,0 c 0,0 0.0117,-0.004 0.0312,-0.004 0.0234,0 0.0508,0 0.0859,-0.004 0.0664,-0.008 0.15234,-0.0195 0.23828,-0.0469 0.0781,-0.0234 0.14844,-0.0625 0.20703,-0.12109 0.0234,-0.0234 0.0391,-0.043 0.0547,-0.0703 0.0469,-0.0742 0.0586,-0.14843 0.0625,-0.1914 0.004,-0.0195 0.004,-0.0312 0.004,-0.0312 l 0,-0.0234 c -0.004,-0.0156 -0.004,-0.0508 -0.0156,-0.0898 -0.0117,-0.0469 -0.0312,-0.0977 -0.0703,-0.14453 -0.008,-0.008 -0.0156,-0.0156 -0.0234,-0.0234 -0.0156,-0.0195 -0.0352,-0.0352 -0.0547,-0.0508 -0.0352,-0.0234 -0.0703,-0.043 -0.11328,-0.0625 -0.0547,-0.0234 -0.11719,-0.043 -0.18359,-0.0547 -0.0352,-0.004 -0.0703,-0.0117 -0.10938,-0.0156 -0.0195,-0.004 -0.043,-0.004 -0.0664,-0.004 -0.0234,-0.004 -0.043,-0.004 -0.0664,-0.004 z"
         id="path4378"
         style="fill:#000000;fill-opacity:1;fill-rule:evenodd;stroke:none" />
      <path
         d="m 124.19141,147.30078 0,0.89063 0.29687,0 c 0,0 0.0195,0 0.043,-0.004 0.0234,0 0.0469,0 0.0664,-0.004 0.0625,-0.004 0.14843,-0.0117 0.23047,-0.0352 0.0156,-0.004 0.0312,-0.008 0.0469,-0.0156 0.0664,-0.0234 0.13281,-0.0547 0.17969,-0.10156 0.0391,-0.0391 0.0625,-0.082 0.082,-0.125 0.0195,-0.0508 0.0273,-0.10156 0.0312,-0.13281 0.004,-0.0312 0.004,-0.0508 0.004,-0.0508 l 0,-0.0391 c -0.004,-0.0391 -0.0117,-0.10156 -0.043,-0.16406 -0.0156,-0.0273 -0.0352,-0.0547 -0.0625,-0.082 -0.0352,-0.0312 -0.0742,-0.0586 -0.11719,-0.0781 -0.082,-0.0352 -0.17578,-0.0508 -0.25781,-0.0547 -0.0352,-0.004 -0.0664,-0.004 -0.0937,-0.004 z"
         id="path4380"
         style="fill:#000000;fill-opacity:1;fill-rule:evenodd;stroke:none" />
      <path
         d="m 122.24219,146.08594 5.07422,0 0,4.77734 -5.07422,0 z m 1.33203,0.67187 0,3.4375 1.29687,0 c 0,0 0.63282,0.0195 0.98047,-0.33203 0.28125,-0.28125 0.26172,-0.60937 0.26172,-0.60937 0,0 0.0195,-0.34375 -0.24219,-0.60547 -0.22265,-0.22266 -0.50781,-0.28516 -0.50781,-0.28516 0,0 0.12891,-0.0586 0.22656,-0.16016 0.0469,-0.0469 0.21094,-0.19531 0.21094,-0.55859 0,-0.36328 -0.24219,-0.57422 -0.24219,-0.57422 0,0 -0.26562,-0.3125 -0.86718,-0.3125 z"
         id="path4382"
         style="fill:#000000;fill-opacity:1;fill-rule:evenodd;stroke:none" />
      <path
         d="m 122.8125,152.53125 0.36328,0 c 0.55078,0 0.76953,0.22656 0.77735,0.59766 0.004,0.32812 -0.16797,0.64062 -0.77735,0.64062 l -0.36328,0 z m -0.57031,-0.48438 0,3.94532 0.57031,0 0,-1.71094 0.23438,0 c 0.29296,0 0.52734,0.0937 1.05078,0.90234 l 0.51953,0.8086 0.67578,0 c -0.26953,-0.375 -0.36719,-0.50782 -0.53906,-0.78125 -0.30078,-0.48828 -0.51953,-0.85547 -0.87891,-1.08985 0.42188,-0.17187 0.66016,-0.51172 0.66016,-0.96875 0,-0.68359 -0.4961,-1.10547 -1.29688,-1.10547 z"
         id="path4384"
         style="fill:#000000;fill-opacity:1;fill-rule:evenodd;stroke:none" />
      <path
         d="m 127.14844,152.89062 0.63672,1.42969 -1.22657,0 z m 0.20703,-0.86718 -0.39844,0 -1.69531,3.96875 0.57812,0 0.5,-1.16016 1.67578,0 0.52735,1.16016 0.57812,0 z"
         id="path4386"
         style="fill:#000000;fill-opacity:1;fill-rule:evenodd;stroke:none" />
      <path
         d="m 130.16016,152.55469 0.875,0 c 1.10546,0 1.60937,0.67187 1.60937,1.46484 0,0.48828 -0.29687,1.46484 -1.58203,1.46484 l -0.90234,0 z m -0.56641,3.4375 1.53906,0 c 1.30469,0 2.09375,-0.96094 2.09375,-1.97266 0,-0.92969 -0.64062,-1.97266 -2.09765,-1.97266 l -1.53516,0 z"
         id="path4388"
         style="fill:#000000;fill-opacity:1;fill-rule:evenodd;stroke:none" />
      <path
         d="m 133.88281,152.04687 0.56641,0 0,3.94532 -0.56641,0 z"
         id="path4390"
         style="fill:#000000;fill-opacity:1;fill-rule:evenodd;stroke:none" />
      <path
         d="m 135.6875,154.01953 c 0,-0.86719 0.65234,-1.50391 1.53516,-1.50391 0.88671,0 1.53906,0.63672 1.53906,1.50391 0,0.86328 -0.65235,1.50781 -1.53906,1.50781 -0.88282,0 -1.53516,-0.64453 -1.53516,-1.50781 m -0.58594,0 c 0,1.07031 0.81641,2.02734 2.10938,2.02734 1.33593,0 2.13672,-0.96093 2.13672,-2.02734 0,-1.09766 -0.82422,-2.02344 -2.125,-2.02344 -1.28125,0 -2.1211,0.92969 -2.1211,2.02344"
         id="path4392"
         style="fill:#000000;fill-opacity:1;fill-rule:evenodd;stroke:none" />
      <path
         d="m 157.02344,163.28125 3.55078,-5.41797 -3.55078,-5.39844 z"
         id="path4394"
         style="fill:#000000;fill-opacity:1;fill-rule:nonzero;stroke:none" />
      <path
         d="m 160.69141,165.54297 -8.0586,0 0,-10.63281 -1.96094,0 2.82422,-4.28516 7.44922,0 c 0,0 1.51563,2.30078 2.3086,3.50391 0.71093,-1.08204 2.0039,-3.05079 2.25781,-3.4375 -2.25781,-3.2461 -6.01172,-5.375 -10.26563,-5.375 -6.90625,0 -12.5039,5.60156 -12.5039,12.50781 0,6.91015 5.59765,12.50781 12.5039,12.50781 4.22657,0 7.96094,-2.10156 10.22266,-5.31641 -0.54297,-0.83593 -1.60938,-2.46484 -2.21484,-3.39453 -0.84375,1.28907 -2.5625,3.92188 -2.5625,3.92188"
         id="path4396"
         style="fill:#000000;fill-opacity:1;fill-rule:nonzero;stroke:none" />
      <path
         d="m 167.50391,160.27734 c 0.16015,-0.79297 0.24218,-1.61328 0.24218,-2.45312 0,-0.8125 -0.0781,-1.60547 -0.22656,-2.375 -0.004,0.004 -1.58984,2.41406 -1.58984,2.41406 0,0 0.8164,1.25391 1.57422,2.41406"
         id="path4398"
         style="fill:#000000;fill-opacity:1;fill-rule:nonzero;stroke:none" />
      <path
         d="m 177.57812,155.87891 c -0.6914,0 -1.37109,0.41015 -1.76171,1.27343 l 0,-1.05468 -1.8086,0 0,8.34765 2.08985,0 0,-3.3789 c 0,-0.45313 0,-0.97266 0.0195,-1.42969 0.043,-1.22656 0.51562,-1.91797 1.11328,-1.91797 0.22265,0 0.45703,0.0937 0.61328,0.17187 l 0.64453,-1.79296 c -0.20312,-0.0937 -0.47266,-0.21875 -0.91016,-0.21875"
         id="path4400"
         style="fill:#000000;fill-opacity:1;fill-rule:nonzero;stroke:none" />
      <path
         d="m 184.46484,156.09766 0,0.91406 c -0.7539,-0.75391 -1.62109,-1.13281 -2.625,-1.13281 -2.17187,0 -3.92968,1.79296 -3.92968,4.40234 0,2.5625 1.85156,4.38672 3.97656,4.38672 1.05469,0 1.83984,-0.37891 2.57812,-1.10156 l 0,0.88281 2.08985,0 0,-8.35156 z m -2.20312,6.65234 c -1.30469,0 -2.2461,-1.05469 -2.2461,-2.48438 0,-1.36718 0.86329,-2.46875 2.2461,-2.46875 1.32031,0 2.29687,0.99219 2.29687,2.45313 0,1.52344 -1.00781,2.5 -2.29687,2.5"
         id="path4402"
         style="fill:#000000;fill-opacity:1;fill-rule:nonzero;stroke:none" />
      <path
         d="m 172.04687,153.01953 -2.08984,0 0,3.07813 -1.06641,0 0,1.79296 1.06641,0 0,6.55469 2.08984,0 0,-6.55469 1.24219,0 0,-1.79296 -1.24219,0 z"
         id="path4404"
         style="fill:#000000;fill-opacity:1;fill-rule:nonzero;stroke:none" />
    </g>
  </g>
</svg>
