<?xml version="1.0" encoding="utf-8"?>
<!-- Generator: Adobe Illustrator 12.0.0, SVG Export Plug-In  -->
<!DOCTYPE svg PUBLIC "-//W3C//DTD SVG 1.1//EN" "http://www.w3.org/Graphics/SVG/1.1/DTD/svg11.dtd" [
	<!ENTITY ns_flows "http://ns.adobe.com/Flows/1.0/">
	<!ENTITY ns_svg "http://www.w3.org/2000/svg">
	<!ENTITY ns_xlink "http://www.w3.org/1999/xlink">
]>
<svg  version="1.1" xmlns="&ns_svg;" xmlns:xlink="&ns_xlink;" xmlns:a="http://ns.adobe.com/AdobeSVGViewerExtensions/3.0/"
	 width="39" height="22" viewBox="-0.484 -0.574 39 22" enable-background="new -0.484 -0.574 39 22" xml:space="preserve">
<defs>
</defs>
<rect x="21.266" y="3.113" fill="#FFFFFF" stroke="#FFFFFF" width="12.063" height="14.625"/>
<path d="M12.356,1.192c-0.018-0.004-0.038-0.006-0.056-0.01l-0.023-0.003c-0.032-0.005-0.064-0.008-0.098-0.011
	c-0.022-0.003-0.045-0.004-0.067-0.005c-0.041-0.003-0.079-0.004-0.117-0.004c-0.017,0-0.028,0-0.045,0
	c-0.032,0.001-0.063,0.003-0.093,0.005c-0.017,0.001-0.034,0.002-0.051,0.004c-0.026,0.002-0.05,0.004-0.075,0.008l-0.02,0.002
	l-0.024,0.004L11.66,1.187c-0.012,0.001-0.024,0.003-0.035,0.006c-0.018,0.002-0.034,0.006-0.05,0.009
	c-0.1,0.022-0.193,0.049-0.277,0.082c-0.044,0.018-0.087,0.036-0.126,0.056c-0.035,0.017-0.066,0.034-0.098,0.052
	c-0.029,0.017-0.058,0.034-0.086,0.053c-0.016,0.011-0.032,0.021-0.048,0.032c-0.012,0.01-0.025,0.019-0.038,0.028
	c-0.026,0.021-0.052,0.043-0.077,0.064c-0.022,0.02-0.044,0.04-0.064,0.06c-0.018,0.017-0.036,0.035-0.052,0.055
	c-0.018,0.018-0.034,0.038-0.05,0.058c-0.019,0.021-0.034,0.043-0.05,0.065c-0.014,0.017-0.025,0.035-0.037,0.053
	c-0.008,0.012-0.015,0.023-0.022,0.036c-0.045,0.071-0.082,0.148-0.115,0.23c-0.039,0.102-0.067,0.213-0.083,0.329
	c-0.004,0.037-0.008,0.074-0.011,0.113c-0.002,0.029-0.003,0.059-0.003,0.089c0,0.023,0,0.045,0.001,0.067
	c0.002,0.023,0.005,0.045,0.007,0.068l0.002,0.016c0.003,0.027,0.008,0.054,0.012,0.079c0.003,0.011,0.005,0.02,0.007,0.031
	c0.004,0.021,0.01,0.042,0.014,0.064c0.008,0.027,0.016,0.053,0.025,0.08c0.011,0.032,0.023,0.063,0.035,0.094
	c0.02,0.048,0.043,0.095,0.066,0.139c0.015,0.025,0.029,0.05,0.044,0.075c0.012,0.019,0.024,0.037,0.036,0.055
	c0.017,0.025,0.034,0.047,0.051,0.069c0.017,0.023,0.037,0.044,0.055,0.065c0.022,0.025,0.044,0.05,0.066,0.071l0.011,0.012
	c0.019,0.017,0.038,0.037,0.061,0.056c0.015,0.012,0.031,0.026,0.049,0.04c0.015,0.012,0.033,0.026,0.05,0.038
	c0.022,0.016,0.043,0.031,0.067,0.046c0.027,0.015,0.053,0.032,0.08,0.048c0.056,0.031,0.117,0.061,0.185,0.089
	c0.025,0.01,0.052,0.019,0.079,0.028c0.026,0.01,0.054,0.018,0.082,0.026c0.049,0.013,0.1,0.026,0.153,0.037
	c0.043,0.008,0.089,0.015,0.135,0.02c0.045,0.006,0.093,0.011,0.142,0.013c0.025,0.002,0.049,0.002,0.073,0.003h0.035
	c0.088,0,0.17-0.004,0.246-0.01l0.015-0.001c0.03-0.002,0.059-0.006,0.087-0.01c0.044-0.004,0.085-0.011,0.124-0.018
	c0.025-0.004,0.049-0.01,0.072-0.014c0.037-0.008,0.072-0.017,0.104-0.025c0.025-0.006,0.048-0.013,0.071-0.021
	c0.027-0.007,0.052-0.016,0.078-0.025l0.024-0.008c0.012-0.004,0.028-0.01,0.047-0.017c0.025-0.01,0.056-0.021,0.09-0.038
	c0.022-0.009,0.044-0.019,0.068-0.029c0.019-0.01,0.041-0.021,0.064-0.03c0.008-0.005,0.018-0.01,0.028-0.013V3.285
	c-0.007,0.004-0.014,0.009-0.02,0.012l-0.037,0.022c-0.037,0.023-0.073,0.044-0.108,0.064c-0.039,0.02-0.079,0.04-0.117,0.059
	c-0.066,0.032-0.131,0.058-0.192,0.08c-0.118,0.042-0.226,0.068-0.321,0.086c-0.012,0.002-0.023,0.004-0.034,0.005
	c-0.027,0.004-0.052,0.008-0.076,0.01c-0.037,0.004-0.073,0.006-0.103,0.008c-0.022,0-0.04,0.002-0.058,0.002
	c-0.038,0-0.078-0.002-0.119-0.005c-0.047-0.003-0.093-0.009-0.143-0.016c-0.078-0.014-0.156-0.034-0.232-0.061
	c-0.012-0.004-0.023-0.009-0.035-0.014c-0.007-0.002-0.014-0.005-0.022-0.008c-0.012-0.006-0.025-0.011-0.037-0.017
	c-0.027-0.012-0.053-0.026-0.079-0.04c-0.012-0.008-0.024-0.016-0.038-0.023c-0.012-0.008-0.025-0.016-0.038-0.026
	c-0.015-0.01-0.031-0.022-0.046-0.033c-0.015-0.013-0.03-0.025-0.043-0.035l-0.018-0.017L11.155,3.33l-0.006-0.005l-0.007-0.006
	c-0.024-0.024-0.046-0.049-0.067-0.073c-0.01-0.013-0.021-0.028-0.032-0.041c-0.01-0.013-0.018-0.027-0.027-0.04
	c-0.009-0.013-0.017-0.026-0.024-0.039c-0.011-0.018-0.021-0.037-0.032-0.057c-0.006-0.015-0.014-0.032-0.02-0.048
	c-0.012-0.027-0.022-0.054-0.03-0.08c-0.007-0.02-0.012-0.041-0.018-0.061c-0.013-0.055-0.02-0.107-0.025-0.151
	c-0.002-0.017-0.002-0.033-0.004-0.048c-0.001-0.021-0.001-0.039-0.001-0.054V2.593c0.001-0.031,0.005-0.071,0.011-0.115
	c0.004-0.027,0.009-0.056,0.017-0.087c0.004-0.02,0.01-0.04,0.016-0.061c0.007-0.02,0.013-0.039,0.022-0.06
	c0.004-0.013,0.009-0.026,0.016-0.039c0.008-0.019,0.016-0.037,0.026-0.055c0.007-0.014,0.015-0.029,0.023-0.042
	c0.018-0.031,0.038-0.061,0.061-0.092c0.008-0.011,0.016-0.022,0.025-0.033c0.012-0.013,0.024-0.028,0.036-0.041
	c0.007-0.006,0.014-0.014,0.02-0.021c0.099-0.098,0.211-0.173,0.325-0.225c0.019-0.008,0.037-0.016,0.055-0.023
	c0.019-0.007,0.036-0.014,0.055-0.02c0.019-0.007,0.04-0.012,0.06-0.018c0.019-0.006,0.039-0.01,0.057-0.015
	c0.02-0.005,0.039-0.008,0.057-0.012c0.021-0.003,0.042-0.006,0.063-0.009s0.041-0.005,0.062-0.006
	c0.04-0.004,0.078-0.006,0.115-0.006c0.014,0,0.026,0,0.039,0.001c0.028,0,0.054,0.001,0.081,0.002
	c0.019,0.003,0.037,0.003,0.055,0.004c0.033,0.004,0.067,0.008,0.098,0.013c0.027,0.004,0.055,0.008,0.08,0.013
	c0.038,0.009,0.073,0.017,0.106,0.026c0.02,0.004,0.039,0.01,0.056,0.015c0.026,0.009,0.049,0.015,0.066,0.021
	c0.03,0.011,0.047,0.016,0.047,0.016c0.026,0.01,0.053,0.021,0.078,0.031c0.035,0.015,0.068,0.028,0.099,0.043
	c0.026,0.012,0.05,0.024,0.074,0.035c0.019,0.01,0.038,0.02,0.054,0.028c0.03,0.015,0.055,0.029,0.075,0.04l0.056,0.03V1.4
	c0,0-0.034-0.013-0.09-0.035c-0.026-0.009-0.056-0.021-0.091-0.032c-0.018-0.007-0.038-0.014-0.059-0.022
	c-0.017-0.005-0.034-0.011-0.052-0.016c-0.02-0.007-0.04-0.015-0.062-0.021c-0.016-0.004-0.032-0.01-0.049-0.015l-0.014-0.004
	c-0.016-0.004-0.032-0.008-0.047-0.013c-0.02-0.004-0.04-0.01-0.059-0.016c-0.013-0.002-0.026-0.004-0.039-0.008
	c-0.021-0.005-0.042-0.01-0.064-0.014S12.379,1.195,12.356,1.192 M9.703,0.64h4.211v3.963H9.703V0.64z"/>
<path d="M6.468,2.831v0.778h0.505c0,0,0.011-0.001,0.026-0.001c0.017,0,0.042-0.002,0.072-0.004
	c0.053-0.005,0.126-0.015,0.197-0.039c0.063-0.021,0.124-0.053,0.172-0.1c0.018-0.019,0.033-0.038,0.046-0.057
	c0.039-0.063,0.049-0.126,0.051-0.161C7.538,3.23,7.538,3.222,7.538,3.222s0-0.008,0-0.019c0-0.015-0.002-0.044-0.01-0.076
	C7.518,3.09,7.501,3.048,7.469,3.008c-0.007-0.007-0.013-0.014-0.02-0.021C7.435,2.973,7.42,2.959,7.404,2.947
	C7.376,2.927,7.344,2.909,7.31,2.895C7.264,2.874,7.214,2.86,7.157,2.849C7.13,2.844,7.098,2.839,7.068,2.837
	C7.048,2.834,7.03,2.834,7.01,2.832C6.992,2.831,6.974,2.831,6.956,2.831H6.468z"/>
<path d="M6.468,1.646v0.738h0.244c0,0,0.017,0,0.038,0c0.018-0.001,0.037-0.001,0.055-0.003c0.051-0.004,0.121-0.011,0.19-0.03
	c0.014-0.004,0.028-0.008,0.04-0.013C7.09,2.318,7.142,2.291,7.184,2.25c0.032-0.031,0.053-0.067,0.067-0.102
	c0.018-0.042,0.024-0.082,0.027-0.111c0.001-0.026,0.001-0.041,0.001-0.041s0-0.012,0-0.032C7.278,1.932,7.271,1.88,7.245,1.829
	C7.233,1.805,7.216,1.782,7.193,1.76c-0.027-0.027-0.06-0.049-0.096-0.064C7.028,1.665,6.948,1.653,6.883,1.649
	c-0.03-0.002-0.056-0.003-0.078-0.003H6.468z"/>
<path d="M5.956,1.195V4.05h1.075c0,0,0.524,0.013,0.813-0.275c0.235-0.236,0.219-0.509,0.219-0.509s0.016-0.284-0.202-0.502
	C7.675,2.579,7.438,2.528,7.438,2.528s0.107-0.049,0.19-0.132c0.038-0.038,0.175-0.162,0.175-0.463c0-0.302-0.201-0.477-0.201-0.477
	S7.381,1.195,6.883,1.195H5.956z M4.852,0.64h4.211v3.963H4.852V0.64z"/>
<path d="M1.616,2.831v0.778h0.506c0,0,0.01-0.001,0.026-0.001c0.017,0,0.042-0.002,0.071-0.004c0.055-0.005,0.127-0.015,0.197-0.039
	c0.064-0.021,0.125-0.053,0.173-0.1c0.018-0.019,0.033-0.038,0.045-0.057c0.039-0.063,0.049-0.126,0.051-0.161
	C2.687,3.23,2.687,3.222,2.687,3.222V3.203C2.685,3.188,2.684,3.159,2.676,3.127C2.667,3.09,2.649,3.048,2.617,3.008
	C2.612,3.001,2.605,2.994,2.598,2.987c-0.015-0.014-0.029-0.028-0.045-0.04c-0.029-0.021-0.06-0.038-0.094-0.052
	C2.413,2.874,2.362,2.86,2.306,2.849c-0.028-0.005-0.058-0.01-0.089-0.012C2.198,2.834,2.178,2.834,2.159,2.832
	C2.141,2.831,2.123,2.831,2.105,2.831H1.616z"/>
<path d="M1.616,1.646v0.738h0.245c0,0,0.017,0,0.038,0c0.017-0.001,0.037-0.001,0.055-0.003c0.05-0.004,0.121-0.011,0.19-0.03
	C2.158,2.347,2.17,2.343,2.185,2.338c0.054-0.02,0.106-0.047,0.147-0.088C2.364,2.219,2.385,2.183,2.4,2.148
	c0.017-0.042,0.023-0.082,0.026-0.111c0.002-0.026,0.002-0.041,0.002-0.041V1.964C2.425,1.932,2.419,1.88,2.394,1.829
	C2.382,1.805,2.364,1.782,2.343,1.76C2.314,1.733,2.281,1.711,2.245,1.696C2.176,1.665,2.097,1.653,2.03,1.649
	C2.002,1.647,1.975,1.646,1.954,1.646H1.616z"/>
<path d="M1.105,1.195V4.05h1.074c0,0,0.524,0.013,0.813-0.275c0.235-0.236,0.219-0.509,0.219-0.509s0.016-0.284-0.202-0.502
	C2.823,2.579,2.587,2.528,2.587,2.528s0.107-0.049,0.189-0.132c0.039-0.038,0.176-0.162,0.176-0.463
	c0-0.302-0.202-0.477-0.202-0.477S2.53,1.195,2.032,1.195H1.105z M0,0.64h4.211v3.963H0V0.64z"/>
<path d="M0,5.584V8.86h0.47V7.438h0.197c0.241,0,0.437,0.077,0.87,0.75L1.969,8.86h0.562C2.305,8.549,2.224,8.438,2.083,8.211
	c-0.249-0.407-0.431-0.71-0.729-0.906c0.35-0.141,0.548-0.424,0.548-0.803c0-0.567-0.413-0.918-1.076-0.918H0z M0.47,5.988h0.304
	c0.455,0,0.638,0.187,0.642,0.495c0.005,0.274-0.139,0.533-0.642,0.533H0.47V5.988z"/>
<path d="M4.242,5.565H3.911L2.504,8.859h0.48l0.414-0.964H4.79l0.437,0.964h0.48L4.242,5.565z M4.07,6.286l0.529,1.186H3.58
	L4.07,6.286z"/>
<path d="M6.098,8.859h1.277c1.081,0,1.738-0.796,1.738-1.637c0-0.773-0.532-1.638-1.742-1.638H6.098V8.859z M6.569,6.007h0.724
	c0.918,0,1.336,0.557,1.336,1.215c0,0.404-0.245,1.215-1.311,1.215H6.569V6.007z"/>
<line fill="none" stroke="#000000" stroke-width="0.47" stroke-miterlimit="10" x1="9.891" y1="8.86" x2="9.891" y2="5.584"/>
<path d="M10.669,7.222c0,0.889,0.678,1.68,1.748,1.68c1.11,0,1.773-0.797,1.773-1.68c0-0.912-0.682-1.681-1.763-1.681
	C11.366,5.541,10.669,6.314,10.669,7.222 M11.155,7.222c0-0.721,0.543-1.248,1.273-1.248c0.735,0,1.278,0.527,1.278,1.248
	c0,0.715-0.543,1.249-1.278,1.249C11.698,8.471,11.155,7.937,11.155,7.222"/>
<path fill="#E82B2E" d="M27.39,0c-5.733,0-10.381,4.65-10.381,10.386c0,5.737,4.648,10.388,10.381,10.388
	s10.381-4.649,10.381-10.388C37.771,4.65,33.124,0,27.39,0 M25.131,3.454c2.05-1.161,5.899-0.396,6.037,2.408
	c0.121,2.469-2.928,4.135-4.765,5.141c-0.05-0.05-0.403-0.401-0.479-0.475c1.646-1.244,3.486-3.465,2.674-5.671
	c-0.563-1.519-3.08-1.488-3.74-0.069c0.63-0.219,1.528-0.252,2.014,0.294c0.506,0.573,0.207,1.467-0.426,1.793
	c-0.986,0.508-2.722,0.074-2.803-1.211C23.618,4.695,24.293,3.871,25.131,3.454 M31.312,16.742c-1.908,1.473-5.595,1.76-7.569,0.322
	c-0.828-0.604-1.535-1.316-1.51-2.297c0.071-2.605,4.432-1.498,3.385,0.459c-0.431,0.688-1.47,0.686-2.146,0.43
	c1.17,1.701,4.337,1.66,5.674,0.17c0.671-0.748,0.75-1.742,0.667-2.721c-0.1-1.174-0.666-1.912-1.379-2.771
	c0.439-0.315,0.699-0.49,1.121-0.831C32.641,10.252,34.345,14.404,31.312,16.742 M32.426,7.794c-0.889,0-0.891-1.36,0-1.36
	C33.299,6.434,33.297,7.794,32.426,7.794 M32.426,5.492c-0.889,0-0.891-1.359,0-1.359C33.299,4.133,33.297,5.492,32.426,5.492"/>
</svg>
